<svg width="154" height="234" viewBox="0 0 154 234" fill="none" xmlns="http://www.w3.org/2000/svg">
<g filter="url(#filter0_d_280_44354)">
<path d="M80.6038 133.686C81.1248 136.264 81.5076 141.766 81.5554 147.716C81.6074 154.199 81.267 160.28 80.581 164.23C80.156 166.677 81.7953 169.006 84.2426 169.431C86.6898 169.856 89.0182 168.217 89.4432 165.769C90.238 161.193 90.6059 154.62 90.5499 147.644C90.4979 141.165 90.081 135.173 89.4204 131.904C88.9283 129.47 86.5557 127.895 84.1211 128.387C81.6865 128.879 80.1117 131.252 80.6038 133.686Z" fill="#EBBAAA"/>
<path d="M62.1178 131.913C61.2055 137.086 61.2788 143.518 62.0901 150.91C62.6636 156.135 63.5364 161.284 64.5796 166.318C65.0836 168.75 67.4638 170.313 69.896 169.809C72.3282 169.305 73.8913 166.925 73.3873 164.492C72.3973 159.715 71.5694 154.831 71.0313 149.928C70.3049 143.311 70.2404 137.646 70.976 133.475C71.4073 131.029 69.774 128.696 67.3279 128.265C64.8818 127.833 62.5492 129.467 62.1178 131.913Z" fill="#EBBAAA"/>
<path d="M58.6077 124.085L77.4769 127.35L75.1029 146.03C75.1029 146.03 71.568 148.639 65.1846 148.44C58.8011 148.242 55.7061 144.282 55.7061 144.282L58.6077 124.085Z" fill="#27292D"/>
<path d="M75.2433 129.233L93.6199 124.283L96.7149 144.876C96.7149 144.876 95.1674 146.856 87.6234 147.846C80.0793 148.836 77.3712 146.461 77.3712 146.461L75.2433 129.233Z" fill="#27292D"/>
<path d="M74.8522 170.78L74.3864 165.172L73.0637 160.441C73.0637 160.441 71.9575 160.441 71.619 162.238C70.2166 163.674 65.0421 164.317 64.5101 161.093C63.1077 160.747 62.656 161.093 62.656 161.093L57.3308 166.214L53.3433 168.022L52.0286 169.573L51.8412 172.189L74.8522 170.78Z" fill="#35393F"/>
<mask id="mask0_280_44354" style="mask-type:luminance" maskUnits="userSpaceOnUse" x="51" y="160" width="24" height="13">
<path d="M74.8522 170.78L74.3864 165.172L73.0637 160.441C73.0637 160.441 71.9575 160.441 71.619 162.238C70.2166 163.674 65.0421 164.317 64.5101 161.093C63.1077 160.747 62.656 161.093 62.656 161.093L57.3308 166.214L53.3433 168.022L52.0286 169.573L51.8412 172.189L74.8522 170.78Z" fill="white"/>
</mask>
<g mask="url(#mask0_280_44354)">
<path d="M73.2242 170.903H75.1586V165.656L72.9841 159.254L71.1525 159.876L73.2242 165.975V170.903Z" fill="#F37694"/>
</g>
<path d="M59.7651 164.044C59.4574 164.003 59.2606 164.363 59.4618 164.599L60.0647 165.308L58.8881 164.994C58.562 164.907 58.3233 165.298 58.5501 165.548L59.1763 166.239L57.6882 166.025C57.368 165.98 57.172 166.366 57.3981 166.597L58.5587 167.785C58.6894 167.919 58.9037 167.921 59.0374 167.79C59.1711 167.66 59.1736 167.445 59.0429 167.312L58.579 166.837L60.0102 167.042C60.3241 167.087 60.5219 166.714 60.3089 166.479L59.8234 165.944L60.938 166.242C61.2587 166.327 61.4983 165.948 61.2832 165.695L60.5504 164.834L62.2372 165.062C62.572 165.108 62.7594 164.689 62.5024 164.469L61.0516 163.231C60.9094 163.11 60.6957 163.127 60.5744 163.269C60.453 163.411 60.4699 163.625 60.6122 163.746L61.1869 164.237L59.7651 164.044Z" fill="#66696D"/>
<path d="M63.6878 159.57C63.1849 159.451 61.8019 161.5 61.1731 162.54C61.1731 163.531 62.9138 163.679 64.2195 163.382C64.5099 162.54 65.0902 161.54 65.0902 160.703C65.0902 160.278 64.3164 159.719 63.6878 159.57Z" fill="#495059"/>
<mask id="mask1_280_44354" style="mask-type:luminance" maskUnits="userSpaceOnUse" x="61" y="159" width="5" height="5">
<path d="M63.6878 159.57C63.1849 159.451 61.8019 161.5 61.1731 162.54C61.1731 163.531 62.9138 163.679 64.2195 163.382C64.5099 162.54 65.0902 161.54 65.0902 160.703C65.0902 160.278 64.3164 159.719 63.6878 159.57Z" fill="white"/>
</mask>
<g mask="url(#mask1_280_44354)">
<path d="M64.5266 159.499C64.3394 161.682 63.8258 163.107 63.0374 163.783L63.7297 164.59C64.7762 163.694 65.3779 162.024 65.5867 159.59L64.5266 159.499Z" fill="#F37694"/>
</g>
<path d="M75.3111 170.608C75.0091 170.017 74.393 169.646 73.7364 169.662L64.9678 169.863C64.0453 169.884 63.3371 170.648 63.386 171.57C63.4349 172.491 64.2224 173.221 65.145 173.2L73.9136 172.998C75.1266 172.97 75.8687 171.701 75.3111 170.608Z" fill="#D7E3EE"/>
<rect width="11.5206" height="1.98697" rx="0.993485" transform="matrix(-0.998597 0.0529545 0.0529545 0.998597 66.8893 170.278)" fill="#D7E3EE"/>
<path d="M61.4816 171.898C61.4429 171.168 60.8191 170.59 60.0886 170.607L52.3953 170.784C51.6278 170.801 51.1174 171.553 51.3788 172.283C51.5438 172.742 51.9782 173.057 52.4633 173.069L60.1673 173.25C60.9231 173.267 61.5216 172.652 61.4816 171.898Z" fill="#D7E3EE"/>
<rect width="5.00552" height="1.78204" rx="0.891018" transform="matrix(-0.999419 0.0340773 0.0340773 0.999419 74.5392 170.424)" fill="#35393F"/>
<path d="M79.0238 170.78L79.4896 165.172L80.8124 160.441C80.8124 160.441 81.9185 160.441 82.2571 162.238C83.6595 163.674 88.8339 164.317 89.3659 161.093C90.7683 160.747 91.22 161.093 91.22 161.093L96.5453 166.214L100.533 168.022L101.847 169.573L102.035 172.189L79.0238 170.78Z" fill="#35393F"/>
<mask id="mask2_280_44354" style="mask-type:luminance" maskUnits="userSpaceOnUse" x="79" y="160" width="24" height="13">
<path d="M79.0238 170.78L79.4896 165.172L80.8124 160.441C80.8124 160.441 81.9185 160.441 82.2571 162.238C83.6595 163.674 88.8339 164.317 89.3659 161.093C90.7683 160.747 91.22 161.093 91.22 161.093L96.5453 166.214L100.533 168.022L101.847 169.573L102.035 172.189L79.0238 170.78Z" fill="white"/>
</mask>
<g mask="url(#mask2_280_44354)">
<path d="M80.6519 170.903H78.7175V165.656L80.892 159.254L82.7236 159.876L80.6519 165.975V170.903Z" fill="#F37694"/>
</g>
<path d="M94.1111 164.044C94.4188 164.003 94.6156 164.363 94.4144 164.599L93.8114 165.308L94.988 164.994C95.3142 164.907 95.5529 165.298 95.3261 165.548L94.6999 166.239L96.188 166.025C96.5081 165.98 96.7041 166.366 96.4781 166.597L95.3175 167.785C95.1868 167.919 94.9725 167.921 94.8388 167.79C94.7051 167.66 94.7026 167.445 94.8332 167.312L95.2971 166.837L93.866 167.042C93.5521 167.087 93.3542 166.714 93.5673 166.479L94.0528 165.944L92.9381 166.242C92.6174 166.327 92.3779 165.948 92.593 165.695L93.3258 164.834L91.6389 165.062C91.3042 165.108 91.1168 164.689 91.3737 164.469L92.8245 163.231C92.9667 163.11 93.1804 163.127 93.3018 163.269C93.4231 163.411 93.4062 163.625 93.264 163.746L92.6893 164.237L94.1111 164.044Z" fill="#66696D"/>
<path d="M90.1881 159.57C90.6909 159.451 92.074 161.5 92.7028 162.54C92.7028 163.531 90.962 163.679 89.6563 163.382C89.366 162.54 88.7856 161.54 88.7856 160.703C88.7856 160.278 89.5595 159.719 90.1881 159.57Z" fill="#495059"/>
<mask id="mask3_280_44354" style="mask-type:luminance" maskUnits="userSpaceOnUse" x="88" y="159" width="5" height="5">
<path d="M90.1881 159.57C90.6909 159.451 92.074 161.5 92.7028 162.54C92.7028 163.531 90.962 163.679 89.6563 163.382C89.366 162.54 88.7856 161.54 88.7856 160.703C88.7856 160.278 89.5595 159.719 90.1881 159.57Z" fill="white"/>
</mask>
<g mask="url(#mask3_280_44354)">
<path d="M89.3495 159.499C89.5366 161.682 90.0503 163.107 90.8387 163.783L90.1464 164.59C89.0999 163.694 88.4982 162.024 88.2894 159.59L89.3495 159.499Z" fill="#F37694"/>
</g>
<path d="M78.5651 170.608C78.8671 170.017 79.4832 169.646 80.1398 169.662L88.9083 169.863C89.8308 169.884 90.5391 170.648 90.4902 171.57C90.4412 172.491 89.6537 173.221 88.7311 173.2L79.9626 172.998C78.7495 172.97 78.0074 171.701 78.5651 170.608Z" fill="#D7E3EE"/>
<rect x="86.9868" y="170.278" width="11.5206" height="1.98697" rx="0.993485" transform="rotate(3.03549 86.9868 170.278)" fill="#D7E3EE"/>
<path d="M92.3949 171.898C92.4336 171.168 93.0574 170.59 93.7879 170.607L101.481 170.784C102.249 170.801 102.759 171.553 102.498 172.283C102.333 172.742 101.898 173.057 101.413 173.069L93.7093 173.25C92.9534 173.267 92.3549 172.652 92.3949 171.898Z" fill="#D7E3EE"/>
<rect x="79.337" y="170.424" width="5.00552" height="1.78204" rx="0.891018" transform="rotate(1.95286 79.337 170.424)" fill="#35393F"/>
<path d="M57.5309 90.3446C56.0942 92.5938 53.8986 97.6211 52.465 102.399C51.5256 105.53 50.8799 108.584 50.6038 111.479C50.2672 115.008 50.4825 118.24 51.38 121.119C52.1749 123.668 54.8864 125.091 57.4361 124.296C59.9859 123.501 61.4084 120.79 60.6135 118.24C59.6717 115.219 60.117 110.551 61.7288 105.179C62.3827 102.999 63.1945 100.819 64.0599 98.8374C64.7238 97.3173 65.3734 96.0341 65.6819 95.5511C67.1196 93.3003 66.4605 90.3101 64.2096 88.8724C61.9588 87.4347 58.9687 88.0938 57.5309 90.3446Z" fill="#EBBAAA"/>
<path d="M87.127 95.2543C87.1564 95.3002 87.2093 95.3921 87.277 95.5192C87.3651 95.6851 87.4653 95.8866 87.5733 96.1174C87.8232 96.6509 88.0955 97.2982 88.3707 98.0215C89.028 99.749 89.6413 101.743 90.1334 103.841C91.3759 109.139 91.7173 114.446 90.8878 119.193C90.4281 121.824 92.1883 124.33 94.8192 124.79C97.4502 125.249 99.9557 123.489 100.415 120.858C101.493 114.693 101.069 108.111 99.5497 101.633C98.4217 96.8236 96.6768 92.2376 95.278 90.0477C93.8402 87.7969 90.8501 87.1378 88.5993 88.5755C86.3484 90.0133 85.6893 93.0034 87.127 95.2543Z" fill="#EBBAAA"/>
<path d="M62.2299 89.4191C62.7274 86.522 65.2223 84.4068 68.162 84.38L77.2817 84.2966L85.6811 84.8543C88.5157 85.0425 90.8478 87.163 91.2813 89.9718C92.2751 96.4118 93.9573 107.824 94.4906 114.58C95.2643 124.382 95.868 126.405 92.5905 127.843C89.3132 129.282 63.8307 130.619 59.5127 126.849C55.1948 123.079 57.4128 117.756 57.9308 114.58C58.3076 112.271 60.8634 97.3749 62.2299 89.4191Z" fill="#3E4043"/>
<path d="M60.9292 107.056L50 102.304L55.0207 92.9476C56.6503 89.9108 59.3012 87.5483 62.5047 86.2776L65.2816 85.176L60.9292 107.056Z" fill="#3E4043"/>
<path d="M91.5891 107.65L103.389 103.393L97.6013 92.853C95.9658 89.8746 93.343 87.5598 90.1846 86.307L87.3335 85.176L91.5891 107.65Z" fill="#3E4043"/>
<path d="M76.8395 94.7794C80.819 94.7794 84.045 91.5436 84.045 87.5521C84.045 83.5605 80.819 80.3247 76.8395 80.3247C72.86 80.3247 69.6339 83.5605 69.6339 87.5521C69.6339 91.5436 72.86 94.7794 76.8395 94.7794Z" fill="#242527"/>
<rect x="71.7618" y="81.3147" width="9.76861" height="11.3856" rx="4.88431" fill="#EBBAAA"/>
<path d="M71.9315 100.751C71.0273 102.696 69.6457 106.597 69.6064 108.911H83.8155C83.4812 106.698 82.6529 102.828 81.4903 100.751C79.0337 99.1262 72.5627 99.3939 71.9315 100.751Z" fill="#FD90AA"/>
<path fill-rule="evenodd" clip-rule="evenodd" d="M76.7116 101.882L78.021 100.781L79.0186 101.967L77.9159 102.894L79.019 103.822L78.0214 105.008L76.7116 103.907L75.4018 105.008L74.4042 103.822L75.5074 102.894L74.4046 101.967L75.4022 100.781L76.7116 101.882Z" fill="white"/>
<path d="M67.5443 102.779C67.6704 103.854 67.9501 105.049 68.3353 105.944C68.5887 106.533 68.8857 106.996 69.2486 107.313C69.7346 107.737 70.3292 107.879 70.9407 107.664C71.5288 107.456 71.9233 106.98 72.1405 106.328C72.3076 105.826 72.3729 105.217 72.3558 104.514C72.329 103.412 72.0933 102.086 71.7744 100.979C71.6657 100.602 71.272 100.384 70.895 100.493C70.518 100.602 70.3004 100.995 70.409 101.372C71.0742 103.681 71.1327 106.089 70.4677 106.324C70.2559 106.398 69.9707 106.15 69.6404 105.382C69.3167 104.63 69.0669 103.563 68.9555 102.613C68.9098 102.224 68.5568 101.945 68.1671 101.991C67.7774 102.036 67.4986 102.389 67.5443 102.779Z" fill="#FEC899"/>
<path d="M84.6348 102.746C84.5234 103.695 84.2736 104.762 83.9499 105.514C83.6196 106.282 83.3344 106.531 83.1226 106.456C82.4576 106.221 82.5161 103.814 83.1813 101.504C83.2899 101.127 83.0723 100.734 82.6953 100.625C82.3182 100.516 81.9245 100.734 81.8159 101.111C81.497 102.218 81.2613 103.544 81.2345 104.646C81.2174 105.349 81.2827 105.958 81.4497 106.46C81.667 107.112 82.0615 107.588 82.6496 107.796C83.2611 108.012 83.8557 107.869 84.3417 107.445C84.7046 107.128 85.0016 106.665 85.255 106.076C85.6402 105.182 85.9199 103.986 86.046 102.911C86.0917 102.521 85.8129 102.169 85.4232 102.123C85.0335 102.077 84.6805 102.356 84.6348 102.746Z" fill="#FEC899"/>
<path d="M67.5329 108.161L66.8291 113.01H86.2696L85.6786 108.608C84.4373 107.101 81.2319 105.87 76.4524 105.87C71.544 105.87 68.6757 107.397 67.5329 108.161Z" fill="#F37694"/>
<path d="M76.5816 116.58C81.9321 116.58 86.2696 114.922 86.2696 112.878C86.2696 110.833 81.9321 109.175 76.5816 109.175C71.2311 109.175 66.8937 110.833 66.8937 112.878C66.8937 114.922 71.2311 116.58 76.5816 116.58Z" fill="#D23C61"/>
<path d="M84.0736 113.55C84.0736 117.779 80.7482 121.208 76.6462 121.208C72.5441 121.208 69.2188 117.779 69.2188 113.55C71.1308 108.867 82.7499 109.396 84.0736 113.55Z" fill="#FEC899"/>
<path d="M73.3522 115.233C74.1727 115.233 74.8377 114.553 74.8377 113.713C74.8377 112.873 74.1727 112.192 73.3522 112.192C72.5318 112.192 71.8668 112.873 71.8668 113.713C71.8668 114.553 72.5318 115.233 73.3522 115.233Z" fill="#2C3139"/>
<path d="M79.8109 115.233C80.6313 115.233 81.2964 114.553 81.2964 113.713C81.2964 112.873 80.6313 112.192 79.8109 112.192C78.9905 112.192 78.3254 112.873 78.3254 113.713C78.3254 114.553 78.9905 115.233 79.8109 115.233Z" fill="#2C3139"/>
<path fill-rule="evenodd" clip-rule="evenodd" d="M74.9673 115.762C74.9673 115.548 74.7938 115.375 74.5798 115.375C74.3658 115.375 74.1923 115.548 74.1923 115.762M74.1923 115.762H74.9673C74.9673 116.179 75.2654 116.405 75.5937 116.416C75.7571 116.421 75.9047 116.37 76.0078 116.276C76.1051 116.187 76.1944 116.031 76.1944 115.762H76.9693C76.9693 115.762 76.9693 115.762 76.9693 115.762H76.9694C76.9694 116.22 76.8086 116.594 76.5305 116.848C76.2582 117.096 75.9052 117.202 75.5681 117.191C74.8953 117.168 74.1923 116.667 74.1923 115.762ZM76.1944 115.762H76.1943C76.1943 115.548 76.3678 115.375 76.5818 115.375C76.7959 115.375 76.9693 115.548 76.9693 115.762H76.1944C76.1944 115.762 76.1944 115.762 76.1944 115.762ZM74.9673 115.762H74.1923H74.9673Z" fill="#CB7646"/>
<path fill-rule="evenodd" clip-rule="evenodd" d="M79.0359 115.762C79.0359 115.548 78.8624 115.375 78.6484 115.375C78.4343 115.375 78.2608 115.548 78.2608 115.762H78.261C78.261 116.031 78.1716 116.187 78.0743 116.276C77.9712 116.37 77.8236 116.422 77.6603 116.416C77.3319 116.405 77.0339 116.18 77.0339 115.762H77.0339C77.0338 115.548 76.8603 115.375 76.6463 115.375C76.4323 115.375 76.2588 115.548 76.2588 115.762H76.2588C76.2589 116.667 76.9619 117.169 77.6346 117.191C77.9718 117.202 78.3248 117.097 78.5971 116.848C78.8752 116.594 79.0361 116.22 79.0361 115.762H79.0359ZM76.2588 115.762H77.0339C77.0339 115.762 77.0339 115.762 77.0339 115.762H76.2588C76.2588 115.762 76.2588 115.762 76.2588 115.762ZM79.0359 115.762C79.0359 115.762 79.0359 115.762 79.0359 115.762H78.261C78.261 115.762 78.261 115.762 78.261 115.762H79.0359Z" fill="#CB7646"/>
<path d="M61.9121 74.4924C65.0139 74.4924 67.5285 72.0509 67.5285 69.0392C67.5285 66.0274 65.0139 63.5859 61.9121 63.5859C58.8102 63.5859 56.2957 66.0274 56.2957 69.0392C56.2957 72.0509 58.8102 74.4924 61.9121 74.4924Z" fill="#EBBAAA"/>
<path d="M91.1212 74.915C94.223 74.915 96.7376 72.4735 96.7376 69.4618C96.7376 66.45 94.223 64.0085 91.1212 64.0085C88.0193 64.0085 85.5048 66.45 85.5048 69.4618C85.5048 72.4735 88.0193 74.915 91.1212 74.915Z" fill="#EBBAAA"/>
<path d="M59.9134 57.9199C60.169 53.3551 63.5051 49.5531 67.9981 48.7062L73.9299 47.5881C76.2333 47.154 78.6 47.1829 80.892 47.6733L92.4593 50.1481L93.9101 65.0483L94.2451 70.1641C94.9064 80.2669 86.8903 88.825 76.7657 88.825C66.7388 88.825 58.758 80.424 59.2721 70.4101L59.9134 57.9199Z" fill="#F4D4CA"/>
<path d="M64.6045 80.0476C64.0206 77.6569 62.2832 78.0015 60.9291 78.0674C61.8963 81.6316 67.506 88.7599 76.5976 88.7599C87.0432 88.7599 91.6212 81.6316 92.8464 78.0674C91.4923 77.2754 90.3317 78.0674 89.3645 80.0476C87.6863 83.4832 81.4336 85.6908 78.8221 83.2157C77.6137 82.0703 75.3938 82.2931 74.0829 83.2157C69.4404 86.4828 65.1848 82.4236 64.6045 80.0476Z" fill="#272727"/>
<path d="M71.8196 78.3578C74.2938 80.151 77.8624 80.1804 81.3274 78.417C81.6844 78.2352 81.8265 77.7985 81.6448 77.4415C81.4631 77.0844 81.0264 76.9423 80.6693 77.124C77.6595 78.6558 74.669 78.6312 72.671 77.1831C72.3466 76.948 71.893 77.0204 71.6579 77.3448C71.4228 77.6692 71.4952 78.1227 71.8196 78.3578Z" fill="#C99584"/>
<path d="M79.886 75.8894C79.886 77.7371 81.143 79.0416 83.2229 79.0416C83.5968 79.0416 83.8999 78.7385 83.8999 78.3646C83.8999 77.9907 83.5968 77.6875 83.2229 77.6875C81.9023 77.6875 81.2401 77.0003 81.2401 75.8894C81.2401 75.5155 80.937 75.2124 80.5631 75.2124C80.1892 75.2124 79.886 75.5155 79.886 75.8894Z" fill="#C99584"/>
<path d="M71.851 64.323C72.4894 64.3806 73.0537 63.9099 73.1113 63.2715C73.169 62.6331 72.6982 62.0688 72.0598 62.0111L66.8813 61.5435L65.0521 62.1677C64.4454 62.3747 64.1214 63.0343 64.3284 63.6409C64.5354 64.2476 65.195 64.5715 65.8017 64.3645L67.164 63.8997L71.851 64.323Z" fill="#272727"/>
<path d="M86.8528 64.4973C87.4234 64.7893 88.1227 64.5635 88.4148 63.9929C88.7068 63.4223 88.481 62.723 87.9104 62.4309L86.1668 61.5386L80.5958 61.9813C79.9569 62.0321 79.48 62.5912 79.5308 63.2302C79.5816 63.8692 80.1407 64.346 80.7797 64.2953L85.6949 63.9047L86.8528 64.4973Z" fill="#272727"/>
<path d="M75.2243 68.8091C75.2008 68.8595 75.0716 69.1306 75.0319 69.2152C74.9394 69.4123 74.8599 69.5882 74.7833 69.7682C74.5528 70.31 74.3815 70.8133 74.2779 71.3035C73.8258 73.4429 74.8345 74.9295 77.4773 74.9295V73.2852C76.6068 73.2852 76.1493 73.1013 75.9603 72.8227C75.8028 72.5906 75.7706 72.1922 75.8866 71.6435C75.9651 71.2721 76.104 70.8638 76.2963 70.4119C76.3641 70.2525 76.4357 70.0942 76.5203 69.9138C76.5571 69.8354 76.6871 69.5625 76.714 69.5051L75.2243 68.8091Z" fill="#EBBAAA"/>
<path d="M67.8052 69.6245C68.9515 69.6245 69.5221 69.6706 70.1726 69.8704C70.7854 70.0585 71.4347 69.7144 71.6228 69.1016C71.811 68.4888 71.4668 67.8396 70.8541 67.6514C69.9156 67.3632 69.1737 67.3032 67.8052 67.3032C67.1642 67.3032 66.6446 67.8229 66.6446 68.4638C66.6446 69.1048 67.1642 69.6245 67.8052 69.6245Z" fill="black"/>
<path d="M85.0121 67.2043C83.6436 67.2043 82.9017 67.2643 81.9632 67.5525C81.3505 67.7407 81.0063 68.39 81.1945 69.0027C81.3826 69.6155 82.0319 69.9597 82.6447 69.7715C83.2952 69.5717 83.8658 69.5256 85.0121 69.5256C85.6531 69.5256 86.1727 69.006 86.1727 68.365C86.1727 67.724 85.6531 67.2043 85.0121 67.2043Z" fill="black"/>
<path d="M75.1792 49.7025C67.809 49.7025 61.5437 51.6722 61.1529 57.1705C60.571 65.3614 59.1793 66.0203 58.1243 62.2218C57.9635 61.6429 57.8571 56.3915 57.8341 55.7912C58.2517 44.1206 70.5839 41.3022 75.1792 41.3022C78.9455 44.4394 82.5503 49.7025 75.1792 49.7025Z" fill="#272727"/>
<path d="M58.8291 57.1535C58.8036 56.3548 59.3015 55.6907 59.9247 55.6907C60.5714 55.6907 60.7968 59.4712 60.7357 60.2958L60.4939 71.1755C60.1415 71.5864 59.8138 71.6099 59.6315 71.6099C59.441 71.6099 59.2852 71.4181 59.2771 71.1755L58.8291 57.1535Z" fill="#272727"/>
<path d="M94.7322 57.5733C94.3735 55.9891 93.9011 56.3837 93.278 56.3837C92.6313 56.3837 92.1253 57.0642 92.1864 57.8519L93.2189 71.196C93.2362 71.4192 93.3889 71.5886 93.5712 71.5886C93.7617 71.5886 94.3655 71.4279 94.3736 71.196L94.7323 62.7215L94.7322 57.5733Z" fill="#272727"/>
<path d="M79.5701 49.9994C87.1647 49.9994 90.8633 53.1115 91.1764 58.7118C91.9529 63.1039 94.2004 69.2063 95.2386 56.5337C94.2714 43.267 83.1288 41.98 78.3935 41.98C74.5125 45.1171 71.9746 49.9994 79.5701 49.9994Z" fill="#272727"/>
<path d="M64.6005 44.9676L63.2504 48.0246L76.2861 47.133L90.7185 50.8906V49.1073L89.6943 48.5341V47.133H88.3907V44.9676H86.7147L85.8826 43.6137L84.8524 43.3117L83.9678 41.6559L82.4316 42.1654L81.966 41.1464H80.3831L79.5475 40.4455L78.2415 41.1464L77.6828 40L76.7517 41.1464L75.8205 40L74.0515 41.1464L72.8255 40.4455L71.9067 41.6559L70.8856 41.1464L69.9544 42.1654L69.582 41.1464L68.4248 42.8216L67.4093 42.5246L65.6247 45.286L64.6005 44.9676Z" fill="#272727"/>
<path d="M69.4404 54.3014C69.4404 54.3014 67.9896 53.2134 67.9896 50.3954C67.9896 47.5774 66.0552 46.5342 66.0552 46.5342L85.9793 47.7222C85.9793 47.7222 85.931 47.7269 85.2056 50.8409C84.4802 53.9549 78 54.7516 78 54.7516L77.3714 53.811L75.927 54.3014L74.4325 53.2134L72.5396 54.3014L71.9417 53.2134L69.4404 54.3014Z" fill="#272727"/>
</g>
<defs>
<filter id="filter0_d_280_44354" x="0" y="0" width="153.389" height="233.25" filterUnits="userSpaceOnUse" color-interpolation-filters="sRGB">
<feFlood flood-opacity="0" result="BackgroundImageFix"/>
<feColorMatrix in="SourceAlpha" type="matrix" values="0 0 0 0 0 0 0 0 0 0 0 0 0 0 0 0 0 0 127 0" result="hardAlpha"/>
<feOffset dy="10"/>
<feGaussianBlur stdDeviation="25"/>
<feComposite in2="hardAlpha" operator="out"/>
<feColorMatrix type="matrix" values="0 0 0 0 0 0 0 0 0 0 0 0 0 0 0 0 0 0 0.3 0"/>
<feBlend mode="normal" in2="BackgroundImageFix" result="effect1_dropShadow_280_44354"/>
<feBlend mode="normal" in="SourceGraphic" in2="effect1_dropShadow_280_44354" result="shape"/>
</filter>
</defs>
</svg>
