<svg width="154" height="234" viewBox="0 0 154 234" fill="none" xmlns="http://www.w3.org/2000/svg">
<g filter="url(#filter0_d_280_44518)">
<path d="M84.5178 148.796C86.2369 148.796 87.6337 150.176 87.6615 151.888L87.6619 151.94V168.447C87.6619 170.184 86.2543 171.592 84.5178 171.592C82.7987 171.592 81.4019 170.212 81.3741 168.499L81.3737 168.447V151.94C81.3737 150.204 82.7814 148.796 84.5178 148.796Z" fill="#9EA4AC"/>
<path d="M70.5141 148.913C72.223 148.726 73.7615 149.946 73.9751 151.645L73.9812 151.697L75.6249 166.738C75.8136 168.464 74.5672 170.016 72.841 170.205C71.1321 170.392 69.5936 169.172 69.38 167.472L69.3739 167.421L67.7302 152.38C67.5416 150.654 68.788 149.102 70.5141 148.913Z" fill="#9EA4AC"/>
<path d="M77.6403 136.329C82.8225 136.329 87.0234 134.042 87.0234 131.22C87.0234 128.399 82.8225 126.111 77.6403 126.111C72.4581 126.111 68.2571 128.399 68.2571 131.22C68.2571 134.042 72.4581 136.329 77.6403 136.329Z" fill="#2A2D34"/>
<path d="M63.6566 125.42H76.9207L76.4294 160.771L75.6435 163.542L68.1271 163.149L66.9859 160.133L63.6566 125.42Z" fill="#2A2D34"/>
<path d="M76.7943 126.011H90.1035L89.5953 160.005L88.5145 162.855L80.8508 164.173L80.1373 160.791L76.7943 126.011Z" fill="#2A2D34"/>
<path d="M67.3409 161.282H75.8398L76.331 162.067L75.8398 163.64L73.8747 164.277H68.0778L67.7339 163.64L67.9304 162.754L67.1444 162.558L67.3409 161.282Z" fill="#474D5C"/>
<path d="M80.3472 161.924L89.3002 161.428L88.5633 163L88.7107 163.835L86.5982 164.13H84.3385L80.5556 164.54L80.1136 163.638L80.3472 161.924Z" fill="#474D5C"/>
<path d="M58.6047 173.765C58.5851 171.511 58.8923 170.139 60.8524 169.218C62.8125 168.296 64.6588 166.525 68.0499 165.006C68.0499 165.006 68.4962 164.922 69.2228 165.315C69.8429 165.65 70.6393 166.473 71.8393 166.463C73.1424 166.451 74.3037 166.175 75.0251 165.796C75.3368 164.942 76.0282 164.937 76.0282 164.937C76.0282 164.937 77.0019 166.79 77.0182 168.651C77.0344 170.512 77.0327 173.605 77.0327 173.605L58.6047 173.765Z" fill="#363636"/>
<path d="M67.3424 165.143C67.4766 165.083 67.6338 165.144 67.6935 165.278C67.7696 165.449 67.8246 165.637 67.8621 165.842L67.8745 165.913C67.919 166.182 67.9292 166.422 67.9292 166.821C67.9292 167.008 67.7428 167.135 67.571 167.071L67.5559 167.065L66.2601 166.493L66.5367 167.496C66.5916 167.695 66.4092 167.876 66.2133 167.824L66.1986 167.82L64.8973 167.4L64.8973 168.577C64.8973 168.774 64.693 168.9 64.5187 168.818L64.5046 168.811L63.6207 168.332L63.6207 169.215C63.6207 169.357 63.51 169.473 63.3704 169.481L63.3548 169.481C63.2132 169.481 63.0974 169.37 63.0893 169.231L63.0888 169.215V167.885C63.0888 167.689 63.2931 167.562 63.4675 167.644L63.4815 167.651L64.3654 168.131L64.3654 167.034C64.3654 166.859 64.5308 166.734 64.6975 166.777L64.7131 166.781L65.8927 167.162L65.5983 166.095C65.54 165.883 65.7471 165.699 65.948 165.775L65.962 165.78L67.3904 166.41L67.3888 166.376C67.3812 166.227 67.3676 166.102 67.3444 165.968L67.3389 165.937C67.3085 165.772 67.2653 165.624 67.2075 165.494C67.1478 165.36 67.2082 165.203 67.3424 165.143Z" fill="white"/>
<path d="M76.4398 165.917C76.0612 166.431 74.6963 166.739 74.1827 166.814C73.6692 166.89 73.1189 166.823 73.3392 167.672C73.4948 168.273 74.9913 168.031 75.5763 168.025C76.0521 168.021 76.7192 169.459 76.9676 168.97C76.9676 167.3 76.6525 166.396 76.4398 165.917Z" fill="#141413"/>
<path d="M59.3462 169.391C59.9476 169.172 60.5845 169.008 61.8055 168.73L61.2867 170.225L61.3015 171.927L57.826 171.957C57.6842 171.958 57.4308 171.769 57.5517 171.002C57.7029 170.044 58.4917 169.7 59.3462 169.391Z" fill="#363636"/>
<path d="M65.096 169.084L66.7151 172.171L65.2078 172.961L63.5887 169.875L65.096 169.084Z" fill="white"/>
<path d="M67.327 167.917L69.2672 171.624L67.7591 172.414L65.8189 168.706L67.327 167.917Z" fill="white"/>
<path d="M69.5141 166.633L72.1967 171.858L70.6825 172.636L67.9999 167.41L69.5141 166.633Z" fill="white"/>
<path d="M77.0911 173.314L76.9902 171.524L61.4067 171.766L57.5211 171.481L57.4024 172.854C57.3614 173.328 57.717 173.744 58.1916 173.777L61.4262 174L76.6729 173.764C76.9146 173.76 77.1047 173.555 77.0911 173.314Z" fill="#DBDBDB"/>
<path d="M98.1664 173.765C98.1861 171.511 97.8789 170.139 95.9188 169.218C93.9587 168.296 92.1124 166.525 88.7213 165.006C88.7213 165.006 88.275 164.922 87.5483 165.315C86.9283 165.65 86.1319 166.473 84.9319 166.463C83.6288 166.451 82.4676 166.175 81.7461 165.796C81.4344 164.942 80.743 164.937 80.743 164.937C80.743 164.937 79.7693 166.79 79.7531 168.651C79.7368 170.512 79.7385 173.605 79.7385 173.605L98.1664 173.765Z" fill="#363636"/>
<path d="M89.0776 165.278C89.1373 165.144 89.2945 165.083 89.4287 165.143C89.5629 165.203 89.6232 165.36 89.5635 165.494C89.5058 165.624 89.4625 165.772 89.4321 165.937C89.4056 166.082 89.3904 166.216 89.3823 166.376L89.3805 166.41L90.8089 165.78C91.0094 165.692 91.2223 165.87 91.1763 166.08L91.1726 166.095L90.8781 167.162L92.058 166.781C92.2245 166.728 92.395 166.846 92.4052 167.018L92.4056 167.034L92.4056 168.13L93.2895 167.651C93.462 167.558 93.6709 167.677 93.6818 167.869L93.6822 167.885V169.215C93.6822 169.362 93.5631 169.481 93.4162 169.481C93.2746 169.481 93.1588 169.37 93.1507 169.231L93.1503 169.215L93.1503 168.332L92.2664 168.811C92.0939 168.905 91.885 168.785 91.8742 168.593L91.8737 168.577L91.8737 167.4L90.5724 167.82C90.376 167.883 90.1875 167.709 90.2307 167.511L90.2343 167.496L90.5108 166.493L89.2151 167.065C89.0443 167.14 88.8531 167.021 88.8423 166.838L88.8418 166.821L88.8421 166.721C88.844 166.348 88.8583 166.118 88.909 165.842C88.9465 165.637 89.0014 165.449 89.0776 165.278Z" fill="white"/>
<path d="M80.3313 165.917C80.7097 166.431 82.0747 166.739 82.5882 166.814C83.1018 166.89 83.652 166.823 83.4319 167.672C83.2762 168.273 81.7798 168.031 81.1946 168.025C80.719 168.021 80.0518 169.459 79.8034 168.97C79.8034 167.3 80.1185 166.396 80.3313 165.917Z" fill="#141413"/>
<path d="M97.4249 169.391C96.8236 169.172 96.1867 169.008 94.9656 168.73L95.4845 170.225L95.4697 171.927L98.9451 171.957C99.087 171.958 99.3404 171.769 99.2194 171.002C99.0682 170.044 98.2795 169.7 97.4249 169.391Z" fill="#363636"/>
<path d="M91.6751 169.084L93.1824 169.875L91.5634 172.961L90.056 172.171L91.6751 169.084Z" fill="white"/>
<path d="M89.4442 167.917L90.9523 168.706L89.0121 172.414L87.504 171.624L89.4442 167.917Z" fill="white"/>
<path d="M87.257 166.633L88.7713 167.41L86.0886 172.636L84.5743 171.858L87.257 166.633Z" fill="white"/>
<path d="M79.68 173.314L79.7809 171.524L95.3644 171.766L99.25 171.481L99.3687 172.854C99.4096 173.328 99.0541 173.744 98.5795 173.777L95.3449 174L80.0982 173.764C79.8564 173.76 79.6664 173.555 79.68 173.314Z" fill="#DBDBDB"/>
<rect x="57.0231" y="98.5544" width="10.7952" height="1.63955" transform="rotate(18 57.0231 98.5544)" fill="#F1EDED"/>
<path d="M63.9885 94.19C64.0706 90.8085 66.7775 88.0782 70.158 87.9678L78.0501 87.7096C78.6932 87.6893 79.3373 87.7228 79.9742 87.8108L87.678 88.8762C91.0767 89.3461 93.4951 92.4187 93.1528 95.8326L91.6955 110.363L92.4266 131.181C92.4337 131.359 83.9595 131.19 83.7813 131.181H70.158L62.4147 130.012C62.2436 130.003 62.113 129.854 62.1272 129.683L63.6401 108.553L63.9885 94.19Z" fill="#705B55"/>
<path d="M76.8169 96.5145C80.7321 96.5145 83.9059 93.3406 83.9059 89.4254C83.9059 85.5103 80.7321 82.3364 76.8169 82.3364C72.9018 82.3364 69.7278 85.5103 69.7278 89.4254C69.7278 93.3406 72.9018 96.5145 76.8169 96.5145Z" fill="#503F39"/>
<rect x="72.9734" y="81.7988" width="8.64629" height="11.6921" rx="4.32314" fill="#EBBAAA"/>
<path d="M55.8535 101.785C56.7668 99.997 58.9566 99.2879 60.7447 100.201C62.5327 101.114 63.2418 103.304 62.3285 105.092C61.0496 107.596 59.6987 112.669 59.0066 117.551L58.976 117.77C58.6604 120.06 58.5216 122.105 58.5794 123.603L58.5844 123.719C58.6075 124.217 58.6523 124.621 58.708 124.904L58.7125 124.927L58.7157 124.931C59.748 126.113 59.9262 127.873 59.051 129.26L59.0185 129.311C57.9197 130.991 55.6667 131.463 53.9863 130.364C52.7854 129.579 52.1289 128.431 51.7434 127.031C51.4943 126.126 51.3603 125.081 51.3141 123.883C51.2355 121.848 51.4143 119.306 51.8078 116.531C52.6031 110.921 54.1455 105.129 55.8535 101.785Z" fill="#EBBAAA"/>
<rect x="59.0359" y="87.0374" width="14.5132" height="35.3362" rx="7.25662" transform="rotate(16.5 59.0359 87.0374)" fill="#314367"/>
<path d="M51.2595 125.405C50.6307 123.597 50.0693 117.889 50.8553 114.941L61.8906 114.941C60.6919 118.675 60.397 122.752 59.5127 127.567C57.4495 127.665 52.0456 127.665 51.2595 125.405Z" fill="#314367"/>
<path d="M63.1975 89.2971V90.0831C61.6336 90.0831 60.3128 91.0508 59.1627 92.923L59.1279 92.98C58.1599 94.5759 57.3586 96.7201 56.5855 99.5599L56.4668 100.001C56.2302 100.891 56.0305 101.707 55.6831 103.178L55.3317 104.665C55.0573 105.815 54.8993 106.433 54.7133 107.076L54.6714 107.22C54.5255 107.712 54.3858 108.123 54.2457 108.463L54.2257 108.511C53.2466 110.839 52.6455 113.587 52.3634 116.563C52.1579 118.731 52.1389 120.856 52.2416 122.532C52.2884 123.297 52.3763 124.056 52.4939 124.793C52.5482 125.134 52.6061 125.452 52.666 125.75L52.6926 125.88C52.7013 125.923 52.71 125.964 52.7187 126.004L52.7437 126.12L52.7733 126.253L52.006 126.424L51.9634 126.231L51.9365 126.105C51.9275 126.062 51.9184 126.018 51.9092 125.973L51.8954 125.905C51.8335 125.597 51.7737 125.269 51.7176 124.917C51.5963 124.156 51.5055 123.372 51.457 122.58L51.4459 122.388C51.3537 120.704 51.3791 118.617 51.5809 116.488C51.8655 113.486 52.4685 110.703 53.4546 108.317L53.5011 108.206C53.6416 107.872 53.7853 107.45 53.9382 106.927L54.0145 106.661C54.2113 105.963 54.3945 105.219 54.7555 103.687L55.0838 102.299C55.3693 101.101 55.5521 100.372 55.7858 99.5057L55.7973 99.463C56.5972 96.504 57.4289 94.2655 58.4558 92.5724C59.7299 90.4719 61.2675 89.3203 63.1406 89.2975L63.1975 89.2971Z" fill="white"/>
<path d="M57.0548 103.128L56.3908 105.916C55.9878 107.593 55.7333 108.535 55.4799 109.227L55.4599 109.282C54.6337 111.497 54.0773 113.834 53.7679 116.16C53.5271 117.972 53.451 119.691 53.5152 120.988L53.5277 121.216C53.6279 122.947 53.9491 126.992 54.0066 127.334L54.0083 127.343L53.2371 127.495C53.1726 127.168 52.8261 122.797 52.7341 121.103C52.6606 119.749 52.7371 117.95 52.9887 116.057C53.2987 113.726 53.8508 111.384 54.6685 109.155L54.7421 108.956C54.9632 108.352 55.1929 107.517 55.5381 106.098L56.2907 102.943L56.4311 102.366C56.6146 101.618 56.7846 100.95 56.9568 100.305L57.0191 100.073C57.7466 97.3833 58.4706 95.2965 59.2924 93.6951C60.3427 91.6486 61.526 90.4732 62.9255 90.334L62.968 90.3301L63.034 91.1133C61.9676 91.2031 60.9622 92.1834 60.0211 93.9971L59.9917 94.054C59.1776 95.6405 58.4514 97.7553 57.7162 100.508L57.665 100.7C57.469 101.441 57.2734 102.222 57.0548 103.128Z" fill="white"/>
<path d="M51.3087 127.665L51.0139 124.963C51.6427 125.553 57.2857 125.847 59.8567 126.044C60.3807 126.568 60.7705 127.96 59.5128 128.353C58.2552 128.746 52.3403 128.353 51.3087 127.665Z" fill="#212D44"/>
<path d="M74.6442 114.156C74.5662 107.557 74.3494 98.4991 74.3494 95.3401C73.6616 95.3401 72.9738 95.2418 72.4825 94.9471C72.5092 92.4079 72.6887 89.804 71.6096 87.4307L63.2066 89.0492C61.8976 90.8503 59.5948 96.2321 59.2252 106.541C58.9315 114.733 59.2351 120.253 59.2252 125.553C59.2226 126.922 61.1834 127.929 61.1834 131.613C62.8004 132.081 69.3313 133.276 74.6442 131.613C75.6267 125.16 74.7597 123.924 74.6442 114.156Z" fill="#45587D"/>
<path d="M59.1203 120.935C59.1203 120.935 70.0426 114.679 74.7915 113.762C74.7915 115.236 75.1354 122.8 75.1354 126.535C75.1354 129.09 74.9553 130.105 74.6933 130.76C70.3046 130.236 61.331 129.326 60.938 129.09C60.4467 128.795 60.2122 127.889 59.6606 127.076C58.7272 125.7 59.1203 120.935 59.1203 120.935Z" fill="#D24138"/>
<path d="M60.2989 122.114L59.4146 120.738C59.4146 120.738 60.7411 119.608 62.3622 118.921C63.9834 118.233 65.6046 117.398 65.6046 117.398L66.4889 118.478L60.2989 122.114Z" fill="#B1362E"/>
<path d="M74.5461 110.029L59.1695 105.951C59.1695 103.515 60.152 92.3431 63.0504 88.9043L65.3103 88.3148L67.7666 87.8235L72.0898 95.0943L74.4478 95.5855L74.5461 110.029Z" fill="#B5BDC2"/>
<path d="M74.4434 95.4383C74.6875 95.4359 74.8874 95.6319 74.8898 95.8761L74.9244 99.3114C75.0185 108.352 75.1242 116.183 75.18 116.838L75.1886 116.923C75.2609 117.684 75.4091 120.815 75.4733 123.355L75.4847 123.836C75.5709 127.735 75.4881 130.095 75.1103 130.662C74.9749 130.865 74.7003 130.92 74.4972 130.784C74.3 130.653 74.2425 130.39 74.3631 130.189L74.3745 130.171C74.5964 129.838 74.68 127.23 74.5952 123.617L74.583 123.135C74.5157 120.638 74.3731 117.66 74.3072 116.995L74.303 116.955C74.2353 116.347 74.1103 106.624 74.0055 95.8847C74.0032 95.6405 74.1992 95.4406 74.4434 95.4383Z" fill="#C9CED1"/>
<path d="M67.9836 130.011C66.0362 130.167 62.5933 129.476 60.5938 128.697V132.006C61.724 132.98 64.6364 132.883 66.2448 132.883C68.2444 132.883 71.0681 133.466 74.5457 132.883L75.3809 130.011C73.2685 130.564 69.9311 129.855 67.9836 130.011Z" fill="#304367"/>
<path d="M65.4081 88.9044C64.3077 88.3542 66.7837 87.234 67.8645 86.6445C68.7488 86.3825 70.6942 85.7799 71.7946 87.4305C73.1701 89.4939 74.4839 101.79 73.4649 99.3192C69.5348 89.7887 66.7837 89.5921 65.4081 88.9044Z" fill="#A4ABAF"/>
<path d="M93.0138 100.201C94.8019 99.2879 96.9917 99.997 97.905 101.785C99.613 105.129 101.155 110.921 101.951 116.531C102.344 119.306 102.523 121.848 102.444 123.883C102.398 125.081 102.264 126.126 102.015 127.031C101.63 128.431 100.973 129.579 99.7722 130.364C98.0918 131.463 95.8388 130.991 94.7401 129.311C93.8372 127.93 93.9947 126.163 95.0118 124.967L95.046 124.927L95.0506 124.904C95.1063 124.62 95.1512 124.216 95.1743 123.717L95.1792 123.603C95.2388 122.057 95.0892 119.93 94.752 117.551L94.7097 117.258C94.0058 112.467 92.6833 107.546 91.43 105.092C90.5167 103.304 91.2258 101.114 93.0138 100.201Z" fill="#EBBAAA"/>
<rect width="14.5132" height="35.3362" rx="7.25662" transform="matrix(-0.95882 0.284015 0.284015 0.95882 94.7224 87.0374)" fill="#314367"/>
<path d="M102.499 125.405C103.127 123.597 103.658 117.637 102.872 114.69L91.8676 114.941C93.0663 118.675 93.3611 122.752 94.2454 127.567C96.3087 127.665 101.713 127.665 102.499 125.405Z" fill="#314367"/>
<path d="M90.5607 89.2971C92.4596 89.2971 94.0155 90.4507 95.3024 92.5724C96.3164 94.2443 97.1402 96.4481 97.9308 99.3523L98.0621 99.8407C98.2996 100.736 98.5024 101.567 98.8559 103.065L99.1799 104.436C99.4499 105.569 99.6064 106.184 99.7838 106.802L99.8 106.858C99.9537 107.39 100.098 107.82 100.239 108.162L100.257 108.206C101.271 110.616 101.888 113.439 102.177 116.488C102.387 118.699 102.406 120.865 102.301 122.58C102.253 123.372 102.162 124.156 102.041 124.917C101.984 125.269 101.925 125.597 101.863 125.905C101.849 125.974 101.835 126.041 101.822 126.105L101.782 126.288L101.752 126.424L100.985 126.253L101.014 126.12L101.027 126.065C101.048 125.965 101.07 125.862 101.092 125.75C101.152 125.452 101.21 125.134 101.264 124.793C101.382 124.056 101.47 123.297 101.517 122.532C101.619 120.856 101.6 118.731 101.395 116.563C101.117 113.633 100.53 110.925 99.5781 108.62L99.5325 108.511C99.379 108.146 99.2263 107.697 99.0659 107.148L99.0036 106.932C98.8046 106.232 98.6261 105.513 98.2812 104.053L97.9246 102.543C97.6276 101.296 97.4428 100.559 97.2021 99.6681L97.1434 99.4524C96.3891 96.7016 95.6063 94.6099 94.667 93.0409L94.6303 92.98C93.4837 91.0896 92.1671 90.103 90.608 90.0834L90.5607 90.0831V89.2971Z" fill="white"/>
<path d="M90.7905 90.3301C92.2086 90.4495 93.4051 91.6279 94.466 93.6951C95.2996 95.3193 96.0326 97.443 96.7705 100.189L96.8017 100.305C97.0083 101.078 97.2118 101.886 97.4392 102.825L97.8454 104.527L98.0995 105.597C98.5084 107.304 98.7636 108.259 99.0067 108.93L99.0351 109.007C99.883 111.28 100.453 113.674 100.77 116.057C101.017 117.915 101.095 119.682 101.028 121.028L101.019 121.208C100.92 122.952 100.591 127.089 100.523 127.484L100.521 127.495L99.7501 127.343L99.7537 127.322C99.8167 126.904 100.138 122.846 100.234 121.163L100.239 121.061C100.31 119.756 100.236 118.006 99.9906 116.16C99.6881 113.885 99.1494 111.6 98.3533 109.429L98.2791 109.229C98.0251 108.535 97.7703 107.591 97.3661 105.91L96.7037 103.128L96.5916 102.666C96.3986 101.876 96.2215 101.179 96.0423 100.508L95.9819 100.283C95.2672 97.6398 94.5586 95.597 93.7667 94.054C92.8271 92.223 91.8229 91.2248 90.7578 91.1164L90.7245 91.1133L90.7905 90.3301Z" fill="white"/>
<path d="M102.45 127.665L102.744 124.963C102.116 125.553 96.4726 125.847 93.9016 126.044C93.3776 126.568 92.9879 127.96 94.2455 128.353C95.5032 128.746 101.418 128.353 102.45 127.665Z" fill="#212D44"/>
<path d="M79.1145 114.156C79.1925 107.557 79.4093 98.4991 79.4093 95.3401C80.0971 95.3401 80.7848 95.2418 81.276 94.9471C81.2495 92.4079 81.07 89.804 82.1491 87.4307L90.5521 89.0492C91.861 90.8503 94.1639 96.2321 94.5334 106.541C94.8272 114.733 94.5234 120.253 94.5334 125.553C94.536 126.922 92.5752 127.929 92.5752 131.613C90.9582 132.081 84.4274 133.276 79.1145 131.613C78.132 125.16 78.999 123.924 79.1145 114.156Z" fill="#45587D"/>
<path d="M94.6384 120.935C94.6384 120.935 83.7161 114.679 78.9672 113.762C78.9672 115.236 78.6233 122.8 78.6233 126.535C78.6233 129.09 78.8034 130.105 79.0654 130.76C83.4541 130.236 92.4277 129.326 92.8207 129.09C93.312 128.795 93.5465 127.889 94.0981 127.076C95.0314 125.7 94.6384 120.935 94.6384 120.935Z" fill="#D24138"/>
<path d="M93.4595 122.114L94.3438 120.738C94.3438 120.738 93.0173 119.608 91.3961 118.921C89.775 118.233 88.1538 117.398 88.1538 117.398L87.2695 118.478L93.4595 122.114Z" fill="#B1362E"/>
<path d="M79.2125 110.029L94.5891 105.951C94.5891 103.515 93.6065 92.3431 90.7081 88.9043L88.4482 88.3148L85.9919 87.8235L81.6687 95.0943L79.3107 95.5855L79.2125 110.029Z" fill="#B5BDC2"/>
<path fill-rule="evenodd" clip-rule="evenodd" d="M88.7221 99.5068L90.0331 101.111L88.323 101.351L87.0711 99.8185L86.1228 98.6588L86.8286 98.0929L87.2729 97.7363L88.7221 99.5068ZM87.2094 100.804L87.7238 101.436L86.015 101.676L84.8466 100.248L84.7956 100.185L84.8336 100.155L85.9468 99.2613L87.2094 100.804ZM85.4163 101.76L84.9851 101.232L84.6212 100.788L83.4698 101.711L83.7061 102L85.4163 101.76Z" fill="#45587D"/>
<path d="M79.3152 95.4383C79.5594 95.4406 79.7554 95.6405 79.753 95.8847L79.7048 100.622C79.6131 109.234 79.5154 116.271 79.4576 116.934L79.4492 117.018C79.3801 117.748 79.2328 120.861 79.1692 123.378L79.1585 123.832C79.0827 127.297 79.1648 129.794 79.3774 130.16L79.384 130.171C79.5195 130.374 79.4646 130.649 79.2614 130.784C79.0582 130.92 78.7837 130.865 78.6482 130.662C78.2666 130.089 78.186 127.686 78.2765 123.717L78.2873 123.273C78.3526 120.749 78.4984 117.676 78.57 116.923L78.5767 116.858C78.6388 116.299 78.7663 106.387 78.8688 95.8761C78.8712 95.6319 79.071 95.4359 79.3152 95.4383Z" fill="#C9CED1"/>
<path d="M85.7749 130.011C87.7224 130.167 91.1652 129.476 93.1648 128.697V132.006C92.0346 132.98 89.1221 132.883 87.5137 132.883C85.5142 132.883 82.6904 133.466 79.2128 132.883L78.3777 130.011C80.4901 130.564 83.8275 129.855 85.7749 130.011Z" fill="#304367"/>
<path d="M88.3499 88.9044C89.4503 88.3542 86.9743 87.234 85.8936 86.6445C85.0093 86.3825 83.0639 85.7799 81.9634 87.4305C80.588 89.4939 79.2742 101.79 80.2932 99.3192C84.2233 89.7887 86.9743 89.5921 88.3499 88.9044Z" fill="#A4ABAF"/>
<path d="M62.715 74.7407C65.866 74.7407 68.4205 72.3177 68.4205 69.3288C68.4205 66.34 65.866 63.917 62.715 63.917C59.5639 63.917 57.0095 66.34 57.0095 69.3288C57.0095 72.3177 59.5639 74.7407 62.715 74.7407Z" fill="#EBBAAA"/>
<path d="M91.6994 74.7407C94.8505 74.7407 97.4049 72.3177 97.4049 69.3288C97.4049 66.34 94.8505 63.917 91.6994 63.917C88.5483 63.917 85.9939 66.34 85.9939 69.3288C85.9939 72.3177 88.5483 74.7407 91.6994 74.7407Z" fill="#EBBAAA"/>
<path d="M60.6064 60.2893C60.0847 50.831 67.6137 42.8752 77.0865 42.8752C86.522 42.8752 94.0373 50.7712 93.5715 60.1952L92.9121 73.5367C92.4961 81.9529 85.5511 88.563 77.1246 88.563C68.7331 88.563 61.8041 82.0057 61.342 73.6268L60.6064 60.2893Z" fill="#EED4CC"/>
<path d="M81.2368 77.2563C81.5995 77.0717 82.0432 77.2161 82.2278 77.5789C82.4124 77.9416 82.268 78.3852 81.9053 78.5698C78.3854 80.3611 74.7602 80.3313 72.2468 78.5098C71.9172 78.2709 71.8437 77.8102 72.0825 77.4807C72.3213 77.1511 72.7821 77.0776 73.1116 77.3164C75.1413 78.7874 78.1792 78.8124 81.2368 77.2563Z" fill="#EBBAAA"/>
<path d="M81.1285 75.3145C81.5008 75.3145 81.8039 75.6102 81.8159 75.9795L81.8163 76.0022C81.8163 77.1306 82.489 77.8288 83.8305 77.8288C84.2104 77.8288 84.5183 78.1368 84.5183 78.5166C84.5183 78.8964 84.2104 79.2044 83.8305 79.2044C81.7176 79.2044 80.4407 77.8791 80.4407 76.0022C80.4407 75.6224 80.7487 75.3145 81.1285 75.3145Z" fill="#EBBAAA"/>
<path d="M67.6239 67.6217C67.6729 66.982 68.2237 66.5008 68.861 66.5344L68.8895 66.5362L71.6588 66.7484C72.3081 66.7982 72.7941 67.3648 72.7443 68.0141C72.6953 68.6538 72.1444 69.135 71.5072 69.1015L71.4786 69.0996L68.7094 68.8874C68.0601 68.8377 67.5741 68.271 67.6239 67.6217Z" fill="black"/>
<path d="M85.0472 66.4477C85.6968 66.4028 86.2598 66.8931 86.3046 67.5427C86.3488 68.1828 85.8735 68.7387 85.2381 68.7978L85.2096 68.8002L82.4387 68.9914C81.7891 69.0363 81.2261 68.546 81.1813 67.8964C81.1371 67.2563 81.6124 66.7004 82.2478 66.6413L82.2763 66.639L85.0472 66.4477Z" fill="black"/>
<path d="M67.2981 62.2272L72.8584 62.3833C73.4008 62.3985 73.8282 62.8506 73.813 63.393C73.798 63.9265 73.3604 64.3487 72.8298 64.348L72.8032 64.3476L67.243 64.1915C66.7005 64.1763 66.2732 63.7242 66.2884 63.1818C66.3034 62.6482 66.741 62.226 67.2715 62.2268L67.2981 62.2272Z" fill="#393939"/>
<path d="M86.2646 62.2617C86.807 62.2444 87.2607 62.67 87.2781 63.2124C87.2951 63.7459 86.8836 64.1936 86.354 64.2246L86.3274 64.2258L80.6695 64.4066C80.1272 64.424 79.6735 63.9983 79.6561 63.456C79.6391 62.9225 80.0506 62.4748 80.5802 62.4438L80.6068 62.4426L86.2646 62.2617Z" fill="#393939"/>
<rect x="60.5466" y="56.0566" width="1.08078" height="13.559" rx="0.540392" fill="#E3BF53"/>
<rect x="92.4789" y="57.6287" width="1.08078" height="11.9869" rx="0.540392" fill="#D4AE3C"/>
<path d="M75.5851 67.6353L77.2399 67.8624C77.2031 68.1309 77.1063 68.4219 76.9361 68.8295L76.9032 68.9075C76.7977 69.1536 76.473 69.8799 76.4271 69.9853L76.371 70.1149C76.2073 70.4964 76.0835 70.8131 75.9839 71.1137C75.712 71.9344 75.6688 72.5224 75.8376 72.8596C76.0224 73.2289 76.5746 73.4741 77.7234 73.4811L77.7737 73.4812V75.1515C76.0225 75.1515 74.8637 74.6455 74.3439 73.6073C73.9275 72.7754 74 71.791 74.3983 70.5884C74.5208 70.2188 74.6688 69.8428 74.8631 69.3934L74.9828 69.1216C75.107 68.842 75.3172 68.3699 75.3772 68.2276L75.4047 68.162C75.5105 67.9061 75.5689 67.733 75.5835 67.6457L75.5851 67.6353Z" fill="#EBBAAA"/>
<path d="M82.6024 46.6244C81.6199 46.9222 65.1672 49.8177 73.4206 50.8984C77.0649 51.3757 83.7532 50.896 86.5325 51.7827C90.0607 52.9083 90.0546 55.5462 90.4645 57.5797C91.317 61.8084 91.803 62.0657 93.415 64.522C94.07 65.5199 94.2964 58.8905 93.415 53.1583C92.1681 45.0481 86.387 45.4775 82.6024 46.6244Z" fill="#D4AE3C"/>
<path d="M66.3906 52.4704C63.4429 54.5209 65.3397 57.7734 63.6394 59.2238C61.4779 61.0676 62.0693 64.0554 61.5289 65.1942C60.6539 67.0381 59.4655 62.4018 59.4655 59.2238C59.4655 48.9072 65.8993 42.1538 74.9385 42.1538C76.1337 42.1538 77.6283 39.6509 80.7846 40.0414C84.9604 40.0414 91.6416 47.7542 88.7432 53.0108C86.8019 51.248 82.7221 51.3296 78.5248 51.2422C73.4811 51.1373 68.2675 51.1647 66.3906 52.4704Z" fill="#E3BF53"/>
<path d="M75.062 40.5359C82.4313 40.7295 86.028 44.6246 87.0729 49.6209C81.7017 47.1319 70.2224 45.3784 70.2224 44.3242C70.2224 43.0065 70.8823 40.4261 75.062 40.5359Z" fill="#E3BF53"/>
<path d="M71.4288 41.4255C75.8305 41.1504 79.42 47.4026 80.6645 50.5631L66.86 47.026C66.5488 45.2738 67.027 41.7006 71.4288 41.4255Z" fill="#E3BF53"/>
<path d="M69.9425 52.274V49.2048L68.2574 44.9541L86.336 45.9366L83.4867 51.1441H81.7181L79.7039 51.9301L77.8371 51.1441L76.3142 51.9301L75.086 51.1441L73.0227 52.274L72.3841 51.4843L69.9425 52.274Z" fill="#E3BF53"/>
</g>
<defs>
<filter id="filter0_d_280_44518" x="0.470276" y="0" width="152.795" height="234" filterUnits="userSpaceOnUse" color-interpolation-filters="sRGB">
<feFlood flood-opacity="0" result="BackgroundImageFix"/>
<feColorMatrix in="SourceAlpha" type="matrix" values="0 0 0 0 0 0 0 0 0 0 0 0 0 0 0 0 0 0 127 0" result="hardAlpha"/>
<feOffset dy="10"/>
<feGaussianBlur stdDeviation="25"/>
<feComposite in2="hardAlpha" operator="out"/>
<feColorMatrix type="matrix" values="0 0 0 0 0 0 0 0 0 0 0 0 0 0 0 0 0 0 0.3 0"/>
<feBlend mode="normal" in2="BackgroundImageFix" result="effect1_dropShadow_280_44518"/>
<feBlend mode="normal" in="SourceGraphic" in2="effect1_dropShadow_280_44518" result="shape"/>
</filter>
</defs>
</svg>
