<svg width="152" height="234" viewBox="0 0 152 234" fill="none" xmlns="http://www.w3.org/2000/svg">
<g filter="url(#filter0_d_280_44773)">
<path d="M80.7791 136.806C82.2704 136.506 83.7232 137.471 84.024 138.962C84.6318 141.974 84.8583 146.953 84.864 154.264L84.8634 155.329C84.8612 156.52 84.8539 157.724 84.8405 159.219L84.7791 165.424C84.7735 166.131 84.7715 166.617 84.7711 167.171L84.7711 167.406C84.7711 168.928 83.5378 170.161 82.0165 170.161C80.4951 170.161 79.2619 168.928 79.2619 167.406L79.263 166.592C79.2652 165.879 79.2713 165.117 79.2859 163.669L79.3282 159.531C79.3461 157.608 79.3544 156.179 79.3549 154.696L79.3549 154.487C79.3537 147.444 79.138 142.601 78.6237 140.051C78.3228 138.56 79.2878 137.107 80.7791 136.806Z" fill="#EBBAAA"/>
<path d="M66.8954 146.689C66.9838 145.171 68.2866 144.011 69.8054 144.099C71.3241 144.188 72.4837 145.491 72.3952 147.009C72.2954 148.724 72.1827 150.364 72.0492 152.09L71.982 152.94L71.5628 157.978C71.4045 159.914 71.3092 161.307 71.2494 162.663C71.1657 164.563 71.159 166.324 71.2376 168.193C71.3016 169.713 70.1213 170.997 68.6013 171.061C67.0813 171.125 65.7973 169.945 65.7333 168.425C65.6513 166.477 65.6546 164.634 65.7347 162.676L65.7456 162.42C65.8007 161.169 65.8833 159.905 66.0116 158.28L66.089 157.326C66.1607 156.472 66.4361 153.2 66.528 152.03C66.6715 150.202 66.7907 148.487 66.8954 146.689Z" fill="#EBBAAA"/>
<path d="M74.7193 137.308C81.5252 137.308 87.0425 134.889 87.0425 131.906C87.0425 128.922 81.5252 126.504 74.7193 126.504C67.9134 126.504 62.3961 128.922 62.3961 131.906C62.3961 134.889 67.9134 137.308 74.7193 137.308Z" fill="#1D1F1E"/>
<path d="M61.5657 119.062H76.4824L73.8405 145.089L72.1008 162.928H71.2309V164.558H65.6251V162.928H64.7552L62.8705 144.316L61.5657 131.391L60.9214 129.843L61.5657 119.062Z" fill="#1D1F1E"/>
<path d="M75.1293 120.449H90.2071L89.5312 129.081L88.8694 131.295L87.2264 144.528L85.7283 162.859H84.8585V164.558H79.2045V162.859H78.3347L76.7883 146.073L75.1293 120.449Z" fill="#1D1F1E"/>
<path d="M55.0994 173.576C55.08 171.358 55.3822 170.008 57.3103 169.102C59.2385 168.196 61.0547 166.453 64.3906 164.959C64.3906 164.959 64.8297 164.876 65.5444 165.263C66.1544 165.592 66.9378 166.401 68.1183 166.392C69.4002 166.38 70.5424 166.108 71.2521 165.736C71.5588 164.896 72.239 164.891 72.239 164.891C72.239 164.891 73.1968 166.713 73.2127 168.545C73.2287 170.376 73.227 173.417 73.227 173.417L55.0994 173.576Z" fill="#161616"/>
<path d="M63.6948 165.093C63.8268 165.034 63.9814 165.094 64.0401 165.226C64.1148 165.394 64.1688 165.578 64.2057 165.779L64.218 165.849C64.2619 166.114 64.2721 166.351 64.2721 166.744C64.2721 166.928 64.089 167.052 63.9201 166.99L63.9048 166.984L62.6301 166.421L62.9022 167.407C62.9561 167.603 62.7773 167.78 62.5849 167.73L62.5697 167.726L61.2895 167.313L61.2895 168.472C61.2895 168.664 61.0892 168.789 60.9179 168.709L60.9033 168.702L60.0337 168.23L60.0337 169.1C60.0337 169.239 59.9251 169.353 59.7881 169.361L59.7721 169.361C59.633 169.361 59.5192 169.253 59.511 169.116L59.5105 169.1V167.791C59.5105 167.598 59.7108 167.474 59.8821 167.554L59.8968 167.561L60.7663 168.032L60.7663 166.954C60.7663 166.782 60.9286 166.659 61.0924 166.7L61.1082 166.705L62.2688 167.079L61.9791 166.029C61.9219 165.821 62.1253 165.64 62.3228 165.714L62.3369 165.72L63.7419 166.34C63.7349 166.178 63.7212 166.045 63.6966 165.904L63.6911 165.873C63.6613 165.711 63.6187 165.566 63.562 165.439C63.5033 165.307 63.5627 165.152 63.6948 165.093Z" fill="white"/>
<path d="M55.8288 169.272C56.4203 169.057 57.0468 168.895 58.248 168.623L57.7375 170.092L57.7521 171.766L54.3333 171.796C54.1938 171.797 53.9445 171.612 54.0635 170.857C54.2122 169.914 54.9882 169.576 55.8288 169.272Z" fill="#161616"/>
<path d="M73.2844 173.132L73.1852 171.37L57.8555 171.609L54.0333 171.329L53.9165 172.679C53.8762 173.146 54.2259 173.555 54.6928 173.586L57.8747 173.807L72.873 173.574C73.1108 173.57 73.2978 173.369 73.2844 173.132Z" fill="#808080"/>
<path d="M95.2728 173.769C95.2922 171.551 94.99 170.201 93.0618 169.295C91.1337 168.389 89.3175 166.647 85.9816 165.152C85.9816 165.152 85.5425 165.069 84.8278 165.456C84.2178 165.785 83.4343 166.594 82.2539 166.585C80.972 166.573 79.8297 166.302 79.1201 165.929C78.8134 165.09 78.1332 165.084 78.1332 165.084C78.1332 165.084 77.1754 166.907 77.1595 168.738C77.1434 170.569 77.1451 173.61 77.1451 173.61L95.2728 173.769Z" fill="#161616"/>
<path d="M86.3319 165.419C86.3906 165.287 86.5452 165.228 86.6773 165.287C86.8093 165.345 86.8687 165.5 86.81 165.632C86.7534 165.759 86.7109 165.905 86.681 166.067C86.656 166.203 86.6413 166.328 86.633 166.476L86.6301 166.533L88.0351 165.914C88.2322 165.827 88.4416 166.001 88.3966 166.208L88.3929 166.222L88.1032 167.273L89.264 166.898C89.4276 166.846 89.595 166.962 89.6053 167.131L89.6058 167.147L89.6058 168.226L90.4754 167.754C90.6449 167.663 90.8499 167.779 90.8612 167.968L90.8617 167.984V169.293C90.8617 169.438 90.7445 169.555 90.6 169.555C90.4609 169.555 90.3471 169.446 90.3389 169.309L90.3384 169.293L90.3384 168.424L89.4689 168.895C89.2994 168.987 89.0943 168.87 89.0831 168.681L89.0826 168.665L89.0826 167.507L87.8024 167.919C87.6094 167.982 87.4243 167.811 87.4661 167.616L87.4699 167.601L87.7418 166.615L86.4673 167.177C86.2995 167.251 86.1115 167.134 86.1006 166.954L86.1001 166.938L86.1003 166.838C86.1023 166.471 86.1164 166.244 86.1664 165.972C86.2033 165.772 86.2572 165.587 86.3319 165.419Z" fill="white"/>
<path d="M94.5435 169.465C93.9519 169.251 93.3254 169.088 92.1243 168.817L92.6347 170.286L92.6201 171.96L96.0389 171.99C96.1785 171.991 96.4277 171.805 96.3087 171.05C96.16 170.107 95.3841 169.77 94.5435 169.465Z" fill="#161616"/>
<path d="M77.088 173.326L77.1872 171.564L92.5168 171.802L96.3391 171.522L96.4559 172.872C96.4962 173.339 96.1464 173.748 95.6796 173.78L92.4977 174L77.4994 173.767C77.2615 173.763 77.0745 173.562 77.088 173.326Z" fill="#808080"/>
<path d="M88.0373 96.5379C89.7575 95.5676 91.9387 96.1755 92.9091 97.8957C95.1994 101.956 96.89 107.693 97.7627 113.688C98.5937 119.398 98.5767 124.561 97.5313 127.436C96.8563 129.292 94.8044 130.25 92.9483 129.575C91.1107 128.907 90.1539 126.889 90.7899 125.048L90.8096 124.992C91.3443 123.521 91.3581 119.343 90.685 114.719C89.9289 109.524 88.4763 104.595 86.6795 101.41C85.7092 99.6895 86.3171 97.5083 88.0373 96.5379Z" fill="#EBBAAA"/>
<path d="M56.162 100.417C57.0604 98.6581 59.2145 97.9605 60.9734 98.8589C62.7323 99.7574 63.4299 101.912 62.5315 103.67C61.286 106.109 59.971 111.024 59.2843 115.782L59.2636 115.926C58.9372 118.229 58.7894 120.292 58.8408 121.806L58.8434 121.879C58.8634 122.398 58.9069 122.821 58.9623 123.12L58.9743 123.182L58.9774 123.186C59.993 124.348 60.1683 126.08 59.3073 127.445L59.2753 127.495C58.1945 129.148 55.9782 129.611 54.3252 128.531C53.1438 127.758 52.498 126.629 52.1187 125.251C51.8738 124.361 51.7419 123.333 51.6964 122.155C51.6192 120.153 51.7951 117.653 52.1822 114.922C52.9644 109.404 54.4817 103.707 56.162 100.417Z" fill="#EBBAAA"/>
<path d="M59.0853 93.2072C59.0853 90.9358 64.0629 88.6177 67.5424 87.5153L72.0851 86.0081C72.7177 85.9882 77.0643 86.1689 77.6909 86.2555L84.7466 88.6177C88.0899 89.0799 93.2504 90.5255 92.9137 93.8837L89.2939 108.652L89.6275 127.664C89.6345 127.839 81.6357 128.833 81.4604 128.824L68.1707 127.981L60.9701 127.657C60.8017 127.648 60.7145 127.156 60.7284 126.987L61.6957 106.872L59.0853 93.2072Z" fill="#EBBAAA"/>
<path d="M92.0922 90.9359C91.203 90.0467 88.2744 89.1479 86.9213 88.8096C87.775 100.215 89.5599 123.315 89.8692 124.474C90.2558 125.924 98.7129 126.504 99.4861 125.924C100.259 125.344 101.129 119.883 100.936 116.887C100.743 113.891 93.2037 92.0474 92.0922 90.9359Z" fill="#1D191A"/>
<path d="M99.4378 126.021C99.8631 125.944 100.839 123.186 101.178 122.106L89.2893 120.222C89.1443 121.204 88.8737 123.334 88.951 123.991C89.0477 124.813 91.2707 125.538 93.687 125.924C96.1033 126.311 98.9062 126.117 99.4378 126.021Z" fill="#413F3A"/>
<path d="M58.7875 91.1276C59.6199 90.2391 62.3613 89.3409 63.628 89.0029C62.8288 100.399 61.158 123.481 60.8685 124.64C60.5065 126.089 52.5898 126.668 51.866 126.089C51.1422 125.509 50.3279 120.053 50.5088 117.059C50.6898 114.065 57.747 92.2383 58.7875 91.1276Z" fill="#1D191A"/>
<path d="M51.7035 126.177C51.2871 126.1 50.3312 123.36 50 122.287L61.6403 120.415C61.7823 121.391 62.0473 123.507 61.9716 124.16C61.8769 124.976 59.7002 125.697 57.3344 126.081C54.9684 126.465 52.224 126.273 51.7035 126.177Z" fill="#413F3A"/>
<rect x="71.1133" y="80.594" width="7.57126" height="11.4565" rx="3.78563" fill="#EBBAAA"/>
<path d="M73.7765 94.802C73.2933 93.4006 73.5349 91.4675 73.5349 91.4675L71.3602 92.1924L68.7506 87.1182C65.7382 87.6498 65.6094 87.8431 63.4347 88.8096C60.8405 89.9626 61.3567 93.8355 60.9701 99.1031L60.4385 127.954L67.5908 129.065L72.3751 129.114L74.5014 96.3968C74.5014 96.3968 74.2598 96.2035 73.7765 94.802Z" fill="#1D191A"/>
<path d="M75.6298 94.7535C74.3733 93.7387 74.5826 92.9333 74.8082 92.1439L75.2432 91.854L78.4327 91.4674L81.4289 87.408C81.4289 87.408 85.7299 87.9879 87.1797 88.7611C88.6295 89.5343 89.4994 97.9914 89.4994 97.9914L90.176 128.099L86.5032 129.114H72.3436C72.2147 118.997 72.8302 97.205 74.0833 96.5416C75.7264 95.6717 75.9197 94.9877 75.6298 94.7535Z" fill="#1D191A"/>
<path d="M78.8025 88.7613C79.1348 87.6618 78.8025 86.8766 78.7058 86.3933L81.4121 87.4082C81.4121 87.4082 82.3303 88.568 81.7504 91.2259C81.1151 94.1378 78.3054 95.2853 77.6426 96.0586C77.3527 96.3968 77.4493 92.2891 75.2263 91.8542C76.2412 91.6125 78.1742 90.8393 78.8025 88.7613Z" fill="#413F3A"/>
<path d="M74.9847 99.0548C75.385 99.0548 75.7096 98.7302 75.7096 98.3299C75.7096 97.9295 75.385 97.605 74.9847 97.605C74.5843 97.605 74.2598 97.9295 74.2598 98.3299C74.2598 98.7302 74.5843 99.0548 74.9847 99.0548Z" fill="#413F3A"/>
<path d="M98.6646 125.151C99.0649 125.151 99.3895 124.826 99.3895 124.426C99.3895 124.026 99.0649 123.701 98.6646 123.701C98.2642 123.701 97.9397 124.026 97.9397 124.426C97.9397 124.826 98.2642 125.151 98.6646 125.151Z" fill="#1D191A"/>
<path d="M52.8512 125.151C53.2516 125.151 53.5761 124.826 53.5761 124.426C53.5761 124.026 53.2516 123.701 52.8512 123.701C52.4509 123.701 52.1263 124.026 52.1263 124.426C52.1263 124.826 52.4509 125.151 52.8512 125.151Z" fill="#1D191A"/>
<path d="M74.4047 106.014C74.8051 106.014 75.1296 105.668 75.1296 105.241C75.1296 104.813 74.8051 104.467 74.4047 104.467C74.0044 104.467 73.6798 104.813 73.6798 105.241C73.6798 105.668 74.0044 106.014 74.4047 106.014Z" fill="#413F3A"/>
<path d="M74.0181 112.876C74.4185 112.876 74.743 112.552 74.743 112.151C74.743 111.751 74.4185 111.426 74.0181 111.426C73.6178 111.426 73.2932 111.751 73.2932 112.151C73.2932 112.552 73.6178 112.876 74.0181 112.876Z" fill="#413F3A"/>
<path d="M74.0181 119.738C74.4185 119.738 74.743 119.414 74.743 119.013C74.743 118.613 74.4185 118.289 74.0181 118.289C73.6178 118.289 73.2932 118.613 73.2932 119.013C73.2932 119.414 73.6178 119.738 74.0181 119.738Z" fill="#413F3A"/>
<path d="M74.0181 125.827C74.4185 125.827 74.743 125.503 74.743 125.103C74.743 124.702 74.4185 124.378 74.0181 124.378C73.6178 124.378 73.2932 124.702 73.2932 125.103C73.2932 125.503 73.6178 125.827 74.0181 125.827Z" fill="#413F3A"/>
<mask id="mask0_280_44773" style="mask-type:luminance" maskUnits="userSpaceOnUse" x="50" y="89" width="14" height="38">
<path fill-rule="evenodd" clip-rule="evenodd" d="M58.7875 91.1276C59.6199 90.2391 62.3613 89.3409 63.628 89.0029C62.8288 100.399 61.158 123.481 60.8685 124.64C60.5065 126.089 52.5898 126.668 51.866 126.089C51.1422 125.509 50.3279 120.053 50.5088 117.059C50.6898 114.065 57.747 92.2383 58.7875 91.1276Z" fill="white"/>
</mask>
<g mask="url(#mask0_280_44773)">
<path fill-rule="evenodd" clip-rule="evenodd" d="M48.0522 112.121C48.0902 112.417 48.1161 112.619 48.142 112.821C47.9514 112.824 47.7578 112.848 47.5712 112.822C47.4812 112.809 47.3915 112.714 47.3231 112.637C46.9848 112.256 47.3812 110.607 47.8558 110.408C48.028 110.336 48.2122 110.288 48.3734 110.196C48.8556 109.924 49.1808 110.068 49.3362 110.617C49.3911 110.81 49.4672 111.096 49.6029 111.145C49.8133 111.221 50.142 111.209 50.307 111.083C50.4165 111 50.3277 110.652 50.3277 110.423L50.0975 110.425C50.1058 110.577 50.1142 110.728 50.1246 110.915C49.998 110.915 49.8222 110.932 49.8175 110.912C49.7662 110.68 49.6449 110.388 49.737 110.222C49.8226 110.068 50.1888 109.929 50.3533 109.992C50.8036 110.163 51.4314 110.083 51.6072 110.734C52.3742 110.72 52.5932 111.511 53.1473 111.826C53.331 111.931 53.4814 112.433 53.386 112.613C53.2606 112.85 52.8896 112.985 52.5976 113.084C52.5069 113.115 52.3295 112.887 52.1918 112.778C52.2427 112.724 52.2938 112.669 52.3446 112.615C52.4526 112.703 52.5608 112.79 52.689 112.894C52.7342 112.812 52.7972 112.733 52.7836 112.716C52.667 112.569 52.5582 112.375 52.402 112.316C52.3105 112.281 52.0321 112.455 52.0215 112.555C51.9973 112.783 52.0259 113.182 52.1413 113.226C52.464 113.351 52.8416 113.334 53.198 113.367C53.5847 113.403 54.172 112.999 54.1954 113.839C54.1964 113.883 54.3904 113.923 54.4957 113.962C55.0101 114.151 55.0973 114.579 54.713 114.962C54.5864 115.088 54.5217 115.278 54.3921 115.399C54.2005 115.578 53.9922 115.808 53.7605 115.851C53.5643 115.888 53.3115 115.713 53.1127 115.585C53.0513 115.546 53.0576 115.257 53.0789 115.251C53.2666 115.199 53.4647 115.186 53.6552 115.161C53.4959 114.705 53.2201 114.6 52.8748 114.916C52.5208 115.239 52.3847 115.633 52.5875 116.112C52.8054 116.627 53.1831 116.878 53.7247 116.798C54.3228 116.709 54.9083 116.514 55.5076 116.461C56.1768 116.4 56.8551 116.447 57.5308 116.524C56.403 116.379 55.3318 116.588 54.2747 116.986C53.3769 117.325 52.4747 117.281 51.721 116.66C51.3028 116.314 51.0194 115.803 50.5486 115.41C50.7856 115.89 51.0229 116.369 51.2152 116.758C50.0465 116.12 49.689 115.284 49.9606 113.713C50.0099 113.429 49.9677 113.128 49.9677 112.837C49.6534 113.001 49.4508 113.106 49.2481 113.211C49.1596 113.034 48.9518 112.781 49.006 112.694C49.1397 112.481 49.3816 112.221 49.6017 112.199C50.2386 112.136 50.9496 112.049 51.1285 112.972C51.1441 113.052 51.2632 113.14 51.3526 113.172C52.0207 113.408 51.8266 114.177 52.196 114.604C52.2169 114.629 51.8381 115.057 51.5954 115.223C51.5286 115.268 51.2801 115.043 51.115 114.943C51.1471 114.889 51.1794 114.836 51.2116 114.782C51.3233 114.788 51.4347 114.793 51.6003 114.801C51.556 114.69 51.5421 114.571 51.4973 114.558C51.3415 114.513 51.128 114.428 51.0216 114.495C50.6916 114.703 50.7929 115.395 51.1918 115.447C51.5535 115.494 52.0002 115.368 52.314 115.167C52.6414 114.957 52.6182 114.562 52.3897 114.209C51.9933 113.598 51.6257 112.968 51.2244 112.36C50.8192 111.746 49.4981 111.61 48.9427 112.106C48.5816 112.428 48.5886 112.949 48.8924 113.353C49.029 113.534 49.1186 113.81 49.1069 114.036C49.0557 115.025 49.2763 116.014 50.087 116.51C51.3956 117.311 52.8652 117.877 54.4392 117.258C56.3635 116.5 58.2051 116.949 60.0514 117.54C59.2659 117.432 58.4792 117.229 57.6952 117.239C56.6219 117.253 55.4944 117.249 54.4889 117.569C51.1101 118.643 48.1632 115.862 48.5369 113.171C48.5714 112.923 48.5686 112.662 48.5355 112.414C48.4856 112.04 48.3532 111.995 48.0522 112.121Z" fill="white" fill-opacity="0.564112"/>
<path fill-rule="evenodd" clip-rule="evenodd" d="M54.5404 108.657C54.6582 108.706 54.7761 108.756 54.9217 108.818C54.9273 108.713 54.9431 108.604 54.9318 108.601C54.713 108.544 54.4911 108.499 54.2697 108.452C54.2733 108.719 54.1646 109.109 54.298 109.232C55.3194 110.179 56.4478 110.982 57.9259 110.831C58.4288 110.78 58.9367 110.532 59.387 110.276C59.8206 110.028 60.1829 109.653 60.6314 109.411C60.4219 109.641 60.1512 109.838 60.0132 110.106C59.324 111.442 58.1363 111.521 56.8903 111.372C55.699 111.228 54.6444 110.725 53.822 109.824C53.5627 109.54 53.4097 109.156 53.211 108.816C53.1208 108.662 53.0749 108.422 52.9443 108.36C52.3634 108.085 52.6559 107.781 52.9403 107.585C53.4003 107.266 53.9364 106.784 54.3103 107.722C54.3393 107.795 54.5825 107.768 54.6318 107.847C54.8141 108.141 54.9797 108.452 55.0924 108.777C55.1116 108.832 54.8394 108.99 54.7019 109.101C54.614 108.985 54.5262 108.869 54.4382 108.753C54.4722 108.721 54.5064 108.689 54.5404 108.657Z" fill="white" fill-opacity="0.564112"/>
<path fill-rule="evenodd" clip-rule="evenodd" d="M54.8323 107.405C55.0665 107.288 55.3047 107.179 55.5335 107.053C55.7467 106.936 56.1096 106.666 56.1324 106.692C56.3805 106.982 56.9488 107.027 56.854 107.598C56.8169 107.822 56.9365 108.069 56.9122 108.298C56.8887 108.516 56.813 108.759 56.6767 108.924C56.6111 109.003 56.2926 108.991 56.2007 108.904C56.1163 108.824 56.1827 108.589 56.3265 108.397C56.4149 108.512 56.5033 108.626 56.6346 108.796C56.679 108.647 56.7583 108.51 56.7245 108.472C56.5996 108.334 56.4312 108.129 56.2907 108.137C56.122 108.147 55.8521 108.331 55.8283 108.473C55.7896 108.704 55.8323 109.045 55.9855 109.193C56.8787 110.059 58.0858 110.406 59.2795 109.481C59.6433 109.199 60.0747 109.002 60.5348 108.865C59.5805 109.236 59.1887 110.513 57.9696 110.458C56.9037 110.41 55.8668 110.296 55.0555 109.371C55.6992 108.643 55.3596 108.008 54.8414 107.398L54.8323 107.405Z" fill="white" fill-opacity="0.564112"/>
<path fill-rule="evenodd" clip-rule="evenodd" d="M54.8514 107.447C54.7335 107.445 54.547 107.492 54.5081 107.435C53.9862 106.669 53.408 106.745 52.8195 107.305C52.6504 107.054 52.5014 106.833 52.3196 106.563C52.2575 106.702 52.2347 106.735 52.228 106.771C52.1861 107.001 52.1477 107.232 52.1083 107.463C51.9451 107.399 51.638 107.321 51.6428 107.275C51.6691 107.014 51.7194 106.728 51.8554 106.513C52.2635 105.866 53.0108 105.813 53.6357 105.556C53.7691 105.501 53.9628 105.546 54.113 105.595C54.3951 105.687 54.6853 105.783 54.9346 105.939C55.1029 106.045 55.3084 106.252 55.3151 106.422C55.3246 106.664 55.1757 106.917 55.0707 107.155C55.0588 107.182 54.8161 107.153 54.8111 107.125C54.7754 106.929 54.7738 106.727 54.7541 106.41C54.6216 106.555 54.3698 106.739 54.3983 106.815C54.487 107.052 54.6817 107.248 54.8386 107.457C54.8424 107.454 54.8514 107.447 54.8514 107.447Z" fill="white" fill-opacity="0.564112"/>
<path fill-rule="evenodd" clip-rule="evenodd" d="M58.6937 114.212C58.4687 114.366 58.2435 114.52 57.9808 114.699C57.9808 114.559 57.9532 114.346 57.9864 114.142C58.0602 113.689 57.8852 113.437 57.4351 113.338C56.9791 113.238 56.5286 113.113 56.1247 113.012V113.718C55.9493 113.655 55.6378 113.614 55.6235 113.525C55.5763 113.232 55.6339 112.922 55.6593 112.62C55.6616 112.592 55.7179 112.564 55.754 112.544C56.0428 112.39 57.4303 112.586 57.6737 112.815C57.7494 112.886 57.8277 113.028 57.8956 113.023C58.6697 112.962 58.7582 113.71 59.1505 114.083C59.2921 114.218 59.2954 114.556 59.2582 114.785C59.2421 114.884 58.9688 114.989 58.8051 115.002C58.7073 115.01 58.4947 114.815 58.5104 114.761C58.55 114.622 58.6884 114.511 58.7874 114.389C58.7562 114.33 58.725 114.271 58.6937 114.212Z" fill="white" fill-opacity="0.564112"/>
<path fill-rule="evenodd" clip-rule="evenodd" d="M52.1232 107.872C52.7581 108.815 53.3603 109.709 53.9623 110.604C53.9592 110.62 53.956 110.637 53.9529 110.653C53.5455 110.236 53.1212 109.833 52.7362 109.397C52.461 109.084 52.2871 108.672 51.9809 108.401C51.5238 107.998 51.0045 108.176 50.8857 108.607C51.1513 108.658 51.4209 108.71 51.6904 108.761C51.5569 109.013 51.4862 109.373 51.2762 109.494C50.8846 109.719 50.3573 109.572 50.3073 109.14C50.2413 108.571 50.3677 107.951 50.5443 107.395C50.6371 107.102 50.9715 107.103 51.2673 107.379C51.5186 107.613 51.8757 107.735 52.1232 107.872Z" fill="white" fill-opacity="0.564112"/>
<path fill-rule="evenodd" clip-rule="evenodd" d="M56.572 114.519C57.2354 115.184 57.9813 115.636 59.0583 115.653C58.9016 115.478 58.8194 115.386 58.7857 115.349H60.8247C59.0436 116.056 57.2877 115.952 56.572 114.519Z" fill="white" fill-opacity="0.564112"/>
<path fill-rule="evenodd" clip-rule="evenodd" d="M57.678 113.817C57.7306 114.298 57.7735 114.691 57.8285 115.196C57.4838 114.893 57.1244 114.612 56.8135 114.286C56.704 114.171 56.7134 113.949 56.6687 113.776C56.866 113.729 57.0663 113.638 57.2598 113.65C57.4346 113.661 57.6022 113.784 57.678 113.817Z" fill="white" fill-opacity="0.564112"/>
<mask id="mask1_280_44773" style="mask-type:luminance" maskUnits="userSpaceOnUse" x="58" y="107" width="3" height="2">
<path fill-rule="evenodd" clip-rule="evenodd" d="M58.8425 107.745H60.8068V108.911H58.8425V107.745Z" fill="white"/>
</mask>
<g mask="url(#mask1_280_44773)">
<path fill-rule="evenodd" clip-rule="evenodd" d="M59.7818 108.261C59.8354 108.156 59.8891 108.051 59.9427 107.946L59.7914 107.821C59.6711 107.948 59.5507 108.076 59.4304 108.203C59.5888 108.333 59.7356 108.552 59.9082 108.574C60.1955 108.61 60.4992 108.52 60.8068 108.561C60.4468 108.658 60.0901 108.769 59.7261 108.847C59.3392 108.93 58.9185 109.037 58.8425 108.416C58.9401 108.483 59.0158 108.535 58.9789 108.51C59.2275 108.228 59.4243 107.953 59.6802 107.752C59.7402 107.705 60.0011 107.906 60.1696 107.993C60.101 108.12 60.0322 108.247 59.9635 108.374C59.903 108.336 59.8423 108.299 59.7818 108.261Z" fill="white" fill-opacity="0.564112"/>
</g>
</g>
<mask id="mask2_280_44773" style="mask-type:luminance" maskUnits="userSpaceOnUse" x="86" y="88" width="15" height="39">
<path fill-rule="evenodd" clip-rule="evenodd" d="M92.0925 90.9359C91.2033 90.0467 88.2748 89.1479 86.9216 88.8096C87.7754 100.215 89.5602 123.315 89.8695 124.474C90.2561 125.924 98.7132 126.504 99.4865 125.924C100.26 125.344 101.13 119.883 100.936 116.887C100.743 113.891 93.204 92.0474 92.0925 90.9359Z" fill="white"/>
</mask>
<g mask="url(#mask2_280_44773)">
<path fill-rule="evenodd" clip-rule="evenodd" d="M98.0233 110.588C98.1369 110.534 98.2473 110.471 98.3641 110.426C99.6176 109.936 99.9029 109.449 99.9318 107.741C100.375 109.368 99.7132 110.497 98.087 110.919C96.5516 111.319 95.0892 111.188 93.7181 110.352C93.1875 110.029 92.7802 109.618 92.6091 108.973C92.5554 108.771 92.2551 108.568 92.0301 108.508C91.9201 108.479 91.7238 108.777 91.5666 108.927C91.6111 108.982 91.656 109.037 91.7007 109.091C91.8523 109.017 92.0039 108.943 92.1556 108.869C92.2098 108.894 92.2641 108.919 92.3184 108.944C92.2476 109.153 92.2356 109.458 92.0913 109.548C91.9075 109.661 91.5503 109.7 91.3878 109.59C91.1523 109.432 90.9669 109.133 90.8671 108.856C90.7725 108.593 90.7742 108.275 90.8115 107.991C90.8414 107.764 90.9331 107.49 91.0943 107.347C91.4318 107.047 91.8335 106.819 92.2967 106.502C92.4724 107.217 92.5263 107.876 93.3011 107.676C93.5091 107.623 93.735 107.272 93.7668 107.032C93.7864 106.885 93.4535 106.691 93.2788 106.517C93.2368 106.562 93.1948 106.606 93.1527 106.65C93.1527 106.692 93.1386 106.74 93.1551 106.773C93.2399 106.944 93.3323 107.11 93.4222 107.278C93.308 107.325 93.1115 107.434 93.093 107.41C92.9641 107.237 92.796 107.042 92.7833 106.844C92.7512 106.349 93.2021 106.032 93.8223 106.045C93.9859 106.049 94.2186 106.092 94.3024 106.004C94.7698 105.515 95.2068 105.511 95.7208 105.939C95.8574 106.053 96.1284 106.027 96.3375 106.025C96.7174 106.022 97.0136 106.153 96.9809 106.565C96.9478 106.981 96.6499 107.115 96.1895 107.056C96.2449 106.849 96.2836 106.705 96.3259 106.547C96.2273 106.523 96.123 106.482 96.1132 106.498C96.0134 106.664 95.8357 106.852 95.8587 107.008C95.9165 107.4 96.4969 107.569 96.8579 107.254C97.3489 106.826 97.8244 106.804 98.3313 107.134C98.8701 107.484 98.9722 108.041 98.9031 108.628C98.842 109.148 98.4735 109.477 98.0004 109.506C97.7224 109.523 97.4169 109.261 97.1458 109.089C97.0852 109.051 97.1167 108.866 97.0971 108.654C97.3041 108.743 97.4312 108.798 97.5692 108.857C97.6087 108.772 97.6664 108.673 97.6565 108.666C97.5049 108.553 97.3407 108.37 97.1872 108.377C97.0646 108.382 96.8808 108.608 96.8482 108.762C96.7068 109.434 97.3158 109.952 98.084 109.843C98.833 109.737 99.3484 109.106 99.3932 108.218C99.4108 107.871 99.399 107.522 99.3997 107.175C99.4004 106.828 99.3999 106.481 99.5481 106.131C99.5481 107.054 99.6357 107.987 99.5233 108.896C99.413 109.789 98.0476 110.43 96.9932 110.189C96.7503 110.134 96.5207 110.021 96.215 109.908C96.7686 109.562 96.9278 109.112 96.7438 108.587C96.5635 108.073 96.104 107.993 95.6191 107.86C94.956 107.678 94.3904 107.903 93.8007 108.057C93.1955 108.214 92.8792 108.949 93.1241 109.53C93.3235 110.002 93.6491 110.04 94.3058 109.667C95.3426 110.978 97.255 111.381 98.5911 110.482C98.4014 110.517 98.2117 110.553 98.0221 110.589L98.0233 110.588Z" fill="white"/>
<path fill-rule="evenodd" clip-rule="evenodd" d="M92.5977 92.2069C92.8844 92.6298 92.3644 92.9004 92.2713 93.3058C92.5631 93.1049 92.8675 92.8918 92.9944 92.6013C93.0882 92.3866 93.0335 92.0092 92.8915 91.8186C92.7641 91.6476 92.4183 91.5506 92.1858 91.576C92.0173 91.5945 91.804 91.8456 91.7502 92.0329C91.717 92.1485 91.9234 92.4369 92.0633 92.4691C92.2049 92.5016 92.3972 92.3142 92.5977 92.2069ZM92.237 89.0996C92.5889 89.3119 92.9539 89.5055 93.2889 89.7415C93.6349 89.9854 93.6345 90.357 93.4787 90.6945C93.2912 91.1005 92.948 91.1612 92.6766 91.0364C92.8206 90.8597 93.1072 90.6615 93.1027 90.4699C93.0983 90.2865 92.8204 90.015 92.6117 89.9521C92.2618 89.8466 91.9873 90.131 91.9681 90.4411C91.9508 90.7218 92.0645 91.0752 92.2471 91.2878C92.4954 91.5772 93.1277 91.5167 93.4522 91.2583C93.5902 91.1485 93.7033 91.0069 93.8438 90.901C94.1339 90.6825 94.4338 90.539 94.7236 90.9092C94.743 90.9341 94.769 90.9564 94.7963 90.9721C95.0085 91.0929 95.373 91.1816 95.4042 91.3374C95.4762 91.6971 95.4315 92.1001 95.3428 92.4633C95.3005 92.6366 95.0707 92.8249 94.887 92.8828C94.7517 92.9255 94.4797 92.8131 94.4016 92.6874C94.3005 92.5243 94.3315 92.2793 94.2928 91.9659C94.4458 92.0786 94.4792 92.091 94.4918 92.1144C94.5782 92.276 94.6604 92.4398 94.744 92.6031C94.8707 92.4978 95.1086 92.384 95.1011 92.2892C95.085 92.0828 94.9978 91.7983 94.843 91.7035C94.5045 91.496 94.1385 91.6013 93.9087 91.9273C93.641 92.3072 93.4172 92.7188 93.184 93.1223C92.817 93.758 92.3151 94.2294 91.6117 94.4754C91.0375 94.6761 90.502 94.527 89.9749 94.3112C89.1956 93.9924 88.5881 93.4452 88.0405 92.8231C87.3304 92.0163 86.4942 91.3733 85.4047 91.2646C84.7758 91.202 84.1251 91.3572 83.6357 91.4009C84.2861 90.9667 85.1852 90.8646 86.0306 91.2341C86.9326 91.6281 87.758 92.2012 88.605 92.7156C89.0146 92.9642 89.3732 93.3053 89.799 93.5155C90.1837 93.7053 90.6722 93.7219 90.9566 93.3545C91.1695 93.0794 91.2933 92.6759 91.3085 92.3232C91.3251 91.9397 91.0108 91.6797 90.6305 91.6191C90.4503 91.5903 90.1941 91.6396 90.0748 91.7574C89.9837 91.8472 89.9825 92.1608 90.0709 92.265C90.1695 92.3809 90.4145 92.3723 90.6409 92.4293C90.6437 92.7397 90.3979 92.8893 90.0742 92.9161C89.6648 92.9501 89.3963 92.6143 89.2519 92.0274C88.5403 91.6973 87.8971 91.3992 87.2539 91.1009C87.2698 91.0646 87.2855 91.0282 87.3014 90.9918C87.7281 91.1656 88.1444 91.3749 88.5841 91.5048C89.2833 91.7115 89.7883 91.2723 89.672 90.552C89.5882 90.6202 89.5294 90.6973 89.4528 90.7245C89.288 90.7834 89.0525 90.9052 88.9585 90.8396C88.8195 90.7429 88.7074 90.5013 88.7178 90.3294C88.7266 90.1861 88.9029 89.9814 89.0488 89.9311C89.5363 89.7632 89.9929 90.0512 90.0598 90.5967C90.1012 90.934 90.2541 91.0545 90.5425 91.148C90.7649 91.22 90.9534 91.3922 91.1732 91.4788C91.3204 91.5367 91.5104 91.5685 91.6532 91.5233C91.7335 91.4978 91.8261 91.2638 91.7895 91.1741C91.7317 91.0328 91.5878 90.8976 91.4468 90.8279C91.3288 90.7696 91.1627 90.807 91.018 90.8048C90.7021 90.8002 90.4283 90.7402 90.425 90.3407C90.4215 89.9335 90.6882 89.8278 91.0291 89.817C91.1237 89.814 91.219 89.8318 91.2409 89.8338C91.5361 89.5638 91.7899 89.3317 92.0437 89.0996H92.237Z" fill="white" fill-opacity="0.725361"/>
<path fill-rule="evenodd" clip-rule="evenodd" d="M103.729 117.68C102.575 117.585 101.339 117.522 100.116 117.362C99.7297 117.312 99.2754 117.091 99.036 116.796C98.7356 116.426 98.892 116.063 99.5555 116.143C99.4219 116.318 99.2883 116.492 99.086 116.756C99.3362 116.809 99.6213 116.958 99.7326 116.874C99.925 116.727 100.172 116.306 100.111 116.229C99.8723 115.925 99.4041 115.442 99.238 115.518C98.8592 115.69 98.4467 116.109 98.3422 116.505C98.1713 117.153 98.7999 117.828 99.5466 117.964C99.8561 118.02 100.181 117.987 100.498 118.01C101.753 118.101 103.008 118.198 104.242 118.44C103.578 118.498 102.913 118.555 102.249 118.612C102.241 118.689 102.233 118.766 102.225 118.843C102.346 118.951 102.467 119.059 102.588 119.166C102.184 119.717 100.142 120.098 99.3929 119.828C99.1054 119.724 98.6813 119.715 98.426 119.858C97.4948 120.38 96.4334 120.158 95.8489 119.248C95.5692 118.814 95.281 118.383 94.9707 117.97C94.366 117.166 94.6062 116.151 95.4881 115.668C95.8511 115.469 96.2037 115.202 96.4757 114.89C97.9085 113.248 99.8616 113.613 100.657 115.629C100.845 116.106 101.319 116.542 101.769 116.819C102.4 117.207 103.133 117.427 103.729 117.68Z" fill="white" fill-opacity="0.405157"/>
</g>
<mask id="mask3_280_44773" style="mask-type:luminance" maskUnits="userSpaceOnUse" x="72" y="87" width="19" height="43">
<path fill-rule="evenodd" clip-rule="evenodd" d="M75.6293 94.8021C74.3728 93.7873 74.5821 92.9819 74.8077 92.1925L75.2427 91.9026L78.4322 91.5159L81.4284 87.4565C81.4284 87.4565 85.7295 88.0365 87.1792 88.8097C88.629 89.5829 89.4989 98.04 89.4989 98.04L90.1755 128.147L86.5027 129.162H72.3431C72.2143 119.046 72.8297 97.2536 74.0828 96.5902C75.7259 95.7203 75.9192 95.0363 75.6293 94.8021Z" fill="white"/>
</mask>
<g mask="url(#mask3_280_44773)">
<path fill-rule="evenodd" clip-rule="evenodd" d="M88.8274 96.8676C87.8659 97.0778 86.8454 97.3334 85.8115 97.5081C85.485 97.5633 85.0607 97.4964 84.7928 97.3161C84.4567 97.0896 84.4937 96.7555 85.0529 96.6556C84.9876 96.8308 84.9224 97.0059 84.8236 97.2713C85.0402 97.2523 85.309 97.3026 85.3785 97.2062C85.4985 97.0392 85.5943 96.6352 85.5257 96.5875C85.2563 96.3998 84.7557 96.1232 84.6394 96.226C84.3741 96.4599 84.1431 96.9037 84.1565 97.2519C84.1787 97.8218 84.8575 98.2146 85.498 98.139C85.7636 98.1076 86.0197 98.0001 86.2828 97.9399C87.3258 97.7018 88.3698 97.4687 89.4336 97.3589C88.9077 97.5707 88.3816 97.7823 87.8559 97.9941C87.8686 98.0589 87.8813 98.1237 87.894 98.1884C88.0189 98.246 88.1437 98.3035 88.2689 98.3611C88.0779 98.9098 86.5126 99.7272 85.8364 99.6938C85.5769 99.6809 85.23 99.7793 85.0581 99.9592C84.4308 100.615 83.5129 100.699 82.8116 100.104C82.4763 99.8198 82.135 99.5411 81.7802 99.2826C81.0888 98.7787 81.0318 97.8934 81.6286 97.2808C81.8742 97.0285 82.0944 96.7237 82.2381 96.4023C82.9945 94.7096 84.6728 94.5209 85.8201 95.9632C86.0917 96.3046 86.5852 96.542 87.0203 96.6551C87.6294 96.8136 88.2795 96.8105 88.8274 96.8676Z" fill="#9C9522" fill-opacity="0.817854"/>
<path fill-rule="evenodd" clip-rule="evenodd" d="M83.5434 124.144C83.4273 124.004 83.3562 123.841 83.2697 123.832C83.1501 123.82 82.932 123.901 82.9097 123.984C82.8564 124.182 82.8925 124.405 82.8925 124.6C82.5835 124.559 82.2117 124.455 81.847 124.476C81.3813 124.503 81.2292 124.873 81.2137 125.291C80.5724 125.372 80.5103 125.44 80.6797 125.84C80.8043 125.764 80.9304 125.688 81.0565 125.611C81.0922 125.695 81.1808 125.808 81.1538 125.856C81.0687 126.009 80.9394 126.256 80.8289 126.255C80.4786 126.252 80.0785 126.238 79.7933 126.068C79.4797 125.881 79.5196 125.49 79.6565 125.147C79.7093 125.015 79.7076 124.862 79.7431 124.722C79.8428 124.328 79.9981 124.305 80.3512 124.515C80.567 124.644 80.8536 124.708 81.1047 124.698C81.2165 124.694 81.4011 124.439 81.4022 124.296C81.4033 124.155 81.2372 123.982 81.1005 123.884C81.0411 123.841 80.8717 123.952 80.6501 124.029C80.9165 124.115 81.0516 124.144 81.1665 124.209C81.1883 124.222 81.1476 124.441 81.1053 124.452C80.9665 124.489 80.7949 124.522 80.6699 124.472C80.2646 124.31 80.2227 123.935 80.5461 123.573C80.8701 123.211 82.5292 122.942 82.9758 123.161C83.1118 123.228 83.2792 123.243 83.4344 123.256C83.7801 123.285 84.0348 123.424 84.0476 123.8C84.0607 124.184 83.7995 124.381 83.4668 124.461C83.3527 124.488 83.2051 124.399 83.082 124.343C83.0587 124.333 83.0713 124.174 83.0803 124.172C83.1995 124.155 83.321 124.154 83.5434 124.144Z" fill="white" fill-opacity="0.486806"/>
<path fill-rule="evenodd" clip-rule="evenodd" d="M75.5423 100.89C75.4262 100.75 75.3551 100.586 75.2686 100.578C75.149 100.566 74.9309 100.647 74.9086 100.73C74.8553 100.928 74.8914 101.151 74.8914 101.346C74.5824 101.305 74.2106 101.201 73.8459 101.222C73.3802 101.249 73.2281 101.619 73.2126 102.037C72.5713 102.118 72.5092 102.186 72.6786 102.586C72.8032 102.51 72.9293 102.434 73.0554 102.357C73.0911 102.441 73.1797 102.554 73.1527 102.602C73.0676 102.755 72.9383 103.001 72.8278 103C72.4775 102.998 72.0774 102.984 71.7922 102.814C71.4786 102.627 71.5185 102.235 71.6554 101.892C71.7082 101.76 71.7065 101.608 71.742 101.468C71.8417 101.074 71.997 101.051 72.3501 101.261C72.5659 101.39 72.8525 101.453 73.1036 101.444C73.2154 101.44 73.4 101.185 73.4011 101.042C73.4022 100.901 73.2361 100.727 73.0994 100.629C73.04 100.587 72.8706 100.698 72.649 100.774C72.9154 100.861 73.0505 100.89 73.1654 100.955C73.1872 100.967 73.1465 101.186 73.1042 101.198C72.9654 101.235 72.7938 101.268 72.6688 101.218C72.2635 101.056 72.2216 100.681 72.545 100.319C72.869 99.957 74.5281 99.6876 74.9747 99.9069C75.1107 99.9737 75.2781 99.9888 75.4333 100.002C75.779 100.031 76.0337 100.17 76.0465 100.546C76.0596 100.93 75.7984 101.127 75.4657 101.206C75.3516 101.234 75.204 101.145 75.0809 101.089C75.0576 101.079 75.0702 100.92 75.0792 100.918C75.1984 100.901 75.3199 100.9 75.5423 100.89Z" fill="white" fill-opacity="0.486806"/>
<path fill-rule="evenodd" clip-rule="evenodd" d="M80.3444 126.763C80.0277 126.828 79.6064 126.871 79.1781 126.605C78.9588 126.468 78.6631 126.439 78.3964 126.397C77.2768 126.225 76.5972 125.597 76.4058 124.535C76.3048 123.975 76.5874 123.757 77.0999 123.575C77.5267 123.423 77.9092 123.521 78.3085 123.483C78.6939 123.447 78.8803 123.696 78.9075 124.029C78.9358 124.377 78.7121 124.57 78.3692 124.55C78.2308 124.543 78.0987 124.425 77.9637 124.358C78.0288 124.251 78.094 124.144 78.1714 124.016C77.7891 123.873 77.5199 124.071 77.3402 124.366C77.1158 124.735 77.0828 125.133 77.3557 125.57C77.4806 125.196 77.5839 124.887 77.6563 124.67C77.9911 124.729 78.2735 124.728 78.5037 124.837C78.6778 124.919 78.8751 125.128 78.9033 125.306C78.9601 125.664 78.7129 125.884 78.3623 125.9C77.955 125.919 77.9321 125.61 77.9105 125.273C78.055 125.253 78.1775 125.235 78.3002 125.218C78.3088 125.187 78.3175 125.155 78.3261 125.123C78.2129 125.082 78.0829 124.985 77.9905 125.013C77.8703 125.049 77.7315 125.165 77.6855 125.281C77.5231 125.689 78.0044 126.261 78.4233 126.133C78.8312 126.01 79.1158 126.132 79.4431 126.359C79.7346 126.562 80.1001 126.658 80.3444 126.763Z" fill="white" fill-opacity="0.486806"/>
<path fill-rule="evenodd" clip-rule="evenodd" d="M84.7148 127.32C84.3345 127.081 83.9543 126.842 83.4971 126.555C84.0886 126.355 84.3708 126.041 84.3444 125.527C84.3204 125.059 84.0011 124.871 83.4972 124.82C83.7664 124.625 83.9733 124.469 84.1872 124.324C84.5258 124.093 84.8322 124.07 85.0994 124.449C85.1769 124.559 85.318 124.626 85.4351 124.706C85.4998 124.749 85.588 124.764 85.6431 124.815C85.8332 124.993 86.0039 126.272 85.8756 126.494C85.7132 126.774 85.4613 126.866 85.181 126.734C84.9225 126.611 84.8974 126.387 85.0758 126.082C85.1503 126.224 85.1955 126.311 85.2799 126.472C85.3142 126.396 85.3594 126.343 85.3473 126.315C85.287 126.174 85.2428 125.957 85.1359 125.916C84.7199 125.758 84.2753 126.23 84.4104 126.692C84.4694 126.893 84.63 127.065 84.7446 127.251C84.7346 127.274 84.7248 127.297 84.7148 127.32Z" fill="white" fill-opacity="0.486806"/>
<path fill-rule="evenodd" clip-rule="evenodd" d="M76.7137 104.066C76.3334 103.827 75.9532 103.588 75.496 103.301C76.0875 103.101 76.3697 102.787 76.3433 102.273C76.3193 101.805 76 101.617 75.4961 101.566C75.7653 101.371 75.9722 101.215 76.1861 101.069C76.5247 100.839 76.8311 100.816 77.0983 101.195C77.1758 101.305 77.3169 101.372 77.434 101.451C77.4987 101.495 77.5869 101.51 77.642 101.561C77.8321 101.739 78.0028 103.018 77.8745 103.239C77.7121 103.52 77.4602 103.612 77.1799 103.479C76.9214 103.357 76.8963 103.133 77.0747 102.828C77.1492 102.97 77.1944 103.057 77.2788 103.218C77.3131 103.142 77.3583 103.089 77.3462 103.061C77.2859 102.919 77.2417 102.703 77.1348 102.662C76.7188 102.503 76.2742 102.976 76.4093 103.437C76.4683 103.639 76.6289 103.811 76.7435 103.996C76.7335 104.02 76.7237 104.043 76.7137 104.066Z" fill="white" fill-opacity="0.486806"/>
<mask id="mask4_280_44773" style="mask-type:luminance" maskUnits="userSpaceOnUse" x="81" y="124" width="6" height="4">
<path fill-rule="evenodd" clip-rule="evenodd" d="M81.4983 124.708H86.3463V127.666H81.4983V124.708Z" fill="white"/>
</mask>
<g mask="url(#mask4_280_44773)">
<path fill-rule="evenodd" clip-rule="evenodd" d="M83.3048 125.914C83.0917 126.327 83.3097 126.636 83.6146 126.898C84.5302 127.688 85.3385 127.768 86.3463 127.188C86.0296 127.541 85.4343 127.743 84.8454 127.639C83.7757 127.45 82.8284 127.086 82.453 125.907C82.3606 125.617 82.2182 125.279 81.7198 125.265C81.792 125.383 81.8272 125.428 81.8489 125.479C81.8852 125.564 81.9132 125.653 81.9446 125.74C81.8324 125.727 81.6329 125.737 81.6223 125.698C81.5598 125.463 81.4354 125.148 81.5365 124.994C81.6514 124.82 81.9972 124.68 82.2143 124.713C82.7538 124.794 83.2866 124.956 83.8011 125.143C83.9492 125.197 84.1287 125.46 84.1109 125.604C84.0852 125.811 83.9064 126.01 83.7528 126.176C83.7295 126.201 83.4887 126.023 83.3048 125.914Z" fill="white" fill-opacity="0.486806"/>
</g>
<mask id="mask5_280_44773" style="mask-type:luminance" maskUnits="userSpaceOnUse" x="73" y="101" width="6" height="4">
<path fill-rule="evenodd" clip-rule="evenodd" d="M73.4973 101.454H78.3454V104.412H73.4973V101.454Z" fill="white"/>
</mask>
<g mask="url(#mask5_280_44773)">
<path fill-rule="evenodd" clip-rule="evenodd" d="M75.3038 102.659C75.0907 103.073 75.3087 103.381 75.6136 103.644C76.5293 104.433 77.3376 104.514 78.3454 103.934C78.0286 104.287 77.4333 104.489 76.8444 104.385C75.7747 104.195 74.8274 103.831 74.452 102.653C74.3596 102.363 74.2172 102.025 73.7188 102.011C73.791 102.129 73.8262 102.174 73.8479 102.224C73.8843 102.31 73.9122 102.398 73.9436 102.486C73.8314 102.473 73.6319 102.483 73.6213 102.443C73.5588 102.209 73.4344 101.894 73.5355 101.74C73.6505 101.566 73.9962 101.426 74.2134 101.459C74.7528 101.54 75.2856 101.702 75.8001 101.889C75.9482 101.943 76.1278 102.206 76.1099 102.35C76.0842 102.556 75.9055 102.756 75.7518 102.921C75.7285 102.946 75.4877 102.769 75.3038 102.659Z" fill="white" fill-opacity="0.486806"/>
</g>
<mask id="mask6_280_44773" style="mask-type:luminance" maskUnits="userSpaceOnUse" x="76" y="101" width="5" height="3">
<path fill-rule="evenodd" clip-rule="evenodd" d="M76.5237 101.261H80.2989V103.779H76.5237V101.261Z" fill="white"/>
</mask>
<g mask="url(#mask6_280_44773)">
<path fill-rule="evenodd" clip-rule="evenodd" d="M77.873 101.35C78.5423 101.053 78.9854 101.58 79.5123 101.732C79.5965 101.757 79.6667 102.124 79.6042 102.275C79.544 102.421 79.2935 102.586 79.1457 102.569C79.0169 102.555 78.9147 102.3 78.7298 102.059C78.7129 102.257 78.6359 102.515 78.6975 102.554C78.8956 102.679 79.1645 102.819 79.3697 102.776C79.6804 102.712 79.9469 102.62 80.299 102.975C79.3352 102.711 78.7218 103.195 78.054 103.612C77.7665 103.792 77.3234 103.802 76.9674 103.757C76.7996 103.736 76.6704 103.406 76.5237 103.215C76.5575 103.192 76.5912 103.169 76.6251 103.145C76.7556 103.326 76.8509 103.57 77.0274 103.67C77.1938 103.764 77.4681 103.771 77.6559 103.706C78.1571 103.53 78.3409 102.973 78.1581 102.471C78.0299 102.119 77.97 101.743 77.873 101.35Z" fill="white" fill-opacity="0.486806"/>
</g>
<path fill-rule="evenodd" clip-rule="evenodd" d="M82.3304 122.504C81.7456 122.677 81.1032 122.895 80.4454 123.046C80.1858 123.106 79.8567 123.088 79.6273 122.971C79.4912 122.902 79.4878 122.572 79.5254 122.33C79.6245 122.449 79.7237 122.569 79.8713 122.747C79.8562 121.909 80.079 121.517 80.6224 121.479C80.8085 121.466 81.0318 121.656 81.1884 121.806C81.2225 121.838 81.072 122.124 80.9519 122.234C80.8861 122.294 80.7061 122.23 80.5777 122.221C80.6561 122.122 80.7326 122.02 80.8139 121.923C80.841 121.89 80.8806 121.869 80.9145 121.842L80.889 121.713C80.7314 121.738 80.4946 121.711 80.4341 121.802C80.3359 121.948 80.268 122.226 80.3452 122.349C80.4241 122.476 80.729 122.579 80.8725 122.526C81.3681 122.341 81.8433 122.339 82.3315 122.507C82.3703 122.52 82.4017 122.555 82.3304 122.504Z" fill="white" fill-opacity="0.486806"/>
</g>
<mask id="mask7_280_44773" style="mask-type:luminance" maskUnits="userSpaceOnUse" x="60" y="87" width="15" height="43">
<path fill-rule="evenodd" clip-rule="evenodd" d="M73.7765 94.8504C73.2933 93.4489 73.5349 91.5159 73.5349 91.5159L71.3602 92.2408L68.7506 87.1665C65.7382 87.6981 65.6094 87.8914 63.4347 88.8579C60.8405 90.0109 61.3567 93.8839 60.9701 99.1514L60.4385 128.002L67.5908 129.114L72.3751 129.162L74.5014 96.4451C74.5014 96.4451 74.2598 96.2518 73.7765 94.8504Z" fill="white"/>
</mask>
<g mask="url(#mask7_280_44773)">
<mask id="mask8_280_44773" style="mask-type:luminance" maskUnits="userSpaceOnUse" x="67" y="109" width="8" height="6">
<path fill-rule="evenodd" clip-rule="evenodd" d="M74.0491 109.368H67.2113V114.109H74.0491V109.368Z" fill="white"/>
</mask>
<g mask="url(#mask8_280_44773)">
<path fill-rule="evenodd" clip-rule="evenodd" d="M72.1656 110.851C71.9726 110.916 71.7692 110.965 71.5959 111.064C71.565 111.081 71.6333 111.408 71.6989 111.424C71.912 111.477 72.1756 111.524 72.3651 111.446C72.9764 111.192 73.0306 110.633 72.5328 110.092C72.0402 109.557 69.5174 109.163 68.8412 109.484C68.6131 109.592 68.3312 109.597 68.0713 109.63C67.5377 109.697 67.2059 109.955 67.2114 110.515C67.2158 110.976 67.772 111.493 68.2418 111.449C68.4052 111.435 68.5659 111.297 68.7053 111.188C68.7351 111.164 68.662 110.942 68.6459 110.943C68.4862 110.954 68.3285 110.993 68.0056 111.056C68.1437 110.809 68.2209 110.531 68.3206 110.523C68.529 110.506 68.8844 110.578 68.9371 110.709C69.0504 110.99 69.0098 111.331 69.0311 111.633C69.4549 111.578 70.0238 111.413 70.5769 111.454C71.2701 111.505 71.5163 112.057 71.5196 112.684C72.4988 112.781 72.6164 112.912 72.3146 113.522C72.1493 113.392 71.9833 113.263 71.8174 113.134C71.7455 113.271 71.581 113.446 71.62 113.538C71.7142 113.759 71.9019 114.106 72.0539 114.107C72.5904 114.111 73.2042 114.125 73.6446 113.882C74.1632 113.595 74.1102 112.988 73.8895 112.448C73.8178 112.272 73.8191 112.069 73.7763 111.881C73.6305 111.24 73.3824 111.187 72.8304 111.52C72.5068 111.715 72.0705 111.795 71.6851 111.793C71.5252 111.793 71.2591 111.457 71.2368 111.253C71.214 111.046 71.3802 110.74 71.5615 110.614C71.7007 110.517 71.9914 110.632 72.2148 110.653C72.1985 110.719 72.1819 110.785 72.1656 110.851Z" fill="white" fill-opacity="0.419854"/>
</g>
<path fill-rule="evenodd" clip-rule="evenodd" d="M77.3373 113.115C77.1299 112.533 76.9661 112.074 76.859 111.774C76.3357 111.864 75.9461 111.884 75.5946 112.008C75.3568 112.093 75.0059 112.32 75 112.493C74.989 112.812 75.1143 113.219 75.3355 113.437C75.4949 113.594 75.9429 113.598 76.1839 113.494C76.3484 113.422 76.4084 113.05 76.4405 112.802C76.4467 112.755 76.1025 112.663 75.7956 112.544C75.9933 112.435 76.1983 112.241 76.2925 112.285C76.5088 112.384 76.7757 112.569 76.8368 112.773C77.0323 113.427 76.2913 114.157 75.6222 113.958C75.0531 113.789 74.6629 113.984 74.2077 114.286C73.7406 114.596 73.1781 114.766 72.8097 114.93C73.211 115.012 73.8271 115.1 74.4818 114.732C74.8689 114.514 75.3539 114.437 75.8058 114.367C77.4471 114.115 78.4715 113.169 78.769 111.582C78.9272 110.739 78.5097 110.447 77.724 110.136C77.0507 109.869 76.4486 110.067 75.8224 109.984C75.2879 109.914 75.0234 110.324 74.9695 110.79C74.9125 111.283 75.2176 111.574 75.7042 111.585C75.9198 111.59 76.1808 111.488 76.3358 111.344C76.3963 111.287 76.2223 110.983 76.1457 110.765C76.6792 110.585 77.0691 110.874 77.3371 111.297C77.6899 111.854 77.7458 112.451 77.3373 113.115Z" fill="black"/>
<path fill-rule="evenodd" clip-rule="evenodd" d="M68.1703 111.953C67.7704 111.69 67.5219 111.541 67.2886 111.372C66.4617 110.772 66.3333 110.791 65.5691 111.493C65.364 111.681 65.0505 111.752 64.8299 111.929C64.5315 112.168 64.2768 114.112 64.4658 114.439C64.7123 114.864 65.1004 114.992 65.5269 114.801C65.9235 114.623 65.9679 114.29 65.6884 113.836C65.5742 114.045 65.5044 114.172 65.4198 114.327C65.3572 114.262 65.2654 114.194 65.2758 114.172C65.3724 113.963 65.5146 113.58 65.5908 113.591C65.9269 113.64 66.4049 113.72 66.5307 113.948C66.6969 114.249 66.6313 114.708 66.5658 115.082C66.5366 115.249 66.2633 115.374 66.1009 115.518C66.138 115.572 66.1749 115.625 66.212 115.679C66.7967 115.333 67.3813 114.988 68.1031 114.561C67.2174 114.215 66.7227 113.757 66.821 112.919C66.9005 112.242 67.3792 112.009 68.1703 111.953Z" fill="white" fill-opacity="0.419854"/>
<path fill-rule="evenodd" clip-rule="evenodd" d="M62.3712 114.494C62.6743 114.771 62.9768 115.05 63.2807 115.327C65.1282 117.009 68.438 116.315 69.4538 114.037C69.6013 113.706 69.7432 113.363 69.9536 113.073C70.0934 112.88 70.3506 112.772 70.5553 112.626C70.5981 112.683 70.6411 112.741 70.6839 112.798C70.5591 112.944 70.4343 113.091 70.3094 113.237L70.4083 113.461C70.6097 113.379 70.9149 113.352 70.9926 113.204C71.2168 112.781 71.2893 112.297 70.8088 111.977C70.6241 111.853 70.3319 111.78 70.1202 111.827C69.2405 112.02 68.3588 112.228 67.5103 112.523C67.3078 112.594 67.0952 113.043 67.1314 113.282C67.1747 113.565 67.4478 113.852 67.6951 114.042C67.7632 114.094 68.0951 113.805 68.3419 113.65C68.6625 114.171 68.4051 114.624 68.0172 115.015C66.5497 116.495 64.7653 116.525 63.2243 115.119C62.9614 114.88 62.6861 114.653 62.4167 114.421C62.4015 114.445 62.3864 114.469 62.3712 114.494Z" fill="white" fill-opacity="0.419854"/>
<path fill-rule="evenodd" clip-rule="evenodd" d="M63.1551 112.866C63.1656 113.035 63.2744 113.428 63.1783 113.488C62.8787 113.675 62.5079 113.784 62.1524 113.833C61.7525 113.888 61.339 113.846 60.9214 113.97C62.1815 113.739 63.1272 114.339 64.0488 115.053C64.5482 115.439 65.1232 115.626 65.7477 115.363C66.1877 115.178 66.4149 114.853 66.3077 114.25C65.9781 115.188 65.4579 115.52 64.8093 115.284C64.0693 115.015 63.7032 114.115 63.9984 113.361C64.1008 113.1 64.1139 112.805 64.1842 112.529C64.2553 112.252 64.3471 111.98 64.4532 111.628C63.8933 111.528 63.3956 111.387 62.8952 111.812C62.6894 111.987 62.3119 111.961 62.1157 112.141C61.9208 112.32 61.7113 112.682 61.7694 112.89C61.8451 113.16 62.1466 113.455 62.415 113.545C62.5449 113.588 62.8207 113.186 63.1551 112.866Z" fill="white" fill-opacity="0.419854"/>
<path fill-rule="evenodd" clip-rule="evenodd" d="M70.2551 115.01C70.5256 115.043 70.9734 114.998 71.0286 115.128C71.1352 115.378 71.1315 115.861 70.9694 116.002C70.7424 116.198 70.3089 116.277 69.9993 116.216C69.3218 116.083 68.729 116.174 68.3637 116.425C69.1049 116.551 69.9989 116.754 70.9028 116.832C71.3346 116.869 71.8347 116.756 72.2076 116.539C72.3919 116.432 72.3582 115.933 72.4231 115.612C72.364 115.596 72.3048 115.581 72.2457 115.566C72.1459 115.787 72.0459 116.008 71.9461 116.23C71.8834 116.222 71.8204 116.215 71.7576 116.207C71.7576 115.962 71.7724 115.716 71.7547 115.472C71.7132 114.903 71.3093 114.601 70.8461 114.616C70.5065 114.627 70.1487 114.917 69.8625 115.16C69.7946 115.218 69.9246 115.647 70.0702 115.796C70.1686 115.896 70.4597 115.831 70.6526 115.786C70.7163 115.771 70.7957 115.507 70.778 115.495C70.6244 115.39 70.4502 115.317 70.2822 115.234C70.2731 115.159 70.2641 115.084 70.2551 115.01Z" fill="white" fill-opacity="0.419854"/>
<mask id="mask9_280_44773" style="mask-type:luminance" maskUnits="userSpaceOnUse" x="60" y="120" width="8" height="6">
<path fill-rule="evenodd" clip-rule="evenodd" d="M61.1731 120.569L67.719 122.08L66.9459 125.429L60.4 123.918L61.1731 120.569Z" fill="white"/>
</mask>
<g mask="url(#mask9_280_44773)">
<path fill-rule="evenodd" clip-rule="evenodd" d="M67.0325 124.832C66.3278 125.316 65.8371 125.321 65.1711 124.85C65.5839 124.002 65.3714 123.456 64.497 123.122C64.4558 123.106 64.3948 123.111 64.3715 123.083C63.4805 122.019 62.6929 122.738 61.8907 123.203L61.9005 123.224C62.1373 122.787 62.1384 122.441 61.5397 122.287C61.5777 122.554 61.6479 122.79 61.6161 123.01C61.6087 123.063 61.2311 123.138 61.0743 123.076C60.7231 122.938 60.5618 122.515 60.8764 122.362C61.4234 122.096 61.6128 121.16 62.4959 121.503C62.5854 121.537 62.7553 121.364 62.889 121.289C63.3224 121.048 63.72 121.042 64.1157 121.404C64.2587 121.535 64.5156 121.537 64.6807 121.653C64.8602 121.779 65.0786 121.951 65.1214 122.138C65.1608 122.308 65.0123 122.541 64.8951 122.711C64.8578 122.766 64.5558 122.736 64.5449 122.698C64.4919 122.515 64.4973 122.316 64.4664 121.927C64.3052 122.212 64.1152 122.394 64.1338 122.555C64.1548 122.736 64.342 123.009 64.496 123.039C64.7224 123.083 65.15 123.01 65.2022 122.877C65.489 122.138 65.9574 122.395 66.4258 122.601C66.5612 122.66 66.7723 122.773 66.7761 122.867C66.7939 123.312 66.9524 123.67 67.2492 124.002C67.2961 124.054 67.1792 124.361 67.0705 124.412C66.89 124.497 66.645 124.512 66.4479 124.466C66.3767 124.45 66.3653 124.174 66.4688 123.954C66.61 124.062 66.7512 124.17 66.9114 124.292C66.9425 124.208 66.9976 124.111 66.9806 124.097C66.8016 123.944 66.6123 123.698 66.423 123.694C66.2632 123.691 65.973 123.971 65.9702 124.131C65.9664 124.338 66.1455 124.619 66.3312 124.74C66.5136 124.86 66.8026 124.82 67.0448 124.85L67.0325 124.832Z" fill="#BBB325" fill-opacity="0.730687"/>
</g>
<path fill-rule="evenodd" clip-rule="evenodd" d="M69.4996 126.146C69.3993 126.109 69.1651 126.092 69.0331 125.965C68.3095 125.27 67.5704 125.382 66.6909 125.707C65.6125 126.106 64.4997 125.876 63.5467 125.265C63.1704 125.024 62.9856 124.486 62.6924 124.099C62.5395 123.898 62.3407 123.733 62.1627 123.552C62.4505 123.346 62.7374 123.14 63.0269 122.937C63.0623 122.912 63.1106 122.905 63.1539 122.894C63.5641 122.786 64.9814 123.69 64.9981 124.113C65.0048 124.281 64.8434 124.497 64.698 124.612C64.6364 124.661 64.4191 124.505 64.2726 124.442C64.3001 124.38 64.3276 124.319 64.3552 124.257L64.801 124.36C64.8304 124.314 64.8599 124.268 64.8894 124.223C64.7495 124.103 64.5831 123.865 64.4752 123.891C64.291 123.934 64.0273 124.13 64.0097 124.285C63.9865 124.488 64.1115 124.821 64.2745 124.912C65.2138 125.438 66.1678 125.898 67.2663 125.224C67.7574 124.922 68.2498 125.062 68.6722 125.466C68.942 125.724 69.249 125.942 69.4996 126.146Z" fill="#BBB325" fill-opacity="0.730687"/>
<mask id="mask10_280_44773" style="mask-type:luminance" maskUnits="userSpaceOnUse" x="59" y="122" width="5" height="4">
<path fill-rule="evenodd" clip-rule="evenodd" d="M59.6805 122.758L63.8627 123.724L63.3879 125.78L59.2057 124.815L59.6805 122.758Z" fill="white"/>
</mask>
<g mask="url(#mask10_280_44773)">
<path fill-rule="evenodd" clip-rule="evenodd" d="M61.8827 123.267C61.743 123.704 61.7492 124.062 62.268 124.282C62.4353 124.353 62.5181 124.61 62.654 124.77C62.9175 125.08 63.1913 125.382 63.3883 125.776C63.0147 125.427 62.6123 125.103 62.2746 124.722C61.8517 124.246 61.4165 123.83 60.7205 123.968C60.5059 124.011 60.3148 124.17 60.1401 124.261C60.4602 124.381 60.6928 124.469 60.9254 124.556C60.8615 124.719 60.8026 125.018 60.7327 125.021C60.3728 125.033 59.9801 125.036 59.6612 124.899C59.5177 124.838 59.482 124.444 59.4649 124.196C59.4467 123.933 59.5082 123.665 59.5354 123.399C59.5741 123.02 60.1046 122.843 60.4483 123.132C60.9101 123.522 61.3762 123.571 61.893 123.288C61.8924 123.287 61.8827 123.267 61.8827 123.267Z" fill="#908922"/>
</g>
<path fill-rule="evenodd" clip-rule="evenodd" d="M66.9914 124.892C67.8907 124.328 68.5603 124.478 69.0446 125.382C68.4794 124.682 67.7565 124.664 66.9799 124.873C66.9793 124.873 66.9914 124.892 66.9914 124.892Z" fill="black"/>
<mask id="mask11_280_44773" style="mask-type:luminance" maskUnits="userSpaceOnUse" x="58" y="104" width="8" height="5">
<path fill-rule="evenodd" clip-rule="evenodd" d="M58.9895 104.371H65.9213V108.435H58.9895V104.371Z" fill="white"/>
</mask>
<g mask="url(#mask11_280_44773)">
<path fill-rule="evenodd" clip-rule="evenodd" d="M63.0772 107.505C63.4719 107.243 63.5357 106.885 63.3988 106.513C63.2684 106.159 62.93 106.107 62.5885 106.011C62.0978 105.875 61.6771 106.042 61.2378 106.153C60.8302 106.256 60.5788 106.738 60.6892 107.144C60.8083 107.581 61.0894 107.644 61.5912 107.346C62.4268 108.325 63.7367 108.606 64.857 108.004C64.7422 107.977 64.6728 107.961 64.6815 107.963C64.964 107.721 65.3803 107.499 65.585 107.152C65.7881 106.808 65.7782 106.338 65.8294 106.084C66.1444 107.029 65.6378 107.95 64.4962 108.257C63.3231 108.574 62.2069 108.484 61.1544 107.85C60.756 107.609 60.4652 107.294 60.3353 106.823C60.2954 106.678 60.0998 106.508 59.953 106.483C59.842 106.464 59.695 106.658 59.5639 106.757C59.5913 106.802 59.6185 106.846 59.6457 106.891C59.7648 106.854 59.884 106.818 60.1597 106.733C60.0574 106.985 60.0346 107.218 59.9177 107.284C59.781 107.362 59.5232 107.356 59.3897 107.272C59.2402 107.178 59.1345 106.968 59.0767 106.787C59.0117 106.584 59.018 106.356 58.9997 106.138C58.9917 106.043 58.9793 105.941 59.0044 105.852C59.0686 105.625 59.8293 105.147 60.0959 105.152C60.3906 105.846 60.6087 106.051 60.9256 105.858C61.0743 105.767 61.17 105.508 61.1851 105.317C61.1916 105.233 60.9368 105.129 60.8005 105.034C60.7464 105.104 60.6924 105.174 60.6384 105.244C60.7027 105.258 60.7888 105.251 60.8265 105.29C60.8911 105.358 60.9676 105.459 60.9587 105.537C60.9521 105.594 60.8088 105.688 60.7434 105.675C60.6498 105.658 60.5376 105.576 60.4929 105.49C60.2871 105.096 60.6575 104.682 61.1933 104.655C61.3935 104.645 61.5906 104.547 61.7861 104.48C61.8601 104.455 61.9367 104.358 61.993 104.372C62.5018 104.498 63.0104 104.628 63.5065 104.795C63.5651 104.815 63.6115 105.108 63.5504 105.19C63.4611 105.31 63.2692 105.353 63.1211 105.429C63.0994 105.3 63.0778 105.171 63.033 104.903C62.9024 105.073 62.7288 105.258 62.7474 105.28C62.8781 105.434 63.0315 105.605 63.2128 105.666C63.3188 105.702 63.508 105.567 63.6275 105.47C63.9642 105.195 64.2986 105.279 64.6092 105.477C65.0349 105.749 65.1161 106.21 64.9899 106.631C64.9175 106.872 64.629 107.11 64.3803 107.222C64.0334 107.38 63.7467 107.106 63.7225 106.676C63.8445 106.67 63.9667 106.663 64.0889 106.656C64.0407 106.568 63.977 106.398 63.947 106.404C63.7927 106.434 63.5822 106.466 63.5111 106.576C63.3278 106.858 63.5569 107.286 63.9225 107.423C64.6015 107.678 65.307 107.18 65.3722 106.387C65.3947 106.115 65.3809 105.84 65.3822 105.566C65.3833 105.31 65.3824 105.053 65.4815 104.793C65.4815 105.48 65.58 106.185 65.4558 106.848C65.3104 107.624 63.9125 108.067 63.0772 107.505Z" fill="white" fill-opacity="0.980715"/>
</g>
<path fill-rule="evenodd" clip-rule="evenodd" d="M62.7732 106.725C62.6824 106.827 62.5053 106.943 62.5182 107.029C62.5492 107.235 62.6167 107.523 62.7654 107.606C63.1542 107.824 63.5945 107.949 64.0387 108.05C63.7651 108.05 63.4909 108.061 63.218 108.047C62.6353 108.019 62.1714 107.797 61.8819 107.252C61.7818 107.063 61.5914 106.922 61.443 106.761C61.3254 106.993 61.2526 107.138 61.1797 107.282C61.0975 107.203 60.9392 107.114 60.9477 107.046C60.9718 106.853 61.0107 106.57 61.1399 106.5C61.4377 106.34 61.7871 106.247 62.1259 106.2C62.352 106.168 62.6329 106.201 62.8206 106.316C63.0025 106.428 63.1362 106.669 63.2107 106.881C63.2416 106.969 63.072 107.138 62.9727 107.252C62.9525 107.275 62.7769 107.213 62.7779 107.196C62.786 107.068 62.8197 106.941 62.8455 106.814C62.8214 106.784 62.7973 106.755 62.7732 106.725Z" fill="white" fill-opacity="0.980715"/>
<mask id="mask12_280_44773" style="mask-type:luminance" maskUnits="userSpaceOnUse" x="59" y="88" width="15" height="9">
<path fill-rule="evenodd" clip-rule="evenodd" d="M59.1824 88.4229H73.197V96.9283H59.1824V88.4229Z" fill="white"/>
</mask>
<g mask="url(#mask12_280_44773)">
<path fill-rule="evenodd" clip-rule="evenodd" d="M60.1151 90.7524C60.1565 91.074 60.1848 91.2939 60.213 91.5137C60.0052 91.5171 59.7942 91.5424 59.5907 91.5139C59.4925 91.5003 59.3948 91.3972 59.3202 91.3136C58.9514 90.8991 59.3835 89.1082 59.901 88.8921C60.0887 88.814 60.2895 88.761 60.4653 88.662C60.991 88.3656 61.3455 88.5229 61.515 89.1185C61.5748 89.3285 61.6577 89.6388 61.8057 89.6922C62.0351 89.7749 62.3935 89.7621 62.5733 89.6255C62.6928 89.5345 62.596 89.1572 62.596 88.9082L62.3449 88.9106C62.354 89.075 62.3632 89.2393 62.3745 89.4422C62.2365 89.4422 62.0448 89.4616 62.0397 89.4391C61.9838 89.1873 61.8515 88.87 61.952 88.6898C62.0452 88.5229 62.4445 88.3715 62.6238 88.4395C63.1148 88.626 63.7992 88.5389 63.9909 89.2455C64.8271 89.2309 65.0658 90.0899 65.6699 90.4323C65.8702 90.546 66.0342 91.0915 65.9301 91.2872C65.7935 91.5445 65.389 91.6912 65.0706 91.7989C64.9718 91.8327 64.7783 91.5852 64.6282 91.4663C64.6837 91.4076 64.7394 91.3487 64.7948 91.2898C64.9125 91.3851 65.0304 91.4802 65.1703 91.5932C65.2195 91.5038 65.2882 91.418 65.2734 91.3993C65.1463 91.2395 65.0277 91.029 64.8574 90.9646C64.7576 90.927 64.454 91.116 64.4425 91.2244C64.4162 91.4716 64.4473 91.9052 64.5732 91.9536C64.925 92.0892 65.3366 92.0706 65.7252 92.1066C66.1468 92.1457 66.7871 91.7071 66.8126 92.6195C66.8137 92.667 67.0252 92.7105 67.14 92.7526C67.7008 92.9583 67.7959 93.4233 67.3769 93.8392C67.2388 93.9761 67.1684 94.1831 67.027 94.3145C66.8182 94.5083 66.591 94.7582 66.3385 94.8055C66.1246 94.8456 65.849 94.655 65.6322 94.5167C65.5653 94.474 65.5722 94.1603 65.5953 94.1538C65.8 94.0974 66.016 94.0824 66.2237 94.0557C66.05 93.5598 65.7493 93.4463 65.3728 93.7892C64.9868 94.1409 64.8385 94.5679 65.0597 95.0887C65.2971 95.6479 65.709 95.9213 66.2994 95.8339C66.9515 95.7376 67.5898 95.5259 68.2432 95.4675C68.9727 95.4021 69.7123 95.4525 70.4489 95.5363C69.2194 95.3792 68.0515 95.6056 66.8991 96.0387C65.9203 96.4065 64.9367 96.3592 64.115 95.6836C63.659 95.3085 63.3501 94.7534 62.8367 94.3261C63.0952 94.8471 63.3539 95.3681 63.5635 95.7906C62.2894 95.0975 61.8996 94.1897 62.1957 92.4829C62.2495 92.1734 62.2034 91.8466 62.2034 91.5313C61.8608 91.7085 61.6399 91.8229 61.4189 91.9371C61.3224 91.7446 61.0959 91.4696 61.155 91.3755C61.3007 91.1438 61.5645 90.8618 61.8044 90.838C62.4988 90.7688 63.274 90.6742 63.4689 91.677C63.4859 91.7638 63.6158 91.8602 63.7133 91.8944C64.4417 92.1512 64.23 92.9861 64.6328 93.451C64.6556 93.4773 64.2426 93.9427 63.978 94.1226C63.9052 94.1722 63.6343 93.9278 63.4543 93.8183C63.4892 93.7604 63.5245 93.7024 63.5596 93.6443C63.6813 93.6501 63.8028 93.6559 63.9834 93.6644C63.9351 93.5442 63.9199 93.4149 63.8711 93.4006C63.7012 93.3511 63.4684 93.2587 63.3524 93.3315C62.9926 93.5581 63.1031 94.3096 63.538 94.3661C63.9324 94.4175 64.4194 94.2804 64.7614 94.0621C65.1183 93.8344 65.0931 93.4043 64.844 93.0216C64.4118 92.3577 64.0111 91.6726 63.5735 91.0123C63.1318 90.3459 61.6915 90.1974 61.086 90.7361C60.6922 91.0866 60.6999 91.6522 61.0312 92.0908C61.1801 92.288 61.2777 92.5876 61.2649 92.8337C61.2091 93.9081 61.4496 94.9819 62.3335 95.521C63.7601 96.3913 65.3624 97.0063 67.0784 96.3333C69.1763 95.5105 71.1841 95.9982 73.197 96.6401C72.3406 96.5228 71.4829 96.3021 70.6281 96.3132C69.4581 96.3285 68.2288 96.3242 67.1326 96.6714C63.4489 97.8381 60.2361 94.8175 60.6436 91.8939C60.6811 91.6243 60.6781 91.3408 60.642 91.0707C60.5876 90.6651 60.4432 90.6156 60.1151 90.7524Z" fill="#BBB325"/>
</g>
</g>
<path d="M71.0752 89.3412C70.3936 88.3747 70.7472 87.019 71.0752 86.2966L68.7022 87.1182C68.7022 87.1182 67.3377 89.4676 68.0753 91.7383C68.9922 94.5604 72.2584 95.5802 72.23 95.237C71.9401 91.7383 73.0988 91.8686 73.5831 91.4192C72.7616 91.2259 71.981 90.6256 71.0752 89.3412Z" fill="#413F3A"/>
<g opacity="0.737933">
<path fill-rule="evenodd" clip-rule="evenodd" d="M88.0343 118.192C87.6436 118.411 87.4053 118.692 87.759 119.147C87.6639 118.985 87.5687 118.823 87.4548 118.63C87.2396 118.971 87.3573 119.263 87.6616 119.339C87.8433 119.384 88.096 119.143 88.4563 118.961C88.1536 118.817 88.0456 118.765 87.9082 118.7C87.9819 118.635 88.0397 118.561 88.06 118.57C88.3213 118.687 88.5993 118.788 88.822 118.959C88.8908 119.012 88.8359 119.393 88.7867 119.404C88.3376 119.508 87.8679 119.649 87.4235 119.601C87.1551 119.572 86.9724 119.434 86.6915 119.651C86.5341 119.773 86.1681 119.758 85.9619 119.662C85.3443 119.377 84.7592 119.022 84.1184 118.67C84.3107 118.565 84.5647 118.426 84.7917 118.302C84.8582 118.349 84.8669 118.355 84.8753 118.361C84.8286 118.394 84.7819 118.426 84.7352 118.458C85.0051 118.599 85.2628 118.777 85.5483 118.868C85.7794 118.942 86.0439 118.915 86.2937 118.926C86.7638 118.947 87.1739 118.837 87.3232 118.331C87.4829 117.789 87.2734 117.456 86.7061 117.24C86.5091 117.165 86.3385 117.017 86.1396 116.952C85.9449 116.889 85.7169 116.84 85.5284 116.886C85.4396 116.908 85.383 117.164 85.3672 117.319C85.3621 117.368 85.5367 117.435 85.6293 117.494C85.6707 117.36 85.7123 117.225 85.8002 116.941C85.9423 117.203 86.054 117.409 86.1656 117.614C85.9776 117.708 85.7905 117.881 85.6015 117.883C84.794 117.893 84.308 117.487 84.3729 116.702C84.4004 116.369 84.8501 116.06 85.1444 115.778C85.176 115.748 85.4518 115.972 85.615 116.077C86.0361 116.348 86.4571 116.62 86.8789 116.89C87.1177 117.043 87.4019 117.153 87.5856 117.356C87.7725 117.562 87.8613 117.856 88.0343 118.192Z" fill="#F4EA29"/>
<path fill-rule="evenodd" clip-rule="evenodd" d="M92.1845 115.492C92.2661 115.593 92.3478 115.694 92.4295 115.796C92.4736 115.782 92.5177 115.769 92.562 115.755C92.5327 115.622 92.546 115.434 92.463 115.37C92.3628 115.293 92.0883 115.257 92.0501 115.312C91.8962 115.537 91.8042 115.803 91.6395 116.162H91.1644C91.0527 115.774 90.9446 115.399 90.8884 115.204C90.8884 114.805 90.9813 114.502 90.8685 114.345C90.6519 114.043 90.4093 114.229 90.1993 114.453C90.1535 114.502 89.9765 114.43 89.8206 114.408C90.3766 113.846 91.0074 113.789 91.5043 114.238C91.5901 114.315 91.525 114.546 91.6056 114.644C91.7185 114.781 91.9027 114.861 92.0565 114.965C92.1249 114.833 92.2629 114.695 92.2499 114.572C92.1995 114.097 92.3393 113.94 92.8013 114.062C93.0422 114.125 93.2692 114.242 93.4934 114.331C93.3045 114.388 93.096 114.451 92.7932 114.543C93.2103 114.949 93.6516 115.36 93.2329 115.833C93.0573 116.031 92.5611 115.968 92.2099 115.973C92.1549 115.974 92.0959 115.706 92.0388 115.562C92.0874 115.539 92.1359 115.515 92.1845 115.492Z" fill="#F4EA29"/>
<path fill-rule="evenodd" clip-rule="evenodd" d="M88.3537 116.184C88.3866 116.142 88.5013 116.026 88.4876 116.008C88.2837 115.748 88.0984 115.448 87.8329 115.268C87.6683 115.156 87.3571 115.168 87.1462 115.234C86.9407 115.298 86.7571 115.481 86.6072 115.65C86.5227 115.745 86.4531 115.972 86.5064 116.04C86.5892 116.145 86.7827 116.165 86.9293 116.221C86.95 116.176 86.9708 116.131 86.9914 116.085C86.9112 116.011 86.8311 115.937 86.7359 115.85C86.7977 115.817 86.8571 115.759 86.8904 115.771C87.0551 115.832 87.2762 115.872 87.3537 115.995C87.4191 116.099 87.3736 116.373 87.276 116.458C86.9845 116.712 86.6317 116.665 86.4118 116.371C86.1348 116 85.2687 115.758 85.8769 115.141C86.1762 114.837 86.7985 114.809 87.2869 114.732C87.9038 114.635 88.412 114.912 88.8764 115.307C89.2289 115.606 89.2434 115.984 88.862 116.248C88.7204 116.345 88.582 116.448 88.4354 116.538C88.3551 116.587 88.2375 116.666 88.1775 116.64C88.0048 116.565 87.8013 116.474 87.7116 116.328C87.656 116.237 87.7859 116.035 87.8327 115.884C87.981 115.969 88.1294 116.054 88.3537 116.184Z" fill="#F4EA29"/>
<path fill-rule="evenodd" clip-rule="evenodd" d="M90.4004 117.612C90.5523 118.182 91.6324 118.5 92.0435 118.128C91.5128 117.961 90.9486 117.784 90.4004 117.612ZM91.6454 117.205C91.7245 117.291 91.8038 117.377 91.883 117.464C91.8309 117.508 91.7789 117.552 91.727 117.596C91.5978 117.436 91.3617 117.271 91.3704 117.119C91.3783 116.979 91.7432 116.714 91.789 116.744C92.1334 116.976 92.4825 117.232 92.7347 117.554C92.8541 117.707 92.8296 118.049 92.7478 118.257C92.6849 118.418 92.4427 118.53 92.2578 118.614C92.0722 118.699 91.8596 118.727 91.6573 118.773C91.5055 118.808 91.2696 118.91 91.2116 118.849C90.8391 118.456 90.0161 118.676 89.9282 117.896C89.916 117.787 89.6856 117.708 89.6629 117.594C89.6243 117.401 89.5938 117.103 89.7005 117.009C89.8543 116.874 90.181 116.714 90.2611 117.165C90.2732 117.233 90.3431 117.319 90.4072 117.345C90.8247 117.511 91.2394 117.706 91.6747 117.793C91.8056 117.819 91.9989 117.532 92.1638 117.389C92.0369 117.267 91.9102 117.145 91.7834 117.023C91.7374 117.084 91.6914 117.144 91.6454 117.205Z" fill="#F4EA29"/>
<path fill-rule="evenodd" clip-rule="evenodd" d="M91.9651 116.355C92.2953 116.459 92.7779 116.47 92.9155 116.693C93.0673 116.938 93.0328 117.499 92.8429 117.705C92.6047 117.963 92.1261 118 91.5607 117.999C92.5024 117.586 92.5283 117.13 91.9651 116.355Z" fill="black"/>
</g>
<mask id="mask13_280_44773" style="mask-type:luminance" maskUnits="userSpaceOnUse" x="76" y="109" width="9" height="5">
<path fill-rule="evenodd" clip-rule="evenodd" d="M84.7885 109.065H76.8699V113.166H84.7885V109.065Z" fill="white"/>
</mask>
<g mask="url(#mask13_280_44773)">
<path fill-rule="evenodd" clip-rule="evenodd" d="M82.8823 110.495C82.766 110.543 82.6496 110.591 82.5058 110.65C82.5004 110.55 82.4848 110.445 82.4959 110.442C82.7119 110.387 82.931 110.343 83.1494 110.298C83.1459 110.555 83.2532 110.931 83.1215 111.05C82.1133 111.963 80.9995 112.738 79.5405 112.592C79.0441 112.543 78.5427 112.304 78.0983 112.056C77.6703 111.818 77.3126 111.456 76.8699 111.222C77.0767 111.444 77.344 111.635 77.4802 111.893C78.1604 113.181 79.3328 113.258 80.5627 113.113C81.7387 112.975 82.7796 112.489 83.5914 111.621C83.8473 111.347 83.9983 110.977 84.1945 110.649C84.2835 110.5 84.3288 110.269 84.4577 110.209C85.0311 109.943 84.7424 109.651 84.4617 109.461C84.0076 109.154 83.4784 108.689 83.1094 109.593C83.0808 109.664 82.8407 109.638 82.792 109.714C82.6121 109.998 82.4486 110.297 82.3374 110.611C82.3185 110.664 82.5871 110.817 82.7228 110.923C82.8096 110.812 82.8963 110.7 82.9831 110.588C82.9495 110.557 82.9159 110.526 82.8823 110.495Z" fill="#F4EA29" fill-opacity="0.59222"/>
</g>
<path fill-rule="evenodd" clip-rule="evenodd" d="M82.5723 109.32C82.346 109.206 82.1158 109.1 81.8948 108.977C81.6888 108.863 81.3382 108.6 81.3162 108.625C81.0765 108.908 80.5275 108.952 80.619 109.508C80.6549 109.726 80.5394 109.967 80.5629 110.19C80.5855 110.403 80.6587 110.639 80.7904 110.8C80.8538 110.877 81.1614 110.865 81.2503 110.781C81.3318 110.703 81.2676 110.474 81.1287 110.287C81.0433 110.398 80.9579 110.51 80.831 110.675C80.7882 110.53 80.7116 110.397 80.7442 110.36C80.8649 110.226 81.0275 110.025 81.1632 110.033C81.3262 110.043 81.587 110.223 81.61 110.361C81.6474 110.585 81.6061 110.918 81.4582 111.063C80.5952 111.906 79.4291 112.244 78.2758 111.343C77.9243 111.068 77.5075 110.876 77.0631 110.743C77.985 111.104 78.3636 112.348 79.5413 112.295C80.5711 112.248 81.5728 112.137 82.3566 111.236C81.7347 110.527 82.0628 109.908 82.5635 109.313L82.5723 109.32Z" fill="#F4EA29" fill-opacity="0.59222"/>
<path fill-rule="evenodd" clip-rule="evenodd" d="M82.5408 109.284C82.6556 109.283 82.8372 109.327 82.875 109.273C83.3832 108.545 83.9462 108.617 84.5192 109.149C84.6839 108.911 84.8289 108.701 85.0059 108.445C85.0664 108.576 85.0887 108.608 85.0951 108.642C85.136 108.861 85.1733 109.08 85.2117 109.299C85.3706 109.239 85.6696 109.164 85.665 109.121C85.6393 108.873 85.5904 108.602 85.4579 108.397C85.0605 107.782 84.333 107.732 83.7245 107.487C83.5946 107.435 83.406 107.478 83.2598 107.525C82.985 107.612 82.7025 107.703 82.4598 107.852C82.2959 107.952 82.0958 108.149 82.0893 108.31C82.0801 108.541 82.225 108.781 82.3273 109.007C82.3389 109.032 82.5751 109.005 82.58 108.978C82.6148 108.792 82.6164 108.6 82.6355 108.3C82.7646 108.437 83.0097 108.612 82.982 108.684C82.8956 108.909 82.706 109.095 82.5532 109.294C82.5496 109.291 82.5408 109.284 82.5408 109.284Z" fill="#F4EA29" fill-opacity="0.59222"/>
<mask id="mask14_280_44773" style="mask-type:luminance" maskUnits="userSpaceOnUse" x="83" y="109" width="5" height="4">
<path fill-rule="evenodd" clip-rule="evenodd" d="M87.0186 109.079H83.4574V112.476H87.0186V109.079Z" fill="white"/>
</mask>
<g mask="url(#mask14_280_44773)">
<path fill-rule="evenodd" clip-rule="evenodd" d="M85.2406 109.76C84.625 110.681 84.0411 111.554 83.4574 112.428C83.4604 112.444 83.4635 112.46 83.4665 112.476C83.8616 112.068 84.273 111.675 84.6462 111.249C84.9131 110.944 85.0817 110.541 85.3786 110.278C85.8218 109.884 86.3253 110.057 86.4405 110.478C86.183 110.528 85.9216 110.578 85.6603 110.629C85.7897 110.875 85.8583 111.226 86.0619 111.344C86.4416 111.563 86.9529 111.42 87.0013 110.999C87.0653 110.443 86.9427 109.838 86.7716 109.295C86.6816 109.009 86.3574 109.01 86.0705 109.279C85.8269 109.507 85.4806 109.627 85.2406 109.76Z" fill="#F4EA29" fill-opacity="0.59222"/>
</g>
<path fill-rule="evenodd" clip-rule="evenodd" d="M77.7818 110.103C77.7289 109.999 77.6761 109.894 77.6233 109.79L77.7723 109.666C77.8907 109.792 78.0091 109.919 78.1275 110.045C77.9717 110.175 77.8272 110.393 77.6573 110.415C77.3746 110.451 77.0757 110.361 76.773 110.402C77.1273 110.498 77.4783 110.608 77.8365 110.686C78.2173 110.769 78.6313 110.875 78.7061 110.258C78.61 110.324 78.5356 110.376 78.5719 110.351C78.3272 110.07 78.1335 109.797 77.8817 109.597C77.8226 109.55 77.5658 109.75 77.4 109.836C77.4676 109.963 77.5353 110.089 77.6029 110.216C77.6625 110.178 77.7222 110.141 77.7818 110.103Z" fill="#F4EA29" fill-opacity="0.59222"/>
<path d="M61.393 74.9269C64.2912 74.9269 66.6407 72.6984 66.6407 69.9493C66.6407 67.2002 64.2912 64.9717 61.393 64.9717C58.4948 64.9717 56.1453 67.2002 56.1453 69.9493C56.1453 72.6984 58.4948 74.9269 61.393 74.9269Z" fill="#EBBAAA"/>
<path d="M89.3255 75.3127C92.2237 75.3127 94.5732 73.0841 94.5732 70.3351C94.5732 67.586 92.2237 65.3574 89.3255 65.3574C86.4273 65.3574 84.0778 67.586 84.0778 70.3351C84.0778 73.0841 86.4273 75.3127 89.3255 75.3127Z" fill="#EBBAAA"/>
<path d="M60.1581 65.9383C59.2201 57.1205 66.0089 49.3799 74.8737 49.1596C83.7898 48.938 90.9742 56.4153 90.3967 65.3155L90.2395 67.7392L89.4385 74.2295C88.5574 81.3689 82.4924 86.7315 75.2987 86.7315C68.1119 86.7315 62.0503 81.3787 61.1611 74.2471L60.3497 67.7392L60.1581 65.9383Z" fill="#EED4CC"/>
<path d="M78.3694 62.6885L84.4486 61.7243C84.4991 61.7163 84.5507 61.7287 84.592 61.7585L86.6601 63.2517C86.8098 63.3598 86.7373 63.5961 86.5528 63.6017L83.6307 63.6902L78.4422 64.2877C78.2068 64.3149 78.0026 64.1256 78.0116 63.8888L78.0436 63.0556C78.0507 62.8712 78.1871 62.7174 78.3694 62.6885Z" fill="#393939"/>
<path d="M71.8311 62.8L65.4168 61.5886C65.3686 61.5795 65.3188 61.589 65.2775 61.6152L63.0513 63.0252C62.8934 63.1252 62.9553 63.369 63.1418 63.3814L66.2313 63.5872L71.7128 64.395C71.948 64.4297 72.1586 64.2457 72.1558 64.008L72.146 63.1754C72.1438 62.9913 72.012 62.8342 71.8311 62.8Z" fill="#393939"/>
<path d="M73.5699 70.7808L73.6392 70.6692C73.6968 70.5752 73.7445 70.4945 73.786 70.4204L73.8149 70.3679C73.9022 70.2068 73.949 70.0937 73.9589 70.0431L73.9601 70.0356L75.588 70.2591C75.5464 70.562 75.423 70.8601 75.2196 71.2232C75.1546 71.3393 75.082 71.4609 74.9928 71.6043L74.9227 71.7162L74.6944 72.0752C74.5947 72.2324 74.5203 72.3523 74.4531 72.4653L74.4364 72.4935C74.2546 72.8013 74.1382 73.0416 74.0802 73.2324C74.0549 73.3157 74.0432 73.3819 74.0424 73.4294L74.0425 73.4454L74.0432 73.4585L74.0601 73.4721C74.1037 73.5069 74.1782 73.5459 74.2885 73.5839C74.5917 73.6884 75.0641 73.7501 75.7107 73.7538L75.7718 73.7539V75.397L75.6566 75.3965C73.9636 75.3807 72.9369 75.0105 72.5431 74.1295C72.3524 73.7028 72.36 73.2422 72.5081 72.7548C72.6114 72.4146 72.779 72.0687 73.0215 71.658L73.0795 71.5609C73.1256 71.4845 73.1747 71.405 73.2308 71.3158L73.5699 70.7808Z" fill="#EBBAAA"/>
<path d="M65.9476 53.4346C63.9595 54.0698 62.0406 56.8967 61.4533 58.2673C60.5834 60.297 60.1001 61.0219 60.4131 67.7557C59.9787 67.798 59.8446 65.5268 59.0313 65.6172C58.5342 65.798 58.1131 66.1488 57.7265 66.4871C57.4088 65.3999 56.2822 60.5345 56.2823 58.2673C56.2831 46.408 62.2751 44.4943 66.9141 46.6207C68.9534 47.5554 75.2746 45.4821 75.2746 53.4346C71.0259 55.523 69.6179 52.2622 65.9476 53.4346Z" fill="#2C2929"/>
<path d="M59.5472 43.7571C59.0106 46.4167 61.499 45.7375 60.3878 45.9406C59.2767 46.1437 62.7727 47.53 61.3083 47.3454C59.8438 47.1609 61.7913 49.7919 61.9861 49.06C62.1807 48.3281 62.9883 47.6296 62.9883 47.6296L66.0548 46.2257C66.0001 45.956 64.5831 46.0424 62.9789 45.6785C62.6498 45.3175 61.2063 45.1949 59.5472 43.7571Z" fill="#2C2929"/>
<path d="M62.5639 42.5461C62.5639 44.5346 64.9651 44.6161 66.3521 44.5346L68.0401 45.2805C68.8396 45.6338 66.0324 49.0224 63.377 48.2496C61.2525 47.6314 60.904 46.2627 60.8034 45.5695C60.6108 44.2431 60.8034 43.5468 62.5639 42.5461Z" fill="#2C2929"/>
<path d="M84.0698 53.773C85.278 53.773 86.3608 54.1596 87.066 55.0295C88.0348 56.2242 90.1106 58.1707 90.243 67.8561C90.6777 67.8984 90.7062 65.7159 91.52 65.8063C91.8583 65.9513 92.2932 66.1929 92.8248 66.6279C93.1427 65.5407 93.9408 62.1334 93.9408 59.0405C93.9408 45.0743 82.8133 40 74.4529 40C69.8626 40 64.1166 40.5816 62.9996 45.8475C62.323 49.037 65.9475 48.5022 65.9475 50.3418C65.9475 56.2376 80.2151 53.773 84.0698 53.773Z" fill="black"/>
<path d="M80.9287 65.323C81.7192 65.323 82.362 65.9558 82.3781 66.7425L82.3785 66.7728V67.7393C82.3785 68.54 81.7294 69.1891 80.9287 69.1891C80.1381 69.1891 79.4953 68.5563 79.4792 67.7696L79.4789 67.7393V66.7728C79.4789 65.9721 80.128 65.323 80.9287 65.323Z" fill="black"/>
<path d="M69.2337 65.323C70.0243 65.323 70.6671 65.9558 70.6832 66.7425L70.6835 66.7728V67.7393C70.6835 68.54 70.0344 69.1891 69.2337 69.1891C68.4432 69.1891 67.8004 68.5563 67.7842 67.7696L67.7839 67.7393V66.7728C67.7839 65.9721 68.433 65.323 69.2337 65.323Z" fill="black"/>
<path d="M73.2772 66.3172C74.352 65.9378 75.3828 65.8947 76.5777 66.2947L76.6407 66.3162L76.3245 67.2296C75.3401 66.8888 74.527 66.9111 73.6496 67.211L73.5989 67.2286L73.2772 66.3172Z" fill="#CFAE8F"/>
<path fill-rule="evenodd" clip-rule="evenodd" d="M77.8634 64.9139C78.8867 64.3096 80.2225 63.8726 81.9111 63.6733C84.0304 63.4232 85.7422 63.7298 87.0705 64.3954C87.4242 64.5727 87.7228 64.7629 87.968 64.9535C88.0542 65.0205 88.1278 65.083 88.1888 65.1393C88.226 65.1737 88.2511 65.1987 88.2644 65.213L88.2938 65.2446L87.913 69.4116C87.7321 71.3912 86.0449 72.8901 84.0578 72.8366L80.1958 72.7327C78.2706 72.6809 76.694 71.1861 76.5399 69.2663L76.3033 66.3207L76.3174 66.2952C76.3308 66.271 76.3576 66.2284 76.3993 66.1702L76.4227 66.138C76.487 66.0513 76.5656 65.9566 76.6596 65.8558C76.96 65.5339 77.3572 65.2128 77.8634 64.9139ZM87.8497 65.106C87.6143 64.923 87.3264 64.7396 86.9843 64.5682C85.6895 63.9194 84.0156 63.6196 81.9341 63.8652C80.2716 64.0614 78.9617 64.4899 77.9621 65.0803C77.472 65.3697 77.0892 65.6791 76.8013 65.9876C76.7013 66.0948 76.6203 66.1941 76.5569 66.2826L76.545 66.2994C76.5374 66.3102 76.5305 66.3202 76.5244 66.3293L76.5012 66.3649L76.7329 69.2508C76.8777 71.0539 78.3451 72.4619 80.1467 72.5375L80.2014 72.5394L84.0633 72.6433C85.9486 72.6941 87.5492 71.272 87.7209 69.3939L88.0936 65.3148L88.0701 65.2925L88.0328 65.2583C87.9809 65.2117 87.9199 65.1606 87.8497 65.106Z" fill="#CFAE8F"/>
<path d="M81.7905 63.4753C83.2032 63.2926 84.5268 63.3993 85.7464 63.7323C86.6428 63.9771 87.4084 64.3216 88.0301 64.703C88.3743 64.9141 88.5644 65.2968 88.5521 65.7086L88.5507 65.7412L88.4353 67.8173L87.8563 67.7851L87.9717 65.709C87.9839 65.4905 87.8915 65.2982 87.7269 65.1973C87.1498 64.8433 86.4341 64.5212 85.5936 64.2918C84.4459 63.9784 83.1992 63.8779 81.8649 64.0504C80.5389 64.2219 79.4116 64.5425 78.4684 64.9729C77.7767 65.2884 77.2411 65.6354 76.8473 65.975C76.7374 66.0697 76.6812 66.2204 76.6925 66.3913L76.6947 66.417L76.9316 68.6755L76.3549 68.736L76.118 66.4775C76.0801 66.1153 76.202 65.7656 76.4686 65.5358C77.5648 64.5905 79.3043 63.7969 81.7905 63.4753Z" fill="black"/>
<path fill-rule="evenodd" clip-rule="evenodd" d="M62.0797 65.1006C62.3352 64.9089 62.6444 64.7176 63.0085 64.5392C64.3503 63.882 66.0491 63.572 68.1189 63.7994C69.7983 63.984 71.1154 64.413 72.1134 65.0136C72.5937 65.3027 72.9689 65.6132 73.2511 65.9245C73.3505 66.0343 73.4313 66.1365 73.495 66.2288C73.534 66.2853 73.559 66.3266 73.5715 66.3502L73.5842 66.3742L73.4104 69.1519C73.2894 71.088 71.7187 72.616 69.7799 72.6838L66.0899 72.8126C64.1277 72.8811 62.4416 71.4321 62.2143 69.482L61.7375 65.3942L61.7698 65.3612C61.7837 65.347 61.81 65.3219 61.849 65.2874L61.8772 65.2628C61.9352 65.2128 62.0026 65.1584 62.0797 65.1006ZM72.0136 65.1793C71.0402 64.5935 69.75 64.1732 68.0977 63.9916C66.0648 63.7682 64.4028 64.0715 63.0935 64.7129C62.7406 64.8857 62.4416 65.0707 62.1956 65.2553C62.1099 65.3196 62.0371 65.3791 61.977 65.4322L61.9403 65.4653L62.4062 69.4597C62.6197 71.2912 64.1897 72.6569 66.0272 72.621L66.083 72.6195L69.773 72.4906C71.6124 72.4263 73.1026 70.9767 73.2174 69.1399L73.3875 66.4181C73.3779 66.4018 73.3644 66.3807 73.3469 66.3548L73.3359 66.3387C73.2769 66.2533 73.2014 66.1577 73.1077 66.0544C72.8381 65.7569 72.4775 65.4585 72.0136 65.1793Z" fill="#CFAE8F"/>
<path d="M64.3631 63.8781C65.5555 63.5436 66.851 63.4296 68.2357 63.5974C70.6619 63.8915 72.3713 64.6492 73.46 65.564C73.7302 65.7911 73.8553 66.1387 73.8205 66.5001L73.8168 66.534L73.5324 68.838L72.9569 68.7669L73.2413 66.4629C73.2644 66.2756 73.2073 66.1092 73.0869 66.008C72.0832 65.1647 70.4788 64.4534 68.1659 64.1731C66.8594 64.0148 65.6406 64.1221 64.5198 64.4364C63.6977 64.667 62.9979 64.9875 62.4329 65.3391C62.2756 65.437 62.1855 65.6192 62.1911 65.8272L62.1923 65.8523L62.3213 67.8796L61.7425 67.9165L61.6135 65.8891C61.5865 65.4649 61.7746 65.0657 62.1265 64.8467C62.7359 64.4675 63.4853 64.1243 64.3631 63.8781Z" fill="black"/>
<mask id="mask15_280_44773" style="mask-type:luminance" maskUnits="userSpaceOnUse" x="70" y="74" width="10" height="7">
<path fill-rule="evenodd" clip-rule="evenodd" d="M70.9735 77.4527C70.9735 75.7179 72.3799 74.3115 74.1147 74.3115H76.4344C78.1692 74.3115 79.5756 75.7179 79.5756 77.4527C79.5756 79.1875 78.1692 80.5939 76.4344 80.5939H74.1147C72.3799 80.5939 70.9735 79.1875 70.9735 77.4527Z" fill="white"/>
</mask>
<g mask="url(#mask15_280_44773)">
<rect x="71.2634" y="78.4678" width="19.6205" height="4.05941" fill="white"/>
</g>
</g>
<defs>
<filter id="filter0_d_280_44773" x="0" y="0" width="151.177" height="234" filterUnits="userSpaceOnUse" color-interpolation-filters="sRGB">
<feFlood flood-opacity="0" result="BackgroundImageFix"/>
<feColorMatrix in="SourceAlpha" type="matrix" values="0 0 0 0 0 0 0 0 0 0 0 0 0 0 0 0 0 0 127 0" result="hardAlpha"/>
<feOffset dy="10"/>
<feGaussianBlur stdDeviation="25"/>
<feComposite in2="hardAlpha" operator="out"/>
<feColorMatrix type="matrix" values="0 0 0 0 0 0 0 0 0 0 0 0 0 0 0 0 0 0 0.3 0"/>
<feBlend mode="normal" in2="BackgroundImageFix" result="effect1_dropShadow_280_44773"/>
<feBlend mode="normal" in="SourceGraphic" in2="effect1_dropShadow_280_44773" result="shape"/>
</filter>
</defs>
</svg>
