<svg width="148" height="234" viewBox="0 0 148 234" fill="none" xmlns="http://www.w3.org/2000/svg">
<g filter="url(#filter0_d_280_44925)">
<path d="M55.4589 169.732C56.8486 168.441 62.0431 166.555 64.4915 165.563L71.0426 162.188L72.333 168.243V170.824C72.333 171.975 71.3998 172.908 70.2486 172.908H55.4589C54.7972 171.783 54.2893 170.818 55.4589 169.732Z" fill="#C4C4C4"/>
<path d="M55.4589 169.732C56.8486 168.441 62.0431 166.555 64.4915 165.563L71.0426 162.188L72.333 168.243V170.824C72.333 171.975 71.3998 172.908 70.2486 172.908H55.4589C54.7972 171.783 54.2893 170.818 55.4589 169.732Z" fill="#F8CCBE"/>
<path d="M53.176 174C53.176 172.903 54.0648 172.015 55.1611 172.015H72.73L73.1271 174H53.176Z" fill="#2E2622"/>
<path d="M57.4268 168.46C57.8203 168.692 57.9558 169.194 57.7372 169.592L57.6522 169.739C57.633 169.772 57.6127 169.808 57.5915 169.846C57.4906 170.024 57.3896 170.21 57.2962 170.39C57.2602 170.459 57.226 170.527 57.1939 170.592L57.1551 170.671C57.0613 170.866 56.9918 171.027 56.9543 171.14C56.8973 171.311 56.8973 171.523 56.9371 171.722L56.9456 171.762C56.9506 171.784 56.954 171.797 56.9543 171.798C57.1017 172.24 56.8628 172.717 56.4207 172.865C55.9786 173.012 55.5008 172.773 55.3535 172.331C55.3319 172.266 55.3063 172.172 55.2825 172.053C55.19 171.591 55.19 171.097 55.3535 170.606C55.4253 170.391 55.5364 170.137 55.6812 169.844C55.7182 169.769 55.7572 169.692 55.7979 169.614C55.9016 169.414 56.0118 169.211 56.1221 169.016L56.167 168.937L56.2712 168.757C56.5083 168.355 57.0257 168.222 57.4268 168.46Z" fill="#2E2622"/>
<path d="M60.5213 168.491C62.42 168.491 63.9813 169.163 65.2014 170.276C65.6267 170.664 65.9801 171.079 66.2672 171.496C66.3694 171.644 66.4566 171.784 66.5294 171.911L66.5588 171.963C66.5816 172.004 66.6003 172.04 66.6151 172.069L66.6308 172.1L64.9332 172.922L64.9187 172.895C64.912 172.882 64.9031 172.866 64.8919 172.847C64.8446 172.764 64.7852 172.669 64.7136 172.565C64.5044 172.261 64.2437 171.955 63.9308 171.67C63.0416 170.859 61.9229 170.377 60.5213 170.377C59.1576 170.377 58.2412 170.825 57.6265 171.572C57.4126 171.832 57.2507 172.112 57.1352 172.391L57.1133 172.445C57.0688 172.558 57.0425 172.643 57.0313 172.687L57.0271 172.705L55.1813 172.318L55.1892 172.282C55.1998 172.237 55.215 172.179 55.2354 172.11C55.2757 171.975 55.3276 171.827 55.3927 171.67C55.5758 171.227 55.8303 170.787 56.1701 170.374C57.1374 169.198 58.5845 168.491 60.5213 168.491Z" fill="#2E2622"/>
<path d="M59.1843 168.958C59.9954 168.823 60.7626 169.371 60.8977 170.182C61.0312 170.983 60.4989 171.74 59.7049 171.89L59.6739 171.895L57.8872 172.193C57.0761 172.328 56.309 171.78 56.1738 170.969C56.0404 170.168 56.5726 169.411 57.3666 169.261L57.3977 169.256L59.1843 168.958Z" fill="#DCB1A3"/>
<path d="M93.0782 169.732C91.6885 168.441 86.494 166.555 84.0456 165.563L77.4945 162.188L76.2041 168.243V170.824C76.2041 171.975 77.1373 172.908 78.2885 172.908H93.0782C93.7399 171.783 94.2477 170.818 93.0782 169.732Z" fill="#C4C4C4"/>
<path d="M93.0782 169.732C91.6885 168.441 86.494 166.555 84.0456 165.563L77.4945 162.188L76.2041 168.243V170.824C76.2041 171.975 77.1373 172.908 78.2885 172.908H93.0782C93.7399 171.783 94.2477 170.818 93.0782 169.732Z" fill="#F8CCBE"/>
<path d="M95.3611 174C95.3611 172.903 94.4724 172.015 93.376 172.015H75.8071L75.41 174H95.3611Z" fill="#2E2622"/>
<path d="M91.1106 168.46C91.5041 168.227 92.0093 168.351 92.2522 168.734L92.2801 168.78L92.3704 168.937C92.3849 168.962 92.3999 168.989 92.4154 169.016C92.5256 169.211 92.6359 169.414 92.7395 169.614C92.7802 169.692 92.8192 169.769 92.8562 169.844C93.001 170.137 93.1121 170.391 93.1839 170.606C93.3475 171.097 93.3475 171.591 93.255 172.053C93.2311 172.172 93.2055 172.266 93.1839 172.331C93.0366 172.773 92.5588 173.012 92.1167 172.865C91.6829 172.72 91.4447 172.257 91.5753 171.822L91.5844 171.793C91.587 171.783 91.5931 171.759 91.6003 171.722C91.6402 171.523 91.6402 171.311 91.5831 171.14C91.5406 171.012 91.457 170.821 91.3435 170.592C91.3114 170.527 91.2772 170.459 91.2413 170.39C91.1478 170.21 91.0469 170.024 90.9459 169.846L90.8665 169.706L90.8135 169.615C90.5764 169.214 90.7094 168.697 91.1106 168.46Z" fill="#2E2622"/>
<path d="M88.016 168.491C89.9527 168.491 91.3999 169.198 92.3672 170.374C92.7069 170.787 92.9614 171.227 93.1445 171.67C93.2096 171.827 93.2615 171.975 93.3018 172.11L93.3181 172.167C93.3306 172.211 93.3405 172.25 93.348 172.282L93.3559 172.318L91.5101 172.705L91.506 172.687C91.493 172.636 91.4601 172.531 91.402 172.391C91.2866 172.112 91.1246 171.832 90.9107 171.572C90.2961 170.825 89.3796 170.377 88.016 170.377C86.6144 170.377 85.4956 170.859 84.6065 171.67C84.2936 171.955 84.0328 172.261 83.8236 172.565C83.761 172.656 83.7077 172.74 83.6636 172.815L83.6186 172.895L83.6041 172.922L81.9064 172.1L81.9222 172.069C81.9428 172.028 81.9713 171.975 82.0079 171.911C82.0807 171.784 82.1679 171.644 82.27 171.496C82.5571 171.079 82.9105 170.664 83.3359 170.276C84.556 169.163 86.1172 168.491 88.016 168.491Z" fill="#2E2622"/>
<path d="M87.639 170.182C87.7725 169.381 88.5218 168.837 89.3212 168.953L89.3524 168.958L91.1391 169.256C91.9502 169.391 92.4981 170.158 92.3629 170.969C92.2295 171.77 91.4802 172.314 90.6807 172.198L90.6495 172.193L88.8629 171.895C88.0518 171.76 87.5038 170.993 87.639 170.182Z" fill="#DCB1A3"/>
<path d="M74.2627 131.654C79.1162 131.654 83.0507 129.79 83.0507 127.491C83.0507 125.192 79.1162 123.328 74.2627 123.328C69.4093 123.328 65.4748 125.192 65.4748 127.491C65.4748 129.79 69.4093 131.654 74.2627 131.654Z" fill="#092978"/>
<path d="M79.7392 125.383C81.5644 125.006 83.35 126.179 83.7274 128.005C84.3477 131.004 84.648 138.17 84.6265 146.915L84.6257 147.18C84.5989 155.571 84.2737 163.459 83.7635 167.032C83.5 168.878 81.7907 170.16 79.9455 169.896C78.1004 169.633 76.8182 167.924 77.0816 166.078C78.0865 159.04 78.1732 134.972 77.149 129.531L77.1176 129.371C76.7402 127.546 77.9139 125.761 79.7392 125.383Z" fill="#F8CCBE"/>
<path d="M64.7224 127.528C65.0998 125.702 66.8854 124.529 68.7107 124.906C70.5177 125.28 71.6861 127.034 71.343 128.84L71.3322 128.894C70.275 134.007 70.3532 158.573 71.3682 165.681C71.6317 167.527 70.3494 169.236 68.5043 169.499C66.6591 169.763 64.9498 168.481 64.6863 166.635C64.1813 163.098 63.8574 155.314 63.825 146.996L63.8241 146.743C63.7958 137.855 64.0959 130.557 64.7224 127.528Z" fill="#F8CCBE"/>
<path d="M72.6308 148.936V147.547L58.5909 146.753L58.3375 148.275C59.537 148.606 62.6153 149.36 65.3321 149.73C68.0488 150.1 71.3299 149.355 72.6308 148.936Z" fill="#393937"/>
<path d="M60.5533 124.42L75.2612 126.39L72.8789 147.597C72.8789 147.597 71.3616 148.74 66.3775 148.59C61.3934 148.439 58.3375 147.597 58.3375 147.597L60.5533 124.42Z" fill="#101010"/>
<path d="M75.0956 148.387V146.998L88.9405 146.204L89.1904 147.726C88.0075 148.057 84.972 148.811 82.293 149.181C79.614 149.551 76.3784 148.806 75.0956 148.387Z" fill="#393937"/>
<path d="M87.1985 124.566L72.763 126.499L74.8972 147.349C74.8972 147.349 75.0676 148.39 79.9594 148.242C84.8512 148.094 89.389 147.349 89.389 147.349L87.1985 124.566Z" fill="#1D1D1D"/>
<path d="M67.0774 126.722C66.6338 127.185 64.0649 130.397 63.478 131.119C63.5523 131.428 64.5348 132.256 64.5348 132.256C65.2273 131.479 68.3091 127.864 68.199 127.723C67.8569 127.285 67.2099 126.584 67.0774 126.722Z" fill="url(#paint0_linear_280_44925)" fill-opacity="0.8"/>
<path d="M73.6644 129.828C73.734 130.465 74.5478 134.497 74.7249 135.411C75.0093 135.552 76.2748 135.33 76.2748 135.33C76.1232 134.3 75.3309 129.617 75.152 129.611C74.596 129.592 73.6437 129.638 73.6644 129.828Z" fill="url(#paint1_linear_280_44925)" fill-opacity="0.8"/>
<path d="M64.2519 141.105C64.3214 141.742 65.1352 145.774 65.3123 146.688C65.5966 146.829 66.8623 146.606 66.8623 146.606C66.7107 145.577 65.9183 140.894 65.7395 140.887C65.1835 140.868 64.2311 140.915 64.2519 141.105Z" fill="url(#paint2_linear_280_44925)" fill-opacity="0.8"/>
<path opacity="0.3" d="M73.6053 128.847H68.771L67.1172 129.61L71.9515 131.009L79.0755 128.847L76.7856 127.447L73.6053 128.847Z" fill="#C4C4C4"/>
<mask id="mask0_280_44925" style="mask-type:luminance" maskUnits="userSpaceOnUse" x="58" y="124" width="18" height="25">
<path fill-rule="evenodd" clip-rule="evenodd" d="M60.6522 124.37L75.36 126.341L72.9778 147.547C72.9778 147.547 71.4604 148.691 66.4763 148.54C61.4922 148.389 58.4363 147.547 58.4363 147.547L60.6522 124.37Z" fill="white"/>
</mask>
<g mask="url(#mask0_280_44925)">
<path opacity="0.3" d="M57.7166 130.989L55.7805 130.072L54.8635 130.989V132.62H57.7166L59.0412 133.639L64.4417 132.62L62.8114 128.442H61.283H59.7545V130.989H57.7166Z" fill="#C4C4C4"/>
<path opacity="0.3" d="M64.598 140.973L62.662 141.891L61.7449 140.973V139.344H64.598L65.9227 138.324L71.3232 139.344L69.6928 143.521H68.1644H66.6359V140.973H64.598Z" fill="#C4C4C4"/>
<path opacity="0.3" d="M61.6223 143.456H58.3068L57.0635 144.367L58.8041 145.362V146.274H61.0421L62.6999 145.362L64.0261 146.771L65.3523 145.777L61.6223 143.456Z" fill="#C4C4C4"/>
<path opacity="0.3" d="M69.4476 133.009H66.132L64.8887 133.921L66.6293 134.916V135.827H68.8673L70.5251 134.916L71.8513 136.325L73.1775 135.33L69.4476 133.009Z" fill="#C4C4C4"/>
<path opacity="0.3" d="M71.0357 145.016H67.7202L66.4769 145.929L68.2175 146.923V147.834H70.4555L72.1133 146.923L73.4395 148.332L74.7657 147.337L71.0357 145.016Z" fill="#C4C4C4"/>
</g>
<mask id="mask1_280_44925" style="mask-type:luminance" maskUnits="userSpaceOnUse" x="72" y="124" width="18" height="25">
<path fill-rule="evenodd" clip-rule="evenodd" d="M87.2151 124.569L72.7797 126.503L74.9138 147.352C74.9138 147.352 75.0843 148.394 79.9761 148.245C84.8679 148.097 89.4057 147.352 89.4057 147.352L87.2151 124.569Z" fill="white"/>
</mask>
<g mask="url(#mask1_280_44925)">
<path opacity="0.3" d="M89.7958 130.989L91.7319 130.072L92.649 130.989V132.62H89.7958L88.4712 133.639L83.0707 132.62L84.701 128.442H86.2295H87.7579V130.989H89.7958Z" fill="#C4C4C4"/>
<path opacity="0.3" d="M82.9143 140.973L84.8505 141.891L85.7675 140.973V139.344H82.9143L81.5897 138.324L76.1892 139.344L77.8195 143.521H79.348H80.8764V140.973H82.9143Z" fill="#C4C4C4"/>
<path opacity="0.3" d="M85.8904 143.456H89.206L90.4494 144.367L88.7087 145.362V146.274H86.4707L84.813 145.362L83.4868 146.771L82.1606 145.777L85.8904 143.456Z" fill="#C4C4C4"/>
<path opacity="0.3" d="M77.9483 133.105H81.2638L82.5072 134.017L80.7665 135.012V135.923H78.5286L76.8707 135.012L75.5445 136.421L74.2183 135.426L77.9483 133.105Z" fill="#C4C4C4"/>
<path opacity="0.3" d="M86.2861 135.09H89.6016L90.8449 136.002L89.1042 136.997V137.909H86.8662L85.2085 136.997L83.8823 138.406L82.5561 137.411L86.2861 135.09Z" fill="#C4C4C4"/>
</g>
<path d="M65.4843 134.048C64.8246 134.048 60.5995 133.686 59.7768 133.403C59.5687 133.85 59.6279 136.083 59.6279 136.083C60.7535 136.083 65.2252 137.542 65.2858 137.224C65.4843 136.182 65.6539 134.048 65.4843 134.048Z" fill="#0A6DAB"/>
<path d="M62.1803 135.473C61.438 135.372 59.7534 134.807 59.4679 134.902C59.7273 137.174 58.2296 139.761 57.7135 141.727C56.8727 144.928 57.7135 144.903 57.8536 146.866C57.9195 147.789 62.4486 147.342 62.4486 146.866C62.4486 146.391 62.52 144.742 62.4486 143.443C62.3772 142.144 64.8214 135.758 64.2504 135.663C63.6793 135.568 63.1083 135.6 62.1803 135.473Z" fill="black"/>
<path d="M63.5423 135.312C62.9296 135.278 60.4026 134.801 59.6368 134.495C59.1007 134.801 58.1818 136.913 59.1773 137.186C60.1728 137.458 63.2359 138.366 63.5423 138.128C63.8486 137.89 64.1549 135.346 63.5423 135.312Z" fill="#1C1C1E"/>
<path d="M84.1669 133.859C84.6397 133.859 87.4757 133.587 88.0653 133.304C88.2145 133.75 88.3137 135.438 88.3137 135.438C87.5071 135.438 84.0456 137.051 84.0456 136.728V136.722C84.0456 135.727 84.0456 133.859 84.1669 133.859Z" fill="#0A6DAB"/>
<path d="M86.4099 135.57C87.0337 135.469 88.449 134.907 88.6889 135.002C88.6889 136.254 90.3492 137.359 90.6959 139.885C90.6959 141.905 90.2997 147.681 88.5689 147.029C88.0069 146.818 85.1504 147.503 85.1504 147.029C85.1504 146.556 85.0905 144.914 85.1504 143.62C85.2104 142.325 84.1909 135.854 84.6707 135.76C85.1504 135.665 85.6302 135.696 86.4099 135.57Z" fill="black"/>
<path d="M85.1873 135.357C85.7179 135.321 87.9068 134.818 88.5702 134.495C89.0345 134.818 90.9401 136.782 90.0778 137.069C89.2155 137.356 85.6322 138.685 85.3669 138.434C85.1015 138.182 84.6567 135.393 85.1873 135.357Z" fill="#1C1C1E"/>
<path d="M86.2958 136.193C86.6112 136.117 88.4759 135.549 88.8411 135.338C88.9849 135.498 89.218 136.175 89.218 136.175C88.6799 136.304 86.5307 137.523 86.4988 137.391L86.4981 137.388C86.3998 136.98 86.2149 136.213 86.2958 136.193Z" fill="#059EFE" fill-opacity="0.42"/>
<path d="M84.7072 90.9967C86.3643 89.827 88.6558 90.2221 89.8255 91.8792C90.673 93.0798 91.3745 94.2845 91.9602 95.5334L92.0269 95.6768C93.0297 97.8484 93.6098 99.8835 94.2816 103.164L94.4789 104.149C94.6276 104.899 94.8525 106.035 94.9403 106.466C95.8784 111.077 96.206 114.591 96.2174 118.861L96.217 119.555C96.2156 119.938 96.2121 120.326 96.2053 120.852L96.1663 123.655C96.1593 124.257 96.1561 124.741 96.1556 125.262L96.1555 125.413C96.1555 127.441 94.5112 129.085 92.4829 129.085C90.4546 129.085 88.8103 127.441 88.8103 125.413L88.8118 124.74C88.8135 124.365 88.8167 123.986 88.8218 123.548L88.8647 120.429C88.87 119.964 88.8722 119.613 88.8725 119.233L88.8725 119.029C88.8695 115.26 88.6046 112.261 87.81 108.266L87.1481 104.945L87.0915 104.666C86.5104 101.824 86.0555 100.242 85.31 98.6521C84.9083 97.7956 84.4244 96.9645 83.8247 96.115C82.655 94.458 83.0501 92.1664 84.7072 90.9967Z" fill="#F8CCBE"/>
<path d="M55.2187 95.3708C55.8853 93.4552 57.9786 92.4427 59.8943 93.1093C61.8099 93.776 62.8224 95.8693 62.1558 97.7849L61.9926 98.2547C60.2767 103.205 59.9295 104.56 59.3465 108.703C58.4891 114.796 58.3491 121.007 59.2288 124.405L59.2557 124.507C59.7836 126.465 58.6238 128.481 56.6654 129.008C54.707 129.536 52.6914 128.376 52.1636 126.418C51.4791 123.878 51.2241 120.659 51.3041 116.918C51.3681 113.92 51.6514 110.675 52.073 107.679L52.1134 107.394C52.7699 102.793 53.2569 101.008 55.2187 95.3708Z" fill="#F8CCBE"/>
<path d="M92.4334 90.3243C91.8775 89.6494 91.4408 89.2491 91.2919 89.1829L87.2719 89.2821L84.8896 105.66L97.9919 102.583C96.6519 98.1658 92.9892 90.9993 92.4334 90.3243Z" fill="#E6E0DD"/>
<path d="M56.2533 90.2253C56.6107 89.8282 57.2956 89.3319 57.5933 89.2327L62.06 93.6993V105.462L50 102.285C52.1837 98.53 55.896 90.6223 56.2533 90.2253Z" fill="#E6E0DD"/>
<path d="M57.4537 89.2326C58.0095 88.6371 63.8301 86.3707 66.1793 85.4111L72.2433 87.2474L81.0682 85.4111C83.8805 86.1556 90.1596 88.3393 91.1522 89.0341C91.8252 89.5052 89.1827 91.4507 88.4134 93.4511C87.4208 96.0319 86.6267 103.476 86.6267 105.759C86.6267 113.551 88.0256 125.065 87.5293 126.504C87.4349 126.778 80.896 127.44 73.7819 127.497C68.965 127.535 63.7374 126.395 60.0841 126.455C59.3892 117.869 61.421 105.783 60.6796 99.9526C59.5877 91.3667 56.7589 89.9771 57.4537 89.2326Z" fill="#EDE9E6"/>
<path d="M64.5911 88.0156C64.5911 86.3579 65.9349 85.0142 67.5925 85.0142H79.6549C81.3125 85.0142 82.6563 86.3579 82.6563 88.0156C82.6563 92.3881 79.1118 95.9327 74.7392 95.9327H72.5082C68.1357 95.9327 64.5911 92.3881 64.5911 88.0156Z" fill="#ECF5F9"/>
<path d="M73.458 98.8254C74.133 98.7857 74.1363 98.4118 74.0536 98.2299C74.0174 98.081 73.9544 97.7832 74.6989 97.4358C75.4433 97.0884 76.3863 98.2299 76.6344 99.0736C76.8826 99.9173 77.8255 98.9247 78.2722 99.0736C78.7189 99.2225 78.4707 102.002 78.5204 102.597C78.57 103.193 78.4707 103.689 79.1655 103.689C79.8604 103.689 79.8604 103.937 79.8604 104.88C79.8604 105.823 80.5552 104.98 80.4063 105.178C80.2574 105.377 79.2648 105.972 79.5626 106.468C79.6989 106.696 79.6792 106.829 79.5941 106.979C79.6137 107.026 79.6249 107.222 79.6246 107.464C79.6798 107.543 79.7621 107.641 79.8785 107.78C79.9875 107.674 80.0896 107.571 80.1752 107.469C80.0445 107.188 79.9184 106.932 79.8604 106.816C79.6618 106.419 80.2078 106.121 80.4063 106.816C80.4697 107.038 80.3608 107.25 80.1752 107.469C80.4911 108.149 80.8337 108.972 80.307 108.305C80.1296 108.08 79.9887 107.911 79.8785 107.78C79.7895 107.867 79.6958 107.956 79.6026 108.048C79.5735 108.423 79.5137 108.723 79.4137 108.602C79.3515 108.528 79.2892 108.484 79.2348 108.449C79.0662 108.661 78.9291 108.891 78.8678 109.148C78.6196 110.191 78.0241 110.687 77.5278 110.885C77.0315 111.084 77.23 110.885 76.9322 111.729C76.694 112.404 76.0719 112.639 75.7907 112.672C75.6915 112.606 75.5724 112.474 75.89 112.474C76.287 112.474 75.89 111.431 76.0885 110.885C76.287 110.34 75.4433 109.595 74.6989 109.496C73.9544 109.397 74.7981 110.191 74.9967 110.885C75.1952 111.58 73.9544 111.233 73.458 111.58C72.9616 111.928 72.7633 111.58 72.5152 112.126C72.4416 112.288 72.5032 112.384 72.6185 112.431C73.1469 112.271 73.0374 111.867 73.2596 112.126C73.4692 112.371 72.8924 112.541 72.6185 112.431C72.4388 112.485 72.1855 112.511 71.8204 112.474C70.3811 112.325 71.473 111.977 71.721 111.58C71.9691 111.183 70.7781 110.885 70.7285 111.58C70.6789 112.275 70.0337 111.729 69.7855 112.225C69.5374 112.722 69.7359 112.474 69.0412 112.126C68.3466 111.779 68.1479 111.233 68.8427 110.885C69.5374 110.538 68.8427 109.347 68.6937 108.305C68.5447 107.262 68.3464 106.518 68.8427 107.61C69.339 108.702 69.0412 107.66 69.5374 107.213C70.0336 106.766 69.5374 106.518 69.3389 106.121C69.1404 105.724 69.6367 105.922 69.5374 105.575C69.4381 105.228 68.4455 105.228 69.0412 105.178C69.637 105.128 69.6367 104.781 69.3389 104.632C69.0411 104.483 69.2893 104.086 69.3389 103.838C69.3885 103.59 69.2396 103.242 68.8427 102.895C68.7895 102.849 68.7481 102.813 68.7163 102.787C68.6933 102.809 68.6687 102.829 68.6419 102.845C68.6649 102.936 68.6985 103.075 68.6937 103.242C68.6835 103.6 68.9211 103.524 69.0412 103.441L68.3464 104.086L68.4455 103.044C68.4125 103.127 68.2471 103.242 67.8501 103.044C67.3539 102.796 67.5523 102.448 68.1479 102.796C68.3725 102.927 68.5265 102.917 68.6419 102.845C68.6116 102.726 68.5995 102.691 68.7163 102.787C68.8571 102.651 68.9349 102.429 69.0412 102.349C69.1514 102.267 69.2004 102.108 69.1884 101.982C68.985 102.057 68.8427 102.035 68.8427 101.803C68.8427 101.718 68.8487 101.634 68.8592 101.553C68.7953 101.334 68.7824 101.03 68.8427 100.91C68.9418 100.711 68.8427 100.711 68.3464 101.108C67.8501 101.505 68.2471 100.711 68.8427 100.513C69.3778 100.334 68.9512 100.837 68.8592 101.553C68.9005 101.696 68.9632 101.803 69.0412 101.803C69.1296 101.803 69.1787 101.882 69.1884 101.982C69.7253 101.786 70.6876 100.916 70.5796 101.456C70.4307 102.2 71.1751 101.307 71.1751 100.711C71.1751 100.235 71.3737 99.8511 71.473 99.7188C71.4894 99.9007 71.5623 100.265 71.721 100.265C71.9194 100.265 71.9692 99.818 71.721 99.2721C71.4729 98.7262 71.4729 99.5699 71.1751 99.2721C70.8773 98.9743 71.1751 98.8254 71.721 98.8254C72.1577 98.8254 71.9029 98.1306 71.721 97.7832C71.8037 97.9321 71.9692 98.2894 71.9692 98.5277C71.9692 98.8254 72.6143 98.8751 73.458 98.8254Z" fill="#454A4D"/>
<path d="M77.6933 99.6397C77.7595 99.5735 78.0606 99.4313 78.7356 99.3916C79.5255 99.3451 80.62 99.9077 79.4935 98.7168C78.3409 98.6659 77.8061 97.0229 79.2319 98.4486C79.3299 98.5467 79.4169 98.6358 79.4935 98.7168C79.5846 98.7209 79.6796 98.7149 79.7778 98.6968C80.9006 98.4888 81.884 99.9882 80.8011 100.509C80.8134 100.558 80.82 100.615 80.82 100.682C80.82 100.846 77.5941 100.732 79.9267 100.682C80.3047 100.674 80.5916 100.61 80.8011 100.509C80.6403 99.8706 79.5037 100.68 79.3807 100.434L80.82 99.8383L80.6215 99.3916L80.2244 99.8383L78.2889 99.5556L77.6933 99.8383L77.0978 100.98L77.6933 99.6397Z" fill="#454A4D"/>
<path fill-rule="evenodd" clip-rule="evenodd" d="M73.4944 100.615C73.3798 100.619 73.34 100.62 73.3753 100.796C73.3981 100.911 73.3153 100.898 73.1999 100.881C73.0654 100.861 72.8865 100.834 72.7797 100.995C72.5812 101.292 72.2834 102.136 72.5316 102.136C72.7797 102.136 73.0279 102.335 72.7797 102.384C72.7101 102.398 72.6405 102.377 72.5742 102.357C72.404 102.305 72.2554 102.26 72.1841 102.831C72.1279 103.28 71.9764 103.539 71.8734 103.715C71.7944 103.85 71.7439 103.936 71.787 104.022C71.8319 104.112 71.7142 104.243 71.6178 104.349C71.5014 104.478 71.4163 104.573 71.6879 104.518C72.0226 104.451 71.996 104.497 71.9127 104.641C71.8726 104.71 71.8193 104.802 71.787 104.915C71.7482 105.051 71.6488 105.187 71.5449 105.329C71.3834 105.55 71.211 105.785 71.2413 106.057C71.2771 106.38 71.2612 106.781 71.2495 107.072C71.2451 107.183 71.2413 107.278 71.2413 107.347C71.2413 107.546 71.3406 107.761 71.3902 107.844L70.9435 108.737L71.0924 106.95C70.927 107.413 70.5961 108.419 70.5961 108.737C70.5961 108.835 70.5749 108.93 70.5556 109.016C70.4972 109.278 70.4574 109.457 71.0924 109.382C71.4622 109.339 71.7175 109.4 71.8876 109.441C72.1058 109.493 72.1841 109.512 72.1841 109.233C72.1841 108.737 72.3824 107.744 72.5316 107.645C72.5896 107.606 72.8591 107.613 73.1751 107.621C73.6693 107.633 74.2773 107.648 74.3681 107.496C74.4488 107.362 74.6317 107.417 74.8139 107.472C74.9677 107.518 75.121 107.564 75.2118 107.496C75.2583 107.461 75.2994 107.415 75.3382 107.372C75.465 107.231 75.5677 107.116 75.7577 107.496C75.8851 107.751 75.934 108.045 75.9783 108.311C76.0202 108.563 76.0581 108.791 76.1547 108.935C76.3533 109.233 76.5518 109.332 76.9984 109.233C77.3558 109.154 76.9819 108.472 76.7503 108.141C77.0481 108.158 77.6436 108.122 77.6436 107.844C77.6436 107.566 76.9488 106.702 76.6014 106.305C76.7337 106.404 77.0183 106.573 77.0977 106.454C77.1331 106.401 77.0486 106.329 76.9205 106.22C76.6898 106.023 76.3178 105.706 76.254 105.164C76.1887 104.609 76.0161 104.14 75.849 103.686C75.7622 103.45 75.6768 103.218 75.6088 102.98C75.4103 102.285 75.1622 101.938 74.8147 101.64C74.6605 101.508 74.4867 101.483 74.3368 101.462C74.149 101.435 73.9986 101.414 73.971 101.193C73.9214 100.796 73.8713 100.598 73.6731 100.598C73.6009 100.612 73.5413 100.614 73.4944 100.615ZM73.9211 102.732C73.9045 102.848 73.8119 103.109 73.5737 103.228C73.2759 103.377 73.0774 103.576 73.127 104.022C73.1454 104.188 73.1706 104.265 73.1875 104.316C73.216 104.404 73.2206 104.417 73.127 104.667C73.062 104.841 73.0822 104.986 73.1008 105.119C73.1248 105.291 73.146 105.443 72.9782 105.61C72.9036 105.685 72.8226 105.757 72.7486 105.822C72.5281 106.017 72.3707 106.156 72.6308 106.156C72.767 106.156 72.9184 106.103 73.0432 106.059C73.237 105.991 73.3668 105.945 73.2761 106.156C73.2276 106.269 73.1948 106.309 73.1968 106.311C73.2008 106.314 73.3534 106.156 73.822 106.156C74.0658 106.156 74.4075 106.224 74.731 106.287C75.3296 106.405 75.8664 106.511 75.6087 106.156C75.5359 106.056 75.4564 105.955 75.3752 105.85C75.0133 105.387 74.6161 104.878 74.6161 104.27C74.6161 103.526 74.0201 102.732 73.9211 102.732Z" fill="#EDE9E6"/>
<path d="M66.9734 87.2516C66.9734 86.0159 67.9752 85.0142 69.2109 85.0142H78.2353C79.471 85.0142 80.4727 86.0159 80.4727 87.2516C80.4727 90.511 77.8303 93.1534 74.5709 93.1534H72.8753C69.6158 93.1534 66.9734 90.511 66.9734 87.2516Z" fill="#EBBAAA"/>
<path d="M68.6608 74.9305C68.6608 72.8522 70.3456 71.1675 72.4238 71.1675H74.4267C76.505 71.1675 78.1897 72.8522 78.1897 74.9305V84.9645C78.1897 87.5959 76.0566 89.729 73.4253 89.729C70.7939 89.729 68.6608 87.5959 68.6608 84.9645V74.9305Z" fill="#EBBAAA"/>
<path d="M86.405 72.1632C89.654 72.1632 92.2878 69.5295 92.2878 66.2805C92.2878 63.0315 89.654 60.3977 86.405 60.3977C83.1561 60.3977 80.5223 63.0315 80.5223 66.2805C80.5223 69.5295 83.1561 72.1632 86.405 72.1632Z" fill="#EBBAAA"/>
<path d="M60.7962 72.4611C57.5472 72.4611 54.9135 69.8273 54.9135 66.5784C54.9135 63.3294 57.5472 60.6956 60.7962 60.6956C64.0451 60.6956 66.679 63.3294 66.679 66.5784C66.679 69.8273 64.0451 72.4611 60.7962 72.4611Z" fill="#EBBAAA"/>
<path d="M58.4666 58.1166C58.26 49.6803 65.0424 42.7297 73.4812 42.7297C82.0284 42.7297 88.8526 49.8526 88.4866 58.3921L88.1927 65.2504C88.1415 66.4457 87.9667 67.6327 87.6713 68.7921L85.9903 75.3889C85.2563 78.269 83.3653 80.7181 80.7643 82.1566C76.3314 84.6085 70.8897 84.5382 66.495 82.0183C64.1376 80.6666 62.3447 78.4675 61.5154 75.8796L59.4468 69.4243C58.9417 67.8484 58.6647 66.2083 58.6242 64.5539L58.4666 58.1166Z" fill="#F4D4C9"/>
<path d="M84.0957 60.9436C84.7535 60.9436 85.2868 61.4769 85.2868 62.1347C85.2868 62.7824 84.7698 63.3094 84.126 63.3254L84.0957 63.3258H78.0172C77.3593 63.3258 76.826 62.7925 76.826 62.1347C76.826 61.487 77.343 60.96 77.9869 60.944L78.0172 60.9436H84.0957Z" fill="#393939"/>
<path d="M69.213 61.291C69.8708 61.291 70.4041 61.8243 70.4041 62.4821C70.4041 63.1298 69.8871 63.6568 69.2433 63.6729L69.213 63.6732H63.2017C62.5438 63.6732 62.0106 63.14 62.0106 62.4821C62.0106 61.8344 62.5276 61.3075 63.1714 61.2914L63.2017 61.291H69.213Z" fill="#393939"/>
<path d="M72.7525 66.533L74.2206 67.365C73.7624 68.1734 73.5012 69.0375 73.5293 69.6263C73.55 70.0605 73.6655 70.1924 74.0749 70.1975L74.1004 70.1976V71.885C72.7237 71.885 71.906 71.0093 71.8438 69.7068C71.7994 68.7768 72.1365 67.641 72.7181 66.5944L72.7525 66.533Z" fill="#EBBAAA"/>
<path d="M87.272 46.4024C88.3057 47.9329 90.2027 56.7142 88.2647 62.7799C87.9168 62.5777 87.6036 58.8672 86.7261 58.214C85.7349 57.4761 85.8309 52.882 84.8868 51.7621C83.9425 50.6423 76.5879 50.8818 73.507 50.8818C70.426 50.8818 62.6591 50.3493 61.4665 52.1691C60.2739 53.9888 60.6715 57.7682 59.9758 58.5614C59.4192 59.1959 58.7849 62.0178 58.5861 62.7799C58.5861 59.2804 56.883 54.2961 58.5861 48.8836C59.2027 46.9239 63.8075 40.5955 73.507 40.5955C80.1255 40.5954 80.961 41.9697 82.8493 43.3695C84.34 44.2561 84.1911 44.6294 84.8868 45.4226C85.2346 45.4226 86.6459 45.4754 87.272 46.4024Z" fill="#2C2929"/>
<path d="M59.7774 45.9059C61.4449 44.3972 64.2607 42.8951 65.5346 42.3326L65.3361 41.3896L67.1724 41.2407L67.0235 40.8437H69.6539L70.5472 40L71.5894 40.5956L72.3339 40L74.5672 41.1415L75.7583 40L76.3042 40.5956L76.8502 40.1985L78.5872 40.8437L79.4309 40.5956L80.3739 41.5881L81.3168 41.3896L81.8627 42.9778C80.8701 43.3252 77.7832 44.0796 73.3761 44.3178C67.8672 44.6156 60.224 52.2089 58.3381 51.6133C56.4522 51.0178 57.6929 47.7919 59.7774 45.9059Z" fill="#2C2929"/>
<path d="M59.9644 56.26L59.0571 50.7467L67.378 45.5864L69.0505 50.6014L64.5223 52.9994L65.3737 51.5777L62.3746 53.5697L62.1861 52.4241L59.9644 56.26Z" fill="#2C2929"/>
<path d="M86.9321 55.8639L87.6207 49.3986L79.6431 45.8267L77.6671 49.3437L77.7574 52.5295L81.0488 52.0763L81.8598 53.331L85.229 52.466L86.9321 55.8639Z" fill="#2C2929"/>
<path d="M66.5664 54.7006L66.106 52.5793L65.2295 47.561L81.8833 44.7068L76.8432 53.5424L76.7587 52.3902L74.6927 53.3079L74.2005 52.1396L72.3852 53.7034L71.8427 53.2327L68.9742 54.288L69.3347 53.6626L66.5664 54.7006Z" fill="#2C2929"/>
<path d="M87.5656 44.2487L87.3662 45.1494L86.8126 47.2421L79.8771 45.3838L83.2209 41.9941L83.6491 42.9371L84.2446 42.4904L84.4432 44.1574L85.1423 43.5994L85.268 43.8775L86.5628 43.98L86.3125 44.1574L87.5656 44.2487Z" fill="#2C2929"/>
<path d="M66.6759 64.9141C66.7767 64.9141 66.8791 64.9174 66.9831 64.9239C67.4404 64.9526 67.9147 65.0402 68.3904 65.168C68.5919 65.2221 68.7806 65.2801 68.9523 65.3384L69.0569 65.3747C69.1116 65.3941 69.1547 65.4102 69.1851 65.4222C69.6446 65.6019 69.8713 66.1201 69.6915 66.5796C69.515 67.0307 69.0123 67.2574 68.5592 67.0954L68.4837 67.0672C68.461 67.059 68.4325 67.0489 68.3986 67.0373L68.3777 67.0302C68.2411 66.9838 68.089 66.937 67.9268 66.8935C67.5575 66.7943 67.1957 66.7274 66.8715 66.7071C66.8038 66.7029 66.7385 66.7007 66.6759 66.7007C66.6133 66.7007 66.548 66.7029 66.4803 66.7071C66.1561 66.7274 65.7943 66.7943 65.425 66.8935C65.286 66.9308 65.1544 66.9705 65.0336 67.0103L64.9741 67.0302C64.9023 67.0546 64.8512 67.0731 64.8249 67.0832L64.8177 67.086C64.3583 67.2658 63.8401 67.039 63.6603 66.5796C63.4805 66.1201 63.7072 65.6019 64.1667 65.4222L64.2127 65.4046C64.2597 65.3871 64.3226 65.3645 64.3996 65.3384C64.5712 65.2801 64.76 65.2221 64.9614 65.168C65.4371 65.0402 65.9114 64.9526 66.3687 64.9239C66.4727 64.9174 66.5751 64.9141 66.6759 64.9141Z" fill="black"/>
<path d="M80.1752 64.9141C80.7641 64.9141 81.3576 65.0103 81.9335 65.1698C82.1332 65.2251 82.3173 65.2845 82.4826 65.3444L82.5612 65.3734C82.6258 65.3978 82.6761 65.4181 82.7108 65.433C83.1643 65.6273 83.3744 66.1525 83.18 66.606C82.9892 67.0512 82.4795 67.2618 82.0318 67.0854L81.9728 67.0613C81.9491 67.052 81.9159 67.0394 81.8739 67.0241C81.7503 66.9794 81.6099 66.9341 81.4567 66.8917C81.0246 66.772 80.5851 66.7007 80.1752 66.7007C79.7653 66.7007 79.3258 66.772 78.8937 66.8917C78.7597 66.9288 78.6354 66.9681 78.5237 67.0073L78.4766 67.0241C78.4066 67.0495 78.3609 67.0677 78.3434 67.0752C77.8899 67.2695 77.3648 67.0594 77.1704 66.606C76.9761 66.1525 77.1861 65.6273 77.6396 65.433L77.6852 65.414C77.7314 65.3953 77.7927 65.3716 77.8678 65.3444C78.0332 65.2845 78.2173 65.2251 78.4169 65.1698C78.9929 65.0103 79.5863 64.9141 80.1752 64.9141Z" fill="black"/>
<mask id="mask2_280_44925" style="mask-type:luminance" maskUnits="userSpaceOnUse" x="69" y="70" width="10" height="7">
<path fill-rule="evenodd" clip-rule="evenodd" d="M69.2064 73.7481C69.2064 71.9665 70.6506 70.5222 72.4323 70.5222H74.8146C76.5962 70.5222 78.0405 71.9665 78.0405 73.7481C78.0405 75.5297 76.5962 76.9741 74.8146 76.9741H72.4323C70.6506 76.9741 69.2064 75.5297 69.2064 73.7481Z" fill="white"/>
</mask>
<g mask="url(#mask2_280_44925)">
<rect x="69.5042" y="74.7903" width="20.1496" height="4.16889" fill="white"/>
</g>
</g>
<defs>
<filter id="filter0_d_280_44925" x="0" y="0" width="147.992" height="234" filterUnits="userSpaceOnUse" color-interpolation-filters="sRGB">
<feFlood flood-opacity="0" result="BackgroundImageFix"/>
<feColorMatrix in="SourceAlpha" type="matrix" values="0 0 0 0 0 0 0 0 0 0 0 0 0 0 0 0 0 0 127 0" result="hardAlpha"/>
<feOffset dy="10"/>
<feGaussianBlur stdDeviation="25"/>
<feComposite in2="hardAlpha" operator="out"/>
<feColorMatrix type="matrix" values="0 0 0 0 0 0 0 0 0 0 0 0 0 0 0 0 0 0 0.3 0"/>
<feBlend mode="normal" in2="BackgroundImageFix" result="effect1_dropShadow_280_44925"/>
<feBlend mode="normal" in="SourceGraphic" in2="effect1_dropShadow_280_44925" result="shape"/>
</filter>
<linearGradient id="paint0_linear_280_44925" x1="65.1017" y1="134.667" x2="70.3117" y2="131.934" gradientUnits="userSpaceOnUse">
<stop stop-color="#059EFE" stop-opacity="0.01"/>
<stop offset="0.202437" stop-color="#059EFE" stop-opacity="0.05"/>
<stop offset="0.515476" stop-color="#059EFE" stop-opacity="0.74"/>
<stop offset="0.67509" stop-color="#059EFE" stop-opacity="0.59"/>
<stop offset="1" stop-color="#059EFE" stop-opacity="0.01"/>
</linearGradient>
<linearGradient id="paint1_linear_280_44925" x1="76.6888" y1="136.232" x2="78.5975" y2="130.829" gradientUnits="userSpaceOnUse">
<stop stop-color="#059EFE" stop-opacity="0.01"/>
<stop offset="0.202437" stop-color="#059EFE" stop-opacity="0.05"/>
<stop offset="0.515476" stop-color="#059EFE" stop-opacity="0.74"/>
<stop offset="0.67509" stop-color="#059EFE" stop-opacity="0.59"/>
<stop offset="1" stop-color="#059EFE" stop-opacity="0.01"/>
</linearGradient>
<linearGradient id="paint2_linear_280_44925" x1="67.2762" y1="147.509" x2="69.1847" y2="142.106" gradientUnits="userSpaceOnUse">
<stop stop-color="#059EFE" stop-opacity="0.01"/>
<stop offset="0.202437" stop-color="#059EFE" stop-opacity="0.05"/>
<stop offset="0.515476" stop-color="#059EFE" stop-opacity="0.74"/>
<stop offset="0.67509" stop-color="#059EFE" stop-opacity="0.59"/>
<stop offset="1" stop-color="#059EFE" stop-opacity="0.01"/>
</linearGradient>
</defs>
</svg>
