<svg width="162" height="232" viewBox="0 0 162 232" fill="none" xmlns="http://www.w3.org/2000/svg">
<g filter="url(#filter0_d_280_44284)">
<path d="M83.0293 124.965C84.5764 124.645 86.0898 125.64 86.4097 127.187C86.9982 130.032 87.286 136.902 87.2654 145.274L87.2647 145.528C87.239 153.572 86.9271 161.135 86.4403 164.545C86.217 166.109 84.7682 167.196 83.2042 166.973C81.6403 166.75 80.5536 165.301 80.7768 163.737C81.7478 156.936 81.8313 133.774 80.8378 128.499L80.8074 128.345C80.4875 126.798 81.4823 125.285 83.0293 124.965Z" fill="#F6DDD6"/>
<path d="M68.9007 126.728C69.2206 125.181 70.734 124.186 72.2811 124.506C73.8126 124.823 74.803 126.31 74.5122 127.84L74.503 127.887C73.4775 132.846 73.5528 156.486 74.5335 163.355C74.7568 164.919 73.6701 166.368 72.1062 166.591C70.5422 166.815 69.0934 165.728 68.8701 164.164C68.3882 160.788 68.0776 153.325 68.0466 145.35L68.0457 145.109C68.0186 136.599 68.3063 129.603 68.9007 126.728Z" fill="#F6DDD6"/>
<path d="M85.9508 133.098L68.9753 131.168L65.3102 121.903L88.2657 122.868L85.9508 133.098Z" fill="#556681"/>
<path d="M76.6493 124.171L90.5278 123.189L88.091 159.326L79.8434 158.945L79.0807 144.596L76.6493 124.171Z" fill="#556681"/>
<path d="M64.2058 122.331L76.692 124.413L75.9115 142.789L75.5522 159.279L67.4 158.945L64.2058 122.331Z" fill="#556681"/>
<path d="M66.9476 158.468H75.8211L75.5318 162.618H67.671L66.9476 158.468Z" fill="#6D7F9A"/>
<path d="M79.39 158.468H88.7458L87.8778 162.618H79.5829L79.39 158.468Z" fill="#6D7F9A"/>
<path d="M58.6056 171.772C58.5865 169.584 58.8846 168.253 60.7867 167.358C62.6889 166.465 64.4806 164.746 67.7714 163.272C67.7714 163.272 68.2046 163.19 68.9097 163.571C69.5113 163.896 70.2842 164.694 71.4488 164.685C72.7133 164.673 73.8402 164.405 74.5403 164.038C74.8428 163.21 75.5138 163.204 75.5138 163.204C75.5138 163.204 76.4586 165.002 76.4745 166.809C76.4902 168.615 76.4886 171.616 76.4886 171.616L58.6056 171.772Z" fill="#161616"/>
<path d="M67.0853 163.404C67.2156 163.346 67.3681 163.405 67.426 163.535C67.4997 163.701 67.5529 163.882 67.5892 164.08C67.6429 164.372 67.6547 164.611 67.6547 165.033C67.6547 165.214 67.4741 165.337 67.3075 165.275L67.2924 165.269L66.035 164.714L66.3034 165.687C66.3566 165.88 66.1802 166.055 65.9904 166.006L65.9754 166.001L64.7123 165.594L64.7124 166.737C64.7124 166.927 64.5148 167.05 64.3458 166.971L64.3314 166.964L63.4735 166.499L63.4736 167.356C63.4736 167.494 63.3664 167.606 63.2312 167.614L63.2155 167.614C63.0782 167.614 62.966 167.507 62.9579 167.372L62.9574 167.356V166.065C62.9574 165.875 63.155 165.752 63.324 165.831L63.3384 165.838L64.1962 166.303L64.1962 165.24C64.1962 165.07 64.3564 164.948 64.5179 164.99L64.5335 164.994L65.6785 165.363L65.3928 164.327C65.3363 164.122 65.537 163.943 65.7319 164.017L65.7458 164.022L67.1317 164.634C67.1248 164.474 67.1113 164.343 67.087 164.204L67.0816 164.174C67.0521 164.014 67.0102 163.87 66.9543 163.745C66.8964 163.614 66.9551 163.462 67.0853 163.404Z" fill="white"/>
<path d="M59.3249 167.526C59.9085 167.315 60.5265 167.154 61.7114 166.886L61.2079 168.336L61.2223 169.987L57.8496 170.017C57.712 170.018 57.4661 169.835 57.5835 169.09C57.7302 168.159 58.4956 167.827 59.3249 167.526Z" fill="#161616"/>
<path d="M76.5449 171.334L76.4469 169.596L61.3242 169.832L57.5536 169.555L57.4384 170.887C57.3987 171.348 57.7437 171.751 58.2043 171.782L61.3432 172L76.139 171.77C76.3736 171.766 76.558 171.568 76.5449 171.334Z" fill="#808080"/>
<path d="M96.9966 171.772C97.0158 169.584 96.7176 168.253 94.8155 167.358C92.9133 166.465 91.1217 164.746 87.8308 163.272C87.8308 163.272 87.3977 163.19 86.6926 163.571C86.0908 163.896 85.3181 164.694 84.1535 164.685C82.8889 164.673 81.7621 164.405 81.0619 164.038C80.7594 163.21 80.0884 163.204 80.0884 163.204C80.0884 163.204 79.1435 165.002 79.1278 166.809C79.1121 168.615 79.1137 171.616 79.1137 171.616L96.9966 171.772Z" fill="#161616"/>
<path d="M88.1777 163.535C88.2356 163.405 88.3881 163.346 88.5183 163.404C88.6486 163.462 88.7072 163.614 88.6493 163.745C88.5934 163.87 88.5515 164.014 88.5221 164.174C88.4974 164.308 88.4829 164.432 88.4747 164.578L88.4718 164.634L89.8579 164.022C90.0523 163.937 90.2589 164.109 90.2144 164.313L90.2108 164.327L89.925 165.363L91.0701 164.994C91.2316 164.942 91.3967 165.057 91.4069 165.223L91.4074 165.24L91.4073 166.303L92.2651 165.838C92.4323 165.748 92.6346 165.863 92.6457 166.049L92.6461 166.065V167.356C92.6461 167.499 92.5306 167.614 92.3881 167.614C92.2508 167.614 92.1386 167.507 92.1304 167.372L92.13 167.356L92.1299 166.499L91.2723 166.964C91.1051 167.054 90.9028 166.939 90.8917 166.753L90.8912 166.737L90.8912 165.594L89.6283 166.001C89.4379 166.063 89.2553 165.894 89.2966 165.702L89.3003 165.687L89.5685 164.714L88.3112 165.269C88.1457 165.342 87.9602 165.226 87.9495 165.049L87.949 165.033L87.9492 164.935C87.9511 164.572 87.9651 164.348 88.0144 164.08C88.0508 163.882 88.104 163.701 88.1777 163.535Z" fill="white"/>
<path d="M96.278 167.526C95.6944 167.315 95.0763 167.154 93.8914 166.886L94.395 168.336L94.3805 169.987L97.7532 170.017C97.8908 170.018 98.1368 169.835 98.0194 169.09C97.8727 168.159 97.1072 167.827 96.278 167.526Z" fill="#161616"/>
<path d="M79.0574 171.334L79.1554 169.596L94.278 169.832L98.0487 169.555L98.1638 170.887C98.2036 171.348 97.8585 171.751 97.398 171.782L94.2591 172L79.4633 171.77C79.2287 171.766 79.0442 171.568 79.0574 171.334Z" fill="#808080"/>
<path d="M61.4642 90.1895C63.438 87.7223 67.0381 87.3223 69.5052 89.2961C71.9477 91.2501 72.3641 94.7981 70.4571 97.2628L70.3986 97.3371C70.1367 97.6644 68.3452 99.8671 67.8348 100.516L67.8052 100.554C66.512 102.207 65.666 103.506 64.8136 105.228C64.3433 106.178 63.8773 107.252 63.4002 108.5C62.2718 111.451 58.9647 112.929 56.0135 111.801C53.0623 110.672 51.5847 107.365 52.7131 104.414C53.3148 102.84 53.9236 101.436 54.5598 100.151C55.7663 97.7144 57.0064 95.7995 58.7037 93.6189L58.8654 93.4123C59.4905 92.6201 61.2656 90.4376 61.4642 90.1895Z" fill="#E0C1A1"/>
<path d="M93.1131 92.7189C91.781 89.7536 88.4076 88.2933 85.3339 89.3517C82.2906 90.3995 80.5309 93.5773 81.2574 96.7129L86.4929 119.306C87.5544 123.886 92.3042 126.581 96.7809 125.143C101.03 123.778 103.353 119.213 101.956 114.975L98.7703 105.313L93.1131 92.7189Z" fill="#E0C1A1"/>
<path d="M93.3831 118.566C90.7931 119.214 92.0642 121.077 92.0959 122.285C97.0541 122.285 99.8826 123.254 100.582 123.476C100.772 123 101.077 122.285 101.345 121.713C102.817 118.566 96.8156 117.708 93.3831 118.566Z" fill="#DBB793"/>
<path d="M61.5988 97.0152C61.6043 91.4988 66.0816 87.0383 71.598 87.0383H82.4139C87.62 87.0383 91.9608 91.0266 92.282 96.2229C92.5347 100.309 92.7636 104.974 92.7636 108.459C92.7636 112.906 92.391 119.244 92.072 123.857C91.8393 127.219 89.0327 129.798 85.6623 129.798H68.7401C65.389 129.798 62.5913 127.247 62.3387 123.905C62.0163 119.639 61.6472 113.921 61.6192 109.794C61.5965 106.435 61.5943 101.459 61.5988 97.0152Z" fill="#E3C7AB"/>
<path d="M77.2744 95.3695C80.7114 95.3695 83.4977 92.5383 83.4977 89.0458C83.4977 85.5534 80.7114 82.7222 77.2744 82.7222C73.8374 82.7222 71.0511 85.5534 71.0511 89.0458C71.0511 92.5383 73.8374 95.3695 77.2744 95.3695Z" fill="#DBB793"/>
<rect x="73.4401" y="80.7161" width="7.71452" height="11.5718" rx="3.85726" fill="#EED1C9"/>
<rect x="67.8379" y="99.0835" width="9.0338" height="9.0338" rx="4.5169" fill="#FF6C75"/>
<path fill-rule="evenodd" clip-rule="evenodd" d="M77.4745 103.6C77.4745 101.106 79.4968 99.0833 81.9914 99.0833C84.486 99.0833 86.5083 101.106 86.5083 103.6C86.5083 106.095 84.486 108.117 81.9914 108.117C79.4968 108.117 77.4745 106.095 77.4745 103.6ZM85.3651 103.6C85.3651 101.737 83.8551 100.227 81.9924 100.227C80.1297 100.227 78.6197 101.737 78.6197 103.6C78.6197 105.463 80.1297 106.973 81.9924 106.973C83.8551 106.973 85.3651 105.463 85.3651 103.6Z" fill="#FF6C75"/>
<path fill-rule="evenodd" clip-rule="evenodd" d="M70.3177 108.619H74.3934C75.7625 108.619 76.8724 109.729 76.8724 111.098V115.174C76.8724 116.543 75.7625 117.653 74.3934 117.653H70.3177C68.9485 117.653 67.8386 116.543 67.8386 115.174V111.098C67.8386 109.729 68.9485 108.619 70.3177 108.619ZM74.3943 109.763H70.3185C69.5813 109.763 68.9837 110.361 68.9837 111.098V115.174C68.9837 115.911 69.5813 116.509 70.3185 116.509H74.3943C75.1315 116.509 75.7291 115.911 75.7291 115.174V111.098C75.7291 110.361 75.1315 109.763 74.3943 109.763Z" fill="#FF6C75"/>
<path fill-rule="evenodd" clip-rule="evenodd" d="M79.9535 108.619H84.0292C85.3984 108.619 86.5083 109.729 86.5083 111.098V115.174C86.5083 116.543 85.3984 117.653 84.0292 117.653H79.9535C78.5844 117.653 77.4745 116.543 77.4745 115.174V111.098C77.4745 109.729 78.5844 108.619 79.9535 108.619ZM84.0303 109.763H79.9546C79.2173 109.763 78.6197 110.361 78.6197 111.098V115.174C78.6197 115.911 79.2173 116.509 79.9546 116.509H84.0303C84.7675 116.509 85.3651 115.911 85.3651 115.174V111.098C85.3651 110.361 84.7675 109.763 84.0303 109.763Z" fill="#FF6C75"/>
<path d="M68.3408 91.0534C69.7059 93.2215 72.2555 94.8676 75.6683 94.8676C75.6683 92.2913 73.8615 89.6481 71.7536 86.6369C70.8787 85.3869 70.1476 84.0271 68.3408 84.0271C67.772 85.4658 66.9757 88.8852 68.3408 91.0534Z" fill="#C09F7B"/>
<path d="M85.8052 91.0534C84.4401 93.2215 81.8906 94.8676 78.4778 94.8676C78.4778 92.2913 80.2845 89.6481 82.3925 86.6369C83.2674 85.3869 83.9985 84.0271 85.8052 84.0271C86.3741 85.4658 87.1703 88.8852 85.8052 91.0534Z" fill="#C09F7B"/>
<path d="M73.4594 92.6946C73.8204 92.6946 74.1144 92.9811 74.1265 93.3391L74.1269 93.362V107.372C74.1269 107.74 73.828 108.039 73.4594 108.039C73.0985 108.039 72.8045 107.752 72.7924 107.394L72.792 107.372V93.362C72.792 92.9934 73.0908 92.6946 73.4594 92.6946Z" fill="#FFF0E0"/>
<path d="M80.4865 92.4939C80.8475 92.4939 81.1415 92.7804 81.1536 93.1384L81.154 93.1613V111.229C81.154 111.598 80.8551 111.896 80.4865 111.896C80.1256 111.896 79.8316 111.61 79.8195 111.252L79.8191 111.229V93.1613C79.8191 92.7927 80.1179 92.4939 80.4865 92.4939Z" fill="#FFF0E0"/>
<path d="M54.5141 105.605C55.9327 103.908 58.4582 103.682 60.155 105.101C61.8349 106.505 62.0728 108.995 60.701 110.691L60.6589 110.742C60.0853 111.428 59.5032 112.861 59.2888 114.599C59.0006 116.936 59.3793 119.547 60.5828 122.303C61.4679 124.33 60.5424 126.69 58.5156 127.576C56.4888 128.461 54.1282 127.535 53.243 125.508C51.4645 121.436 50.876 117.378 51.3399 113.618C51.7357 110.41 52.906 107.529 54.5141 105.605Z" fill="#F6DDD6"/>
<path d="M52.5787 104.633C53.7964 101.977 56.9373 100.81 59.5941 102.028C62.251 103.245 63.4176 106.386 62.2 109.043C61.9344 109.623 61.7069 110.223 61.514 110.85C61.1108 112.16 60.8588 113.579 60.723 115.2L60.7125 115.329C60.6088 116.634 60.5847 117.713 60.5836 120L60.5836 120.162C60.5836 123.085 58.2144 125.454 55.2918 125.454C52.3692 125.454 50 123.085 50 120.162L50.0012 119.302C50.0074 117.217 50.0414 116.03 50.1576 114.548L50.1622 114.49C50.3529 112.091 50.738 109.884 51.3985 107.737C51.7254 106.675 52.1168 105.641 52.5787 104.633Z" fill="#E0C1A1"/>
<path d="M51.2897 124.621C50.504 123.707 50.0417 120.843 50.0417 120.843C53.6905 123.307 59.2219 121.088 60.5808 119.135L60.9167 122.96C60.1177 125.155 58.5097 125.915 56.1716 126.485C54.0754 126.995 52.0754 125.535 51.2897 124.621Z" fill="#DBB793"/>
<path d="M93.2861 121.653C89.8405 122.331 89.9089 125.453 90.4963 126.883C93.0903 128.956 98.9638 126.647 99.649 125.658C100.577 124.318 97.5933 120.805 93.2861 121.653Z" fill="#F2CCC1"/>
<path d="M95.6673 123.759C97.2438 123.735 98.847 124.253 100.391 125.164C101.538 125.84 102.601 126.713 103.308 127.492L103.354 127.542L102.145 128.622C101.549 127.955 100.594 127.165 99.5678 126.56C98.2603 125.789 96.9355 125.361 95.6917 125.38C94.4814 125.398 93.2493 125.929 92.0741 126.859C91.165 127.579 90.3454 128.503 89.8431 129.29L89.8086 129.345L88.4338 128.486C89.0288 127.533 89.9886 126.442 91.0683 125.588C92.5011 124.454 94.0572 123.783 95.6673 123.759Z" fill="#CF8388"/>
<rect x="83.1835" y="128.175" width="26.888" height="19.1649" rx="5.75" transform="rotate(-6.5 83.1835 128.175)" fill="#CF8388"/>
<rect x="81.9513" y="128.315" width="26.888" height="19.1649" rx="5.75" transform="rotate(-6.5 81.9513 128.315)" fill="#FCA9AE"/>
<path d="M93.8306 137.858L82.5005 133.129L82.2219 130.683C82.0668 129.323 83.0439 128.095 84.4043 127.94L106.193 125.457C107.554 125.302 108.782 126.279 108.937 127.64L109.129 129.325L99.6374 137.021C98.0028 138.347 95.7726 138.668 93.8306 137.858Z" fill="#F1C3C6"/>
<path d="M96.4899 136.734C97.1439 136.66 97.6137 136.069 97.5392 135.415C97.4647 134.761 96.8741 134.292 96.2201 134.366C95.5661 134.441 95.0963 135.031 95.1708 135.685C95.2453 136.339 95.8359 136.809 96.4899 136.734Z" fill="#E29398"/>
<path d="M95.2893 120.794C91.8436 121.473 91.9121 124.595 92.4994 126.024C95.0935 128.097 100.967 125.789 101.652 124.799C102.58 123.459 99.5964 119.946 95.2893 120.794Z" fill="#F6DDD6"/>
<path d="M61.5696 58.1782C61.5696 50.0582 68.4903 43.4756 77.0274 43.4756C85.5645 43.4756 92.4853 50.0582 92.4853 58.1782V72.8017C91.2387 82.2873 83.759 87.5044 77.0274 87.5044C70.2958 87.5044 62.4838 81.1806 61.5696 72.8017V58.1782Z" fill="#F6DDD6"/>
<path fill-rule="evenodd" clip-rule="evenodd" d="M72.8719 76.3503C72.8616 76.4707 72.8563 76.5924 72.8563 76.7153V77.3291C72.8563 79.6597 74.7455 81.549 77.0761 81.549C79.4067 81.549 81.2959 79.6597 81.2959 77.3291V76.7153C81.2959 76.5924 81.2907 76.4707 81.2804 76.3503H72.8719Z" fill="#393939"/>
<mask id="mask0_280_44284" style="mask-type:luminance" maskUnits="userSpaceOnUse" x="72" y="75" width="10" height="7">
<path fill-rule="evenodd" clip-rule="evenodd" d="M72.9802 75.696C72.8992 76.0224 72.8563 76.3638 72.8563 76.7152V77.329C72.8563 79.6595 74.7455 81.5488 77.0761 81.5488C79.4067 81.5488 81.2959 79.6595 81.2959 77.329V76.7152C81.2959 76.3638 81.253 76.0224 81.1721 75.696H72.9802Z" fill="white"/>
</mask>
<g mask="url(#mask0_280_44284)">
<path d="M77.0755 82.7757C78.481 82.7757 79.6203 82.2135 79.6203 81.52C79.6203 80.8264 78.481 80.2642 77.0755 80.2642C75.6701 80.2642 74.5308 80.8264 74.5308 81.52C74.5308 82.2135 75.6701 82.7757 77.0755 82.7757Z" fill="#FF6C6C"/>
<rect x="72.8562" y="76.3503" width="8.43966" height="1.57705" fill="white"/>
</g>
<path d="M68.3882 62.0383C69.8754 61.5848 71.5424 61.5253 73.2582 62.114C73.6069 62.2336 73.7925 62.6132 73.6729 62.9619C73.5533 63.3105 73.1737 63.4962 72.825 63.3766C71.4018 62.8883 70.0149 62.9378 68.7776 63.3151C68.5721 63.3777 68.3903 63.4443 68.2349 63.5101L68.1627 63.5415C68.1153 63.5625 68.0836 63.5779 68.0685 63.5858C67.7422 63.7573 67.3387 63.6318 67.1672 63.3055C66.9957 62.9791 67.1213 62.5756 67.4476 62.4042L67.475 62.3901C67.5298 62.3625 67.6102 62.3251 67.7145 62.2809C67.9116 62.1975 68.1369 62.1149 68.3882 62.0383Z" fill="#583311"/>
<path d="M80.9721 62.1093C82.6879 61.5207 84.355 61.5802 85.8421 62.0336C86.0934 62.1102 86.3188 62.1928 86.5158 62.2763L86.5958 62.3108C86.6787 62.3474 86.7414 62.3778 86.7828 62.3995C87.1091 62.571 87.2346 62.9745 87.0632 63.3008C86.8954 63.62 86.5056 63.7471 86.1832 63.5919L86.1493 63.5748C86.1219 63.5612 86.07 63.5371 85.9954 63.5055C85.84 63.4397 85.6582 63.3731 85.4528 63.3104C84.2154 62.9332 82.8286 62.8837 81.4053 63.372C81.0567 63.4916 80.677 63.3059 80.5574 62.9572C80.4378 62.6086 80.6235 62.2289 80.9721 62.1093Z" fill="#583311"/>
<path d="M65.5285 78.3057C67.5796 78.3057 69.2424 76.6429 69.2424 74.5918C69.2424 72.5407 67.5796 70.8779 65.5285 70.8779C63.4773 70.8779 61.8146 72.5407 61.8146 74.5918C61.8146 76.6429 63.4773 78.3057 65.5285 78.3057Z" fill="#F2CACA"/>
<path d="M84.2894 65.0457C84.4894 64.8743 84.7903 64.8975 84.9616 65.0974C85.133 65.2974 85.1098 65.5983 84.9099 65.7696C84.8633 65.8096 84.7876 65.8635 84.6802 65.9258C84.5178 66.0201 84.3187 66.112 84.0808 66.1959C83.8893 66.2635 83.6787 66.3237 83.4483 66.3749C83.1912 66.432 82.9366 66.2699 82.8795 66.0129C82.8224 65.7558 82.9845 65.5012 83.2415 65.4441C83.4347 65.4012 83.6084 65.3515 83.7635 65.2968C83.9315 65.2375 84.068 65.1759 84.1753 65.1161L84.2015 65.1012C84.2583 65.0683 84.2866 65.0481 84.2894 65.0457Z" fill="black"/>
<path d="M82.7443 65.1003C83.3665 65.1004 83.8727 65.597 83.8881 66.2155L83.8884 66.2446L83.8883 68.2574C83.8883 68.8894 83.376 69.4016 82.7441 69.4016C82.1219 69.4015 81.6157 68.9049 81.6003 68.2864L81.6 68.2573L81.6001 66.2445C81.6001 65.6126 82.1124 65.1003 82.7443 65.1003Z" fill="black"/>
<path d="M69.2739 65.0811C69.3952 64.8557 69.6719 64.7675 69.9002 64.8775L69.9303 64.8925L69.9605 64.9065C69.9717 64.9115 69.984 64.9169 69.9974 64.9225C70.0791 64.9568 70.1774 64.9919 70.2914 65.0252C70.6257 65.1227 71.0139 65.1818 71.4502 65.1818C71.7135 65.1818 71.927 65.3952 71.927 65.6585C71.927 65.9218 71.7135 66.1352 71.4502 66.1352C70.9204 66.1352 70.4429 66.0626 70.0244 65.9405C69.8749 65.8969 69.7426 65.8496 69.6282 65.8016L69.5823 65.7818C69.5321 65.7597 69.4937 65.741 69.4676 65.7269C69.2358 65.6021 69.149 65.3129 69.2739 65.0811Z" fill="black"/>
<path d="M71.4375 64.9675C72.0597 64.9675 72.5659 65.4642 72.5813 66.0826L72.5817 66.1117V68.263C72.5817 68.8949 72.0694 69.4072 71.4375 69.4072C70.8153 69.4072 70.3091 68.9106 70.2937 68.2921L70.2933 68.263V66.1117C70.2933 65.4798 70.8056 64.9675 71.4375 64.9675Z" fill="black"/>
<path d="M75.8448 69.2957L77.4509 69.5148L77.441 69.5852C77.4028 69.8479 77.3595 70.0412 77.2125 70.6372L77.1186 71.0192C77.1056 71.0728 77.0939 71.1222 77.0826 71.1705L77.054 71.2955C76.9132 71.9256 76.8741 72.3378 76.9326 72.5833L76.9385 72.6064C76.9717 72.7279 77.0236 72.7567 77.3107 72.7583L77.3375 72.7584V74.3793C76.2821 74.3793 75.5708 73.8601 75.3559 72.9593C75.2242 72.4069 75.2784 71.8092 75.4692 70.9547L75.4967 70.8338C75.516 70.7505 75.5359 70.6674 75.5595 70.5703L75.7131 69.9449C75.7836 69.6519 75.8128 69.5119 75.8351 69.364L75.8448 69.2957Z" fill="#EBBAAA"/>
<path d="M87.9185 78.1048C89.9419 78.1048 91.5822 76.442 91.5822 74.3909C91.5822 72.3398 89.9419 70.677 87.9185 70.677C85.8951 70.677 84.2548 72.3398 84.2548 74.3909C84.2548 76.442 85.8951 78.1048 87.9185 78.1048Z" fill="#F2CACA"/>
<path d="M89.5686 80.9658C90.472 77.1515 90.8234 68.8705 90.8234 65.6584C90.8234 62.9381 89.5726 52.6394 84.1985 50.8029C80.2334 49.4478 71.501 50.7526 70.698 49.5983C67.9377 55.2194 68.9388 57.4897 66.2314 58.9835C63.3205 60.5894 63.5212 75.8466 64.2733 79.5102C64.3543 79.642 64.4383 79.7758 64.5249 79.9117C66.0762 82.3435 68.791 84.8804 70.5475 85.6331C70.4471 86.6536 69.4534 88.095 69.6881 91.1063C69.8386 92.5365 70.698 94.7295 70.698 96.7318C69.0518 96.8121 65.1114 94.9202 63.6812 92.7272C63.6812 94.3481 64.7211 97.636 62.6324 96.1597C60.5366 94.6784 58.444 89.8743 58.7021 82.9926C58.2064 78.6204 57.9831 60.9706 58.0006 58.9835C58.0465 53.7458 63.2565 41.9706 73.9602 40.0626C75.767 39.7405 77.122 40.7471 77.5236 41.1167C77.8247 40.7471 78.9288 40.1227 79.8824 40.2451C86.9573 41.1529 91.7861 45.5478 94.4369 55.6209C95.6647 60.2863 94.4771 76.1436 93.8347 79.5102C91.9275 78.4563 88.6652 84.78 89.5686 80.9658Z" fill="#4D2909"/>
<path d="M68.6407 57.963C68.6407 54.8514 69.3434 50.5352 70.849 47.9254C71.8527 47.457 74.3621 46.8012 73.5592 47.9254C72.7561 49.0496 72.522 55.0855 72.8565 57.963C71.8528 58.4983 70.0459 58.5653 68.6407 57.963Z" fill="#4D2909"/>
<path d="M86.5066 57.9395C86.5066 53.1117 85.202 49.7832 84.2985 46.9888C80.0372 46.5222 71.2792 44.4617 72.153 47.9418C73.0564 51.5393 73.0564 54.3498 74.0063 57.9395C78.2676 58.4728 80.5414 58.5394 86.5066 57.9395Z" fill="#4D2909"/>
<path d="M83.3891 47.1252C83.6463 46.8994 84.0379 46.9248 84.2637 47.1821C84.9467 47.96 85.8971 49.5929 86.7113 51.4157L86.7434 51.4877C87.7144 53.6775 88.4001 55.9102 88.6292 57.8572C88.6692 58.1972 88.426 58.5052 88.0861 58.5452C87.7462 58.5852 87.4382 58.342 87.3982 58.0021C87.1854 56.1934 86.5348 54.0751 85.6103 51.9902L85.5512 51.8579C84.7897 50.1645 83.9118 48.66 83.3323 47.9999C83.1064 47.7426 83.1319 47.3511 83.3891 47.1252Z" fill="#4D2909"/>
<path d="M95.2144 87.8414C95.555 84.3764 94.395 79.2091 94.1441 74.2907C94.1441 74.2907 93.0811 74.1903 92.8556 74.2907C92.6299 74.3911 92.2781 74.5417 92.2781 74.5417C91.7263 76.0975 91.7014 77.7536 89.2923 81.1664C87.7814 83.3068 85.4278 84.8803 84.1731 85.5829C83.872 89.163 85.8011 92.4412 84.9429 95.4923C85.746 95.8938 88.0895 94.3481 89.2923 93.1086C89.2923 94.6342 87.9721 96.6365 89.2923 96.6365C91.8518 96.6365 94.6685 93.3946 95.2144 87.8414Z" fill="#4D2909"/>
</g>
<defs>
<filter id="filter0_d_280_44284" x="0" y="0" width="161.455" height="232" filterUnits="userSpaceOnUse" color-interpolation-filters="sRGB">
<feFlood flood-opacity="0" result="BackgroundImageFix"/>
<feColorMatrix in="SourceAlpha" type="matrix" values="0 0 0 0 0 0 0 0 0 0 0 0 0 0 0 0 0 0 127 0" result="hardAlpha"/>
<feOffset dy="10"/>
<feGaussianBlur stdDeviation="25"/>
<feComposite in2="hardAlpha" operator="out"/>
<feColorMatrix type="matrix" values="0 0 0 0 0 0 0 0 0 0 0 0 0 0 0 0 0 0 0.3 0"/>
<feBlend mode="normal" in2="BackgroundImageFix" result="effect1_dropShadow_280_44284"/>
<feBlend mode="normal" in="SourceGraphic" in2="effect1_dropShadow_280_44284" result="shape"/>
</filter>
</defs>
</svg>
