<svg width="162" height="234" viewBox="0 0 162 234" fill="none" xmlns="http://www.w3.org/2000/svg">
<g filter="url(#filter0_d_280_44100)">
<path d="M80.5823 141.09C86.5772 141.09 91.437 136.019 91.437 129.764C91.437 123.508 86.5772 118.437 80.5823 118.437C74.5874 118.437 69.7276 123.508 69.7276 129.764C69.7276 136.019 74.5874 141.09 80.5823 141.09Z" fill="#C88497"/>
<path d="M73.5977 146.848C74.9911 146.848 76.1233 147.966 76.1458 149.354L76.1462 149.396V170.917C76.1462 172.325 75.0052 173.466 73.5977 173.466C72.2043 173.466 71.072 172.347 71.0495 170.959L71.0492 170.917V149.396C71.0492 147.989 72.1902 146.848 73.5977 146.848Z" fill="#EBBAAA"/>
<path d="M87.1895 147.131C88.583 147.131 89.7152 148.249 89.7377 149.637L89.738 149.68V171.2C89.738 172.608 88.597 173.749 87.1895 173.749C85.7961 173.749 84.6639 172.63 84.6414 171.242L84.6411 171.2V149.68C84.6411 148.272 85.7821 147.131 87.1895 147.131Z" fill="#EBBAAA"/>
<path d="M80.5823 120.23H94.7406V130.141C94.7406 143.356 90.0211 163.649 90.0211 163.649C90.0211 163.649 86.9137 165.411 84.3578 164.593C83.092 164.188 81.5262 163.649 81.5262 163.649L81.0542 141.94L80.5823 120.23Z" fill="#E0A1B2"/>
<path d="M80.5824 120.23H66.4241V130.141C66.4241 143.356 71.1436 163.649 71.1436 163.649C71.1436 163.649 74.251 165.411 76.8069 164.593C78.0727 164.188 79.6386 163.649 79.6386 163.649L80.1105 141.94L80.5824 120.23Z" fill="#E0A1B2"/>
<path d="M100.42 172.05C100.42 169.152 98.5577 168.799 95.523 167.806C94.0367 167.319 92.5199 166.895 90.9808 166.64C90.0136 166.48 89.7537 167.33 88.0547 167.33C86.5396 167.33 84.6494 166.58 84.2579 166.418C84.2089 166.397 84.1506 166.379 84.1115 166.415C84.1021 166.424 84.0942 166.435 84.0882 166.447C83.9073 166.818 82.9577 168.846 82.9577 170.469C82.9577 171.709 82.8515 172.929 83.1937 173.56C83.3481 173.845 84.3123 174 84.6361 174H99.8946C100.185 174 100.42 172.34 100.42 172.05Z" fill="#D0D4DB"/>
<mask id="mask0_280_44100" style="mask-type:luminance" maskUnits="userSpaceOnUse" x="82" y="166" width="19" height="8">
<path fill-rule="evenodd" clip-rule="evenodd" d="M100.42 172.05C100.42 170.561 99.9286 169.744 99.0392 169.167C94.8078 166.419 89.3211 166.29 84.2795 166.103C84.2382 166.103 84.1066 166.409 84.0885 166.447C83.9076 166.818 82.958 168.846 82.958 170.469C82.958 171.709 82.8518 172.929 83.194 173.56C83.3484 173.845 84.3126 174 84.6364 174H99.8949C100.185 174 100.42 172.34 100.42 172.05Z" fill="white"/>
</mask>
<g mask="url(#mask0_280_44100)">
<path d="M91.0157 168.467C90.9981 168.236 90.7248 168.122 90.5488 168.273L89.549 169.132C89.4788 169.192 89.3836 169.215 89.2939 169.192L88.004 168.86C87.7747 168.8 87.5785 169.032 87.6747 169.248L88.204 170.441C88.2425 170.527 88.2351 170.628 88.1841 170.707L87.4887 171.8C87.3631 171.997 87.5174 172.253 87.7506 172.234L89.0867 172.125C89.1776 172.118 89.2664 172.155 89.3254 172.225L90.1936 173.246C90.345 173.424 90.6351 173.353 90.6858 173.124L90.9667 171.86C90.9872 171.767 91.0528 171.691 91.1414 171.657L92.3583 171.188C92.5793 171.103 92.6045 170.801 92.4006 170.68L91.2538 170.004C91.1741 169.956 91.1224 169.873 91.1154 169.781L91.0157 168.467Z" fill="#E4E9F1"/>
<path d="M86.4976 166.953C85.365 166.877 84.4211 166.261 84.0435 165.915C83.666 166.292 82.7315 167.33 82.958 167.708C83.2412 168.18 85.4122 168.557 86.356 168.557C87.2999 168.557 87.9135 167.047 86.4976 166.953Z" fill="#AEB5C0"/>
<path d="M98.5185 168.842C99.7408 168.152 99.2614 169.52 100.36 170.102L102.685 174.56H84.1772C83.725 173.913 81.5778 172.191 82.9581 172.191C85.9785 172.191 90.226 172.663 92.0666 172.758C93.8112 172.847 99.1085 172.986 98.8154 171.436C98.4761 169.644 97.4042 169.472 98.5185 168.842Z" fill="#AEB5C0"/>
</g>
<path d="M91.0308 166.327C91.168 166.244 91.3468 166.287 91.4302 166.424C91.5137 166.561 91.4701 166.74 91.333 166.824L90.9081 167.07C90.8916 167.08 90.8774 167.088 90.8665 167.095C90.8447 167.108 90.8235 167.121 90.803 167.134L90.7726 167.154L92.8344 166.679C93.0946 166.619 93.2881 166.911 93.1399 167.126L93.1304 167.139L92.566 167.876L94.8656 167.223C95.1493 167.142 95.3555 167.484 95.161 167.697L95.1497 167.709L93.8948 168.953C93.7808 169.066 93.5968 169.065 93.4837 168.951C93.3752 168.842 93.3716 168.668 93.4724 168.554L93.4855 168.54L93.9389 168.09L91.8817 168.675C91.6177 168.75 91.4094 168.452 91.562 168.231L91.5714 168.218L92.1776 167.427L90.1021 167.905C89.9256 167.945 89.757 167.817 89.7467 167.639L89.7462 167.621C89.7462 167.222 90.0214 166.934 90.5285 166.62L90.5643 166.598C90.5875 166.584 90.6223 166.563 90.6627 166.54L91.0308 166.327Z" fill="#AEB5C0"/>
<path fill-rule="evenodd" clip-rule="evenodd" d="M90.3955 165.4C90.4102 164.556 90.9683 163.932 91.7033 163.932C92.0655 163.932 92.361 164.084 92.5657 164.362C92.7615 164.629 92.8662 165.004 92.8662 165.434C92.8662 165.831 92.6299 166.189 92.2266 166.457C91.8692 166.695 91.4102 166.838 91.025 166.838C90.8403 166.838 90.7047 166.805 90.6089 166.738C90.5201 166.676 90.4626 166.585 90.4291 166.457C90.4 166.346 90.3888 166.211 90.3882 166.015L90.3882 165.977L90.3938 165.605L90.3955 165.4ZM92.0972 164.706C92.0014 164.576 91.8793 164.513 91.7034 164.513C91.2974 164.513 90.9766 164.878 90.9766 165.434L90.976 165.552L90.97 165.931L90.9699 166.046C90.9705 166.109 90.9726 166.161 90.9761 166.203L90.9799 166.243L90.9815 166.256L90.9908 166.256L91.0251 166.257C91.2938 166.257 91.6411 166.149 91.9044 165.973C92.1591 165.804 92.2848 165.613 92.2848 165.434C92.2848 165.12 92.2137 164.865 92.0972 164.706Z" fill="#AEB5C0"/>
<path fill-rule="evenodd" clip-rule="evenodd" d="M88.5181 165.751C88.5738 165.502 88.7296 165.311 88.9747 165.203C89.4794 164.977 90.0537 165.235 90.3113 165.813C90.3213 165.835 90.3312 165.858 90.3417 165.88L90.3871 165.979L90.388 165.98L90.467 166.15L90.5033 166.232C90.5525 166.347 90.5812 166.433 90.5936 166.509C90.601 166.556 90.602 166.598 90.5969 166.634C90.5954 166.645 90.5948 166.65 90.5925 166.659L90.5826 166.695L90.5774 166.708L90.524 166.744L90.5495 166.761C90.5072 166.824 90.4372 166.88 90.3301 166.932L90.3026 166.945C90.0417 167.061 89.6878 167.103 89.3736 167.053C89.0199 166.995 88.7528 166.826 88.6341 166.56C88.5056 166.272 88.4649 165.989 88.5181 165.751ZM89.8325 166.165L89.7801 166.05C89.6477 165.753 89.409 165.645 89.2106 165.734C89.134 165.768 89.101 165.808 89.0854 165.878C89.0616 165.984 89.0844 166.142 89.165 166.324C89.1942 166.389 89.2909 166.45 89.4668 166.479C89.6253 166.504 89.8055 166.493 89.951 166.453L89.9638 166.45L89.9573 166.435L89.93 166.374L89.8973 166.304L89.8967 166.303L89.8325 166.165Z" fill="#AEB5C0"/>
<path d="M60.4775 171.861C60.4775 168.963 62.3394 168.61 65.374 167.617C66.8603 167.13 68.3772 166.707 69.9163 166.452C70.8835 166.291 71.1434 167.142 72.8424 167.142C74.3575 167.142 76.2478 166.391 76.6392 166.229C76.6883 166.208 76.7464 166.19 76.7855 166.226C76.7949 166.236 76.8029 166.246 76.8088 166.258C76.9897 166.629 77.9394 168.658 77.9394 170.28C77.9394 171.52 78.0457 172.741 77.7034 173.371C77.549 173.656 76.5848 173.811 76.261 173.811H61.0025C60.7125 173.811 60.4775 172.151 60.4775 171.861Z" fill="#D0D4DB"/>
<mask id="mask1_280_44100" style="mask-type:luminance" maskUnits="userSpaceOnUse" x="60" y="165" width="18" height="9">
<path fill-rule="evenodd" clip-rule="evenodd" d="M60.478 171.861C60.478 170.373 60.9694 169.555 61.8587 168.978C66.0901 166.231 71.5768 166.101 76.6184 165.915C76.6596 165.915 76.7913 166.22 76.8093 166.258C76.9902 166.629 77.9399 168.657 77.9399 170.28C77.9399 171.52 78.0462 172.741 77.7039 173.371C77.5495 173.656 76.5853 173.811 76.2615 173.811H61.003C60.713 173.811 60.478 172.151 60.478 171.861Z" fill="white"/>
</mask>
<g mask="url(#mask1_280_44100)">
<path d="M69.8821 168.278C69.8996 168.047 70.1729 167.933 70.3489 168.084L71.3487 168.943C71.4189 169.003 71.5142 169.026 71.6038 169.003L72.8936 168.671C73.123 168.611 73.3191 168.843 73.2231 169.06L72.6936 170.252C72.6551 170.338 72.6627 170.439 72.7135 170.518L73.409 171.611C73.5345 171.808 73.3803 172.064 73.1472 172.045L71.8109 171.936C71.7201 171.929 71.6312 171.966 71.5722 172.036L70.7041 173.057C70.5526 173.235 70.2627 173.164 70.2119 172.935L69.9311 171.671C69.9105 171.578 69.8449 171.502 69.7563 171.468L68.5394 170.999C68.3183 170.914 68.2931 170.612 68.497 170.491L69.6439 169.815C69.7236 169.767 69.7752 169.684 69.7823 169.592L69.8821 168.278Z" fill="#E4E9F1"/>
<path d="M74.4002 166.764C75.5328 166.689 76.4767 166.072 76.8543 165.726C77.2318 166.103 78.1663 167.142 77.9397 167.519C77.6566 167.991 75.4856 168.369 74.5417 168.369C73.5979 168.369 72.9843 166.858 74.4002 166.764Z" fill="#AEB5C0"/>
<path d="M62.3795 168.654C61.1573 167.963 61.6366 169.331 60.5384 169.913L58.2127 174.371H76.7208C77.173 173.724 79.3202 172.003 77.9399 172.003C74.9195 172.003 70.672 172.475 68.8314 172.569C67.0869 172.659 61.7894 172.797 62.0826 171.248C62.4218 169.455 63.4938 169.283 62.3795 168.654Z" fill="#AEB5C0"/>
</g>
<path d="M69.4669 166.235C69.5472 166.103 69.716 166.058 69.8509 166.129L70.2728 166.373C70.2968 166.387 70.3174 166.4 70.3329 166.409L70.4037 166.453C70.8885 166.758 71.1511 167.043 71.1511 167.432C71.1511 167.613 70.988 167.749 70.8122 167.719L70.7952 167.716L68.7195 167.238L69.3258 168.03C69.4927 168.247 69.2927 168.55 69.031 168.49L69.0156 168.486L66.9582 167.901L67.4116 168.351C67.5211 168.459 67.5262 168.633 67.4264 168.748L67.4134 168.762C67.3049 168.872 67.1309 168.877 67.0163 168.777L67.0023 168.764L65.7475 167.52C65.538 167.312 65.7352 166.965 66.0159 167.03L66.0316 167.034L68.3311 167.687L67.7669 166.95C67.6045 166.738 67.7897 166.441 68.047 166.487L68.0629 166.49L70.1246 166.965C70.1046 166.952 70.0841 166.939 70.0629 166.926L70.0048 166.89C69.8908 166.823 69.6173 166.667 69.5642 166.635C69.427 166.551 69.3834 166.373 69.4669 166.235Z" fill="#AEB5C0"/>
<path fill-rule="evenodd" clip-rule="evenodd" d="M68.3303 164.174C68.5348 163.895 68.8303 163.744 69.1925 163.744C69.9376 163.744 70.5008 164.384 70.5008 165.245L70.5011 165.326L70.507 165.708L70.5078 165.827C70.5071 166.022 70.4958 166.157 70.4667 166.269C70.4333 166.396 70.376 166.487 70.2874 166.549C70.1909 166.617 70.0555 166.65 69.8709 166.65C69.4858 166.65 69.0268 166.507 68.6693 166.269C68.266 166 68.0298 165.643 68.0298 165.245C68.0298 164.815 68.1344 164.44 68.3303 164.174ZM69.9193 165.245C69.9193 164.69 69.5985 164.325 69.1924 164.325C69.0165 164.325 68.8944 164.388 68.7988 164.518C68.6822 164.677 68.6111 164.931 68.6111 165.245C68.6111 165.425 68.7368 165.615 68.9914 165.785C69.2548 165.96 69.6021 166.069 69.8708 166.069C69.8832 166.069 69.8946 166.068 69.9051 166.068L69.9142 166.067L69.9159 166.055C69.9217 166.006 69.9252 165.94 69.9261 165.855L69.9263 165.825C69.9263 165.797 69.9262 165.77 69.9259 165.739L69.9199 165.366L69.9193 165.245Z" fill="#AEB5C0"/>
<path fill-rule="evenodd" clip-rule="evenodd" d="M70.3473 166.572L70.3432 166.566L70.3291 166.54C70.3199 166.522 70.3162 166.513 70.3111 166.496L70.304 166.47C70.302 166.459 70.3013 166.456 70.3008 166.453C70.3006 166.451 70.3004 166.45 70.3 166.448L70.2976 166.424C70.2953 166.392 70.2971 166.358 70.3032 166.32C70.3145 166.251 70.3393 166.173 70.3805 166.074L70.4073 166.012L70.4217 165.979L70.5085 165.791L70.5098 165.79L70.5424 165.719L70.5984 165.596C70.8621 165.038 71.4257 164.792 71.9205 165.013C72.1671 165.122 72.3229 165.313 72.3785 165.562C72.4319 165.8 72.3911 166.083 72.2624 166.372C72.1441 166.637 71.8769 166.806 71.5226 166.864C71.209 166.915 70.855 166.872 70.5938 166.756C70.4714 166.701 70.393 166.641 70.3473 166.572ZM71.811 165.689C71.7954 165.62 71.7625 165.579 71.6843 165.545C71.4875 165.457 71.2487 165.564 71.1163 165.861C71.1034 165.89 71.0909 165.918 71.0772 165.948L70.9996 166.115L70.999 166.115L70.9664 166.186L70.9326 166.261L70.9453 166.265C71.0805 166.301 71.2455 166.314 71.3949 166.295L71.4291 166.29C71.6055 166.261 71.7022 166.2 71.7313 166.135C71.8121 165.954 71.8348 165.796 71.811 165.689Z" fill="#AEB5C0"/>
<path d="M80.5818 85.9673C86.5767 85.9673 92.3804 83.7487 92.3804 81.0119C92.3804 67.5615 86.5767 67.5615 80.5818 67.5615C74.5869 67.5615 68.7832 67.5615 68.7832 81.0119C68.7832 83.7487 74.5869 85.9673 80.5818 85.9673Z" fill="#2D2427"/>
<path fill-rule="evenodd" clip-rule="evenodd" d="M68.7744 95.2338C68.4833 95.7581 68.2601 96.6298 67.9299 98.5398L67.7269 99.7196C67.6421 100.206 67.6025 100.414 67.5249 100.805C67.2362 102.261 66.9088 103.465 66.4484 104.614C65.855 106.094 65.0669 107.388 64.0178 108.496C61.6189 111.031 58.1313 112.302 53.4924 112.302C51.5636 112.302 50 110.738 50 108.809C50 106.88 51.5636 105.317 53.4924 105.317C56.3342 105.317 57.9761 104.719 58.9452 103.695C59.7206 102.876 60.2258 101.642 60.6436 99.5953L60.7146 99.2383C60.7581 99.0146 60.7928 98.8251 60.8548 98.4685L61.073 97.2007C61.2676 96.0793 61.4027 95.4023 61.5914 94.6692C61.8866 93.5224 62.2544 92.545 62.7714 91.6613C63.8403 89.8343 65.4488 88.6349 67.4992 88.1686C67.8338 86.3309 69.2498 84.7854 71.2012 84.3875L80.5818 82.4749L89.9623 84.3875C91.9138 84.7854 93.3297 86.3309 93.6643 88.1685C95.7149 88.6348 97.3235 89.8342 98.3925 91.6613C98.8938 92.5183 99.2548 93.4633 99.5454 94.5654L99.5725 94.6692C99.7612 95.4023 99.8963 96.0793 100.091 97.2007L100.341 98.6498C100.397 98.9675 100.43 99.1413 100.482 99.4056L100.52 99.5953C100.938 101.642 101.443 102.876 102.219 103.695C103.188 104.719 104.83 105.317 107.672 105.317C109.6 105.317 111.164 106.88 111.164 108.809C111.164 110.738 109.6 112.302 107.672 112.302C103.033 112.302 99.545 111.031 97.1461 108.496C96.097 107.388 95.3089 106.094 94.7154 104.614C94.2683 103.498 93.9465 102.33 93.6638 100.929L93.5885 100.549C93.5372 100.285 93.4975 100.068 93.4266 99.6598L93.212 98.4131C92.8937 96.5905 92.6739 95.746 92.3893 95.2334L90.0207 105.18L94.4319 119.247C94.5976 119.776 94.2787 120.33 93.736 120.44C91.3098 120.932 85.0029 122.118 80.5818 122.118C76.1607 122.118 69.8538 120.932 67.4276 120.44C66.8848 120.33 66.566 119.776 66.7317 119.247L71.1429 105.18L68.7744 95.2338Z" fill="#F4D5CC"/>
<path d="M67.3461 100.355C66.8361 97.8059 68.4837 95.3244 71.031 94.805L80.582 92.8577L90.133 94.805C92.6803 95.3244 94.3279 97.8059 93.8179 100.355L91.9087 109.899C91.9087 109.899 94.7403 116.455 94.7403 120.23C94.7403 120.23 86.1601 122.118 80.582 122.118C75.0039 122.118 66.4237 120.23 66.4237 120.23C66.4237 116.455 69.2554 109.899 69.2554 109.899L67.3461 100.355Z" fill="#E0A1B2"/>
<path d="M68.9057 109.686C69.1982 109.266 69.7707 109.157 70.1962 109.435L70.2613 109.479C70.2884 109.496 70.3261 109.521 70.3742 109.551L70.4563 109.601C70.5838 109.679 70.7306 109.764 70.8962 109.855C71.4836 110.179 72.1735 110.504 72.9591 110.808C75.2147 111.682 77.7729 112.207 80.5821 112.207C83.3875 112.207 85.8786 111.684 88.0264 110.813C88.7401 110.524 89.3641 110.217 89.8948 109.91L89.9665 109.868C90.1541 109.758 90.3145 109.657 90.4473 109.568L90.5376 109.506C90.5604 109.49 90.576 109.479 90.5843 109.472C91.0002 109.158 91.5921 109.24 91.9065 109.656C92.2209 110.072 92.1387 110.664 91.7229 110.978L91.669 111.018C91.6263 111.048 91.5703 111.088 91.5012 111.134C91.3366 111.245 91.1434 111.367 90.9219 111.497C90.299 111.862 89.5689 112.225 88.7354 112.563C86.3703 113.521 83.6406 114.095 80.5821 114.095C77.5273 114.095 74.7407 113.523 72.277 112.568C71.4107 112.233 70.645 111.872 69.9861 111.509L69.8615 111.44C69.6993 111.349 69.5526 111.262 69.4216 111.181L69.325 111.121C69.2407 111.067 69.1791 111.026 69.1406 111C68.7129 110.702 68.6077 110.113 68.9057 109.686Z" fill="#B3818E"/>
<path d="M69.2589 116.579C69.7115 116.321 70.2881 116.478 70.5468 116.931C70.8008 117.375 70.6536 117.939 70.2195 118.204L70.1842 118.225L70.1412 118.253C70.1305 118.259 70.1191 118.267 70.107 118.275C70.0147 118.336 69.9093 118.412 69.7942 118.502C69.4582 118.766 69.1199 119.09 68.804 119.474C67.904 120.567 67.3675 121.908 67.3675 123.534C67.3675 124.055 66.9449 124.478 66.4236 124.478C65.9023 124.478 65.4797 124.055 65.4797 123.534C65.4797 121.444 66.1821 119.688 67.3468 118.274C67.7536 117.78 68.1896 117.362 68.6279 117.018C68.7838 116.896 68.9301 116.79 69.0636 116.702L69.1126 116.67C69.1747 116.629 69.2241 116.599 69.2589 116.579Z" fill="#B3818E"/>
<path d="M70.4603 116.508C70.723 116.058 71.3009 115.906 71.7512 116.169C72.1935 116.426 72.3481 116.989 72.1046 117.435L72.0805 117.479L72.0544 117.529C72.0394 117.559 72.023 117.592 72.0055 117.629C71.9271 117.796 71.8474 117.991 71.7723 118.212C71.5416 118.891 71.4095 119.641 71.4271 120.434C71.4498 121.457 71.7219 122.476 72.2997 123.477C72.5603 123.928 72.4056 124.506 71.9542 124.766C71.5027 125.027 70.9255 124.872 70.6648 124.421C69.9244 123.138 69.5693 121.809 69.5398 120.476C69.517 119.447 69.687 118.481 69.9849 117.605C70.0835 117.314 70.1899 117.054 70.2976 116.825C70.33 116.756 70.361 116.694 70.39 116.638L70.4254 116.571C70.4367 116.55 70.4465 116.532 70.4546 116.518L70.4603 116.508Z" fill="#B3818E"/>
<path d="M66.0359 94.0203C66.568 92.4242 67.9095 91.2319 69.557 90.8911L80.5818 88.6101L91.6066 90.8911C93.2541 91.2319 94.5956 92.4242 95.1277 94.0203L97.0998 99.9368C97.0998 99.9368 95.4343 101.187 94.2682 101.825C89.5342 104.413 80.5818 103.712 80.5818 103.712C80.5818 103.712 71.6295 104.413 66.8954 101.825C65.7294 101.187 64.0638 99.9368 64.0638 99.9368L66.0359 94.0203Z" fill="#ECB3C3"/>
<rect x="77.2784" y="76.0564" width="6.60721" height="10.8547" rx="3.3036" fill="url(#paint0_linear_280_44100)"/>
<path fill-rule="evenodd" clip-rule="evenodd" d="M65.0078 113.859C65.0078 111.644 66.8038 109.848 69.0193 109.848C71.2348 109.848 73.0308 111.644 73.0308 113.859C73.0308 116.075 71.2348 117.871 69.0193 117.871C66.8038 117.871 65.0078 116.075 65.0078 113.859ZM71.1431 113.859C71.1431 112.686 70.1923 111.735 69.0193 111.735C67.8464 111.735 66.8956 112.686 66.8956 113.859C66.8956 115.032 67.8464 115.983 69.0193 115.983C70.1923 115.983 71.1431 115.032 71.1431 113.859Z" fill="#B3818E"/>
<path fill-rule="evenodd" clip-rule="evenodd" d="M70.1991 115.275C70.1991 113.059 71.9951 111.263 74.2106 111.263C76.4261 111.263 78.2221 113.059 78.2221 115.275C78.2221 117.49 76.4261 119.286 74.2106 119.286C71.9951 119.286 70.1991 117.49 70.1991 115.275ZM76.3344 115.275C76.3344 114.102 75.3836 113.151 74.2106 113.151C73.0377 113.151 72.0869 114.102 72.0869 115.275C72.0869 116.448 73.0377 117.399 74.2106 117.399C75.3836 117.399 76.3344 116.448 76.3344 115.275Z" fill="#B3818E"/>
<path fill-rule="evenodd" clip-rule="evenodd" d="M80.5715 40C80.5647 40 80.5782 40 80.5715 40C84.8005 40 91.1332 41.1973 93.8058 46.7016C95.2161 49.6062 95.9347 51.661 95.6949 55.1966C92.7614 51.4658 84.7894 48.9669 80.5714 48.9669C75.245 48.9669 69.6211 51.9723 65.4479 55.1966C65.2568 51.6441 65.9268 49.6062 67.337 46.7016C70.0097 41.1972 76.2322 40 80.5715 40Z" fill="#B3818E"/>
<path d="M80.7709 67.0896C92.1851 67.0896 102.291 67.3884 102.291 62.1814C102.291 54.4307 92.1851 46.2297 80.7709 46.2297C69.3566 46.2297 59.2502 54.4307 59.2502 62.1814C59.2502 67.3884 69.3566 67.0896 80.7709 67.0896Z" fill="#ECB3C3"/>
<path d="M95.5898 70.3931C97.675 70.3931 99.3654 68.7027 99.3654 66.6176C99.3654 64.5324 97.675 62.842 95.5898 62.842C93.5047 62.842 91.8143 64.5324 91.8143 66.6176C91.8143 68.7027 93.5047 70.3931 95.5898 70.3931Z" fill="#EFC6BD"/>
<path d="M65.5743 70.3931C63.4892 70.3931 61.7988 68.7027 61.7988 66.6176C61.7988 64.5324 63.4892 62.842 65.5743 62.842C67.6595 62.842 69.3499 64.5324 69.3499 66.6176C69.3499 68.7027 67.6595 70.3931 65.5743 70.3931Z" fill="#EFC6BD"/>
<path d="M66.4238 58.4059C66.4238 50.5864 72.7627 44.2476 80.5821 44.2476C88.4016 44.2476 94.7404 50.5864 94.7404 58.4059V64.8596L94.2895 68.8285C93.4979 75.7958 87.6027 81.0592 80.5904 81.0592C73.7332 81.0592 67.9182 76.0196 66.9432 69.2321L66.5915 66.7821C66.4798 66.0052 66.4238 65.2213 66.4238 64.4364V58.4059Z" fill="#F4D5CC"/>
<path d="M84.9033 72.3106C85.0432 72.0907 85.3349 72.026 85.5548 72.1659C85.7747 72.3059 85.8395 72.5976 85.6995 72.8175C85.4137 73.2665 84.7662 73.78 83.9544 74.17C82.9591 74.648 81.7785 74.9238 80.4815 74.9238C79.1852 74.9238 78.068 74.6494 77.1334 74.1632C76.4242 73.7943 75.8656 73.3259 75.4932 72.8579C75.3309 72.6539 75.3647 72.357 75.5687 72.1947C75.7726 72.0325 76.0695 72.0662 76.2318 72.2702C76.5235 72.6368 76.9798 73.0194 77.569 73.3259C78.3693 73.7422 79.3371 73.9799 80.4815 73.9799C81.6351 73.9799 82.6764 73.7367 83.5457 73.3191C84.196 73.0068 84.7 72.6117 84.8905 72.3301L84.9033 72.3106Z" fill="#C99584"/>
<path d="M71.6154 71.3372C73.1792 71.3372 74.447 70.0694 74.447 68.5055C74.447 66.9416 73.1792 65.6738 71.6154 65.6738C70.0515 65.6738 68.7837 66.9416 68.7837 68.5055C68.7837 70.0694 70.0515 71.3372 71.6154 71.3372Z" fill="#F2CACA"/>
<path d="M74.9188 61.4263C75.1794 61.4263 75.3907 61.6376 75.3907 61.8982C75.3907 62.1518 75.1907 62.3587 74.9398 62.3697L74.9188 62.3702H72.0871C71.8265 62.3702 71.6152 62.1589 71.6152 61.8982C71.6152 61.6446 71.8152 61.4377 72.0661 61.4267L72.0871 61.4263H74.9188Z" fill="black"/>
<path d="M89.0769 61.4263C89.3376 61.4263 89.5489 61.6376 89.5489 61.8982C89.5489 62.1518 89.3488 62.3587 89.0979 62.3697L89.0769 62.3702H86.2453C85.9846 62.3702 85.7733 62.1589 85.7733 61.8982C85.7733 61.6446 85.9733 61.4377 86.2242 61.4267L86.2453 61.4263H89.0769Z" fill="black"/>
<path d="M86.2453 60.6711C86.8613 60.6711 87.3624 61.1628 87.3776 61.775L87.378 61.8038V64.6355C87.378 65.261 86.8709 65.7681 86.2453 65.7681C85.6294 65.7681 85.1283 65.2765 85.113 64.6643L85.1127 64.6355V61.8038C85.1127 61.1783 85.6198 60.6711 86.2453 60.6711Z" fill="black"/>
<path d="M74.919 60.6711C75.535 60.6711 76.0361 61.1628 76.0513 61.775L76.0517 61.8038V64.6355C76.0517 65.261 75.5446 65.7681 74.919 65.7681C74.3031 65.7681 73.802 65.2765 73.7867 64.6643L73.7864 64.6355V61.8038C73.7864 61.1783 74.2935 60.6711 74.919 60.6711Z" fill="black"/>
<path d="M84.6705 57.1795L90.0507 57.4627C90.363 57.4791 90.6029 57.7456 90.5865 58.058C90.5704 58.3631 90.3157 58.599 90.0129 58.5945L89.9911 58.5938L84.611 58.3106C84.2986 58.2942 84.0588 58.0276 84.0752 57.7153C84.0913 57.4102 84.3459 57.1743 84.6488 57.1788L84.6705 57.1795Z" fill="#271E1E"/>
<path d="M76.4936 57.1795C76.806 57.1631 77.0725 57.4029 77.089 57.7153C77.105 58.0204 76.8765 58.2817 76.5748 58.3091L76.5532 58.3106L71.173 58.5938C70.8607 58.6102 70.5941 58.3703 70.5777 58.058C70.5616 57.7529 70.7901 57.4915 71.0918 57.4642L71.1135 57.4627L76.4936 57.1795Z" fill="#271E1E"/>
<path d="M89.5489 71.3372C91.1128 71.3372 92.3805 70.0694 92.3805 68.5055C92.3805 66.9416 91.1128 65.6738 89.5489 65.6738C87.985 65.6738 86.7172 66.9416 86.7172 68.5055C86.7172 70.0694 87.985 71.3372 89.5489 71.3372Z" fill="#F2CACA"/>
<path d="M79.9147 63.7185L81.2498 64.6086C80.796 65.2892 80.4407 66.3109 80.4407 67.0542C80.4407 67.7706 80.6993 68.0719 81.4909 68.0805L81.5261 68.0807V69.6853C79.7759 69.6853 78.8361 68.628 78.8361 67.0542C78.8361 65.9884 79.2793 64.6947 79.8811 63.7695L79.9147 63.7185Z" fill="#EBBAAA"/>
<path d="M89.96 58.6391C88.076 57.3942 84.5278 52.2732 82.9892 49.8684C91.8912 47.5578 95.6121 54.1594 96.3657 58.6391C97.1193 63.1187 95.6121 70.758 96.2715 70.4751C96.799 70.2488 97.3391 70.0039 97.5903 69.8153C97.7472 76.2597 99.4863 88.0722 97.5903 89.0062C95.1014 90.2322 88.0363 90.3265 89.2138 87.0257C90.3913 83.7249 93.8694 62.7886 93.4926 61.7041C93.1158 60.6195 92.3151 60.1952 89.96 58.6391Z" fill="#2D2427"/>
<path d="M71.2043 58.6391C73.0883 57.3942 76.6365 52.2732 78.1751 49.8684C69.2731 47.5578 65.5522 54.1594 64.7986 58.6391C64.045 63.1187 65.5522 70.758 64.8928 70.4751C64.3653 70.2488 63.8252 70.0039 63.574 69.8153C63.417 76.2597 61.678 88.0722 63.574 89.0062C66.0629 90.2322 73.1279 90.3265 71.9504 87.0257C70.7729 83.7249 67.2949 62.7886 67.6717 61.7041C68.0485 60.6195 68.8492 60.1952 71.2043 58.6391Z" fill="#2D2427"/>
<path fill-rule="evenodd" clip-rule="evenodd" d="M80.5756 43.4924C80.5693 43.4924 80.5819 43.4924 80.5756 43.4924C86.275 43.4924 95.4289 45.8796 94.6994 53.9696C91.9597 51.3486 84.5147 49.792 80.5756 49.792C75.6013 49.792 70.3492 51.7044 66.4519 53.9696C65.8592 45.6807 74.7775 43.4924 80.5756 43.4924Z" fill="#ECB3C3"/>
</g>
<defs>
<filter id="filter0_d_280_44100" x="0" y="0" width="161.164" height="234" filterUnits="userSpaceOnUse" color-interpolation-filters="sRGB">
<feFlood flood-opacity="0" result="BackgroundImageFix"/>
<feColorMatrix in="SourceAlpha" type="matrix" values="0 0 0 0 0 0 0 0 0 0 0 0 0 0 0 0 0 0 127 0" result="hardAlpha"/>
<feOffset dy="10"/>
<feGaussianBlur stdDeviation="25"/>
<feComposite in2="hardAlpha" operator="out"/>
<feColorMatrix type="matrix" values="0 0 0 0 0 0 0 0 0 0 0 0 0 0 0 0 0 0 0.3 0"/>
<feBlend mode="normal" in2="BackgroundImageFix" result="effect1_dropShadow_280_44100"/>
<feBlend mode="normal" in="SourceGraphic" in2="effect1_dropShadow_280_44100" result="shape"/>
</filter>
<linearGradient id="paint0_linear_280_44100" x1="79.8638" y1="80.9646" x2="79.8638" y2="83.3243" gradientUnits="userSpaceOnUse">
<stop stop-color="#EBBAAA"/>
<stop offset="1" stop-color="#F4D5CC"/>
</linearGradient>
</defs>
</svg>
