<svg width="148" height="260" viewBox="0 0 148 260" fill="none" xmlns="http://www.w3.org/2000/svg">
<g filter="url(#filter0_d_280_44649)">
<path d="M73.6622 149.791C80.2244 149.791 85.5441 146.805 85.5441 143.122C85.5441 139.438 80.2244 136.452 73.6622 136.452C67.1 136.452 61.7803 139.438 61.7803 143.122C61.7803 146.805 67.1 149.791 73.6622 149.791Z" fill="#6686B7"/>
<path d="M78.5748 165.298C78.6176 163.599 79.9009 162.259 81.441 162.307C82.9657 162.353 84.1705 163.742 84.1529 165.418L84.152 165.469L83.4757 192.288C83.4329 193.987 82.1497 195.327 80.6096 195.279C79.0849 195.232 77.88 193.844 77.8977 192.167L77.8986 192.117L78.5748 165.298Z" fill="#EBBAAA"/>
<path d="M95.2878 199.401C95.3079 196.848 94.9848 196.408 92.9235 195.363C90.862 194.319 88.9201 192.312 85.3538 190.591C85.3538 190.591 84.8844 190.496 84.1204 190.941C83.4685 191.32 82.6311 192.252 81.3692 192.239C79.9989 192.227 78.7777 191.913 78.019 191.485C77.691 190.518 76.9639 190.511 76.9639 190.511C76.9639 190.511 75.9404 192.609 75.9237 194.718C75.9071 196.826 75.9093 199.214 75.9093 199.214L95.2878 199.401Z" fill="#DCE1E6"/>
<path d="M85.3757 195.769C86.0887 195.984 86.6635 195.955 86.989 195.682C87.8278 194.969 87.2907 193.883 87.063 193.457C87.473 193.978 87.8804 194.502 88.1984 195.072C88.6998 195.962 88.9126 196.94 88.5743 197.566C87.9679 198.697 86.5102 198.175 85.5813 197.72L76.96 193.499L85.3757 195.769Z" fill="#EAF4FB"/>
<path d="M85.731 190.893C85.795 190.738 85.9608 190.669 86.1014 190.74C86.242 190.81 86.3041 190.993 86.2402 191.148C86.1231 191.432 86.0709 191.726 86.0514 192.143L86.05 192.175L87.5532 191.461C87.7644 191.361 87.9863 191.568 87.9369 191.811L87.9329 191.828L87.6264 193.025L88.8664 192.595C89.041 192.534 89.2185 192.672 89.2295 192.87L89.2301 192.889L89.2304 194.124L90.1624 193.581C90.3435 193.475 90.5603 193.613 90.5722 193.834L90.5727 193.854L90.573 195.36C90.5731 195.53 90.4479 195.668 90.2934 195.668C90.1447 195.668 90.023 195.54 90.0142 195.379L90.0137 195.36L90.0134 194.366L89.0814 194.909C88.9003 195.014 88.6836 194.876 88.6716 194.655L88.6711 194.636L88.6708 193.31L87.3005 193.786C87.0938 193.857 86.8973 193.654 86.9433 193.425L86.9474 193.407L87.2349 192.284L85.8726 192.931C85.6935 193.016 85.4946 192.878 85.483 192.667L85.4824 192.648L85.4828 192.518C85.4878 191.799 85.5389 191.359 85.731 190.893Z" fill="white"/>
<path d="M76.53 191.621C76.9281 192.204 78.3635 192.552 78.9036 192.637C79.4437 192.723 80.0223 192.649 79.7909 193.61C79.6274 194.29 78.0537 194.016 77.4384 194.009C76.9381 194.004 76.2369 195.632 75.9756 195.079C75.9752 193.188 76.3063 192.163 76.53 191.621Z" fill="#C6CBCF"/>
<path d="M94.5052 195.559C93.8727 195.312 93.203 195.125 91.9189 194.812L92.4649 196.503L92.4497 198.431L96.1044 198.467C96.2536 198.468 96.52 198.253 96.3926 197.385C96.2334 196.298 95.4039 195.911 94.5052 195.559Z" fill="#EAF4FB"/>
<path d="M75.8609 199.194L75.9532 197.97L92.3406 198.249L96.4265 197.927L96.5093 198.64C96.5748 199.204 96.1959 199.712 95.6817 199.75L92.3204 200L76.3001 199.728C76.041 199.724 75.8395 199.479 75.8609 199.194Z" fill="#C7CBCF"/>
<path d="M52.0331 199.401C52.0129 196.848 52.336 196.408 54.3974 195.363C56.4588 194.319 58.4007 192.312 61.9671 190.591C61.9671 190.591 62.4365 190.496 63.2004 190.941C63.8524 191.32 64.6897 192.252 65.9517 192.239C67.3219 192.227 68.5432 191.913 69.3018 191.485C69.6299 190.518 70.357 190.511 70.357 190.511C70.357 190.511 71.3805 192.609 71.3971 194.718C71.4137 196.826 71.4116 199.214 71.4116 199.214L52.0331 199.401Z" fill="#DCE1E6"/>
<path d="M61.9508 195.769C61.2378 195.984 60.663 195.955 60.3375 195.682C59.4987 194.969 60.0358 193.883 60.2635 193.457C59.8535 193.978 59.4461 194.502 59.1281 195.072C58.6267 195.962 58.414 196.94 58.7522 197.566C59.3586 198.697 60.8163 198.175 61.7452 197.72L70.3665 193.499L61.9508 195.769Z" fill="#EAF4FB"/>
<path d="M61.2236 190.74C61.3642 190.669 61.53 190.738 61.594 190.893C61.7974 191.386 61.8427 191.851 61.8426 192.648C61.8425 192.863 61.6488 193.01 61.4687 192.938L61.4523 192.931L60.0899 192.284L60.3775 193.407C60.4364 193.637 60.2467 193.848 60.0407 193.791L60.0245 193.786L58.6541 193.31L58.6539 194.636C58.6538 194.862 58.4421 195.009 58.2592 194.917L58.2436 194.909L57.3114 194.366L57.3113 195.36C57.3113 195.524 57.1951 195.658 57.0486 195.668L57.0316 195.668C56.8828 195.668 56.7612 195.54 56.7525 195.379L56.752 195.36L56.7523 193.854C56.7523 193.628 56.964 193.481 57.1469 193.572L57.1625 193.581L58.0946 194.124L58.0949 192.889C58.0949 192.687 58.267 192.542 58.4416 192.59L58.4585 192.595L59.6985 193.025L59.3921 191.828C59.3296 191.584 59.5452 191.369 59.7567 191.454L59.7718 191.461L61.2748 192.175L61.2735 192.143C61.2549 191.742 61.206 191.456 61.0986 191.182L61.0848 191.148C61.0209 190.993 61.083 190.81 61.2236 190.74Z" fill="white"/>
<path d="M70.7908 191.621C70.3927 192.204 68.9573 192.552 68.4172 192.637C67.8772 192.723 67.2986 192.649 67.5299 193.61C67.6935 194.29 69.2671 194.016 69.8824 194.009C70.3827 194.004 71.0839 195.632 71.3452 195.079C71.3456 193.188 71.0145 192.163 70.7908 191.621Z" fill="#C6CBCF"/>
<path d="M52.8155 195.559C53.4479 195.312 54.1176 195.125 55.4017 194.812L54.8557 196.503L54.871 198.431L51.2163 198.467C51.0671 198.468 50.8006 198.253 50.928 197.385C51.0872 196.298 51.9168 195.911 52.8155 195.559Z" fill="#EAF4FB"/>
<path d="M71.4604 199.194L71.3681 197.97L54.9808 198.249L50.8948 197.927L50.8121 198.64C50.7466 199.204 51.1254 199.712 51.6397 199.75L55.0009 200L71.0213 199.728C71.2803 199.724 71.4819 199.479 71.4604 199.194Z" fill="#C7CBCF"/>
<path d="M72.834 141.354H87.2989V155.947L86.2657 175.215V191.062L80.6864 192.203L75.9247 191.062V187.129L76.5359 178.635V166.208L72.834 141.354Z" fill="#6686B7"/>
<path fill-rule="evenodd" clip-rule="evenodd" d="M60.0244 140.744L60.0915 141.653L60.5034 141.616L60.4363 140.707L60.0244 140.744ZM60.1572 142.563L60.2243 143.472L60.6362 143.435L60.5691 142.526L60.1572 142.563ZM60.36 145.29L60.293 144.38L60.7049 144.343L60.7719 145.253L60.36 145.29ZM60.4258 146.199L60.4928 147.108L60.9048 147.071L60.8377 146.162L60.4258 146.199ZM60.6276 148.926L60.5605 148.017L60.9725 147.98L61.0395 148.889L60.6276 148.926ZM60.6943 149.835L60.7614 150.744L61.1733 150.707L61.1063 149.798L60.6943 149.835ZM60.8942 152.562L60.8271 151.653L61.2391 151.616L61.3061 152.525L60.8942 152.562ZM60.9639 153.472L61.0309 154.381L61.4428 154.344L61.3758 153.435L60.9639 153.472ZM61.1637 156.198L61.0967 155.289L61.5086 155.252L61.5757 156.161L61.1637 156.198ZM61.2305 157.108L61.2975 158.017L61.7094 157.98L61.6424 157.071L61.2305 157.108ZM61.4323 159.835L61.3652 158.925L61.7772 158.888L61.8442 159.798L61.4323 159.835ZM61.5439 160.777L61.7582 161.658L62.1574 161.54L61.9431 160.659L61.5439 160.777ZM62.185 163.42L61.9707 162.54L62.3699 162.421L62.5841 163.302L62.185 163.42ZM62.3994 164.301L62.6137 165.182L63.0128 165.064L62.7986 164.183L62.3994 164.301ZM63.0434 166.944L62.8291 166.063L63.2283 165.945L63.4425 166.825L63.0434 166.944Z" fill="#697B8F"/>
<path fill-rule="evenodd" clip-rule="evenodd" d="M85.491 145.186L85.4389 144.276C85.4317 144.15 85.5182 144.042 85.6321 144.034C85.746 144.026 85.8442 144.122 85.8514 144.247L85.9034 145.158C85.9106 145.283 85.8241 145.392 85.7102 145.4C85.5963 145.407 85.4981 145.312 85.491 145.186ZM85.5964 147.007L85.5444 146.096C85.5372 145.971 85.6237 145.862 85.7376 145.855C85.8515 145.847 85.9496 145.942 85.9568 146.068L86.0089 146.978C86.0161 147.104 85.9296 147.212 85.8157 147.22C85.7018 147.228 85.6036 147.132 85.5964 147.007ZM85.6479 147.917L85.6999 148.827C85.7071 148.953 85.8053 149.048 85.9192 149.04C86.0331 149.033 86.1196 148.924 86.1124 148.799L86.0603 147.888C86.0532 147.763 85.955 147.667 85.8411 147.675C85.7272 147.683 85.6407 147.791 85.6479 147.917ZM85.8064 150.648L85.7543 149.738C85.7471 149.612 85.8336 149.504 85.9475 149.496C86.0614 149.488 86.1596 149.583 86.1668 149.709L86.2188 150.619C86.226 150.745 86.1395 150.853 86.0256 150.861C85.9117 150.869 85.8136 150.774 85.8064 150.648ZM85.8578 151.558L85.9099 152.468C85.9171 152.594 86.0152 152.69 86.1291 152.682C86.243 152.674 86.3295 152.565 86.3224 152.44L86.2703 151.529C86.2631 151.404 86.165 151.308 86.0511 151.316C85.9372 151.324 85.8507 151.433 85.8578 151.558ZM86.0124 154.288L85.9604 153.378C85.9532 153.253 86.0397 153.144 86.1536 153.136C86.2675 153.128 86.3657 153.224 86.3728 153.35L86.4249 154.26C86.4321 154.385 86.3456 154.494 86.2317 154.502C86.1178 154.51 86.0196 154.414 86.0124 154.288ZM86.0639 155.199L86.1099 156.004L86.1051 156.079C86.097 156.205 86.1827 156.314 86.2965 156.323C86.4103 156.332 86.5092 156.237 86.5173 156.111L86.5241 156.006L86.4764 155.171C86.4692 155.045 86.371 154.949 86.2571 154.957C86.1432 154.965 86.0567 155.074 86.0639 155.199ZM85.9888 157.898L86.0475 156.988C86.0556 156.863 86.1545 156.768 86.2683 156.777C86.3821 156.786 86.4679 156.895 86.4598 157.021L86.4011 157.93C86.3929 158.056 86.2941 158.151 86.1803 158.142C86.0664 158.133 85.9807 158.024 85.9888 157.898ZM85.9293 158.809L85.8706 159.718C85.8625 159.844 85.9483 159.953 86.0621 159.962C86.1759 159.971 86.2748 159.876 86.2829 159.751L86.3416 158.841C86.3497 158.715 86.264 158.606 86.1501 158.597C86.0363 158.588 85.9375 158.683 85.9293 158.809ZM85.7544 161.537L85.8131 160.628C85.8212 160.502 85.9201 160.407 86.0339 160.416C86.1478 160.425 86.2335 160.534 86.2254 160.66L86.1667 161.57C86.1586 161.695 86.0597 161.79 85.9459 161.781C85.832 161.772 85.7463 161.663 85.7544 161.537ZM85.694 162.447L85.6353 163.357C85.6272 163.483 85.7129 163.592 85.8267 163.601C85.9406 163.61 86.0394 163.515 86.0475 163.39L86.1062 162.48C86.1143 162.354 86.0286 162.245 85.9148 162.236C85.801 162.227 85.7021 162.322 85.694 162.447ZM85.5191 165.177L85.5778 164.267C85.5859 164.141 85.6847 164.047 85.7986 164.056C85.9124 164.065 85.9981 164.174 85.99 164.299L85.9313 165.209C85.9232 165.335 85.8244 165.429 85.7105 165.42C85.5967 165.411 85.511 165.302 85.5191 165.177ZM85.4596 166.087L85.4009 166.996C85.3928 167.122 85.4785 167.231 85.5924 167.24C85.7062 167.249 85.8051 167.154 85.8132 167.029L85.8719 166.119C85.88 165.993 85.7943 165.884 85.6804 165.875C85.5666 165.866 85.4677 165.961 85.4596 166.087ZM85.2828 168.816L85.3415 167.906C85.3496 167.781 85.4484 167.686 85.5623 167.695C85.6761 167.704 85.7618 167.813 85.7537 167.939L85.695 168.848C85.6869 168.974 85.588 169.068 85.4742 169.06C85.3604 169.051 85.2747 168.942 85.2828 168.816ZM85.2252 169.726L85.1665 170.635C85.1584 170.761 85.2442 170.87 85.358 170.879C85.4718 170.888 85.5707 170.793 85.5788 170.668L85.6375 169.758C85.6456 169.632 85.5599 169.523 85.446 169.514C85.3322 169.505 85.2334 169.6 85.2252 169.726ZM85.0474 172.455L85.1061 171.545C85.1142 171.42 85.2131 171.325 85.3269 171.334C85.4407 171.343 85.5265 171.452 85.5183 171.578L85.4596 172.488C85.4515 172.613 85.3527 172.708 85.2389 172.699C85.125 172.69 85.0393 172.581 85.0474 172.455ZM84.9903 173.365L84.9749 173.603L84.9581 174.286C84.955 174.412 85.045 174.517 85.1591 174.52C85.2732 174.524 85.3682 174.424 85.3712 174.298L85.3876 173.626L85.4025 173.397C85.4106 173.272 85.3249 173.163 85.2111 173.154C85.0972 173.145 84.9984 173.239 84.9903 173.365ZM84.9151 176.109L84.9373 175.197C84.9404 175.071 85.0353 174.972 85.1494 174.975C85.2635 174.979 85.3535 175.084 85.3504 175.209L85.3283 176.121C85.3252 176.247 85.2302 176.346 85.1161 176.343C85.0021 176.34 84.9121 176.235 84.9151 176.109ZM84.8924 177.021L84.8702 177.933C84.8671 178.059 84.9571 178.164 85.0712 178.167C85.1853 178.17 85.2803 178.071 85.2833 177.945L85.3055 177.034C85.3086 176.908 85.2186 176.803 85.1045 176.799C84.9904 176.796 84.8954 176.895 84.8924 177.021ZM84.8253 179.757L84.8475 178.845C84.8505 178.719 84.9455 178.62 85.0596 178.623C85.1737 178.626 85.2637 178.731 85.2606 178.857L85.2384 179.769C85.2353 179.895 85.1404 179.994 85.0263 179.991C84.9122 179.987 84.8222 179.882 84.8253 179.757ZM84.8025 180.668L84.7803 181.58C84.7773 181.706 84.8673 181.811 84.9814 181.814C85.0955 181.818 85.1904 181.718 85.1935 181.592L85.2157 180.681C85.2187 180.555 85.1287 180.45 85.0146 180.447C84.9006 180.443 84.8056 180.542 84.8025 180.668ZM84.7374 183.403L84.7596 182.491C84.7626 182.365 84.8576 182.266 84.9717 182.27C85.0858 182.273 85.1758 182.378 85.1727 182.504L85.1505 183.415C85.1475 183.541 85.0525 183.641 84.9384 183.637C84.8243 183.634 84.7343 183.529 84.7374 183.403ZM84.7146 184.315L84.6925 185.227C84.6894 185.353 84.7794 185.457 84.8935 185.461C85.0076 185.464 85.1025 185.365 85.1056 185.239L85.1278 184.327C85.1308 184.201 85.0408 184.096 84.9268 184.093C84.8127 184.09 84.7177 184.189 84.7146 184.315ZM84.6475 187.05L84.6697 186.138C84.6728 186.013 84.7677 185.913 84.8818 185.917C84.9959 185.92 85.0859 186.025 85.0829 186.151L85.0607 187.062C85.0576 187.188 84.9626 187.288 84.8486 187.284C84.7345 187.281 84.6445 187.176 84.6475 187.05ZM84.6248 187.962L84.6026 188.874C84.5996 189 84.6896 189.105 84.8036 189.108C84.9177 189.111 85.0127 189.012 85.0158 188.886L85.0379 187.975C85.041 187.849 84.951 187.744 84.8369 187.74C84.7228 187.737 84.6279 187.836 84.6248 187.962ZM84.5616 190.6L84.5814 189.785C84.5845 189.659 84.6795 189.56 84.7935 189.563C84.9076 189.567 84.9976 189.672 84.9946 189.798L84.9747 190.612C84.9717 190.738 84.8767 190.838 84.7626 190.834C84.6485 190.831 84.5585 190.726 84.5616 190.6Z" fill="#385683"/>
<path d="M74.4864 141.696H60.0215V156.29L61.0547 175.557V191.404L65.1875 192.545L71.3957 191.404V187.471L70.7846 178.977V166.55L74.4864 141.696Z" fill="#6686B7"/>
<path fill-rule="evenodd" clip-rule="evenodd" d="M61.3649 145.158L61.417 144.247C61.4241 144.122 61.5223 144.026 61.6362 144.034C61.7501 144.042 61.8366 144.15 61.8294 144.276L61.7774 145.186C61.7702 145.312 61.672 145.407 61.5581 145.4C61.4442 145.392 61.3577 145.283 61.3649 145.158ZM61.2631 146.978L61.3152 146.068C61.3224 145.942 61.4205 145.847 61.5344 145.855C61.6483 145.863 61.7348 145.971 61.7276 146.097L61.6756 147.007C61.6684 147.133 61.5702 147.228 61.4563 147.22C61.3424 147.212 61.2559 147.104 61.2631 146.978ZM61.2107 147.889L61.1586 148.799C61.1514 148.924 61.2379 149.033 61.3518 149.041C61.4657 149.049 61.5639 148.953 61.5711 148.828L61.6231 147.917C61.6303 147.792 61.5438 147.683 61.4299 147.675C61.316 147.667 61.2179 147.763 61.2107 147.889ZM61.0551 150.619L61.1072 149.709C61.1144 149.583 61.2125 149.488 61.3264 149.496C61.4403 149.504 61.5268 149.612 61.5196 149.738L61.4676 150.648C61.4604 150.774 61.3622 150.869 61.2483 150.861C61.1344 150.853 61.0479 150.745 61.0551 150.619ZM61.0007 151.529L60.9487 152.44C60.9415 152.565 61.028 152.674 61.1419 152.682C61.2558 152.69 61.3539 152.594 61.3611 152.468L61.4132 151.558C61.4204 151.432 61.3339 151.324 61.22 151.316C61.1061 151.308 61.0079 151.404 61.0007 151.529ZM60.8451 154.26L60.8972 153.349C60.9044 153.224 61.0026 153.128 61.1164 153.136C61.2303 153.144 61.3169 153.252 61.3097 153.378L61.2576 154.288C61.2504 154.414 61.1523 154.51 61.0384 154.502C60.9245 154.494 60.838 154.385 60.8451 154.26ZM60.7939 155.171L60.7461 156.006L60.7529 156.112C60.761 156.238 60.8599 156.332 60.9737 156.323C61.0875 156.314 61.1733 156.205 61.1652 156.08L61.1603 156.004L61.2063 155.2C61.2135 155.074 61.127 154.966 61.0131 154.958C60.8992 154.95 60.801 155.045 60.7939 155.171ZM60.8678 157.931L60.8091 157.021C60.801 156.896 60.8867 156.786 61.0006 156.778C61.1144 156.769 61.2133 156.863 61.2214 156.989L61.2801 157.899C61.2882 158.024 61.2025 158.133 61.0886 158.142C60.9748 158.151 60.8759 158.057 60.8678 157.931ZM60.9273 158.841L60.986 159.75C60.9941 159.876 61.0929 159.971 61.2068 159.962C61.3206 159.953 61.4063 159.844 61.3982 159.718L61.3395 158.808C61.3314 158.683 61.2326 158.588 61.1187 158.597C61.0049 158.606 60.9192 158.715 60.9273 158.841ZM61.1051 161.569L61.0464 160.659C61.0383 160.534 61.124 160.425 61.2379 160.416C61.3517 160.407 61.4506 160.501 61.4587 160.627L61.5174 161.537C61.5255 161.662 61.4398 161.771 61.3259 161.78C61.2121 161.789 61.1132 161.695 61.1051 161.569ZM61.1626 162.48L61.2213 163.39C61.2294 163.515 61.3283 163.61 61.4421 163.601C61.556 163.592 61.6417 163.483 61.6336 163.357L61.5749 162.448C61.5668 162.322 61.4679 162.227 61.3541 162.236C61.2402 162.245 61.1545 162.354 61.1626 162.48ZM61.3395 165.21L61.2808 164.3C61.2727 164.174 61.3584 164.065 61.4722 164.056C61.5861 164.047 61.6849 164.142 61.693 164.267L61.7517 165.177C61.7599 165.303 61.6741 165.412 61.5603 165.421C61.4465 165.43 61.3476 165.335 61.3395 165.21ZM61.399 166.118L61.4577 167.028C61.4658 167.154 61.5646 167.248 61.6785 167.239C61.7923 167.23 61.878 167.121 61.8699 166.996L61.8112 166.086C61.8031 165.96 61.7043 165.866 61.5904 165.875C61.4766 165.883 61.3909 165.993 61.399 166.118ZM61.5739 168.848L61.5152 167.938C61.5071 167.812 61.5928 167.703 61.7066 167.694C61.8205 167.685 61.9193 167.78 61.9274 167.906L61.9861 168.815C61.9942 168.941 61.9085 169.05 61.7947 169.059C61.6808 169.068 61.582 168.973 61.5739 168.848ZM61.6343 169.757L61.693 170.667C61.7011 170.793 61.8 170.887 61.9138 170.878C62.0277 170.87 62.1134 170.76 62.1053 170.635L62.0466 169.725C62.0385 169.599 61.9396 169.505 61.8258 169.514C61.7119 169.523 61.6262 169.632 61.6343 169.757ZM61.8092 172.487L61.7505 171.577C61.7424 171.452 61.8281 171.343 61.942 171.334C62.0558 171.325 62.1547 171.419 62.1628 171.545L62.2215 172.455C62.2296 172.58 62.1439 172.689 62.03 172.698C61.9162 172.707 61.8173 172.613 61.8092 172.487ZM61.8667 173.397L61.8821 173.635L61.898 174.298C61.9011 174.424 61.9961 174.523 62.1102 174.52C62.2242 174.516 62.3142 174.412 62.3112 174.286L62.2948 173.613L62.279 173.364C62.2709 173.239 62.172 173.144 62.0582 173.153C61.9443 173.162 61.8586 173.271 61.8667 173.397ZM61.9441 176.121L61.922 175.21C61.9189 175.084 62.0089 174.979 62.123 174.976C62.2371 174.972 62.332 175.072 62.3351 175.197L62.3573 176.109C62.3603 176.235 62.2703 176.34 62.1562 176.343C62.0422 176.347 61.9472 176.247 61.9441 176.121ZM61.9649 177.034L61.9871 177.945C61.9902 178.071 62.0851 178.171 62.1992 178.167C62.3133 178.164 62.4033 178.059 62.4002 177.933L62.3781 177.021C62.375 176.896 62.28 176.796 62.1659 176.8C62.0519 176.803 61.9619 176.908 61.9649 177.034ZM62.032 179.769L62.0098 178.857C62.0068 178.731 62.0968 178.626 62.2109 178.623C62.3249 178.62 62.4199 178.719 62.423 178.845L62.4452 179.757C62.4482 179.882 62.3582 179.987 62.2441 179.991C62.1301 179.994 62.0351 179.895 62.032 179.769ZM62.0548 180.681L62.0769 181.592C62.08 181.718 62.175 181.817 62.2891 181.814C62.4031 181.811 62.4931 181.706 62.4901 181.58L62.4679 180.668C62.4648 180.542 62.3699 180.443 62.2558 180.446C62.1417 180.45 62.0517 180.555 62.0548 180.681ZM62.1219 183.415L62.0997 182.504C62.0966 182.378 62.1866 182.273 62.3007 182.269C62.4148 182.266 62.5098 182.365 62.5128 182.491L62.535 183.403C62.5381 183.529 62.4481 183.634 62.334 183.637C62.2199 183.64 62.1249 183.541 62.1219 183.415ZM62.1427 184.327L62.1648 185.239C62.1679 185.365 62.2629 185.464 62.3769 185.461C62.491 185.457 62.581 185.352 62.578 185.227L62.5558 184.315C62.5527 184.189 62.4578 184.09 62.3437 184.093C62.2296 184.096 62.1396 184.201 62.1427 184.327ZM62.2098 187.062L62.1876 186.15C62.1845 186.024 62.2745 185.919 62.3886 185.916C62.5027 185.913 62.5976 186.012 62.6007 186.138L62.6229 187.05C62.626 187.176 62.536 187.28 62.4219 187.284C62.3078 187.287 62.2128 187.188 62.2098 187.062ZM62.2325 187.975L62.2547 188.886C62.2577 189.012 62.3527 189.112 62.4668 189.108C62.5809 189.105 62.6709 189 62.6678 188.874L62.6456 187.962C62.6426 187.837 62.5476 187.737 62.4335 187.741C62.3194 187.744 62.2294 187.849 62.2325 187.975ZM62.2963 190.613L62.2764 189.798C62.2734 189.672 62.3634 189.567 62.4775 189.564C62.5915 189.56 62.6865 189.66 62.6896 189.785L62.7094 190.6C62.7125 190.726 62.6225 190.831 62.5084 190.834C62.3943 190.838 62.2993 190.738 62.2963 190.613Z" fill="#385683"/>
<path d="M55.9751 98.7825C57.5014 95.1422 59.6956 94.1543 59.6956 94.1543L61.0554 114.158V144.319C46.2018 139.269 48.2259 117.264 55.9751 98.7825Z" fill="#454B5E"/>
<path d="M91.3459 98.7825C89.8197 95.1422 87.6254 94.1543 87.6254 94.1543L86.2656 114.158V144.319C101.119 139.269 99.0951 117.264 91.3459 98.7825Z" fill="#454B5E"/>
<path d="M73.6609 99.3992C81.4214 99.3992 87.7125 96.7194 87.7125 93.4137C87.7125 90.108 81.4214 87.4282 73.6609 87.4282C65.9003 87.4282 59.6092 90.108 59.6092 93.4137C59.6092 96.7194 65.9003 99.3992 73.6609 99.3992Z" fill="#35383E"/>
<path d="M58.5373 102.907C58.2927 97.4823 61.5504 92.6204 66.3223 91.288L73.615 89.252L80.9077 91.288C85.6796 92.6204 88.9372 97.4823 88.6926 102.907L88.0799 116.5L89.0658 141.304C89.0917 141.953 88.6221 142.494 88.0336 142.494H59.1963C58.6079 142.494 58.1383 141.953 58.1641 141.304L59.15 116.5L58.5373 102.907Z" fill="white"/>
<path fill-rule="evenodd" clip-rule="evenodd" d="M66.325 106.334L66.3249 106.41L66.325 106.487C66.3256 107.149 66.3262 107.765 65.8995 108.231C65.5922 108.567 65.2376 108.748 64.7235 108.748C64.2095 108.748 63.8549 108.567 63.5476 108.231C63.1209 107.765 63.1215 107.149 63.1221 106.487L63.1222 106.41L63.1221 106.334C63.1215 105.672 63.1209 105.056 63.5476 104.59C63.8549 104.254 64.2095 104.073 64.7235 104.073C65.2376 104.073 65.5922 104.254 65.8995 104.59C66.3262 105.056 66.3256 105.672 66.325 106.334ZM62.5016 104.188V108.748H61.5918L60.236 106.455V108.748H59.1953V104.188H60.1051L61.4609 106.481V104.188H62.5016ZM65.2899 106.411C65.2899 107.239 65.2307 107.385 65.1359 107.519C65.059 107.627 64.911 107.722 64.7216 107.722C64.5322 107.722 64.3842 107.627 64.3072 107.519C64.2125 107.385 64.1533 107.239 64.1533 106.411C64.1533 105.584 64.2125 105.431 64.3072 105.297C64.3842 105.189 64.5322 105.1 64.7216 105.1C64.911 105.1 65.059 105.189 65.1359 105.297C65.2307 105.431 65.2899 105.584 65.2899 106.411ZM69.4497 106.846L70.3541 108.748H69.162L68.422 107.051H68.0756V108.748H67.0479V104.188H68.7039C69.6318 104.188 70.131 104.905 70.131 105.654C70.131 106.276 69.7786 106.666 69.4497 106.846ZM69.1133 105.556C69.1133 105.79 68.948 106.012 68.6646 106.012H68.0801V105.1H68.6646C68.948 105.1 69.1133 105.322 69.1133 105.556ZM73.6608 107.749V108.748H70.8711V104.188H71.901V107.749H73.6608ZM77.3802 106.468C77.3802 106.403 77.3806 106.339 77.381 106.276C77.3853 105.645 77.3889 105.119 76.9476 104.636C76.6612 104.322 76.2579 104.188 75.8254 104.188H74.2822V108.748H75.8254C76.2579 108.748 76.6612 108.613 76.9476 108.3C77.3889 107.816 77.3853 107.29 77.381 106.659C77.3806 106.597 77.3802 106.533 77.3802 106.468ZM76.2367 107.46C76.317 107.329 76.3457 107.204 76.3457 106.411C76.3457 105.624 76.317 105.493 76.2367 105.362C76.1448 105.205 76.007 105.1 75.7545 105.1H75.3125V107.722H75.7545C76.007 107.722 76.1448 107.617 76.2367 107.46ZM80.791 105.187V104.188H77.6914V105.187H78.7246V108.748H79.7578V105.187H80.791ZM84.3015 106.334L84.3014 106.411L84.3015 106.487C84.3021 107.149 84.3027 107.765 83.8759 108.231C83.5687 108.567 83.2141 108.748 82.7 108.748C82.1859 108.748 81.8314 108.567 81.5241 108.231C81.0974 107.765 81.098 107.149 81.0986 106.487L81.0986 106.411L81.0986 106.334C81.098 105.672 81.0974 105.056 81.5241 104.59C81.8314 104.254 82.1859 104.073 82.7 104.073C83.2141 104.073 83.5687 104.254 83.8759 104.59C84.3027 105.056 84.3021 105.672 84.3015 106.334ZM83.2693 106.411C83.2693 107.239 83.2102 107.385 83.1154 107.519C83.0385 107.627 82.8905 107.722 82.7011 107.722C82.5117 107.722 82.3637 107.627 82.2867 107.519C82.192 107.385 82.1328 107.239 82.1328 106.411C82.1328 105.584 82.192 105.431 82.2867 105.297C82.3637 105.189 82.5117 105.1 82.7011 105.1C82.8905 105.1 83.0385 105.189 83.1154 105.297C83.2102 105.431 83.2693 105.584 83.2693 106.411ZM86.9665 107.25H88.0223C87.8681 108.263 87.2216 108.748 86.4209 108.748C85.9286 108.748 85.5549 108.567 85.2465 108.231C84.8182 107.765 84.8188 107.149 84.8194 106.487C84.8194 106.462 84.8194 106.436 84.8194 106.41C84.8194 106.385 84.8194 106.359 84.8194 106.334C84.8188 105.672 84.8182 105.056 85.2465 104.59C85.5549 104.254 85.9286 104.073 86.4209 104.073C87.2216 104.073 87.8681 104.557 88.0223 105.571H86.9665C86.9013 105.313 86.7708 105.08 86.4268 105.08C86.237 105.08 86.0946 105.164 86.0175 105.274C85.9226 105.41 85.8574 105.571 85.8574 106.41C85.8574 107.25 85.9226 107.411 86.0175 107.547C86.0946 107.657 86.237 107.74 86.4268 107.74C86.7708 107.74 86.9013 107.508 86.9665 107.25Z" fill="black"/>
<path d="M90.0902 115.488C88.1204 108.815 93.4996 100.659 87.5074 94.0426C87.5074 94.0426 82.0834 89.7649 77.2793 90.5635C81.7218 93.13 83.5815 98.2632 81.8373 112.066C81.2608 116.628 84.0251 123.148 81.8373 130.203C78.7774 140.07 78.519 144.481 81.8373 145.945C84.5629 147.146 85.3935 145.473 90.0902 141.724C92.5602 139.752 92.582 123.929 90.0902 115.488Z" fill="#343844"/>
<path d="M87.179 94.4583C87.2553 94.4155 87.3486 94.4491 87.3874 94.5333C87.4262 94.6175 87.3958 94.7204 87.3195 94.7632C86.1528 95.4174 84.9802 97.1036 84.2419 99.4747C83.3289 102.407 83.1124 106.167 83.7658 110.637L83.7859 110.772C84.4642 115.304 84.5476 120.325 84.1516 125.459L84.1302 125.732C83.8196 129.591 83.2463 133.301 82.6468 135.81C82.2043 137.763 81.9161 139.622 81.8817 141.29C81.8351 143.544 82.276 145.106 83.2981 145.768C83.3719 145.815 83.3967 145.92 83.3534 146.002C83.3101 146.083 83.2152 146.11 83.1413 146.063C81.995 145.321 81.5229 143.648 81.5718 141.282C81.6069 139.584 81.8985 137.703 82.3466 135.725L82.3886 135.547C82.9827 132.999 83.5461 129.277 83.8428 125.43C84.2312 120.394 84.156 115.47 83.5082 111.018L83.4801 110.828C82.7942 106.245 83.009 102.382 83.9488 99.3635C84.7114 96.9142 85.9337 95.1566 87.179 94.4583Z" fill="#78819C"/>
<path d="M57.2327 115.488C59.2026 108.815 53.8234 100.659 59.8156 94.0426C59.8156 94.0426 65.2396 89.7649 70.0437 90.5635C65.6012 93.13 63.7415 98.2632 65.4857 112.066C66.0622 116.628 63.2978 123.148 65.4857 130.203C68.5456 140.07 68.8039 144.481 65.4857 145.945C62.76 147.146 61.9295 145.473 57.2327 141.724C54.7628 139.752 54.7409 123.929 57.2327 115.488Z" fill="#343844"/>
<path d="M59.9329 94.5333C59.9716 94.4491 60.0649 94.4155 60.1412 94.4583C61.3866 95.1566 62.6088 96.9142 63.3715 99.3635C64.3019 102.352 64.5217 106.168 63.8605 110.691L63.8402 110.828C63.1665 115.329 63.0835 120.322 63.4775 125.43L63.4991 125.705C63.8083 129.544 64.3784 133.233 64.9742 135.727C65.4218 137.703 65.7134 139.584 65.7485 141.282C65.7974 143.648 65.3252 145.321 64.1789 146.063C64.1051 146.11 64.0102 146.083 63.9669 146.002C63.9236 145.92 63.9483 145.815 64.0222 145.768C65.0443 145.106 65.4852 143.544 65.4386 141.29C65.4042 139.622 65.116 137.763 64.674 135.812C64.0599 133.242 63.4738 129.415 63.1686 125.459C62.7782 120.397 62.8539 115.446 63.5061 110.964L63.5344 110.772C64.2122 106.243 64.0006 102.437 63.0783 99.4747C62.34 97.1036 61.1675 95.4174 60.0008 94.7632C59.9245 94.7204 59.8941 94.6175 59.9329 94.5333Z" fill="#78819C"/>
<rect x="70.043" y="83.7795" width="7.23248" height="13.1111" rx="3.61624" fill="#EBBAAA"/>
<path opacity="0.5" d="M58.1622 76.3691C60.4447 76.3691 62.2951 74.3273 62.2951 71.8087C62.2951 69.2901 60.4447 67.2483 58.1622 67.2483C55.8797 67.2483 54.0294 69.2901 54.0294 71.8087C54.0294 74.3273 55.8797 76.3691 58.1622 76.3691Z" fill="#C99584"/>
<path opacity="0.5" d="M89.1603 76.3691C91.4427 76.3691 93.2931 74.3273 93.2931 71.8087C93.2931 69.2901 91.4427 67.2483 89.1603 67.2483C86.8778 67.2483 85.0274 69.2901 85.0274 71.8087C85.0274 74.3273 86.8778 76.3691 89.1603 76.3691Z" fill="#C99584"/>
<path d="M58.1612 61.434C58.1612 51.9891 65.0999 44.3325 73.6594 44.3325C82.2188 44.3325 89.1575 51.9891 89.1575 61.434V68.5378C89.1575 69.6146 89.0784 70.6897 88.921 71.7525L88.0578 77.5806C86.9046 85.366 80.8086 91.0826 73.6594 91.0826C66.5102 91.0826 60.4141 85.366 59.2609 77.5806L58.3977 71.7525C58.2403 70.6897 58.1612 69.6146 58.1612 68.5378V61.434Z" fill="#F4D5CC"/>
<path d="M80.6872 65.0823C81.3614 65.0823 81.9099 65.6761 81.9266 66.4156L81.927 66.4504V67.9325C81.927 68.6881 81.3719 69.3006 80.6872 69.3006C80.013 69.3006 79.4644 68.7068 79.4477 67.9673L79.4473 67.9325V66.4504C79.4473 65.6948 80.0024 65.0823 80.6872 65.0823Z" fill="black"/>
<path d="M66.6872 65.0823C67.3614 65.0823 67.9099 65.6761 67.9266 66.4156L67.927 66.4504V67.9325C67.927 68.6881 67.3719 69.3006 66.6872 69.3006C66.013 69.3006 65.4644 68.7068 65.4477 67.9673L65.4473 67.9325V66.4504C65.4473 65.6948 66.0024 65.0823 66.6872 65.0823Z" fill="black"/>
<path d="M89.6755 54.3688C89.7394 47.9458 84.6206 45.8414 85.5267 47.052C86.4328 48.2627 84.2867 51.2631 85.5267 52.2106C86.7667 53.1582 85.3837 56.2113 86.0514 57.3693C86.7189 58.5274 87.7847 58.2642 88.388 60.5277C88.9912 62.7912 88.4833 67.1979 88.4833 67.1979C88.4356 67.3182 88.4833 67.4761 88.5787 67.4761C88.6741 67.4761 88.8171 67.4234 88.8558 67.1979C88.8558 67.1979 89.5801 63.9492 89.6755 54.3688Z" fill="#868686"/>
<path d="M57.6452 54.3688C57.5813 47.9458 62.7001 45.8414 61.794 47.052C60.8878 48.2627 63.0339 51.2631 61.794 52.2106C60.554 53.1582 61.937 56.2113 61.2693 57.3693C60.6018 58.5274 59.536 58.2642 58.9327 60.5277C58.3295 62.7912 58.8374 67.1979 58.8374 67.1979C58.8851 67.3182 58.8374 67.4761 58.742 67.4761C58.6466 67.4761 58.5036 67.4234 58.4648 67.1979C58.4648 67.1979 57.7405 63.9492 57.6452 54.3688Z" fill="#868686"/>
<path fill-rule="evenodd" clip-rule="evenodd" d="M73.6799 40C78.2496 40.0192 90.7323 42.6792 89.6023 57.4435C88.4052 55.7011 86.5659 54.9266 84.9178 53.8003L84.8442 53.7497C84.3268 53.3914 83.8234 53.0667 83.329 52.7734L81.6862 54.8168L81.2695 53.8785L80.293 54.8503L79.3973 54.8717L78.1246 55.9691L76.9094 54.9314L75.0397 56.0431L74.0236 55.0007L73.0493 56.0909L72.4313 55.0388L70.1635 56.1601L70.1424 55.0937L68.4507 55.1343L67.9344 54.1984L66.3017 54.7117L65.3261 53.1941L64.1192 53.2229L62.8035 53.969C61.1096 54.9337 59.4925 55.9091 57.7572 57.4435C56.3334 43.4476 68.8138 40.086 73.4973 40.0016L73.6368 40H73.6799Z" fill="#272727"/>
<path d="M73.0196 69.0542L74.4811 70.1293C73.9844 70.9514 73.5954 72.1855 73.5954 73.0833C73.5954 73.949 73.8787 74.3129 74.7461 74.3229L74.7836 74.3231V76.2613C72.8677 76.2613 71.8389 74.9842 71.8389 73.0833C71.8389 71.7955 72.3244 70.2323 72.9835 69.1147L73.0196 69.0542Z" fill="#EBBAAA"/>
<path d="M77.6547 63.7666L76.8018 61.7387L82.6403 60.2551L84.5082 61.4299L84.6079 62.5646L81.74 62.4132L77.6547 63.7666Z" fill="#393939"/>
<path d="M69.7484 63.7005L70.5683 61.6544L64.664 60.2983L62.8064 61.5136L62.7276 62.6504L65.6112 62.4365L69.7484 63.7005Z" fill="#393939"/>
<path d="M78.1688 79.0975C78.3183 78.8294 78.6365 78.7458 78.8795 78.9108C79.1225 79.0758 79.1983 79.4269 79.0487 79.6951C78.7527 80.226 78.0824 80.8327 77.2423 81.2932C76.2126 81.8577 74.991 82.1834 73.6493 82.1834C72.3078 82.1834 71.1511 81.8592 70.1835 81.2847C69.4498 80.8491 68.8722 80.2962 68.4871 79.7439C68.3131 79.4943 68.3554 79.1364 68.5816 78.9445C68.8077 78.7525 69.1321 78.7992 69.306 79.0487C69.6043 79.4766 70.0709 79.9232 70.6731 80.2807C71.4908 80.7662 72.4794 81.0433 73.6493 81.0433C74.8292 81.0433 75.8938 80.7594 76.7826 80.2722C77.4471 79.9079 77.9618 79.4474 78.1558 79.1202L78.1688 79.0975Z" fill="#C99584"/>
</g>
<defs>
<filter id="filter0_d_280_44649" x="0" y="0" width="147.321" height="260" filterUnits="userSpaceOnUse" color-interpolation-filters="sRGB">
<feFlood flood-opacity="0" result="BackgroundImageFix"/>
<feColorMatrix in="SourceAlpha" type="matrix" values="0 0 0 0 0 0 0 0 0 0 0 0 0 0 0 0 0 0 127 0" result="hardAlpha"/>
<feOffset dy="10"/>
<feGaussianBlur stdDeviation="25"/>
<feComposite in2="hardAlpha" operator="out"/>
<feColorMatrix type="matrix" values="0 0 0 0 0 0 0 0 0 0 0 0 0 0 0 0 0 0 0.3 0"/>
<feBlend mode="normal" in2="BackgroundImageFix" result="effect1_dropShadow_280_44649"/>
<feBlend mode="normal" in="SourceGraphic" in2="effect1_dropShadow_280_44649" result="shape"/>
</filter>
</defs>
</svg>
