<svg width="153" height="234" viewBox="0 0 153 234" fill="none" xmlns="http://www.w3.org/2000/svg">
<g filter="url(#filter0_d_280_44172)">
<path d="M71.574 136.535V168.204H64.6496V136.535H71.574Z" fill="#F6DDD6"/>
<path d="M85.1174 140.812V166.473H78.193V140.812H85.1174Z" fill="#F6DDD6"/>
<path d="M73.6582 157.962C73.1929 157.206 72.1462 157.387 71.681 157.573L71.7973 158.017C71.9911 158.054 72.4834 158.129 72.6696 158.351C72.9022 158.629 72.7277 159.184 72.9022 159.295C73.0766 159.407 73.5419 159.295 73.7744 159.295C74.007 159.295 74.2396 158.907 73.6582 157.962Z" fill="black"/>
<path fill-rule="evenodd" clip-rule="evenodd" d="M72.47 157.699C72.4791 157.672 72.5084 157.658 72.5345 157.667L72.543 157.671L72.6387 157.724L72.6603 157.704L72.6858 157.68C72.7011 157.664 72.7241 157.66 72.7431 157.669L72.751 157.674L73.2602 158.03C73.2832 158.046 73.2888 158.078 73.2727 158.101C73.2584 158.122 73.2317 158.128 73.2098 158.118L73.2018 158.114L73.0241 157.989L73.0199 158.006C72.9971 158.092 72.9675 158.175 72.9364 158.226L72.9321 158.233C72.9468 158.245 72.9682 158.26 72.9955 158.276L73.031 158.297L73.0761 158.322L73.1293 158.35L73.1293 158.225C73.1293 158.186 73.1696 158.163 73.2024 158.179L73.2098 158.183L73.5662 158.438C73.604 158.465 73.5884 158.522 73.5455 158.529L73.5366 158.53L73.3385 158.53C73.372 158.534 73.3955 158.572 73.3784 158.604L73.3737 158.612L73.2961 158.715L73.3518 158.737C73.375 158.747 73.3877 158.771 73.3828 158.795L73.3802 158.804C73.3709 158.827 73.3465 158.839 73.3228 158.835L73.314 158.832L73.2327 158.799L73.2209 158.815C73.1934 158.852 73.1369 158.836 73.13 158.794L73.1293 158.785L73.1293 158.758L73.0594 158.73C73.0198 158.714 73.017 158.661 73.0509 158.64L73.0594 158.636L73.1293 158.608V158.464L73.0939 158.446C73.0667 158.432 73.0404 158.419 73.0159 158.405L72.9806 158.386C72.9311 158.358 72.8928 158.333 72.8669 158.311C72.8195 158.271 72.7968 158.231 72.8387 158.189C72.8581 158.169 72.8876 158.095 72.911 158.017L72.917 157.995L72.6523 157.848L72.6387 157.859C72.5963 157.892 72.5584 157.914 72.5289 157.918L72.5183 157.919C72.4554 157.919 72.44 157.87 72.4459 157.806C72.449 157.774 72.4585 157.734 72.47 157.699ZM73.2311 158.512V158.567L73.314 158.534C73.3168 158.533 73.3196 158.532 73.3224 158.531L73.3291 158.53H73.282L73.2612 158.526L73.2311 158.512ZM73.2312 158.4V158.323L73.3779 158.428H73.2931L73.2675 158.417L73.2312 158.4Z" fill="#EACE56" fill-opacity="0.78"/>
<path d="M53.0469 171.666C52.923 171.361 52.9444 170.699 53.7081 170.393C54.4717 170.088 63.4837 171.666 63.4837 171.666C65.8036 171.477 72.0345 168.436 74.3286 169.833C75.0544 170.275 74.8084 171.675 74.5404 172.986C74.1117 173.423 69.7748 173.805 68.3686 173.477C68.3686 172.713 68.2592 172.221 68.2592 172.221C68.2592 172.221 67.4073 172.771 66.4877 172.986C64.6121 173.423 64.2017 173.906 58.3923 173.906C53.7329 173.47 53.3977 172.532 53.0469 171.666Z" fill="#383129"/>
<path fill-rule="evenodd" clip-rule="evenodd" d="M74.1256 170.793C73.9699 170.904 73.7896 170.992 73.563 171.068L73.5307 170.971C73.7482 170.899 73.9196 170.815 74.0665 170.71L74.1256 170.793ZM53.875 171.507C53.68 171.359 53.5226 171.216 53.4145 171.088L53.4923 171.022C53.595 171.144 53.747 171.282 53.9364 171.425L53.875 171.507ZM54.9286 172.142C54.7382 172.049 54.557 171.951 54.3875 171.849L54.4397 171.762C54.6068 171.862 54.7855 171.959 54.9733 172.05L54.9286 172.142ZM55.4901 172.391C55.6785 172.466 55.8717 172.536 56.0687 172.598L56.0996 172.501C55.9049 172.439 55.714 172.371 55.5279 172.296L55.4901 172.391ZM57.2654 172.885C57.0628 172.852 56.8617 172.811 56.6627 172.764L56.6865 172.665C56.8831 172.712 57.0817 172.752 57.2818 172.785L57.2654 172.885ZM57.8775 172.961C58.0819 172.979 58.2868 172.988 58.4918 172.99L58.4925 172.888C58.2901 172.887 58.0879 172.877 57.8862 172.86L57.8775 172.961ZM59.7138 172.972C59.5116 172.978 59.3077 172.983 59.1022 172.986L59.1007 172.884C59.3056 172.881 59.5089 172.876 59.7106 172.87L59.7138 172.972ZM60.326 172.947C60.5315 172.937 60.7351 172.926 60.9367 172.912L60.9299 172.81C60.7289 172.824 60.526 172.836 60.3211 172.846L60.326 172.947ZM62.1557 172.808C61.9552 172.829 61.7521 172.848 61.5465 172.866L61.5378 172.764C61.7428 172.747 61.9452 172.728 62.1451 172.707L62.1557 172.808ZM62.7645 172.738C62.97 172.712 63.1722 172.685 63.371 172.655L63.3561 172.555C63.1581 172.584 62.9566 172.611 62.7518 172.637L62.7645 172.738ZM64.5772 172.448C64.3813 172.487 64.1806 172.524 63.9751 172.559L63.9579 172.459C64.1625 172.424 64.3624 172.387 64.5574 172.348L64.5772 172.448ZM65.1766 172.321C65.3828 172.274 65.5814 172.225 65.7717 172.175L65.7458 172.076C65.5565 172.126 65.359 172.174 65.154 172.221L65.1766 172.321ZM66.9484 171.837L66.3619 172.008L66.3334 171.911L66.9196 171.739L66.9484 171.837ZM67.5048 171.565L67.534 171.663L68.1193 171.487L68.0897 171.389L67.6442 171.524L67.5048 171.565ZM68.6922 171.374L68.6999 171.273C68.8391 171.283 68.9906 171.293 69.1486 171.303L69.3085 171.311L69.3032 171.413C69.1409 171.405 68.9832 171.395 68.8359 171.385L68.6922 171.374ZM69.9145 171.439C70.1233 171.445 70.3283 171.449 70.5266 171.45L70.5273 171.348C70.3298 171.347 70.1256 171.343 69.9177 171.337L69.9145 171.439ZM71.7523 171.412C71.5662 171.428 71.3611 171.438 71.1393 171.444L71.1365 171.343C71.3565 171.337 71.5598 171.326 71.7439 171.311L71.7523 171.412ZM72.3461 171.233L72.3628 171.333L72.4775 171.314C72.6634 171.282 72.8231 171.253 72.9657 171.223L72.945 171.123L72.8129 171.15C72.6756 171.176 72.5222 171.204 72.3461 171.233Z" fill="#67513B"/>
<path d="M66.5896 157.359C67.086 157.359 69.9823 158.879 71.4852 157.7C71.6503 157.571 71.9865 157.677 71.9868 157.886C71.9895 159.913 72.0195 163.436 72.3229 164.833C72.6444 166.314 72.9159 166.102 73.2372 167.477C73.4598 168.429 74.1807 170.65 73.2372 170.65H68.9345C67.9165 170.65 66.5416 171.832 63.1516 172.164C57.5242 172.716 56.1491 171.96 55.0255 171.604C52.4689 170.793 53.7663 168.938 55.0254 168.345C56.87 167.477 59.5136 166.825 60.8583 166.105C61.9054 165.545 62.265 165.371 62.8025 164.781C63.6889 163.81 64.4674 158.699 64.5878 157.364C64.5962 157.271 64.7266 157.224 64.8059 157.272C65.3302 157.595 66.0974 157.359 66.5896 157.359Z" fill="#2D2B30"/>
<path d="M55.3352 169.956C55.3921 169.768 55.591 169.661 55.7794 169.718L55.9262 169.762C56.5475 169.945 56.986 170.044 57.5431 170.104C58.359 170.191 59.2239 170.151 60.1834 169.95C60.376 169.909 60.565 170.033 60.6054 170.225C60.6458 170.418 60.5223 170.607 60.3297 170.647C59.2963 170.864 58.3564 170.908 57.4669 170.812C56.8135 170.742 56.3134 170.624 55.5732 170.4C55.3848 170.343 55.2782 170.144 55.3352 169.956Z" fill="#59555F"/>
<path d="M62.2108 168C63.2079 167.084 66.8441 165.036 66.5895 157.359C67.0216 157.359 68.0661 157.919 69.6444 158.021C71.3019 157.971 71.2747 157.821 71.7137 157.573C71.7256 157.566 71.7394 157.555 71.7507 157.548C72.4391 157.085 72.1295 164.488 72.6236 165.8C73.0224 166.859 73.7702 168.447 73.7702 170.382C73.4212 170.993 69.9814 170.687 68.8846 170.687C68.3716 167.949 64.3493 170.037 63.4837 169.782C62.724 169.559 62.2108 169.12 62.2108 168Z" fill="#1D1D20"/>
<path d="M63.4328 164.701C64.5733 163.805 65.0112 159.446 65.0621 157.359C64.8584 157.308 64.8075 157.165 64.6548 157.216C64.502 157.267 64.502 157.878 64.4511 158.387C64.3954 158.945 63.9929 160.679 63.7892 161.85C63.5856 163.021 63.3819 163.733 62.6182 164.701C62.0072 165.475 59.6142 166.269 58.8505 166.931C58.9353 166.914 59.156 166.799 59.3596 166.839C59.6142 166.89 59.5633 166.941 59.8688 166.941C60.1743 166.941 62.0072 165.821 63.4328 164.701Z" fill="#1D1D20"/>
<path d="M64.5661 157.686C64.6088 157.558 64.7433 157.486 64.872 157.52L64.8881 157.525L67.0265 158.238C67.2582 158.315 67.2568 158.639 67.0331 158.718L67.0159 158.724L65.4964 159.158L66.706 159.78C66.9167 159.889 66.8768 160.197 66.6529 160.253L66.6362 160.257L65.3163 160.502L66.6832 161.043C66.9 161.128 66.8954 161.433 66.6841 161.516L66.667 161.522L64.8871 162.09L66.4445 162.832C66.6695 162.939 66.621 163.268 66.3823 163.312L66.3654 163.314L64.4498 163.544L65.775 164.538C65.9662 164.682 65.8714 164.982 65.6387 164.996L65.6222 164.996H63.6017L64.985 166.341C65.1649 166.516 65.0101 166.814 64.7687 166.775L64.7532 166.772L62.1427 166.201L63.1814 167.648C63.3327 167.859 63.1095 168.131 62.8768 168.032L62.8626 168.025L60.2659 166.752C60.1397 166.69 60.0875 166.538 60.1494 166.412C60.2087 166.291 60.3512 166.238 60.4741 166.288L60.49 166.295L62.1769 167.122L61.3422 165.959C61.2092 165.774 61.368 165.524 61.588 165.559L61.6034 165.562L63.9904 166.084L62.7972 164.924C62.6372 164.769 62.7409 164.5 62.9585 164.488L62.9746 164.487H64.8585L63.6365 163.571C63.4575 163.436 63.5273 163.156 63.7421 163.117L63.759 163.114L65.4319 162.913L64.0872 162.273C63.8844 162.177 63.8984 161.887 64.1018 161.807L64.1192 161.801L65.8325 161.254L64.3067 160.651C64.0746 160.559 64.1011 160.226 64.3365 160.167L64.3537 160.164L65.811 159.892L64.6912 159.317C64.4913 159.214 64.5144 158.925 64.7205 158.851L64.7376 158.845L66.0849 158.46L64.7271 158.008C64.599 157.965 64.5275 157.831 64.5613 157.702L64.5661 157.686Z" fill="black"/>
<path d="M76.1408 157.967C76.6086 157.206 77.6611 157.39 78.1289 157.576L78.012 158.022C77.8171 158.06 77.322 158.134 77.1348 158.358C76.9009 158.637 77.0764 159.196 76.9009 159.308C76.7255 159.419 76.2577 159.308 76.0238 159.308C75.7899 159.308 75.556 158.916 76.1408 157.967Z" fill="black"/>
<path fill-rule="evenodd" clip-rule="evenodd" d="M77.2621 157.674C77.29 157.658 77.3252 157.672 77.3352 157.702C77.3469 157.738 77.3563 157.778 77.3593 157.81C77.3653 157.874 77.3498 157.923 77.2868 157.923C77.2559 157.923 77.2125 157.899 77.1642 157.862L77.1519 157.852L76.8854 158L76.886 158.002C76.9085 158.082 76.9383 158.16 76.9593 158.189L76.9644 158.195C77.0065 158.236 76.9837 158.277 76.9362 158.317C76.9102 158.339 76.8716 158.364 76.8219 158.393C76.7877 158.412 76.7483 158.433 76.707 158.454L76.6722 158.471V158.616L76.7426 158.645C76.7822 158.661 76.7849 158.714 76.7509 158.735L76.7424 158.739L76.6722 158.767L76.6722 158.794C76.6722 158.84 76.6175 158.861 76.5864 158.831L76.5806 158.824L76.5685 158.808L76.4864 158.841C76.4632 158.85 76.4372 158.841 76.4244 158.821L76.4203 158.813C76.4111 158.789 76.4201 158.763 76.4406 158.751L76.4488 158.746L76.5052 158.724L76.4269 158.62C76.4014 158.586 76.426 158.542 76.4621 158.538L76.2628 158.538C76.2164 158.538 76.1956 158.482 76.2264 158.452L76.2332 158.446L76.5916 158.189C76.6229 158.167 76.6656 158.186 76.6715 158.222L76.6722 158.231L76.6722 158.358L76.6997 158.343C76.7125 158.337 76.7249 158.33 76.7369 158.324L76.7714 158.304L76.8071 158.283C76.829 158.27 76.8472 158.258 76.861 158.247L76.8709 158.239L76.8668 158.233C76.8356 158.181 76.8059 158.098 76.7828 158.011L76.7782 157.993L76.5993 158.119C76.5788 158.133 76.5514 158.13 76.5343 158.113L76.5283 158.106C76.514 158.086 76.5168 158.058 76.5338 158.041L76.5409 158.035L77.0529 157.677C77.0732 157.662 77.1009 157.665 77.1183 157.683C77.1303 157.695 77.1433 157.707 77.1565 157.72L77.1655 157.728L77.2621 157.674ZM76.5703 158.52L76.5395 158.534L76.5188 158.538L76.4706 158.538L76.4782 158.539L76.4866 158.542L76.5703 158.576V158.52ZM76.4214 158.436L76.5703 158.33V158.408L76.5381 158.423L76.508 158.436H76.4214Z" fill="#EACE56" fill-opacity="0.78"/>
<path d="M96.8674 171.748C96.9919 171.44 96.9705 170.775 96.2025 170.468C95.4346 170.16 86.3723 171.748 86.3723 171.748C84.0393 171.557 77.7736 168.499 75.4667 169.904C74.7369 170.348 74.9842 171.757 75.2537 173.074C75.6847 173.513 80.0459 173.898 81.46 173.568C81.46 172.799 81.5701 172.306 81.5701 172.306C81.5701 172.306 82.4267 172.859 83.3514 173.074C85.2375 173.513 85.6503 174 91.4922 174C96.1776 173.561 96.5145 172.618 96.8674 171.748Z" fill="#383129"/>
<path fill-rule="evenodd" clip-rule="evenodd" d="M75.8285 170.852C75.9788 170.943 76.1559 171.017 76.3796 171.084L76.3505 171.181C76.119 171.113 75.9341 171.035 75.7757 170.939L75.8285 170.852ZM95.9753 171.504C96.1646 171.361 96.3165 171.222 96.4194 171.101L96.4971 171.166C96.3889 171.294 96.2316 171.438 96.0368 171.585L95.9753 171.504ZM94.9387 172.13C95.1265 172.038 95.3051 171.941 95.4722 171.841L95.5245 171.928C95.355 172.03 95.1739 172.128 94.9836 172.221L94.9387 172.13ZM94.3844 172.377C94.1984 172.451 94.0076 172.52 93.813 172.582L93.8441 172.679C94.041 172.616 94.2341 172.547 94.4223 172.471L94.3844 172.377ZM92.6317 172.869C92.8317 172.835 93.0302 172.795 93.2267 172.747L93.2507 172.846C93.0518 172.894 92.8509 172.936 92.6483 172.969L92.6317 172.869ZM92.0275 172.946C91.8258 172.964 91.6236 172.974 91.4212 172.976L91.4223 173.078C91.6274 173.076 91.8322 173.066 92.0365 173.047L92.0275 172.946ZM90.2048 172.96C90.4065 172.966 90.6099 172.97 90.8148 172.973L90.8133 173.075C90.6079 173.072 90.404 173.068 90.2017 173.061L90.2048 172.96ZM89.5945 172.936C89.3896 172.926 89.1866 172.915 88.9855 172.902L88.9789 173.003C89.1806 173.016 89.3842 173.028 89.5897 173.038L89.5945 172.936ZM87.7702 172.8C87.9702 172.82 88.1727 172.839 88.3776 172.856L88.3691 172.958C88.1635 172.94 87.9604 172.921 87.7597 172.901L87.7702 172.8ZM87.1633 172.731C86.9586 172.706 86.757 172.679 86.5588 172.65L86.5441 172.751C86.7431 172.779 86.9454 172.807 87.1509 172.832L87.1633 172.731ZM85.3572 172.446C85.5524 172.484 85.7525 172.521 85.9571 172.555L85.9401 172.656C85.7347 172.621 85.5338 172.584 85.3377 172.546L85.3572 172.446ZM84.7603 172.321C84.5554 172.275 84.3577 172.228 84.1679 172.179L84.1424 172.277C84.3333 172.327 84.532 172.375 84.738 172.421L84.7603 172.321ZM83.5796 172.015L83.5512 172.113L83.4313 172.078L82.9646 171.941L82.9933 171.844L83.1079 171.877L83.5796 172.015ZM82.4076 171.67L81.8226 171.495L81.7931 171.592L82.3786 171.768L82.4076 171.67ZM81.2165 171.345L81.2247 171.447C81.0831 171.458 80.9252 171.469 80.7586 171.479L80.6138 171.488L80.6082 171.386C80.7541 171.378 80.8953 171.369 81.027 171.36L81.2165 171.345ZM79.999 171.413C79.7919 171.421 79.5877 171.425 79.3894 171.427L79.3905 171.529C79.5896 171.527 79.7946 171.522 80.0025 171.515L79.999 171.413ZM78.1714 171.399C78.3574 171.412 78.5608 171.42 78.7793 171.425L78.7772 171.527C78.557 171.522 78.352 171.513 78.1643 171.5L78.1714 171.399ZM77.553 171.43L77.5692 171.33L77.455 171.311C77.2701 171.281 77.1112 171.252 76.9691 171.224L76.9495 171.324L77.0831 171.35C77.2217 171.375 77.376 171.402 77.553 171.43Z" fill="#67513B"/>
<path d="M83.2492 157.36C82.7496 157.36 79.833 158.891 78.3228 157.7C78.1579 157.571 77.8221 157.677 77.8218 157.886C77.8191 159.924 77.7891 163.471 77.4837 164.877C77.1605 166.366 76.8876 166.153 76.5643 167.535C76.3405 168.492 75.6156 170.725 76.5643 170.725H80.8911C81.9148 170.725 83.2975 171.915 86.7064 172.249C92.3652 172.802 93.7481 172.044 94.878 171.685C97.4488 170.87 96.1441 169.004 94.878 168.409C93.023 167.535 90.3647 166.879 89.0125 166.156C87.9596 165.593 87.598 165.418 87.0573 164.824C86.1658 163.847 85.3825 158.704 85.262 157.364C85.2537 157.271 85.1233 157.224 85.0441 157.272C84.5168 157.598 83.7444 157.36 83.2492 157.36Z" fill="#2D2B30"/>
<path d="M94.1197 169.791C94.3081 169.733 94.5071 169.84 94.5641 170.028C94.6211 170.217 94.5146 170.416 94.3262 170.473L94.1706 170.519C93.5107 170.714 93.0324 170.822 92.4222 170.887C91.5281 170.984 90.583 170.939 89.544 170.722C89.3514 170.681 89.2279 170.493 89.2683 170.3C89.3086 170.107 89.4975 169.984 89.6902 170.024C90.6554 170.226 91.5254 170.267 92.3459 170.179C92.9497 170.114 93.4159 170.004 94.1197 169.791Z" fill="#59555F"/>
<path d="M87.6523 168.061C86.6497 167.14 82.9931 165.081 83.2491 157.36C82.8146 157.36 81.7644 157.923 80.1771 158.026C78.5102 157.975 78.5377 157.825 78.0963 157.576C78.0843 157.569 78.0705 157.558 78.0592 157.55C77.3668 157.084 77.6782 164.529 77.1813 165.848C76.7803 166.914 76.0283 168.511 76.0283 170.456C76.3792 171.071 79.8384 170.764 80.9412 170.764C81.4571 168.01 85.5019 170.109 86.3723 169.853C87.1363 169.628 87.6523 169.187 87.6523 168.061Z" fill="#1D1D20"/>
<path d="M86.4232 164.744C85.2764 163.842 84.836 159.46 84.7849 157.36C84.9897 157.309 85.0409 157.166 85.1944 157.217C85.348 157.268 85.348 157.882 85.3992 158.395C85.4552 158.956 85.86 160.699 86.0649 161.876C86.2697 163.054 86.4744 163.771 87.2424 164.744C87.8568 165.522 90.2632 166.32 91.0312 166.986C90.9459 166.969 90.724 166.853 90.5192 166.894C90.2632 166.945 90.3144 166.996 90.0072 166.996C89.7 166.996 87.8568 165.87 86.4232 164.744Z" fill="#1D1D20"/>
<path d="M84.9606 157.529C85.094 157.484 85.2382 157.556 85.2826 157.69C85.3253 157.818 85.2606 157.956 85.1373 158.006L85.1216 158.012L83.7519 158.468L85.111 158.856C85.3271 158.918 85.3611 159.206 85.1733 159.319L85.1576 159.328L84.0277 159.909L85.4972 160.182C85.7426 160.227 85.7803 160.559 85.5604 160.662L85.5443 160.669L84.0061 161.277L85.7329 161.828C85.9467 161.896 85.972 162.185 85.7813 162.292L85.765 162.3L84.4082 162.947L86.0954 163.149C86.3177 163.175 86.3976 163.453 86.2312 163.594L86.2179 163.605L84.9853 164.53H86.8843C87.1073 164.53 87.2201 164.794 87.073 164.955L87.0617 164.967L85.8581 166.137L88.2635 165.611C88.4863 165.562 88.6531 165.807 88.5335 165.995L88.5247 166.008L87.6819 167.182L89.3834 166.348C89.5044 166.289 89.6495 166.334 89.7159 166.449L89.7241 166.464C89.7834 166.585 89.7379 166.731 89.6229 166.797L89.6075 166.805L86.9963 168.085C86.7634 168.199 86.5325 167.934 86.6687 167.721L86.6775 167.708L87.724 166.25L85.0955 166.825C84.8506 166.879 84.687 166.585 84.8526 166.405L84.8637 166.394L86.2572 165.039H84.2219C83.9828 165.039 83.8782 164.741 84.0563 164.591L84.0691 164.581L85.4046 163.579L83.4749 163.348C83.2273 163.318 83.168 162.99 83.3804 162.873L83.3956 162.865L84.9651 162.117L83.1717 161.545C82.9496 161.474 82.9337 161.17 83.1388 161.073L83.1555 161.066L84.5345 160.521L83.2026 160.273C82.9697 160.23 82.9192 159.922 83.1177 159.805L83.1327 159.796L84.3521 159.169L82.8208 158.732C82.586 158.665 82.5732 158.341 82.7932 158.252L82.8102 158.246L84.9606 157.529Z" fill="black"/>
<path d="M59.3545 154.864L60.5764 118.664L68.5012 117.586L68.5701 115.761H72.4382L72.3887 114.845L82.4189 117.238L82.4306 117.846L85.1683 118.664L91.6345 154.864L83.1661 156.086L83.1827 156.952L76.2698 156.417L76.3601 157.614H66.9917L67.0505 156.055L59.3545 154.864Z" fill="black"/>
<path d="M91.4303 73.4512C91.4303 72.483 91.5321 68.3767 91.4303 66.5776L89.0373 66.8831L83.182 71.8219C82.0959 74.3337 77.052 83.3185 77.3779 84.7034C77.7852 86.4345 84.359 87.8335 86.4917 89.3366C94.9436 95.2937 93.2633 84.4997 92.9069 82.3613C92.5504 80.2228 91.4303 76.3024 91.4303 73.4512Z" fill="#17100F"/>
<path fill-rule="evenodd" clip-rule="evenodd" d="M56.2484 63.3228C56.2484 63.3228 54.7841 79.841 53.601 83.4941C52.4178 87.1473 49.7 94.7551 50.2702 99.3967C50.8403 104.038 50.9535 104.508 53.601 103.032C56.2484 101.556 87.3061 80.0593 87.3061 80.0593L56.2484 63.3228Z" fill="#17100F"/>
<rect x="69.4861" y="75.7422" width="8.24822" height="11.8123" rx="4.12411" fill="#EBBAAA"/>
<path d="M66.9404 120.038V114.03H80.7892V120.038H66.9404Z" fill="#E5CECB"/>
<path d="M66.9404 115.133V87.1472H80.7892V115.133C80.7892 115.133 75.9345 115.965 73.8648 115.965C71.7951 115.965 66.9404 115.133 66.9404 115.133Z" fill="#E7D6D3"/>
<path d="M73.3556 85.3142C70.3822 85.3142 68.5187 83.8886 67.9587 83.1758L66.3294 86.5871C67.3986 87.7411 70.3007 90.0493 73.3556 90.0493C76.4105 90.0493 79.3806 88.5219 80.4837 87.7581L79.3636 83.1758C78.5999 83.8886 76.3291 85.3142 73.3556 85.3142Z" fill="#E6CECB"/>
<rect x="54.6627" y="83.0569" width="17.6141" height="36.4245" rx="8.80706" transform="rotate(8.5 54.6627 83.0569)" fill="#67513B"/>
<rect x="48" y="112.757" width="10.8081" height="21.1911" rx="5.40406" transform="rotate(-45 48 112.757)" fill="#67513B"/>
<path d="M55.6253 137.67L59.9987 83.352L69.4352 82.6667L72.7447 101.964C71.8699 113.509 70.6698 139.506 70.6698 140.906C70.6698 142.305 59.9987 139.127 55.6253 137.67Z" fill="#67513B"/>
<path d="M72.7956 101.862L69.3843 82.4122C66.9403 82.0558 63.8345 82.1915 62.358 82.4122L71.0645 101.556L72.1846 110.008L72.7956 101.862Z" fill="#82684B"/>
<path d="M92.012 137.057L87.6628 83.3287L77.7343 82.9214L74.934 102.218C75.8087 113.764 76.9675 138.894 76.9675 140.294C76.9675 141.693 87.6386 138.515 92.012 137.057Z" fill="#67513B"/>
<path d="M74.934 102.32L77.7343 82.7687C80.1273 82.2595 83.2162 82.2595 84.4042 82.2595L77.327 103.186L75.9014 118.816L74.934 102.32Z" fill="#82684B"/>
<rect x="78.2053" y="111.093" width="23.0916" height="16.1816" rx="5" transform="rotate(-4.5 78.2053 111.093)" fill="#363030"/>
<rect width="9.21997" height="25.6619" rx="4.60999" transform="matrix(-0.981627 0.190809 0.190809 0.981627 93.0156 82.7686)" fill="#67513B"/>
<path fill-rule="evenodd" clip-rule="evenodd" d="M87.3392 118.615L89.274 103.952L96.7446 104.938L94.8099 119.601L87.3392 118.615ZM90.5815 122.844C88.5185 122.571 87.0668 120.678 87.339 118.615L94.8097 119.601C94.5375 121.664 92.6445 123.116 90.5815 122.844Z" fill="#F6DDD6"/>
<rect width="9.21998" height="18.1654" rx="4.60999" transform="matrix(-0.998135 -0.0610485 -0.0610485 0.998135 97.5872 101.05)" fill="#67513B"/>
<path d="M69.6638 105.044C70.2194 105.044 70.6697 104.594 70.6697 104.038C70.6697 103.483 70.2194 103.032 69.6638 103.032C69.1083 103.032 68.658 103.483 68.658 104.038C68.658 104.594 69.1083 105.044 69.6638 105.044Z" fill="#C3996F"/>
<path d="M69.0517 118.689C69.6072 118.689 70.0575 118.239 70.0575 117.683C70.0575 117.128 69.6072 116.677 69.0517 116.677C68.4961 116.677 68.0458 117.128 68.0458 117.683C68.0458 118.239 68.4961 118.689 69.0517 118.689Z" fill="#C3996F"/>
<path d="M69.4888 111.867C70.0443 111.867 70.4947 111.416 70.4947 110.861C70.4947 110.305 70.0443 109.855 69.4888 109.855C68.9333 109.855 68.4829 110.305 68.4829 110.861C68.4829 111.416 68.9333 111.867 69.4888 111.867Z" fill="#C3996F"/>
<path d="M68.2645 125.249C68.82 125.249 69.2703 124.799 69.2703 124.243C69.2703 123.688 68.82 123.237 68.2645 123.237C67.7089 123.237 67.2586 123.688 67.2586 124.243C67.2586 124.799 67.7089 125.249 68.2645 125.249Z" fill="#C3996F"/>
<path d="M67.6523 130.935C68.2078 130.935 68.6582 130.484 68.6582 129.929C68.6582 129.373 68.2078 128.923 67.6523 128.923C67.0967 128.923 66.6464 129.373 66.6464 129.929C66.6464 130.484 67.0967 130.935 67.6523 130.935Z" fill="#C3996F"/>
<path d="M87.0009 69.9381C89.2504 69.9381 91.0741 67.9093 91.0741 65.4067C91.0741 62.904 89.2504 60.8752 87.0009 60.8752C84.7514 60.8752 82.9277 62.904 82.9277 65.4067C82.9277 67.9093 84.7514 69.9381 87.0009 69.9381Z" fill="#E4C1C1"/>
<path d="M60.3215 69.9381C58.0719 69.9381 56.2483 67.9093 56.2483 65.4067C56.2483 62.904 58.0719 60.8752 60.3215 60.8752C62.571 60.8752 64.3947 62.904 64.3947 65.4067C64.3947 67.9093 62.571 69.9381 60.3215 69.9381Z" fill="#E4C1C1"/>
<path d="M59.6917 55.2607C59.3916 47.3297 65.7195 40.7129 73.6563 40.7129C81.6731 40.7129 88.0036 47.4568 87.7004 55.468C87.6052 57.9842 87.5533 60.096 87.5957 61.0541C87.6707 62.7441 86.8513 67.7307 86.0324 72.2012C85.1316 77.119 81.3118 80.9542 76.4237 82.0041C74.7015 82.3739 72.9189 82.3783 71.1948 82.0179C66.1608 80.9658 62.2477 76.9715 61.3962 71.8996C60.6552 67.4855 59.9063 62.66 59.8817 61.0541C59.8671 60.0946 59.7911 57.8853 59.6917 55.2607Z" fill="#F6DDD6"/>
<path fill-rule="evenodd" clip-rule="evenodd" d="M68.1962 69.3291V71.3453C68.1962 74.4491 70.7042 76.9643 73.7967 76.9643C76.8902 76.9643 79.3972 74.4491 79.3972 71.3453V69.3291H68.1962Z" fill="#393939"/>
<mask id="mask0_280_44172" style="mask-type:luminance" maskUnits="userSpaceOnUse" x="68" y="69" width="12" height="8">
<path fill-rule="evenodd" clip-rule="evenodd" d="M68.2054 69.3269C68.1993 69.4309 68.1962 69.5358 68.1962 69.6406V71.6045C68.1962 74.565 70.7042 76.9641 73.7967 76.9641C76.8902 76.9641 79.3972 74.565 79.3972 71.6045V69.6406C79.3972 69.5358 79.3941 69.4309 79.388 69.3269H68.2054Z" fill="white"/>
</mask>
<g mask="url(#mask0_280_44172)">
<path d="M73.7967 78.7658C75.6621 78.7658 77.1742 77.94 77.1742 76.9213C77.1742 75.9026 75.6621 75.0769 73.7967 75.0769C71.9314 75.0769 70.4192 75.9026 70.4192 76.9213C70.4192 77.94 71.9314 78.7658 73.7967 78.7658Z" fill="#FF6C6C"/>
</g>
<rect x="68.1962" y="69.3291" width="11.2013" height="2.31628" fill="white"/>
<path d="M65.3634 54.7739C66.9241 54.5137 68.6481 54.6573 70.3514 55.2585C70.6696 55.3708 70.8365 55.7198 70.7242 56.038C70.6119 56.3562 70.2629 56.5231 69.9447 56.4108C68.4377 55.8789 66.9229 55.7527 65.5643 55.9792C65.163 56.0461 64.8319 56.1538 64.5635 56.2889C64.4114 56.3655 64.2919 56.4445 64.202 56.5198C64.18 56.5382 64.1621 56.5544 64.1481 56.5681L64.1359 56.5803C64.136 56.58 64.138 56.5776 64.1418 56.5728C63.931 56.8363 63.5465 56.8789 63.283 56.6681C63.0196 56.4573 62.9769 56.0728 63.1877 55.8093C63.235 55.7503 63.3108 55.6721 63.418 55.5825C63.579 55.4478 63.777 55.3168 64.014 55.1975C64.3927 55.0068 64.8414 54.8609 65.3634 54.7739Z" fill="#62360D"/>
<path d="M76.5728 55.2093C77.9944 54.5863 80.1165 54.429 81.6311 54.6902C82.1203 54.7745 82.5673 54.9346 82.9688 55.1485C83.185 55.2637 83.3754 55.3878 83.5393 55.5133L83.5887 55.5518C83.667 55.6139 83.7255 55.6658 83.7638 55.7033C84.0047 55.9395 84.0085 56.3264 83.7723 56.5673C83.5421 56.8021 83.1689 56.8117 82.9271 56.5935L82.9026 56.5708L82.891 56.5605C82.8655 56.5382 82.8339 56.5122 82.7963 56.4834C82.6837 56.3972 82.5492 56.3095 82.3943 56.227C82.103 56.0719 81.7784 55.9556 81.4235 55.8944C80.1288 55.6711 78.2447 55.8108 77.0633 56.3285C76.7543 56.4639 76.3939 56.3232 76.2585 56.0141C76.123 55.7051 76.2638 55.3447 76.5728 55.2093Z" fill="#62360D"/>
<path d="M73.0428 62.228L74.4832 63.1883C73.9937 63.9226 73.6103 65.0248 73.6103 65.8267C73.6103 66.5999 73.8895 66.9249 74.7443 66.9339L74.7813 66.9341V68.6652C72.8931 68.6652 71.8792 67.5246 71.8792 65.8267C71.8792 64.6765 72.3577 63.2803 73.0073 62.2821L73.0428 62.228Z" fill="#EBBAAA"/>
<path d="M77.6352 60.0264C78.9972 59.3868 80.9429 59.4079 82.6514 59.9978C83.0235 60.1263 83.221 60.5321 83.0925 60.9042C82.964 61.2763 82.5582 61.4738 82.1861 61.3454C80.8033 60.8679 79.2333 60.8509 78.2412 61.3168C77.8849 61.4841 77.4604 61.3309 77.293 60.9746C77.1257 60.6182 77.2789 60.1937 77.6352 60.0264Z" fill="black"/>
<path d="M64.0918 60.0264C65.4538 59.3868 67.3995 59.4079 69.108 59.9978C69.4801 60.1263 69.6776 60.5321 69.5491 60.9042C69.4206 61.2763 69.0148 61.4738 68.6427 61.3454C67.2599 60.8679 65.69 60.8509 64.6978 61.3168C64.3415 61.4841 63.917 61.3309 63.7496 60.9746C63.5823 60.6182 63.7355 60.1937 64.0918 60.0264Z" fill="black"/>
<path d="M71.5474 59.9079C72.9029 59.2625 74.2092 59.1994 75.4808 59.8914L75.5304 59.9188L75.1821 60.5407C74.1321 59.9527 73.065 59.9888 71.9058 60.5271L71.8539 60.5515L71.5474 59.9079Z" fill="black"/>
<path d="M75.5465 62.4806L75.3756 60.286C75.3756 60.286 76.4399 57.8945 80.7171 57.3898C84.9944 56.885 86.8853 59.5152 86.8853 59.5152L86.5444 62.6828C86.3287 64.6879 84.609 66.1912 82.5931 66.1369L79.3002 66.0483C77.3204 65.995 75.7002 64.4553 75.5465 62.4806Z" fill="white" fill-opacity="0.4"/>
<path d="M80.5729 56.8895C81.9425 56.7123 83.2287 56.8107 84.4171 57.1263C85.3001 57.3607 86.0601 57.6949 86.6859 58.0707C87.0999 58.3192 87.3208 58.7818 87.2887 59.2697L87.286 59.3038L87.1808 60.4751L86.3695 60.4022L86.4747 59.2309C86.4927 59.0306 86.412 58.8564 86.2666 58.7691C85.7034 58.4309 85.013 58.1274 84.208 57.9136C83.1191 57.6245 81.939 57.5342 80.6774 57.6974C78.4284 57.9882 76.8669 58.6875 75.8858 59.5128C75.791 59.5925 75.7439 59.7255 75.7602 59.8816L75.7635 59.9078L75.9503 61.1742L75.1444 61.2931L74.9576 60.0268C74.8935 59.5927 75.0334 59.1653 75.3613 58.8894C76.4604 57.9649 78.1671 57.2006 80.5729 56.8895Z" fill="black"/>
<path d="M71.8083 62.3992L71.9542 60.3087C71.9542 60.3087 70.8909 57.9699 66.6893 57.5081C62.4876 57.0464 60.6524 59.6425 60.6524 59.6425L61.0043 62.6827C61.236 64.686 62.9676 66.1755 64.9832 66.1051L68.0832 65.9969C70.0626 65.9277 71.6703 64.375 71.8083 62.3992Z" fill="white" fill-opacity="0.4"/>
<path d="M63.0624 57.269C64.2248 56.9516 65.4844 56.8457 66.8275 57.0085C69.166 57.2919 70.8397 58.0171 71.9327 58.9083C72.2726 59.1854 72.4175 59.6226 72.3489 60.0635L72.343 60.0983L72.1359 61.2424L71.3343 61.0973L71.5414 59.9532C71.5729 59.7791 71.5247 59.6267 71.4179 59.5396C70.4429 58.7447 68.9132 58.0819 66.7295 57.8173C65.4942 57.6675 64.3403 57.7645 63.277 58.0548C62.4898 58.2698 61.8149 58.572 61.2642 58.9077C61.1261 58.9919 61.0477 59.1552 61.0583 59.3444L61.0601 59.3693L61.174 60.5565L60.3631 60.6343L60.2492 59.447C60.2014 58.9475 60.4191 58.4688 60.8402 58.2121C61.4532 57.8384 62.1974 57.5052 63.0624 57.269Z" fill="black"/>
<path d="M80.0615 46.0601C75.2144 43.3718 73.137 43.1579 67.4346 47.2821C61.6812 45.8056 66.8236 42.0378 69.0638 40.9177C71.3041 39.7975 76.3447 39.3902 80.5706 41.5286C84.7966 43.6671 86.1203 49.4205 80.0615 46.0601Z" fill="#311E1C"/>
<path d="M64.6549 51.0048C67.3979 47.7912 72.5913 46.5183 73.915 45.6018C74.4243 45.3552 74.4242 41.6258 73.2022 40.6631C71.522 39.3393 65.565 41.936 62.9174 44.4308C60.2698 46.9256 57.6446 52.1177 56.4513 59.6035C55.8912 63.1166 55.4839 74.267 55.4839 78.2384C55.4839 82.2097 55.9421 87.3522 55.4839 91.8836C55.1712 94.9752 54.7207 100.589 54.7208 108.175C54.7208 109.907 59.5844 110.431 59.8625 109.041C60.2698 107.004 59.914 95.4985 60.3215 91.8836C60.7705 87.8994 61.4918 85.1119 60.9317 81.3951C60.3718 77.6783 58.6915 73.9615 59.3534 71.7722C60.0153 69.5828 59.7607 64.2368 59.8625 60.9273C59.9644 57.6178 61.8735 54.2635 64.6549 51.0048Z" fill="#311E1C"/>
<path d="M60.8815 93.5117C60.2298 90.416 58.9638 76.2515 58.7431 69.6326C58.8449 69.6665 59.7716 69.8973 60.016 69.9381C60.2604 69.9788 60.4572 69.9551 60.5251 69.9381C60.8136 71.2109 60.94 73.1099 61.8998 75.0296C62.6636 76.557 64.0383 78.0674 64.7002 78.7463C65.2772 81.0036 66.5127 86.2919 66.8386 89.3876C67.2459 93.2571 66.8386 105.375 65.9221 105.375C63.7946 105.375 62.2976 105.68 61.8998 104.407C61.1361 101.964 61.6962 97.3812 60.8815 93.5117Z" fill="#311E1C"/>
<path d="M82.5712 49.7757C79.5623 46.8871 74.7301 46.2626 74.2719 45.5498C73.7966 43.9205 73.7031 41.1825 75.7994 40.4583C78.5999 39.491 85.9824 43.4113 88.4263 49.7757C90.248 54.5198 91.4812 65.6611 91.4303 66.6794C91.3794 67.6977 89.6483 84.0924 89.3937 86.6381C89.1392 89.1838 89.241 91.0677 89.3937 96.4138C89.5465 101.76 89.5465 106.289 88.4263 106.597C86.3897 107.157 80.0254 106.342 79.1598 106.189C78.2943 106.037 78.8543 102.503 78.8543 100.538C78.8543 97.8394 80.6873 88.7256 81.6547 85.2125C82.3981 82.5127 86.0843 73.9094 86.3388 73.1966C86.5425 72.6263 86.8481 70.7187 86.9499 69.8871L86.9525 69.8879C87.0704 69.9216 87.1908 69.956 88.121 69.6325C89.292 69.2252 90.5649 67.8505 90.8704 66.5267C91.1759 65.2029 90.9213 63.8791 90.2085 62.6572C89.6382 61.6796 88.019 61.0449 87.5608 60.926C87.5608 59.8059 87.5098 58.4312 87.3571 57.6675C86.9718 55.7403 85.117 52.2196 82.5712 49.7757Z" fill="#311E1C"/>
</g>
<defs>
<filter id="filter0_d_280_44172" x="0.192535" y="0" width="151.926" height="234" filterUnits="userSpaceOnUse" color-interpolation-filters="sRGB">
<feFlood flood-opacity="0" result="BackgroundImageFix"/>
<feColorMatrix in="SourceAlpha" type="matrix" values="0 0 0 0 0 0 0 0 0 0 0 0 0 0 0 0 0 0 127 0" result="hardAlpha"/>
<feOffset dy="10"/>
<feGaussianBlur stdDeviation="25"/>
<feComposite in2="hardAlpha" operator="out"/>
<feColorMatrix type="matrix" values="0 0 0 0 0 0 0 0 0 0 0 0 0 0 0 0 0 0 0.3 0"/>
<feBlend mode="normal" in2="BackgroundImageFix" result="effect1_dropShadow_280_44172"/>
<feBlend mode="normal" in="SourceGraphic" in2="effect1_dropShadow_280_44172" result="shape"/>
</filter>
</defs>
</svg>
