<svg width="147" height="234" viewBox="0 0 147 234" fill="none" xmlns="http://www.w3.org/2000/svg">
<g filter="url(#filter0_d_280_43985)">
<path d="M79.7637 145.95C81.059 145.951 82.1112 146.991 82.1316 148.281L82.1319 148.32L82.1241 168.505C82.1236 169.813 81.0625 170.873 79.7541 170.873C78.4588 170.872 77.4067 169.832 77.3863 168.542L77.386 168.503L77.3938 148.318C77.3943 147.01 78.4553 145.95 79.7637 145.95Z" fill="#EDBC3D"/>
<path d="M67.1605 145.95C68.4558 145.951 69.5079 146.991 69.5283 148.281L69.5286 148.32L69.5208 168.505C69.5203 169.813 68.4593 170.873 67.1509 170.873C65.8556 170.872 64.8034 169.832 64.783 168.542L64.7827 168.503L64.7905 148.318C64.791 147.01 65.8521 145.95 67.1605 145.95Z" fill="#EDBC3D"/>
<path d="M72.7427 126.524H84.1142L83.099 165.092H77.6027L76.0594 161.017L72.7427 126.524Z" fill="#35383E"/>
<path d="M74.2588 126.524H62.8873L63.9027 165.092H69.3989L70.9421 161.017L74.2588 126.524Z" fill="#35383E"/>
<path d="M74.5739 159.162C75.0084 158.459 75.9857 158.628 76.4202 158.8L76.3116 159.213C76.1306 159.248 75.6709 159.318 75.4971 159.524C75.2799 159.783 75.4428 160.299 75.2799 160.403C75.117 160.507 74.6825 160.403 74.4653 160.403C74.2481 160.403 74.0309 160.042 74.5739 159.162Z" fill="black"/>
<path d="M93.8218 171.915C93.9375 171.631 93.9175 171.015 93.2044 170.731C92.4912 170.446 84.0754 171.915 84.0754 171.915C81.9089 171.739 76.0902 168.909 73.9479 170.209C73.2702 170.621 73.4999 171.924 73.7501 173.143C74.1504 173.55 78.2005 173.905 79.5136 173.6C79.5136 172.889 79.6159 172.432 79.6159 172.432C79.6159 172.432 80.4114 172.943 81.2701 173.143C83.0216 173.55 83.4049 174 88.8301 174C93.1812 173.593 93.4942 172.721 93.8218 171.915Z" fill="#383129"/>
<path fill-rule="evenodd" clip-rule="evenodd" d="M74.245 171.062C74.3836 171.151 74.5464 171.224 74.7525 171.288L74.7244 171.378C74.5105 171.312 74.3399 171.236 74.1935 171.141L74.245 171.062ZM92.9924 171.69C93.1689 171.557 93.3105 171.429 93.4063 171.316L93.4785 171.377C93.3778 171.496 93.2311 171.629 93.0494 171.766L92.9924 171.69ZM92.027 172.271C92.2018 172.186 92.3682 172.096 92.5238 172.003L92.5723 172.084C92.4144 172.178 92.2457 172.27 92.0685 172.356L92.027 172.271ZM91.5103 172.499C91.3371 172.569 91.1595 172.632 90.9783 172.69L91.007 172.78C91.1903 172.722 91.3701 172.657 91.5454 172.588L91.5103 172.499ZM89.8779 172.954C90.0641 172.924 90.2489 172.886 90.4318 172.842L90.454 172.934C90.2689 172.979 90.0818 173.017 89.8933 173.048L89.8779 172.954ZM89.3158 173.025C89.1281 173.041 88.94 173.05 88.7516 173.052L88.7525 173.147C88.9433 173.145 89.1339 173.136 89.3241 173.119L89.3158 173.025ZM87.618 173.036C87.8057 173.042 87.9949 173.046 88.1856 173.049L88.1843 173.143C87.9931 173.141 87.8033 173.136 87.6151 173.131L87.618 173.036ZM87.0505 173.014C86.8598 173.004 86.6708 172.994 86.4837 172.981L86.4775 173.076C86.6651 173.088 86.8547 173.099 87.046 173.108L87.0505 173.014ZM85.3519 172.886C85.5379 172.905 85.7264 172.923 85.9171 172.939L85.9091 173.034C85.7178 173.018 85.5288 173 85.3421 172.98L85.3519 172.886ZM84.7882 172.822C84.5976 172.798 84.4101 172.773 84.2257 172.746L84.212 172.84C84.3971 172.867 84.5853 172.892 84.7765 172.916L84.7882 172.822ZM83.1069 172.556C83.2885 172.592 83.4746 172.626 83.665 172.658L83.6492 172.752C83.458 172.719 83.2711 172.685 83.0887 172.649L83.1069 172.556ZM82.5516 172.44C82.3609 172.397 82.1769 172.352 82.0005 172.306L81.9767 172.398C82.1541 172.444 82.339 172.489 82.5308 172.532L82.5516 172.44ZM81.4532 172.154L81.4268 172.245L81.2876 172.205L80.8809 172.086L80.9076 171.995L81.0412 172.034L81.4532 172.154ZM80.3353 171.925L80.3623 171.834L79.9447 171.709L79.8177 171.671L79.7904 171.762L80.2621 171.903L80.3353 171.925ZM79.252 171.545L79.2594 171.64C79.0884 171.653 78.8941 171.666 78.691 171.677L78.6859 171.582C78.8377 171.574 78.9845 171.565 79.1202 171.555L79.252 171.545ZM78.1186 171.607C77.9256 171.613 77.7356 171.617 77.5513 171.619L77.5521 171.714C77.7372 171.712 77.928 171.708 78.1218 171.702L78.1186 171.607ZM76.4189 171.589C76.5912 171.602 76.7805 171.611 76.9844 171.615L76.9822 171.71C76.7767 171.705 76.5858 171.696 76.4118 171.683L76.4189 171.589ZM75.8428 171.615L75.858 171.521L75.6514 171.487C75.5212 171.464 75.4055 171.443 75.2999 171.422L75.2813 171.515L75.4055 171.539C75.5344 171.563 75.6781 171.588 75.8428 171.615Z" fill="#67513B"/>
<path d="M81.1751 158.601C80.7112 158.601 78.0034 160.018 76.6007 158.917C76.4471 158.796 76.1351 158.895 76.1349 159.09C76.1324 160.975 76.1044 164.256 75.8209 165.557C75.5208 166.934 75.2673 166.737 74.9671 168.017C74.7593 168.903 74.0861 170.969 74.9671 170.969H78.9852C79.9359 170.969 81.2199 172.07 84.3856 172.379C89.6407 172.892 90.9249 172.189 91.9741 171.857C94.3616 171.103 93.15 169.377 91.9741 168.825C90.2516 168.017 87.7829 167.41 86.5272 166.74C85.5493 166.219 85.2136 166.057 84.7115 165.508C83.8837 164.604 83.1565 159.846 83.0444 158.605C83.0366 158.519 82.9154 158.474 82.8417 158.52C82.352 158.821 81.6349 158.601 81.1751 158.601Z" fill="#2D2B30"/>
<path d="M91.2705 170.102C91.4459 170.049 91.6309 170.149 91.6837 170.324C91.7365 170.5 91.6372 170.685 91.4618 170.737C90.7706 170.946 90.3037 171.055 89.6938 171.121C88.8634 171.21 87.9858 171.169 87.0211 170.967C86.8418 170.93 86.7268 170.754 86.7643 170.575C86.8017 170.395 86.9775 170.28 87.1568 170.318C88.053 170.505 88.8609 170.543 89.6231 170.461C90.1835 170.401 90.6154 170.3 91.2705 170.102Z" fill="#59555F"/>
<path d="M85.264 168.504C84.3329 167.651 80.9373 165.745 81.175 158.601C80.7715 158.601 79.7962 159.122 78.3222 159.217C76.7742 159.171 76.7997 159.031 76.3897 158.8C76.3786 158.793 76.3658 158.784 76.3553 158.777C75.7124 158.346 76.0015 165.235 75.5401 166.456C75.1677 167.441 74.4694 168.92 74.4694 170.72C74.7952 171.289 78.0075 171.005 79.0318 171.005C79.5108 168.456 83.267 170.399 84.0753 170.162C84.7848 169.955 85.264 169.546 85.264 168.504Z" fill="#1D1D20"/>
<path d="M84.1227 165.434C83.0577 164.6 82.6488 160.544 82.6012 158.601C82.7914 158.554 82.839 158.421 82.9816 158.469C83.1242 158.516 83.1242 159.085 83.1718 159.558C83.2238 160.078 83.5997 161.69 83.7899 162.78C83.9801 163.87 84.1703 164.533 84.8835 165.434C85.454 166.154 87.6887 166.893 88.4019 167.509C88.3227 167.493 88.1167 167.386 87.9265 167.424C87.6887 167.471 87.7363 167.518 87.451 167.518C87.1657 167.518 85.454 166.476 84.1227 165.434Z" fill="#1D1D20"/>
<path d="M82.7644 158.755C82.8886 158.714 83.0227 158.781 83.0639 158.905C83.1035 159.024 83.0434 159.153 82.929 159.199L82.9138 159.205L81.646 159.626L82.904 159.984C83.1052 160.041 83.1369 160.31 82.9622 160.415L82.9471 160.423L81.9016 160.959L83.2627 161.211C83.4912 161.253 83.5262 161.562 83.3214 161.658L83.3063 161.664L81.8817 162.226L83.4815 162.734C83.6808 162.798 83.7043 163.067 83.5265 163.166L83.5112 163.174L82.2555 163.77L83.8182 163.957C84.0252 163.982 84.0995 164.24 83.9443 164.372L83.9319 164.382L82.791 165.234L84.5508 165.234C84.7585 165.234 84.8633 165.481 84.7264 165.63L84.7156 165.642L83.6014 166.721L85.8317 166.235C86.0391 166.19 86.1941 166.418 86.0825 166.593L86.0743 166.605L85.2944 167.687L86.8717 166.917C86.9844 166.862 87.1193 166.904 87.1809 167.011L87.1885 167.026C87.2436 167.138 87.2011 167.273 87.094 167.335L87.0797 167.343L84.6548 168.527C84.4378 168.633 84.2233 168.386 84.3504 168.188L84.3586 168.176L85.3284 166.829L82.8896 167.361C82.6615 167.411 82.5096 167.138 82.6638 166.97L82.6743 166.96L83.9657 165.708L82.0783 165.708C81.8557 165.708 81.7584 165.431 81.9245 165.291L81.9365 165.282L83.1736 164.357L81.3845 164.143C81.154 164.115 81.0989 163.81 81.2969 163.701L81.3111 163.694L82.7651 163.004L81.1032 162.475C80.8963 162.409 80.8814 162.126 81.0722 162.036L81.0881 162.029L82.3641 161.526L81.1318 161.298C80.9149 161.258 80.868 160.972 81.0526 160.862L81.0669 160.854L82.1961 160.275L80.7772 159.871C80.5586 159.809 80.5466 159.508 80.7512 159.425L80.7674 159.419L82.7644 158.755Z" fill="black"/>
<path d="M72.4277 159.162C71.9932 158.459 71.0158 158.628 70.5813 158.8L70.6899 159.213C70.8709 159.248 71.3307 159.318 71.5045 159.524C71.7217 159.783 71.5588 160.299 71.7217 160.403C71.8846 160.507 72.3191 160.403 72.5362 160.403C72.7534 160.403 72.9706 160.042 72.4277 159.162Z" fill="black"/>
<path d="M53.1799 171.915C53.0642 171.631 53.0841 171.015 53.7973 170.731C54.5105 170.446 62.9263 171.915 62.9263 171.915C65.0928 171.739 70.9115 168.909 73.0538 170.209C73.7315 170.621 73.5018 171.924 73.2516 173.143C72.8513 173.55 68.8012 173.905 67.4881 173.6C67.4881 172.889 67.3858 172.432 67.3858 172.432C67.3858 172.432 66.5903 172.943 65.7316 173.143C63.9801 173.55 63.5968 174 58.1716 174C53.8205 173.593 53.5075 172.721 53.1799 171.915Z" fill="#383129"/>
<path fill-rule="evenodd" clip-rule="evenodd" d="M72.8081 171.141C72.6617 171.236 72.4912 171.312 72.2773 171.378L72.2491 171.288C72.4553 171.223 72.618 171.151 72.7566 171.061L72.8081 171.141ZM53.9524 171.766C53.7707 171.629 53.624 171.496 53.5233 171.377L53.5955 171.316C53.6913 171.429 53.8329 171.557 54.0094 171.69L53.9524 171.766ZM54.9333 172.356C54.7561 172.27 54.5874 172.178 54.4295 172.084L54.478 172.003C54.6336 172.096 54.8 172.186 54.9749 172.271L54.9333 172.356ZM55.4564 172.588C55.6317 172.657 55.8115 172.722 55.9948 172.78L56.0235 172.69C55.8423 172.632 55.6647 172.569 55.4915 172.5L55.4564 172.588ZM57.1084 173.048C56.9198 173.017 56.7328 172.979 56.5476 172.934L56.5698 172.842C56.7527 172.886 56.9375 172.924 57.1237 172.954L57.1084 173.048ZM57.6777 173.119C57.8679 173.136 58.0585 173.145 58.2493 173.147L58.2502 173.052C58.0618 173.05 57.8737 173.041 57.686 173.025L57.6777 173.119ZM59.3866 173.131C59.1984 173.136 59.0087 173.141 58.8175 173.143L58.8161 173.049C59.0068 173.046 59.196 173.042 59.3837 173.036L59.3866 173.131ZM59.9556 173.108C60.147 173.099 60.3365 173.088 60.5241 173.076L60.5179 172.981C60.3308 172.994 60.1419 173.004 59.9511 173.014L59.9556 173.108ZM61.6589 172.98C61.4722 173 61.2831 173.018 61.0918 173.034L61.0838 172.939C61.2746 172.923 61.463 172.905 61.6491 172.886L61.6589 172.98ZM62.2252 172.916C62.4164 172.892 62.6047 172.867 62.7897 172.84L62.7761 172.746C62.5917 172.773 62.4041 172.799 62.2136 172.822L62.2252 172.916ZM63.9128 172.649C63.7305 172.685 63.5435 172.719 63.3523 172.752L63.3365 172.658C63.5269 172.626 63.7131 172.592 63.8947 172.556L63.9128 172.649ZM64.4712 172.532C64.663 172.489 64.8479 172.444 65.0253 172.398L65.0015 172.306C64.8251 172.352 64.6412 172.397 64.4504 172.44L64.4712 172.532ZM65.5749 172.245L65.5485 172.154L65.6876 172.114L66.0941 171.995L66.1208 172.086L65.8515 172.164L65.5749 172.245ZM66.6394 171.834L66.6663 171.925L67.0183 171.82L67.2113 171.762L67.1839 171.671L66.8547 171.77L66.6394 171.834ZM67.7423 171.64L67.7497 171.545C67.8774 171.555 68.0182 171.565 68.166 171.574L68.3159 171.582L68.3108 171.677C68.1584 171.669 68.011 171.66 67.8747 171.65L67.7423 171.64ZM68.88 171.702C69.0737 171.708 69.2645 171.712 69.4496 171.714L69.4504 171.619C69.2661 171.617 69.0761 171.613 68.8831 171.607L68.88 171.702ZM70.5898 171.683C70.4158 171.696 70.2249 171.705 70.0194 171.71L70.0172 171.615C70.2212 171.611 70.4104 171.602 70.5827 171.589L70.5898 171.683ZM71.1435 171.521L71.1587 171.615L71.3167 171.589C71.4681 171.563 71.6005 171.539 71.7203 171.515L71.7016 171.422C71.5433 171.454 71.3621 171.486 71.1435 171.521Z" fill="#67513B"/>
<path d="M65.8267 158.601C66.2905 158.601 68.9984 160.018 70.4011 158.917C70.5547 158.796 70.8666 158.895 70.8669 159.09C70.8694 160.975 70.8973 164.256 71.1809 165.557C71.481 166.934 71.7345 166.737 72.0347 168.017C72.2425 168.903 72.9157 170.969 72.0347 170.969H68.0165C67.0659 170.969 65.7819 172.07 62.6161 172.379C57.361 172.892 56.0769 172.189 55.0276 171.857C52.6402 171.103 53.8517 169.377 55.0276 168.825C56.7501 168.017 59.2189 167.41 60.4746 166.74C61.4524 166.219 61.7882 166.057 62.2902 165.508C63.1181 164.604 63.8453 159.846 63.9574 158.605C63.9652 158.519 64.0864 158.474 64.1601 158.52C64.6497 158.821 65.3669 158.601 65.8267 158.601Z" fill="#2D2B30"/>
<path d="M55.3179 170.324C55.3707 170.149 55.5557 170.049 55.7311 170.102L55.8682 170.143C56.4485 170.314 56.8581 170.405 57.3785 170.461C58.1407 170.543 58.9486 170.505 59.8448 170.318C60.0241 170.28 60.1999 170.395 60.2373 170.575C60.2748 170.754 60.1598 170.93 59.9805 170.967C59.0158 171.169 58.1382 171.21 57.3078 171.121C56.6978 171.055 56.2309 170.946 55.5398 170.737C55.3644 170.685 55.2651 170.5 55.3179 170.324Z" fill="#59555F"/>
<path d="M61.7376 168.504C62.6687 167.651 66.0644 165.745 65.8266 158.601C66.2301 158.601 67.2055 159.122 68.6794 159.217C70.2275 159.171 70.202 159.031 70.6119 158.8C70.623 158.793 70.6358 158.784 70.6463 158.777C71.2893 158.346 71.0002 165.235 71.4616 166.456C71.834 167.441 72.5323 168.92 72.5323 170.72C72.2064 171.289 68.9941 171.005 67.9699 171.005C67.4908 168.456 63.7346 170.399 62.9263 170.162C62.2168 169.955 61.7376 169.546 61.7376 168.504Z" fill="#1D1D20"/>
<path d="M62.8786 165.434C63.9437 164.6 64.3526 160.544 64.4001 158.601C64.2099 158.554 64.1624 158.421 64.0197 158.469C63.8771 158.516 63.8771 159.085 63.8296 159.558C63.7775 160.078 63.4016 161.69 63.2114 162.78C63.0212 163.87 62.831 164.533 62.1179 165.434C61.5473 166.154 59.3126 166.893 58.5994 167.509C58.6787 167.493 58.8847 167.386 59.0748 167.424C59.3126 167.471 59.265 167.518 59.5504 167.518C59.8356 167.518 61.5473 166.476 62.8786 165.434Z" fill="#1D1D20"/>
<path d="M63.9378 158.905C63.9773 158.786 64.1021 158.72 64.2217 158.751L64.2373 158.755L66.2343 159.419C66.45 159.49 66.4489 159.792 66.2409 159.866L66.2245 159.871L64.8055 160.275L65.9348 160.854C66.131 160.955 66.0942 161.242 65.8859 161.294L65.8699 161.298L64.6376 161.526L65.9136 162.029C66.1155 162.109 66.1113 162.392 65.9149 162.469L65.8985 162.475L64.2365 163.004L65.6906 163.694C65.9004 163.793 65.8553 164.1 65.633 164.141L65.6172 164.143L63.828 164.357L65.0652 165.282C65.2436 165.415 65.1555 165.695 64.9387 165.708L64.9233 165.708L63.0359 165.708L64.3274 166.96C64.4951 167.122 64.3515 167.4 64.1269 167.364L64.1121 167.361L61.6732 166.829L62.6431 168.176C62.7842 168.372 62.5769 168.625 62.3602 168.533L62.3469 168.527L59.922 167.343C59.8045 167.285 59.7557 167.143 59.8132 167.026C59.8682 166.913 60.0008 166.864 60.1152 166.91L60.13 166.917L61.7072 167.687L60.9274 166.605C60.8033 166.433 60.9508 166.2 61.1557 166.232L61.17 166.235L63.4002 166.721L62.2861 165.642C62.1369 165.497 62.2331 165.247 62.4355 165.235L62.4509 165.234L64.2106 165.234L63.0698 164.382C62.9028 164.257 62.9677 163.996 63.1679 163.959L63.1835 163.957L64.746 163.77L63.4905 163.174C63.3015 163.085 63.3144 162.815 63.504 162.74L63.5202 162.734L65.1198 162.226L63.6954 161.664C63.4791 161.579 63.5037 161.269 63.723 161.214L63.739 161.211L65.1 160.959L64.0545 160.423C63.8684 160.327 63.8896 160.058 64.0813 159.989L64.0977 159.984L65.3557 159.626L64.0879 159.205C63.9689 159.165 63.9022 159.041 63.9332 158.921L63.9378 158.905Z" fill="black"/>
<path d="M76.0596 162.344H83.451V165.092H76.4143L76.0596 162.344Z" fill="#1D1F23"/>
<path d="M70.942 162.344H63.5505V165.092H70.5873L70.942 162.344Z" fill="#1D1F23"/>
<path d="M55.0697 84.011C55.5516 77.9118 57.3913 68.5173 57.3913 68.5173H89.9422C89.9422 68.5173 98.4867 92.5081 93.8749 99.1256C89.2631 105.743 64.5933 101.684 55.0697 101.684C47.7102 101.684 54.526 90.8914 55.0697 84.011Z" fill="#17100F"/>
<path d="M58.2188 96.1783C59.1663 94.4895 61.3034 93.8885 62.9922 94.8359C64.681 95.7834 65.282 97.9205 64.3346 99.6093C62.5995 102.702 60.7838 108.443 59.5787 114.477L59.5207 114.77C58.9854 117.501 58.6181 120.092 58.4654 122.212L58.4519 122.406C58.3859 123.397 58.3701 124.255 58.4033 124.945L58.4099 125.068C58.4264 125.35 58.4512 125.592 58.4822 125.788L58.491 125.842C58.5128 125.97 58.5328 126.052 58.5423 126.078C59.2008 127.899 58.2585 129.909 56.4375 130.567C54.6165 131.226 52.6064 130.284 51.9478 128.463C50.9258 125.637 51.3356 119.946 52.7021 113.104C54.0386 106.411 56.0555 100.034 58.2188 96.1783Z" fill="#EBBAAA"/>
<path d="M84.0097 94.8359C85.6986 93.8885 87.8357 94.4895 88.7831 96.1783C90.9465 100.034 92.9634 106.411 94.3 113.104C95.6665 119.946 96.0763 125.636 95.0542 128.463C94.3957 130.284 92.3856 131.226 90.5646 130.567C88.7618 129.915 87.8202 127.939 88.4405 126.132L88.4598 126.078C88.4705 126.048 88.4948 125.947 88.5199 125.788C88.5553 125.564 88.5826 125.28 88.5987 124.945C88.6341 124.211 88.6139 123.285 88.5367 122.212C88.3785 120.016 87.9901 117.315 87.4233 114.477C86.2182 108.443 84.4025 102.702 82.6674 99.6093C81.72 97.9205 82.3209 95.7834 84.0097 94.8359Z" fill="#EBBAAA"/>
<path d="M73.5008 106.328C78.7344 106.328 82.9771 102.085 82.9771 96.8515C82.9771 91.6179 78.7344 87.3752 73.5008 87.3752C68.2673 87.3752 64.0246 91.6179 64.0246 96.8515C64.0246 102.085 68.2673 106.328 73.5008 106.328Z" fill="#C4C4C4"/>
<path d="M91.885 92.5871C89.0595 86.9661 76.6282 86.3328 76.6282 86.3328V125.754H95.5807L97.0022 119.322C97.0022 119.322 94.8854 98.5559 91.885 92.5871Z" fill="#E2C9BD"/>
<path d="M87.8101 111.411L93.4597 108.14L94.7483 110.816L87.8101 111.411Z" fill="#CCA999"/>
<path d="M89.6505 111.737L95.0348 112.37L94.1793 114.043L89.6505 112.972V111.737Z" fill="#CCA999"/>
<path d="M55.1172 92.5871C57.9427 86.9661 70.3739 86.3328 70.3739 86.3328V125.754H51.4214L50 119.322C50 119.322 52.1168 98.5559 55.1172 92.5871Z" fill="#D8B9AA"/>
<path d="M59.135 111.411L53.4854 108.14L52.1969 110.816L59.135 111.411Z" fill="#CCA999"/>
<path d="M57.2948 111.737L51.9105 112.37L52.7661 114.043L57.2948 112.972V111.737Z" fill="#CCA999"/>
<path d="M56.4437 130.018L60.2814 85.717L69.5207 85.2905L81.8398 106.991L72.0795 134.756L56.4437 130.018Z" fill="#E2C9BD"/>
<path d="M58.9077 103.781L61.4187 82.9807L68.1944 85.9657L70.0897 102.17L71.1321 110.983L58.9077 103.781Z" fill="#E9D5CB"/>
<path d="M76.4038 112.803L76.8529 112.954L70.409 132.096L69.96 131.945L76.4038 112.803Z" fill="#CCA999"/>
<path fill-rule="evenodd" clip-rule="evenodd" d="M74.8789 113.084L73.6123 116.656L72.7192 116.34L73.9857 112.767L74.8789 113.084ZM71.0789 123.802L72.3455 120.229L71.4524 119.912L70.1858 123.485L71.0789 123.802ZM68.5459 130.947L69.8125 127.374L68.9194 127.058L67.6528 130.63L68.5459 130.947Z" fill="black"/>
<path d="M72.7903 91.2725L70.0422 82.27L64.2617 85.5393V97.1951L72.7903 91.2725Z" fill="#E2C9BD"/>
<path d="M90.5581 130.018L86.7204 85.7168L77.2915 83.502L69.7105 92.0306L74.9223 134.756L90.5581 130.018Z" fill="#F4E4DC"/>
<path d="M90.5581 130.018L80.087 131.12L74.2117 89.614L69.7105 92.0305L74.9223 134.756L90.5581 130.018Z" fill="#E9D5CB"/>
<path d="M69.7105 92.0306L76.8177 82.0806L81.082 85.3973L76.8177 97.7164L69.7105 92.0306Z" fill="#F4E4DC"/>
<path d="M69.7105 92.0306L76.4386 95.6789L81.082 85.3972L76.8177 97.7163L69.7105 92.0306Z" fill="#E2C9BD"/>
<path d="M78.3341 114.584L88.758 113.068L91.4113 126.524L81.3665 129.367L78.3341 114.584Z" fill="#E9D5CB"/>
<path d="M80.9874 119.985L79.1869 117.143L80.7979 120.744L89.6108 118.564L80.9874 119.985Z" fill="#CCA999"/>
<path d="M86.9453 115.346L87.064 116.286L82.1837 116.902L82.0651 115.962L86.9453 115.346Z" fill="black"/>
<path d="M78.3341 114.584L81.7456 128.609L91.4113 126.524L80.6084 129.936L78.3341 114.584Z" fill="#CCAA99"/>
<path d="M68.6682 114.584L58.2443 113.068L55.5909 126.524L65.6358 129.367L68.6682 114.584Z" fill="#E9D5CB"/>
<path d="M66.0148 119.985L67.8153 117.143L66.2043 120.744L57.3914 118.564L66.0148 119.985Z" fill="#CCA999"/>
<path d="M60.0567 115.346L64.9369 115.962L64.8183 116.902L59.938 116.286L60.0567 115.346Z" fill="black"/>
<path d="M68.6682 114.584L65.2567 128.609L55.5909 126.524L66.3939 129.936L68.6682 114.584Z" fill="#CCAA99"/>
<rect x="70.1848" y="78.657" width="6.63338" height="10.9925" rx="3.31669" fill="#EBBAAA"/>
<path d="M86.2943 72.4025C88.3878 72.4025 90.0848 70.7054 90.0848 68.612C90.0848 66.5186 88.3878 64.8215 86.2943 64.8215C84.2009 64.8215 82.5038 66.5186 82.5038 68.612C82.5038 70.7054 84.2009 72.4025 86.2943 72.4025Z" fill="#E4C1C1"/>
<path d="M60.7084 72.4025C58.615 72.4025 56.9179 70.7054 56.9179 68.612C56.9179 66.5186 58.615 64.8215 60.7084 64.8215C62.8019 64.8215 64.4989 66.5186 64.4989 68.612C64.4989 70.7054 62.8019 72.4025 60.7084 72.4025Z" fill="#E4C1C1"/>
<path d="M60.2347 60.3678C60.2347 53.0408 66.1746 47.1011 73.5015 47.1011C80.8285 47.1011 86.7682 53.0408 86.7682 60.3678V66.207C86.7682 67.7399 86.5555 69.2654 86.1361 70.7398L84.3976 76.8507C83.0247 81.6769 78.6162 85.0061 73.5986 85.0061C68.6689 85.0061 64.3158 81.7903 62.8671 77.0783L60.9664 70.8968C60.4814 69.3194 60.2347 67.6785 60.2347 66.0282V60.3678Z" fill="#F4D5CC"/>
<path fill-rule="evenodd" clip-rule="evenodd" d="M77.2812 73.824C77.2882 73.9178 77.2917 74.0126 77.2917 74.1083V76.0035C77.2917 78.0969 75.5946 79.794 73.5012 79.794C71.4078 79.794 69.7107 78.0969 69.7107 76.0035V74.1083C69.7107 74.0126 69.7142 73.9178 69.7212 73.824H77.2812Z" fill="#393939"/>
<mask id="mask0_280_43985" style="mask-type:luminance" maskUnits="userSpaceOnUse" x="69" y="70" width="9" height="10">
<rect width="7.581" height="9.47625" rx="3.7905" transform="matrix(-1 0 0 1 77.2912 70.3179)" fill="white"/>
</mask>
<g mask="url(#mask0_280_43985)">
<path d="M73.5007 82.6371C72.1924 82.6371 71.1317 81.5764 71.1317 80.268C71.1317 78.9596 72.1924 77.8989 73.5007 77.8989C74.8091 77.8989 75.8698 78.9596 75.8698 80.268C75.8698 81.5764 74.8091 82.6371 73.5007 82.6371Z" fill="#FF6C6C"/>
</g>
<rect width="7.581" height="1.89525" transform="matrix(-1 0 0 1 77.292 73.824)" fill="white"/>
<path d="M65.7308 73.8239C67.3009 73.8239 68.5737 72.5511 68.5737 70.9811C68.5737 69.411 67.3009 68.1382 65.7308 68.1382C64.1607 68.1382 62.8879 69.411 62.8879 70.9811C62.8879 72.5511 64.1607 73.8239 65.7308 73.8239Z" fill="#F2CACA"/>
<path d="M78.2418 63.7792C78.2671 63.5259 78.4876 63.3392 78.7393 63.3533L78.7604 63.3549L81.6033 63.6393C81.8636 63.6654 82.0536 63.8976 82.0276 64.1579C82.0022 64.4113 81.7817 64.598 81.53 64.5839L81.5089 64.5822L78.6661 64.2978C78.4057 64.2718 78.2157 64.0396 78.2418 63.7792Z" fill="black"/>
<path d="M68.2425 63.3549C68.5028 63.3289 68.735 63.5188 68.7611 63.7792C68.7864 64.0326 68.6073 64.2592 68.3577 64.2953L68.3368 64.2978L65.4939 64.5822C65.2335 64.6083 65.0013 64.4183 64.9753 64.1579C64.9499 63.9046 65.1291 63.6779 65.3786 63.6419L65.3996 63.6393L68.2425 63.3549Z" fill="black"/>
<path d="M79.187 63.021C79.8053 63.021 80.3084 63.5146 80.3237 64.1292L80.3241 64.1581V67.001C80.3241 67.6291 79.815 68.1382 79.187 68.1382C78.5686 68.1382 78.0655 67.6446 78.0502 67.0299L78.0498 67.001V64.1581C78.0498 63.5301 78.5589 63.021 79.187 63.021Z" fill="black"/>
<path d="M67.8159 63.021C68.4343 63.021 68.9374 63.5146 68.9527 64.1292L68.9531 64.1581V67.001C68.9531 67.6291 68.444 68.1382 67.8159 68.1382C67.1976 68.1382 66.6945 67.6446 66.6791 67.0299L66.6788 67.001V64.1581C66.6788 63.5301 67.1879 63.021 67.8159 63.021Z" fill="black"/>
<path d="M72.5664 67.1753L74.1623 67.3954L74.1499 67.4817C74.1148 67.7158 74.0733 67.9001 73.9446 68.4169L73.8441 68.821C73.8293 68.8817 73.8162 68.9365 73.8035 68.9909C73.6538 69.6305 73.6103 70.0419 73.6667 70.2759L73.6735 70.3023C73.6842 70.3406 73.6921 70.3523 73.6998 70.3578C73.7111 70.3659 73.7325 70.3759 73.7699 70.3859C73.8256 70.4009 73.8991 70.4104 73.9913 70.4122L74.0227 70.4125V72.0235C73.0028 72.0235 72.3102 71.5233 72.1005 70.6534C71.9697 70.1106 72.0272 69.5266 72.2211 68.6831L72.261 68.5137C72.276 68.4512 72.2922 68.3852 72.311 68.3097L72.4383 67.797C72.5136 67.4882 72.5404 67.3575 72.5626 67.2022L72.5664 67.1753Z" fill="#EBBAAA"/>
<path d="M81.2718 73.8239C82.8418 73.8239 84.1146 72.5511 84.1146 70.9811C84.1146 69.411 82.8418 68.1382 81.2718 68.1382C79.7017 68.1382 78.4289 69.411 78.4289 70.9811C78.4289 72.5511 79.7017 73.8239 81.2718 73.8239Z" fill="#F2CACA"/>
<path d="M76.1068 59.4835C77.4524 58.8645 79.4614 58.7082 80.8959 58.9678C81.3596 59.0517 81.7829 59.2109 82.1628 59.4233C82.367 59.5374 82.5466 59.6603 82.7011 59.7845L82.7475 59.8225C82.8211 59.8837 82.8759 59.9347 82.9116 59.9715C83.1305 60.1967 83.1253 60.5566 82.9001 60.7755C82.6808 60.9886 82.3338 60.9893 82.1137 60.7813L82.0844 60.7529L82.0789 60.7479C82.0546 60.7256 82.0245 60.6996 81.9887 60.6708C81.8818 60.5849 81.7543 60.4977 81.6078 60.4158C81.333 60.2622 81.0272 60.1472 80.6934 60.0868C79.4728 59.8659 77.696 60.0041 76.582 60.5166C76.2968 60.6478 75.9591 60.5229 75.8279 60.2377C75.6966 59.9524 75.8215 59.6147 76.1068 59.4835Z" fill="#62360D"/>
<path d="M66.1072 58.9678C67.5417 58.7082 69.5507 58.8645 70.8963 59.4835C71.1815 59.6147 71.3064 59.9524 71.1752 60.2377C71.0439 60.523 70.7063 60.6478 70.421 60.5166C69.307 60.0041 67.5303 59.8659 66.3097 60.0868C65.9758 60.1472 65.67 60.2622 65.3952 60.4158C65.2487 60.4977 65.1212 60.5849 65.0144 60.6708C64.9858 60.6938 64.9607 60.7151 64.9394 60.7341L64.9069 60.764C64.6881 60.9892 64.3281 60.9943 64.1029 60.7755C63.8777 60.5566 63.8726 60.1967 64.0914 59.9715L64.1151 59.9478C64.1585 59.9054 64.2209 59.8497 64.3019 59.7845C64.4565 59.6603 64.6361 59.5374 64.8403 59.4233C65.2202 59.2109 65.6434 59.0517 66.1072 58.9678Z" fill="#62360D"/>
<path fill-rule="evenodd" clip-rule="evenodd" d="M65.4195 55.5953C67.2002 53.4997 70.1001 52.2946 72.0881 51.4684C72.7605 51.189 73.3286 50.9529 73.7137 50.7404C74.0073 50.9153 74.5453 51.0983 75.2235 51.329C76.8937 51.8972 79.4138 52.7544 81.2244 54.4926C83.1659 56.3564 86.7679 61.689 86.7679 64.8691C91.8377 65.6272 90.6058 73.2082 85.536 72.3079C85.473 72.8221 85.2782 73.7241 85.0614 74.7272C84.952 75.2339 84.8369 75.7665 84.7305 76.2879C83.8445 80.6289 82.1344 85.0841 80.5249 89.2772C77.6767 96.6977 75.1434 103.298 78.0497 106.991C80.1343 109.64 84.0302 109.462 86.6731 107.37C88.6742 105.786 88.4189 104.255 88.0162 101.841C87.8324 100.739 87.6179 99.4531 87.5734 97.8938C87.4425 93.3132 88.1861 88.8385 88.9272 84.3794C89.7161 79.6319 90.5021 74.9021 90.2267 70.0811C89.8706 63.8473 88.3684 58.9074 86.6731 54.4926C84.3988 48.5699 77.5286 44.9217 74.9226 45.8219C74.4188 45.9959 74.0509 46.2949 73.79 46.6688C73.6595 46.3933 73.499 46.1643 73.3053 46.0109C71.7552 44.7841 66.2592 47.1906 63.8165 49.5027C61.3739 51.8148 58.5728 56.6266 57.4718 63.5642C56.9582 66.7999 56.9583 77.0266 56.9583 80.7654V80.8343C56.9583 82.0069 57.0012 83.2896 57.046 84.629C57.1419 87.494 57.2464 90.6185 56.9583 93.4802C56.6699 96.3455 56.2542 101.548 56.2543 108.579C56.2544 110.184 60.7415 110.67 60.9981 109.381C61.1866 108.434 61.1979 105.278 61.2098 101.945C61.2217 98.6345 61.2342 95.1495 61.4215 93.4802C61.4726 93.0249 61.5275 92.5865 61.5835 92.1612C61.7385 93.5889 61.8779 94.673 61.9874 95.193C62.3677 96.9991 62.4261 98.9721 62.4795 100.777C62.5326 102.571 62.5808 104.199 62.935 105.333C63.2416 106.313 64.2495 106.287 65.711 106.249C66.0145 106.241 66.3377 106.233 66.6782 106.233C67.531 106.233 67.9101 94.9561 67.531 91.3551C67.2278 88.4743 66.078 83.7426 65.541 81.642C63.3204 79.3644 62.1021 75.3694 61.4188 72.3552C61.275 72.3912 61.0821 72.3861 60.8811 72.3607C60.9691 70.9528 60.97 69.2827 60.9708 67.7078C60.9713 66.658 60.9718 65.6504 60.9981 64.791C61.092 61.724 62.8534 58.6154 65.4195 55.5953Z" fill="#311E1C"/>
<path fill-rule="evenodd" clip-rule="evenodd" d="M73.1317 50.3421C61.0246 50.7276 57.285 65.9708 57.285 65.9708C55.2783 65.9708 54.4763 63.5344 54.5538 60.3843L54.4574 60.2875L54.5671 60.0058C54.5815 59.6928 54.6041 59.3735 54.6347 59.0497L54.0961 58.5109L54.7856 57.8213C54.8038 57.7001 54.823 57.5787 54.8432 57.457L53.8244 56.4378L54.9824 55.2797L54.3432 54.1258L55.3726 53.0965L55.0872 51.5887L56.4246 50.803L56.1946 49.9296L57.2883 48.8358L56.6676 48.2151L58.768 47.3561L58.5333 46.3495L59.7974 46.3268L59.82 45.0627L61.6631 44.4611L61.8144 43.0683L63.2715 42.8527L63.8505 42.2737L65.0456 42.182L64.7512 41.373L67.0173 41.4517L67.4492 40.4681L69.7269 40.8801L70.2621 40L72.7935 41.3418C72.9692 41.3372 73.1458 41.3343 73.3233 41.3331L73.5012 41.3325C73.7384 41.3325 73.974 41.3356 74.208 41.3418L76.7393 40L77.2746 40.8801L79.5523 40.4681L79.9842 41.4517L82.2502 41.373L81.9559 42.182L83.1509 42.2737L83.7299 42.8527L85.187 43.0683L85.3383 44.4611L87.1815 45.0627L87.2041 46.3268L88.4682 46.3495L88.2334 47.3561L90.3338 48.2151L89.7131 48.8358L90.8069 49.9296L90.5768 50.803L91.9142 51.5887L91.6289 53.0965L92.6583 54.1258L92.019 55.2797L93.1771 56.4378L92.159 57.4561C92.1793 57.5785 92.1986 57.7006 92.2169 57.8224L92.9053 58.5109L92.3675 59.0489C92.3983 59.3739 92.421 59.6943 92.4353 60.0086L92.544 60.2875L92.4485 60.3834C92.5262 63.5339 91.7242 65.9708 89.7173 65.9708L89.6987 65.8981C89.3983 64.7513 85.4058 50.4148 73.5012 50.335L73.1317 50.3421Z" fill="#8A8080"/>
</g>
<defs>
<filter id="filter0_d_280_43985" x="0" y="0" width="147.002" height="234" filterUnits="userSpaceOnUse" color-interpolation-filters="sRGB">
<feFlood flood-opacity="0" result="BackgroundImageFix"/>
<feColorMatrix in="SourceAlpha" type="matrix" values="0 0 0 0 0 0 0 0 0 0 0 0 0 0 0 0 0 0 127 0" result="hardAlpha"/>
<feOffset dy="10"/>
<feGaussianBlur stdDeviation="25"/>
<feComposite in2="hardAlpha" operator="out"/>
<feColorMatrix type="matrix" values="0 0 0 0 0 0 0 0 0 0 0 0 0 0 0 0 0 0 0.3 0"/>
<feBlend mode="normal" in2="BackgroundImageFix" result="effect1_dropShadow_280_43985"/>
<feBlend mode="normal" in="SourceGraphic" in2="effect1_dropShadow_280_43985" result="shape"/>
</filter>
</defs>
</svg>
