<svg width="148" height="234" viewBox="0 0 148 234" fill="none" xmlns="http://www.w3.org/2000/svg">
<g filter="url(#filter0_d_280_44598)">
<path d="M77.9482 146.554L78.0612 169.156C78.0695 170.813 79.4198 172.15 81.0772 172.142C82.7347 172.134 84.0716 170.783 84.0633 169.126L83.9503 146.524C83.942 144.866 82.5917 143.53 80.9342 143.538C79.2768 143.546 77.9399 144.897 77.9482 146.554Z" fill="#EBBAAA"/>
<path d="M64.2556 146.539V170.36C64.2556 172.018 65.5993 173.361 67.2567 173.361C68.9142 173.361 70.2578 172.018 70.2578 170.36V146.539C70.2578 144.881 68.9142 143.538 67.2567 143.538C65.5993 143.538 64.2556 144.881 64.2556 146.539Z" fill="#EBBAAA"/>
<path d="M74.1968 133.503C80.1532 133.503 84.9819 131.298 84.9819 128.579C84.9819 125.86 80.1532 123.656 74.1968 123.656C68.2402 123.656 63.4116 125.86 63.4116 128.579C63.4116 131.298 68.2402 133.503 74.1968 133.503Z" fill="#E2D3BD"/>
<path d="M74.103 121.968H89.1085L86.2949 164.733L77.4631 165.671L74.8452 142.413L74.103 121.968Z" fill="#E2D3BD"/>
<path d="M74.2905 121.968H59.285L62.0986 164.733L70.9303 165.671L73.5483 142.413L74.2905 121.968Z" fill="#E2D3BD"/>
<path d="M95.3803 173.365C95.3968 171.473 95.1016 171.331 93.2297 170.555C91.3579 169.78 86.9509 168.522 85.4179 166.407C85.4179 166.407 84.9918 166.337 84.2987 166.666C83.7072 166.947 82.9479 167.636 81.8024 167.627C80.5585 167.615 79.4499 167.383 78.7609 167.064C78.4625 166.347 77.8025 166.341 77.8025 166.341C77.8025 166.341 76.8749 167.896 76.8613 169.458C76.8477 171.021 76.8524 173.617 76.8524 173.617L95.3803 173.365Z" fill="#8D5D42"/>
<path d="M80.3026 169.828C79.9744 169.635 78.0948 168.922 77.2549 168.434C76.8397 168.738 76.8914 170.573 76.8822 171.631L81.0069 171.859C80.7794 171.056 80.412 169.94 80.3026 169.828Z" fill="#A87C63"/>
<path d="M91.0334 170.963C92.2044 171.116 93.7045 171.178 93.9892 170.796L92.0717 170.202L89.5484 169.17L88.889 169.501L88.9803 169.79L87.5656 170.692L88.1676 171.563L88.1769 171.558C88.6392 171.351 89.8509 170.806 91.0334 170.963Z" fill="#A87C63"/>
<path d="M86.5903 168.791C86.5377 168.986 86.7234 169.162 86.9153 169.098L88.1556 168.687L88.1553 169.846C88.1552 170.039 88.3632 170.162 88.5324 170.068L89.3739 169.6L89.3737 170.47C89.3737 170.61 89.4873 170.724 89.6275 170.724C89.7677 170.724 89.8814 170.611 89.8814 170.47L89.8817 169.169C89.8818 168.975 89.6738 168.853 89.5046 168.947L88.6631 169.414L88.6634 168.336C88.6634 168.163 88.494 168.04 88.3297 168.095L87.2031 168.468L87.4871 167.413C87.5429 167.206 87.3327 167.028 87.1373 167.116L85.7765 167.732C85.7929 167.347 85.8403 167.081 85.9519 166.824C86.0076 166.695 85.9485 166.545 85.8198 166.49C85.6912 166.434 85.5417 166.493 85.486 166.622C85.3029 167.044 85.2618 167.443 85.2617 168.128C85.2616 168.313 85.4521 168.436 85.6202 168.36L86.8572 167.8L86.5903 168.791Z" fill="#67432F"/>
<path d="M76.8932 173.319L76.8936 171.58L91.7495 172.614L95.4824 172.229L95.5599 172.876C95.615 173.336 95.2738 173.749 94.8109 173.783L91.7493 174L84.228 173.724L77.2995 173.725C77.0751 173.725 76.8932 173.544 76.8932 173.319Z" fill="#67432F"/>
<path d="M52.9702 173.295C52.9537 171.402 53.2489 171.26 55.1207 170.484C56.9926 169.71 61.3996 168.452 62.9325 166.337C62.9325 166.337 63.3587 166.266 64.0518 166.595C64.6432 166.876 65.4026 167.566 66.5481 167.555C67.792 167.545 68.9006 167.312 69.5896 166.994C69.8879 166.276 70.548 166.271 70.548 166.271C70.548 166.271 71.4755 167.825 71.4891 169.388C71.5027 170.95 71.498 173.545 71.498 173.545L52.9702 173.295Z" fill="#8D5D42"/>
<path d="M68.048 169.757C68.3763 169.565 70.2559 168.851 71.0957 168.363C71.511 168.668 71.4593 170.502 71.4684 171.56L67.3438 171.789C67.5712 170.985 67.9387 169.869 68.048 169.757Z" fill="#A87C63"/>
<path d="M57.3174 170.891C56.1464 171.046 54.6463 171.107 54.3616 170.725L56.2791 170.132L58.8024 169.099L59.4618 169.43L59.3705 169.72L60.7852 170.621L60.1832 171.492L60.1739 171.488C59.7116 171.28 58.4999 170.736 57.3174 170.891Z" fill="#A87C63"/>
<path d="M61.2136 167.045C61.0182 166.956 60.808 167.135 60.8637 167.342L61.1478 168.397L60.021 168.024C59.8567 167.97 59.6874 168.092 59.6875 168.265L59.6877 169.344L58.8463 168.876C58.677 168.782 58.4691 168.905 58.4691 169.098L58.4694 170.4C58.4694 170.54 58.5831 170.654 58.7233 170.654C58.8635 170.654 58.9771 170.54 58.9771 170.4L58.9769 169.53L59.8184 169.997C59.9876 170.091 60.1956 169.969 60.1956 169.775L60.1953 168.617L61.4357 169.027C61.6276 169.09 61.8131 168.915 61.7605 168.72L61.4937 167.729L62.7306 168.289C62.8986 168.366 63.0892 168.243 63.0892 168.058L63.0888 167.949L63.0875 167.839C63.0781 167.283 63.0275 166.926 62.8648 166.55C62.8091 166.422 62.6596 166.363 62.531 166.418C62.4023 166.474 62.3432 166.624 62.399 166.752C62.5056 166.999 62.5537 167.253 62.572 167.612L62.5743 167.661L61.2136 167.045Z" fill="#67432F"/>
<path d="M71.4574 173.249L71.457 171.508L56.6011 172.544L52.8681 172.158L52.7907 172.804C52.7356 173.265 53.0769 173.678 53.5397 173.711L56.6014 173.929L64.1226 173.653L71.0511 173.655C71.2755 173.655 71.4575 173.473 71.4574 173.249Z" fill="#67432F"/>
<path d="M84.7475 100.432C86.491 103.522 87.9005 108.305 88.6341 113.346C89.2807 117.788 89.2741 121.806 88.7704 123.27L88.755 123.314C88.1001 125.115 89.0292 127.106 90.8302 127.761C92.6313 128.416 94.6223 127.487 95.2772 125.686C96.2916 122.896 96.3081 117.886 95.5018 112.346C94.655 106.528 93.0145 100.962 90.7921 97.0219C89.8506 95.3527 87.7341 94.7628 86.0649 95.7044C84.3958 96.646 83.8059 98.7624 84.7475 100.432Z" fill="#EBBAAA"/>
<path d="M57.6008 97.0221C55.3784 100.962 53.7379 106.528 52.8911 112.346C52.0848 117.886 52.1013 122.896 53.1157 125.686C53.7706 127.487 55.7616 128.416 57.5626 127.761C59.3457 127.113 60.2741 125.155 59.657 123.368L59.6379 123.314C59.119 121.887 59.1056 117.833 59.7588 113.346C60.4924 108.305 61.9019 103.523 63.6454 100.432C64.587 98.7627 63.9972 96.6463 62.328 95.7047C60.6588 94.7631 58.5424 95.3529 57.6008 97.0221Z" fill="#EBBAAA"/>
<rect x="58.5352" y="84.4539" width="15.9433" height="36.8405" rx="7.97167" transform="rotate(15 58.5352 84.4539)" fill="#2D3870"/>
<rect width="15.9433" height="36.8406" rx="7.97167" transform="matrix(-0.965926 0.258819 0.258819 0.965926 89.8782 84.4539)" fill="#2D3870"/>
<path d="M93.3292 98.225C92.4851 97.8179 89.3903 98.7089 87.7021 99.7405V102.727C87.7021 102.126 92.0162 100.914 94.1733 100.382C94.0795 99.9757 93.7794 98.9753 93.3292 98.225Z" fill="#E8ECF3"/>
<path d="M94.1733 100.44C92.1569 100.163 89.6247 101.335 87.9366 102.367C87.9366 103.398 88.5462 105.729 88.5462 105.129C88.5462 104.529 92.7665 103.41 94.9235 102.878C94.8298 102.472 94.6234 101.19 94.1733 100.44Z" fill="#3D507B"/>
<path d="M55.0652 98.225C55.9093 97.8179 59.0042 98.7089 60.6923 99.7405V102.727C60.6923 102.126 56.3782 100.914 54.2212 100.382C54.3149 99.9757 54.6151 98.9753 55.0652 98.225Z" fill="#E8ECF3"/>
<path d="M54.2212 100.44C56.2375 100.163 58.7697 101.335 60.4578 102.367C60.4578 103.398 59.8482 105.729 59.8482 105.129C59.8482 104.529 55.6279 103.41 53.4709 102.878C53.5647 102.472 53.771 101.19 54.2212 100.44Z" fill="#3D507B"/>
<path d="M97.4557 123.28C98.0559 121.555 98.2059 115.496 97.4556 112.683L86.7643 112.214C87.9086 115.778 88.0961 120.467 88.9402 125.062L88.9546 125.063C90.9377 125.157 96.7072 125.432 97.4557 123.28Z" fill="#2D3870"/>
<path d="M50.9778 123.28C50.3775 121.555 50.2275 115.496 50.9778 112.683L61.6691 112.214C60.5249 115.778 60.3373 120.467 59.4932 125.062L59.4789 125.063C57.4958 125.157 51.7262 125.432 50.9778 123.28Z" fill="#2D3870"/>
<path d="M58.4616 90.8811C58.3432 88.4993 60.0311 86.4079 62.3842 86.021L74.197 84.0786L86.0098 86.021C88.3629 86.4079 90.0509 88.4993 89.9324 90.8811L89.2025 105.555C89.2025 105.555 89.4953 111.976 89.6714 116.247C89.8176 119.792 89.3844 124.955 89.2445 126.491C89.2187 126.774 89.0661 127.026 88.8139 127.157C87.5409 127.818 83.0605 129.752 74.197 129.752C65.3335 129.752 60.8531 127.818 59.5801 127.157C59.3279 127.026 59.1753 126.774 59.1495 126.491C59.0096 124.955 58.5764 119.792 58.7226 116.247C58.8987 111.976 59.1915 105.555 59.1915 105.555L58.4616 90.8811Z" fill="#455191"/>
<path d="M74.1972 94.2074C77.8228 94.2074 80.7621 91.2682 80.7621 87.6425C80.7621 84.0168 77.8228 81.0776 74.1972 81.0776C70.5715 81.0776 67.6323 84.0168 67.6323 87.6425C67.6323 91.2682 70.5715 94.2074 74.1972 94.2074Z" fill="#5D6AAF"/>
<path fill-rule="evenodd" clip-rule="evenodd" d="M82.6003 105.255V112.195C82.6003 117.297 78.8114 120.148 74.4598 120.148C70.1082 120.148 66.3193 117.297 66.3193 112.195V105.255C66.3193 100.153 70.1082 97.3022 74.4598 97.3022C78.8114 97.3022 82.6003 100.153 82.6003 105.255ZM74.4598 115.759C76.373 115.759 77.7235 114.408 77.7235 112.158V105.33C77.7235 103.079 76.373 101.691 74.4598 101.691C72.5466 101.691 71.1961 103.079 71.1961 105.33V112.158C71.1961 114.408 72.5466 115.759 74.4598 115.759Z" fill="white"/>
<rect x="69.6951" y="72.2617" width="9.0033" height="18.1942" rx="4.50165" fill="#EBBAAA"/>
<path opacity="0.5" d="M88.2644 70.9488C90.3362 70.9488 92.0157 69.2692 92.0157 67.1974C92.0157 65.1256 90.3362 63.446 88.2644 63.446C86.1926 63.446 84.513 65.1256 84.513 67.1974C84.513 69.2692 86.1926 70.9488 88.2644 70.9488Z" fill="#C99584"/>
<path opacity="0.5" d="M60.1291 70.9488C58.0573 70.9488 56.3777 69.2692 56.3777 67.1974C56.3777 65.1256 58.0573 63.446 60.1291 63.446C62.2009 63.446 63.8805 65.1256 63.8805 67.1974C63.8805 69.2692 62.2009 70.9488 60.1291 70.9488Z" fill="#C99584"/>
<rect x="60.1291" y="43.939" width="28.1353" height="40.3273" rx="14.0676" fill="#F4D5CC"/>
<path d="M70.0834 74.5748L70.1162 74.5931L70.1607 74.6169L70.1782 74.626C70.2423 74.6591 70.3167 74.695 70.4012 74.7331C70.635 74.8382 70.907 74.9421 71.2158 75.0381C72.0843 75.3082 73.0824 75.4693 74.1969 75.4693C75.3114 75.4693 76.3095 75.3082 77.1779 75.0381C77.4868 74.9421 77.7588 74.8382 77.9925 74.7331C78.063 74.7014 78.1264 74.6711 78.1827 74.6428L78.2156 74.626C78.2579 74.6042 78.2895 74.5869 78.3103 74.5748C78.6554 74.3748 78.773 73.933 78.573 73.5879C78.3772 73.2499 77.9492 73.1302 77.6074 73.3134L77.5664 73.3361L77.5315 73.354C77.5036 73.3679 77.4668 73.3856 77.4211 73.4065L77.3999 73.4161C77.2184 73.4977 77.001 73.5807 76.7491 73.6591C76.0154 73.8872 75.1612 74.0251 74.1969 74.0251C73.2326 74.0251 72.3784 73.8872 71.6447 73.6591C71.4122 73.5868 71.209 73.5105 71.0364 73.4349L70.9939 73.4161C70.9068 73.3769 70.8484 73.3476 70.8195 73.3319L70.8076 73.3252C70.4625 73.1253 70.0207 73.2429 69.8208 73.5879C69.6208 73.933 69.7384 74.3748 70.0834 74.5748Z" fill="#C99584"/>
<path d="M88.7324 54.6758C88.7543 54.0877 88.3284 53.5986 87.7954 53.5986C87.2425 53.5986 86.8096 54.1233 86.8619 54.7306L87.7449 65.019C87.7597 65.191 87.8903 65.3217 88.0462 65.3217C88.2091 65.3217 88.3423 65.1804 88.3493 65.0017L88.7324 54.6758Z" fill="#393939"/>
<path d="M59.661 54.6758C59.6391 54.0877 60.065 53.5986 60.598 53.5986C61.1509 53.5986 61.5838 54.1233 61.5315 54.7306L60.6485 65.019C60.6337 65.191 60.5031 65.3217 60.3472 65.3217C60.1843 65.3217 60.0511 65.1804 60.0441 65.0017L59.661 54.6758Z" fill="#393939"/>
<path d="M73.7582 50.1455C80.8997 50.1455 86.61 50.126 86.9045 55.3455C88.1091 57.0429 88.8636 56.854 89.145 53.7649C90.0458 43.8719 80.1198 38.2667 73.2458 40.4807C73.2458 40.4807 66.6159 50.1455 73.7582 50.1455Z" fill="#393939"/>
<path d="M74.6352 50.1455C67.4937 50.1455 61.7835 50.126 61.489 55.3455C60.2843 57.0429 59.5298 56.854 59.2485 53.7649C58.3477 43.8719 68.2736 38.2667 75.1476 40.4807C75.1476 40.4807 81.7775 50.1455 74.6352 50.1455Z" fill="#393939"/>
<path d="M68.8081 51.9531L67.5522 48.7467L67.0691 41.8757H83.1062L78.6622 52.7547L77.6961 50.9225L76.6334 51.9531L75.2809 50.0064L74.4114 51.9531L72.9622 50.9225L71.1267 51.9531L70.547 50.9225L68.8081 51.9531Z" fill="#393939"/>
<path d="M80.1989 62.6021H78.3232C77.8571 62.6021 77.4792 62.9799 77.4792 63.4461C77.4792 63.9123 77.8571 64.2902 78.3232 64.2902H80.1989C80.6651 64.2902 81.043 63.9123 81.043 63.4461C81.043 62.9799 80.6651 62.6021 80.1989 62.6021Z" fill="black"/>
<path d="M69.8826 62.6021H68.007C67.5408 62.6021 67.1629 62.9799 67.1629 63.4461C67.1629 63.9123 67.5408 64.2902 68.007 64.2902H69.8826C70.3488 64.2902 70.7267 63.9123 70.7267 63.4461C70.7267 62.9799 70.3488 62.6021 69.8826 62.6021Z" fill="black"/>
<path d="M78.2497 58.6598L82.0011 58.9881C82.4655 59.0287 82.8749 58.6852 82.9155 58.2208C82.9562 57.7564 82.6126 57.347 82.1482 57.3064L78.3969 56.9781C77.9325 56.9375 77.5231 57.281 77.4825 57.7454C77.4418 58.2098 77.7853 58.6192 78.2497 58.6598Z" fill="#393939"/>
<path d="M69.8091 56.9781L66.0577 57.3064C65.5934 57.347 65.2498 57.7564 65.2905 58.2208C65.3311 58.6852 65.7405 59.0287 66.2049 58.9881L69.9563 58.6598C70.4206 58.6192 70.7642 58.2098 70.7235 57.7454C70.6829 57.281 70.2735 56.9375 69.8091 56.9781Z" fill="#393939"/>
<path d="M73.5334 65.8174C72.9186 66.7397 72.4617 68.0532 72.4617 69.1317C72.4617 70.6954 73.3955 71.746 75.1346 71.746V70.1516C74.3206 70.1516 74.056 69.854 74.056 69.1317C74.056 68.3932 74.4091 67.3781 74.86 66.7018L73.5334 65.8174Z" fill="#EBBAAA"/>
</g>
<defs>
<filter id="filter0_d_280_44598" x="0.469788" y="0" width="147.494" height="234" filterUnits="userSpaceOnUse" color-interpolation-filters="sRGB">
<feFlood flood-opacity="0" result="BackgroundImageFix"/>
<feColorMatrix in="SourceAlpha" type="matrix" values="0 0 0 0 0 0 0 0 0 0 0 0 0 0 0 0 0 0 127 0" result="hardAlpha"/>
<feOffset dy="10"/>
<feGaussianBlur stdDeviation="25"/>
<feComposite in2="hardAlpha" operator="out"/>
<feColorMatrix type="matrix" values="0 0 0 0 0 0 0 0 0 0 0 0 0 0 0 0 0 0 0.3 0"/>
<feBlend mode="normal" in2="BackgroundImageFix" result="effect1_dropShadow_280_44598"/>
<feBlend mode="normal" in="SourceGraphic" in2="effect1_dropShadow_280_44598" result="shape"/>
</filter>
</defs>
</svg>
