<svg width="149" height="238" viewBox="0 0 149 238" fill="none" xmlns="http://www.w3.org/2000/svg">
<g filter="url(#filter0_d_466_1395)">
<path d="M81.7564 147.202C82.9139 147.202 83.8545 148.131 83.8732 149.284L83.8735 149.319V171.26C83.8735 172.429 82.9256 173.377 81.7564 173.377C80.5988 173.377 79.6583 172.448 79.6396 171.295L79.6393 171.26V149.319C79.6393 148.15 80.5871 147.202 81.7564 147.202Z" fill="#EBBAAA"/>
<path d="M67.5142 147.202C68.6717 147.202 69.6123 148.131 69.631 149.284L69.6313 149.319V172.944C69.6313 174.113 68.6834 175.061 67.5142 175.061C66.3566 175.061 65.4161 174.132 65.3974 172.979L65.3971 172.944V149.319C65.3971 148.15 66.3449 147.202 67.5142 147.202Z" fill="#EBBAAA"/>
<path d="M79.1581 172.012C79.1581 172.012 79.2061 168.83 79.446 169.07C79.686 169.312 80.7891 169.938 82.2777 169.938C83.7655 169.938 84.6774 169.408 85.0134 169.07C85.3493 168.734 85.6617 172.012 85.6617 172.012H79.1581Z" fill="#DCE1E9"/>
<path d="M70.3609 172.301C70.3609 172.301 70.3129 169.118 70.073 169.359C69.833 169.601 68.7299 170.227 67.2413 170.227C65.7534 170.227 64.8416 169.697 64.5056 169.359C64.1697 169.022 63.8573 172.301 63.8573 172.301H70.3609Z" fill="#DCE1E9"/>
<path d="M74.6352 137.194C80.7471 137.194 85.7018 134.932 85.7018 132.142C85.7018 129.351 80.7471 127.089 74.6352 127.089C68.5233 127.089 63.5686 129.351 63.5686 132.142C63.5686 134.932 68.5233 137.194 74.6352 137.194Z" fill="#E2D3BD"/>
<path d="M74.5389 125.357H88.9736L87.049 167.988H77.9867L74.5389 125.357Z" fill="#E2D3BD"/>
<path d="M74.7315 125.357H60.2968L62.2214 167.988H71.2836L74.7315 125.357Z" fill="#E2D3BD"/>
<path d="M95.75 176.869C95.7691 174.675 95.4683 174.296 93.5485 173.399C91.6287 172.502 89.8203 171.255 86.4989 169.777C86.4989 169.777 86.0617 169.695 85.3501 170.077C84.7429 170.403 83.9628 171.204 82.7875 171.194C81.5112 171.183 80.3739 170.914 79.6672 170.546C79.3619 169.714 78.6847 169.708 78.6847 169.708C78.6847 169.708 77.7311 171.512 77.7154 173.325C77.6996 175.137 77.7012 176.712 77.7012 176.712L95.75 176.869Z" fill="#161616"/>
<path d="M82.4302 172.226C82.9811 172.226 83.4266 172.372 83.9575 172.682L84.0092 172.712C84.1532 172.798 84.6428 173.113 84.7054 173.151C85.4634 173.621 86.1026 173.865 87.0318 173.949C88.0467 174.041 88.666 173.875 89.2718 173.474L89.3061 173.451C89.3334 173.433 89.3611 173.414 89.3905 173.393L89.5071 173.31L89.5945 173.246L89.9894 173.792L89.8445 173.897L89.7772 173.945C89.7449 173.967 89.7141 173.989 89.6833 174.009C88.9417 174.511 88.1649 174.728 86.9711 174.62C85.9498 174.528 85.224 174.258 84.4063 173.758L84.3077 173.697C84.1722 173.611 83.807 173.377 83.6772 173.299L83.6642 173.291C83.2059 173.018 82.8607 172.899 82.4302 172.899C81.9212 172.899 81.4946 173.072 80.9877 173.425L80.9218 173.472C80.8179 173.548 80.4533 173.821 80.3485 173.891C80.1136 174.049 79.9227 174.134 79.7185 174.142L79.6877 174.143V173.469C79.7334 173.469 79.8182 173.434 79.9493 173.348L79.9729 173.332C80.0674 173.269 80.4674 172.968 80.5492 172.91C81.1809 172.46 81.7403 172.226 82.4302 172.226Z" fill="white"/>
<path d="M86.8481 169.562C86.9069 169.43 87.0609 169.371 87.1923 169.43C87.3236 169.489 87.3824 169.643 87.3237 169.774C87.2672 169.901 87.2248 170.045 87.1952 170.206C87.1692 170.347 87.1544 170.476 87.1464 170.632L87.1448 170.665L88.5442 170.051C88.7406 169.965 88.9486 170.139 88.9034 170.345L88.8998 170.359L88.6121 171.395L89.7675 171.025C89.9304 170.973 90.0968 171.089 90.107 171.257L90.1075 171.273L90.1075 172.338L90.9739 171.872C91.1426 171.781 91.3461 171.898 91.3573 172.085L91.3578 172.102V173.396C91.3578 173.54 91.2412 173.656 91.0973 173.656C90.9588 173.656 90.8455 173.548 90.8373 173.412L90.8368 173.396L90.8368 172.537L89.9705 173.004C89.8018 173.094 89.5982 172.978 89.5871 172.791L89.5866 172.774L89.5866 171.63L88.3115 172.039C88.1192 172.101 87.9353 171.93 87.9772 171.736L87.981 171.721L88.251 170.748L86.9821 171.305C86.8151 171.378 86.6284 171.261 86.6176 171.083L86.6171 171.066L86.6173 170.968C86.6192 170.604 86.6332 170.38 86.6828 170.111C86.7196 169.912 86.7734 169.729 86.8481 169.562Z" fill="white"/>
<path d="M95.0235 173.566C94.4345 173.355 93.8107 173.194 92.6149 172.924L93.1232 174.378L93.1086 176.036L96.5126 176.065C96.6515 176.066 96.8998 175.883 96.7812 175.136C96.633 174.202 95.8605 173.868 95.0235 173.566Z" fill="#393A40"/>
<path d="M80.0245 173.711C79.5943 173.257 78.2442 172.754 77.763 172.897L77.6669 174.619L77.667 176.064C80.4351 176.064 80.6501 176.064 80.6501 176.064C80.5019 175.131 80.8425 174.571 80.0245 173.711Z" fill="#393A40"/>
<path d="M77.6264 176.921L77.6467 175.642L85.1338 175.952L93.0058 175.879L96.8114 175.602L96.9043 176.436C96.957 176.907 96.6062 177.327 96.133 177.36L92.9868 177.575L78.0367 177.344C77.8064 177.341 77.6227 177.151 77.6264 176.921Z" fill="#D3D5E0"/>
<path d="M77.8146 175.958L85.0769 176.197L93.0096 176.197L96.6183 175.959L96.631 176.151L93.016 176.39L85.0737 176.39L77.8082 176.15L77.8146 175.958Z" fill="black"/>
<path d="M53.8189 176.869C53.7998 174.675 54.1007 174.296 56.0205 173.399C57.9403 172.502 59.7487 171.255 63.0701 169.777C63.0701 169.777 63.5073 169.695 64.2188 170.077C64.8261 170.403 65.6061 171.204 66.7815 171.194C68.0577 171.183 69.195 170.914 69.9017 170.546C70.207 169.714 70.8843 169.708 70.8843 169.708C70.8843 169.708 71.8377 171.512 71.8536 173.325C71.8694 175.137 71.8677 176.712 71.8677 176.712L53.8189 176.869Z" fill="#161616"/>
<path d="M67.1388 172.226C67.8111 172.226 68.3594 172.448 68.9715 172.876L69.0421 172.926C69.1573 173.01 69.5084 173.273 69.5961 173.332C69.7328 173.424 69.8225 173.464 69.8729 173.469L69.8813 173.469V174.143C69.6757 174.143 69.4862 174.065 69.2555 173.914L69.2206 173.891C69.1083 173.816 68.6978 173.507 68.6292 173.459C68.1011 173.083 67.6638 172.899 67.1388 172.899C66.7232 172.899 66.3871 173.01 65.9519 173.263L65.9049 173.291C65.7724 173.37 65.2899 173.68 65.2187 173.724C64.3779 174.245 63.6425 174.525 62.5982 174.62C61.4042 174.728 60.6274 174.511 59.8857 174.009L59.8237 173.967C59.8027 173.952 59.7813 173.937 59.7589 173.921L59.5796 173.792L59.9745 173.246L60.117 173.349L60.1785 173.393C60.1981 173.407 60.217 173.42 60.2354 173.433L60.2629 173.451C60.8798 173.868 61.5032 174.043 62.5375 173.949C63.4444 173.867 64.075 173.633 64.8097 173.185L64.9022 173.127C65.0367 173.042 65.4328 172.788 65.5599 172.712C66.1138 172.382 66.5702 172.226 67.1388 172.226Z" fill="white"/>
<path d="M62.3768 169.43C62.5081 169.371 62.6622 169.43 62.7209 169.562C62.7956 169.728 62.8495 169.912 62.8863 170.111C62.9402 170.403 62.9521 170.643 62.9521 171.066C62.9521 171.249 62.7703 171.373 62.6023 171.311L62.587 171.305L61.318 170.748L61.588 171.721C61.6421 171.916 61.4644 172.093 61.2727 172.043L61.2575 172.039L59.9825 171.63L59.9826 172.774C59.9826 172.966 59.7838 173.09 59.6132 173.011L59.5987 173.004L58.7323 172.538L58.7323 173.396C58.7323 173.534 58.6241 173.648 58.4877 173.656L58.4718 173.656C58.3333 173.656 58.22 173.548 58.2118 173.412L58.2113 173.396V172.102C58.2113 171.91 58.4101 171.786 58.5807 171.865L58.5952 171.872L59.4616 172.338L59.4616 171.273C59.4616 171.102 59.6229 170.979 59.7859 171.021L59.8016 171.025L60.9568 171.395L60.6693 170.359C60.6119 170.153 60.814 169.972 61.0108 170.045L61.0249 170.051L62.4243 170.665L62.4228 170.632C62.4154 170.488 62.4021 170.365 62.3794 170.236L62.374 170.206C62.3443 170.045 62.3019 169.901 62.2454 169.774C62.1866 169.643 62.2455 169.489 62.3768 169.43Z" fill="white"/>
<path d="M54.5455 173.566C55.1345 173.355 55.7583 173.194 56.9542 172.924L56.4459 174.378L56.4604 176.036L53.0565 176.065C52.9175 176.066 52.6693 175.883 52.7879 175.136C52.936 174.202 53.7086 173.868 54.5455 173.566Z" fill="#393A40"/>
<path d="M69.5445 173.711C69.9748 173.257 71.3249 172.754 71.806 172.897L71.9021 174.619V176.064C69.1339 176.064 68.9189 176.064 68.9189 176.064C69.067 175.131 68.7266 174.571 69.5445 173.711Z" fill="#393A40"/>
<path d="M71.9424 176.921L71.9221 175.642L64.435 175.952L56.5631 175.879L52.7575 175.602L52.6645 176.436C52.612 176.907 52.9627 177.327 53.4358 177.36L56.5821 177.575L71.5322 177.344C71.7624 177.341 71.9461 177.151 71.9424 176.921Z" fill="#D3D5E0"/>
<path d="M71.7546 175.958L71.7609 176.15L64.4923 176.39L56.5468 176.389L52.9381 176.151L52.9508 175.959L56.5531 176.197L64.4891 176.197L71.7546 175.958Z" fill="black"/>
<path d="M85.0472 94.6377C86.7599 93.6715 88.9316 94.2767 89.8977 95.9895C92.1082 99.9081 94.0852 105.639 95.329 111.398C96.6248 117.398 96.9603 122.453 95.9166 125.323C95.2446 127.171 93.2017 128.124 91.3536 127.452C89.5241 126.787 88.5714 124.778 89.2046 122.945L89.2242 122.889C89.2437 122.836 89.2695 122.737 89.2952 122.599L89.3007 122.569C89.337 122.366 89.3661 122.117 89.3854 121.828C89.4282 121.189 89.4208 120.399 89.3605 119.491C89.2381 117.648 88.905 115.412 88.3973 113.036L88.3684 112.901C87.264 107.787 85.5116 102.708 83.6954 99.4882C82.7292 97.7755 83.3344 95.6038 85.0472 94.6377Z" fill="#EBBAAA"/>
<path d="M59.9078 95.9895C60.874 94.2767 63.0457 93.6715 64.7584 94.6377C66.4711 95.6038 67.0763 97.7755 66.1102 99.4882C64.2939 102.708 62.5415 107.787 61.4371 112.901L61.3797 113.17C60.888 115.496 60.5651 117.683 60.445 119.491C60.3847 120.399 60.3773 121.189 60.42 121.828C60.438 122.096 60.4644 122.33 60.4971 122.525L60.5048 122.569C60.5305 122.713 60.5567 122.817 60.577 122.877L60.5813 122.889C61.2533 124.737 60.2999 126.78 58.4519 127.452C56.6038 128.124 54.5609 127.171 53.8889 125.323C52.8452 122.453 53.1807 117.398 54.4765 111.398C55.7203 105.639 57.6973 99.9081 59.9078 95.9895Z" fill="#EBBAAA"/>
<path d="M93.6467 92.9429C92.6449 89.8596 89.3326 88.1727 86.2494 89.1744L81.6765 90.6603C78.5932 91.662 76.9053 94.9743 77.9071 98.0576L82.9543 113.053L98.693 107.939L93.6467 92.9429Z" fill="#BFD5DF"/>
<path d="M55.4311 92.9429C56.4329 89.8596 59.7452 88.1727 62.8285 89.1744L67.4014 90.6603C70.4846 91.662 72.1725 94.9743 71.1708 98.0576L66.1235 113.053L50.3849 107.939L55.4311 92.9429Z" fill="#BFD5DF"/>
<rect x="87.6265" y="109.41" width="11.2591" height="1.92463" transform="rotate(-15 87.6265 109.41)" fill="#3E5C78"/>
<rect width="11.2591" height="1.92463" transform="matrix(-0.965926 -0.258819 -0.258819 0.965926 61.3735 109.41)" fill="#3E5C78"/>
<path d="M91.0814 91.2605C91.1428 89.4308 89.9069 87.8109 88.1258 87.3868L80.8021 85.6431C79.7869 85.4014 78.7409 85.9016 78.2917 86.8435L76.0786 91.4838L74.8276 98.22V127.571L77.3297 129.591H90.1496C90.7095 129.591 91.1512 129.115 91.1092 128.557L90.2247 116.793L91.0814 91.2605Z" fill="#E4EFF4"/>
<path d="M58.5739 91.2605C58.5124 89.4308 59.7483 87.8109 61.5294 87.3868L68.8532 85.6431C69.8683 85.4014 70.9143 85.9016 71.3635 86.8435L73.5767 91.4838L74.8277 98.22V127.571L72.3257 129.591H59.5057C58.9458 129.591 58.5041 129.115 58.5461 128.557L59.4306 116.793L58.5739 91.2605Z" fill="#D2E1E8"/>
<path d="M78.3882 99.7597H88.0113L87.049 108.718L83.1998 110.826L79.3505 108.718L78.3882 99.7597Z" fill="#BFD5DF"/>
<rect x="77.907" y="98.7974" width="10.5855" height="1.92463" fill="#3E5C78"/>
<rect x="71.1709" y="78.0114" width="7.31358" height="11.0666" rx="3.65679" fill="#EBBAAA"/>
<path d="M75.7899 92.0612L78.4844 83.4966L81.9487 85.5174L79.7354 94.6594L75.7899 92.0612Z" fill="#3E5C78"/>
<path d="M73.8654 92.0612L71.1709 83.4966L67.7065 85.5174L69.9199 94.6594L73.8654 92.0612Z" fill="#3E5C78"/>
<path opacity="0.5" d="M89.2623 71.7564C91.3882 71.7564 93.1116 70.033 93.1116 67.9071C93.1116 65.7813 91.3882 64.0578 89.2623 64.0578C87.1364 64.0578 85.4131 65.7813 85.4131 67.9071C85.4131 70.033 87.1364 71.7564 89.2623 71.7564Z" fill="#C99584"/>
<path opacity="0.5" d="M60.393 71.7564C58.2671 71.7564 56.5437 70.033 56.5437 67.9071C56.5437 65.7813 58.2671 64.0578 60.393 64.0578C62.5189 64.0578 64.2423 65.7813 64.2423 67.9071C64.2423 70.033 62.5189 71.7564 60.393 71.7564Z" fill="#C99584"/>
<path d="M60.3929 56.5518C60.3929 48.5797 66.8556 42.1171 74.8277 42.1171C82.7997 42.1171 89.2624 48.5797 89.2624 56.5518V75.7028C89.2624 77.9964 87.6435 79.971 85.3944 80.4209L78.1268 81.8744C75.9489 82.3099 73.7064 82.3099 71.5286 81.8744L64.2609 80.4209C62.0118 79.971 60.3929 77.9964 60.3929 75.7028V56.5518Z" fill="#F4D5CC"/>
<path d="M78.3055 74.7721C78.6595 74.5669 79.1129 74.6876 79.3181 75.0416C79.5233 75.3957 79.4026 75.849 79.0485 76.0542L79.0149 76.0731C79.0017 76.0803 78.9865 76.0885 78.9692 76.0975L78.9513 76.1068C78.8855 76.1407 78.8092 76.1776 78.7224 76.2167C78.4826 76.3246 78.2035 76.4311 77.8866 76.5297C76.9954 76.8068 75.9714 76.9721 74.8278 76.9721C73.6841 76.9721 72.6601 76.8068 71.7689 76.5297C71.452 76.4311 71.1729 76.3246 70.9331 76.2167C70.8608 76.1841 70.7957 76.1531 70.738 76.124L70.7042 76.1068C70.6608 76.0844 70.6284 76.0666 70.607 76.0542C70.2529 75.849 70.1322 75.3957 70.3374 75.0416C70.5384 74.6948 70.9776 74.5719 71.3282 74.7599L71.3703 74.7832C71.3992 74.7985 71.4491 74.8234 71.5195 74.8554L71.5412 74.8653C71.7274 74.9491 71.9505 75.0342 72.209 75.1146C72.9618 75.3487 73.8383 75.4902 74.8278 75.4902C75.8172 75.4902 76.6937 75.3487 77.4465 75.1146C77.6851 75.0404 77.8936 74.9621 78.0707 74.8846L78.1143 74.8653C78.2037 74.8251 78.2636 74.795 78.2932 74.7789L78.3055 74.7721Z" fill="#C99584"/>
<path fill-rule="evenodd" clip-rule="evenodd" d="M76.9448 61.7483H85.9906C86.4689 61.7483 86.8566 62.136 86.8566 62.6144V65.3089C86.8566 66.4249 85.9519 67.3297 84.8358 67.3297H78.0996C76.9835 67.3297 76.0787 66.4249 76.0787 65.3089V62.6144C76.0787 62.136 76.4665 61.7483 76.9448 61.7483ZM85.7018 62.9031H77.2334L77.2335 65.3089C77.2335 65.7786 77.6075 66.1611 78.074 66.1746L78.0996 66.1749H84.8357C85.314 66.1749 85.7018 65.7871 85.7018 65.3089L85.7018 62.9031Z" fill="#393939"/>
<rect x="72.4219" y="63.0955" width="4.81157" height="0.962314" fill="#393939"/>
<path fill-rule="evenodd" clip-rule="evenodd" d="M63.4724 61.7483H72.5182C72.9965 61.7483 73.3842 62.136 73.3842 62.6144V65.2126C73.3842 66.3287 72.4794 67.2335 71.3634 67.2335H64.6272C63.5111 67.2335 62.6063 66.3287 62.6063 65.2126V62.6144C62.6063 62.136 62.9941 61.7483 63.4724 61.7483ZM72.2293 62.9031H63.761L63.761 65.2126C63.761 65.6824 64.1351 66.0648 64.6016 66.0783L64.6271 66.0787H71.3633C71.8416 66.0787 72.2294 65.6909 72.2294 65.2126L72.2293 62.9031Z" fill="#393939"/>
<path d="M89.7427 55.0589C89.7651 54.4555 89.3281 53.9536 88.7813 53.9536C88.2138 53.9536 87.7697 54.492 87.8234 55.1151L88.7294 65.6719C88.7446 65.8484 88.8786 65.9825 89.0386 65.9825C89.2057 65.9825 89.3424 65.8375 89.3496 65.6542L89.7427 55.0589Z" fill="#6E6C6C"/>
<path d="M59.9128 55.0589C59.8904 54.4555 60.3274 53.9536 60.8743 53.9536C61.4416 53.9536 61.8858 54.492 61.8321 55.1151L60.9261 65.6719C60.9109 65.8484 60.7769 65.9825 60.6169 65.9825C60.4498 65.9825 60.3131 65.8375 60.3059 65.6542L59.9128 55.0589Z" fill="#6E6C6C"/>
<path d="M74.3779 50.4102C81.7057 50.4102 87.5649 50.3902 87.8671 55.7459C89.1032 57.4876 89.8774 57.2937 90.1661 54.1241C91.0904 43.9729 80.9054 38.2214 73.852 40.4933C73.852 40.4933 67.0492 50.4102 74.3779 50.4102Z" fill="#393939"/>
<path d="M75.2776 50.4102C67.9497 50.4102 62.0904 50.3902 61.7883 55.7459C60.5522 57.4876 59.7781 57.2937 59.4894 54.1241C58.5651 43.9729 68.75 38.2214 75.8034 40.4933C75.8034 40.4933 82.6063 50.4102 75.2776 50.4102Z" fill="#393939"/>
<path d="M70.6837 51.7789V50.2236L68.0916 51.7789V48.5646L82.6079 49.3941L80.8452 51.5715L79.3935 51.1568L77.5271 51.7789L76.8014 50.6384L74.9349 51.7789V50.2236L72.3428 51.7789V50.2236L70.6837 51.7789Z" fill="#393939"/>
<path d="M81.9488 63.1918C82.4271 63.1918 82.8149 63.5795 82.8149 64.0579C82.8149 64.5276 82.4408 64.9101 81.9743 64.9236L81.9488 64.9239H80.0242C79.5458 64.9239 79.1581 64.5362 79.1581 64.0579C79.1581 63.5881 79.5321 63.2056 79.9986 63.1921L80.0242 63.1918H81.9488Z" fill="black"/>
<path d="M69.4387 63.1918C69.917 63.1918 70.3047 63.5795 70.3047 64.0579C70.3047 64.5276 69.9307 64.9101 69.4642 64.9236L69.4387 64.9239H67.514C67.0357 64.9239 66.6479 64.5362 66.6479 64.0579C66.6479 63.5881 67.022 63.2056 67.4885 63.1921L67.514 63.1918H69.4387Z" fill="black"/>
<path d="M78.1973 58.2335C78.2247 57.7645 78.6203 57.4046 79.0868 57.4182L79.1123 57.4194L84.8862 57.7562C85.3637 57.784 85.7283 58.1937 85.7004 58.6712C85.673 59.1402 85.2774 59.5002 84.8109 59.4865L84.7854 59.4854L79.0115 59.1486C78.534 59.1207 78.1694 58.711 78.1973 58.2335Z" fill="#393939"/>
<path d="M70.3507 57.4194C70.8282 57.3915 71.2379 57.756 71.2657 58.2335C71.2931 58.7025 70.9419 59.1061 70.477 59.1467L70.4515 59.1486L64.6777 59.4854C64.2001 59.5132 63.7905 59.1487 63.7626 58.6712C63.7352 58.2022 64.0864 57.7987 64.5513 57.758L64.5768 57.7562L70.3507 57.4194Z" fill="#393939"/>
<path d="M74.1472 66.4911L75.5084 67.3985C75.0457 68.0924 74.6834 69.1341 74.6834 69.8919C74.6834 70.6226 74.9473 70.9297 75.7551 70.9382L75.7901 70.9384V72.5743C74.0056 72.5743 73.0475 71.4964 73.0475 69.8919C73.0475 68.8049 73.4997 67.4855 74.1135 66.5421L74.1472 66.4911Z" fill="#EBBAAA"/>
</g>
<defs>
<filter id="filter0_d_466_1395" x="0" y="0" width="149" height="237.575" filterUnits="userSpaceOnUse" color-interpolation-filters="sRGB">
<feFlood flood-opacity="0" result="BackgroundImageFix"/>
<feColorMatrix in="SourceAlpha" type="matrix" values="0 0 0 0 0 0 0 0 0 0 0 0 0 0 0 0 0 0 127 0" result="hardAlpha"/>
<feOffset dy="10"/>
<feGaussianBlur stdDeviation="25"/>
<feComposite in2="hardAlpha" operator="out"/>
<feColorMatrix type="matrix" values="0 0 0 0 0 0 0 0 0 0 0 0 0 0 0 0 0 0 0.3 0"/>
<feBlend mode="normal" in2="BackgroundImageFix" result="effect1_dropShadow_466_1395"/>
<feBlend mode="normal" in="SourceGraphic" in2="effect1_dropShadow_466_1395" result="shape"/>
</filter>
</defs>
</svg>
