<svg width="10" height="10" viewBox="0 0 48 134" fill="none" xmlns="http://www.w3.org/2000/svg">
<path d="M30.9309 104.416C32.0584 104.416 32.9745 105.321 32.9927 106.444L32.993 106.478V127.849C32.993 128.987 32.0698 129.911 30.9309 129.911C29.8034 129.911 28.8873 129.006 28.8691 127.883L28.8688 127.849V106.478C28.8688 105.339 29.7921 104.416 30.9309 104.416Z" fill="#EBBAAA"/>
<path d="M17.0588 104.416C18.1863 104.416 19.1024 105.321 19.1206 106.444L19.1209 106.478V129.489C19.1209 130.628 18.1977 131.551 17.0588 131.551C15.9313 131.551 15.0152 130.646 14.997 129.523L14.9967 129.489V106.478C14.9967 105.339 15.92 104.416 17.0588 104.416Z" fill="#EBBAAA"/>
<path d="M28.4002 128.582C28.4002 128.582 28.447 125.482 28.6806 125.716C28.9144 125.952 29.9888 126.562 31.4388 126.562C32.8879 126.562 33.7761 126.045 34.1033 125.716C34.4305 125.388 34.7348 128.582 34.7348 128.582H28.4002Z" fill="#DCE1E9"/>
<path d="M19.8316 128.863C19.8316 128.863 19.7849 125.763 19.5512 125.998C19.3174 126.233 18.243 126.843 16.7931 126.843C15.3439 126.843 14.4557 126.327 14.1285 125.998C13.8013 125.669 13.497 128.863 13.497 128.863H19.8316Z" fill="#DCE1E9"/>
<path d="M23.9949 94.6681C29.9479 94.6681 34.7739 92.465 34.7739 89.7473C34.7739 87.0296 29.9479 84.8264 23.9949 84.8264C18.0418 84.8264 13.2159 87.0296 13.2159 89.7473C13.2159 92.465 18.0418 94.6681 23.9949 94.6681Z" fill="#E2D3BD"/>
<path d="M23.9011 83.1392H37.9607L36.0861 124.662H27.2593L23.9011 83.1392Z" fill="#E2D3BD"/>
<path d="M24.0886 83.1392H10.029L11.9036 124.662H20.7303L24.0886 83.1392Z" fill="#E2D3BD"/>
<path d="M44.5608 133.312C44.5794 131.175 44.2864 130.806 42.4165 129.932C40.5466 129.059 38.7852 127.844 35.5501 126.404C35.5501 126.404 35.1242 126.325 34.4311 126.697C33.8397 127.014 33.0799 127.794 31.9352 127.785C30.692 127.774 29.5842 127.512 28.8959 127.153C28.5985 126.343 27.939 126.338 27.939 126.338C27.939 126.338 27.0102 128.094 26.9948 129.86C26.9794 131.625 26.981 133.159 26.981 133.159L44.5608 133.312Z" fill="#161616"/>
<path d="M31.5872 128.79C32.1238 128.79 32.5577 128.932 33.0748 129.234L33.1251 129.263C33.2655 129.347 33.7423 129.653 33.8033 129.691C34.5416 130.149 35.1641 130.386 36.0692 130.468C37.0578 130.558 37.661 130.396 38.251 130.006L38.2844 129.983C38.311 129.965 38.3379 129.947 38.3666 129.927L38.4802 129.845L38.5653 129.784L38.95 130.315L38.8088 130.417L38.7433 130.464C38.7118 130.486 38.6818 130.507 38.6518 130.527C37.9295 131.015 37.1728 131.227 36.0101 131.121C35.0154 131.031 34.3084 130.769 33.512 130.282L33.4159 130.223C33.2839 130.139 32.9282 129.911 32.8018 129.835L32.7891 129.827C32.3427 129.561 32.0065 129.446 31.5872 129.446C31.0915 129.446 30.6759 129.613 30.1822 129.958L30.118 130.003C30.0168 130.077 29.6617 130.343 29.5596 130.412C29.3308 130.565 29.1448 130.649 28.946 130.656L28.916 130.657V130.001C28.9605 130.001 29.0431 129.966 29.1708 129.882L29.1938 129.867C29.2858 129.805 29.6754 129.513 29.755 129.456C30.3703 129.018 30.9152 128.79 31.5872 128.79Z" fill="white"/>
<path d="M35.89 126.195C35.9472 126.067 36.0973 126.009 36.2252 126.067C36.3531 126.124 36.4104 126.274 36.3532 126.402C36.2982 126.525 36.257 126.665 36.228 126.822C36.2027 126.959 36.1883 127.086 36.1805 127.237L36.179 127.269L37.542 126.671C37.7333 126.587 37.9359 126.757 37.8919 126.957L37.8884 126.972L37.6082 127.981L38.7336 127.62C38.8922 127.569 39.0543 127.682 39.0643 127.846L39.0647 127.862L39.0647 128.899L39.9086 128.445C40.0729 128.357 40.2711 128.47 40.282 128.653L40.2825 128.669V129.929C40.2825 130.069 40.1689 130.183 40.0288 130.183C39.8938 130.183 39.7835 130.078 39.7755 129.945L39.7751 129.929L39.775 129.093L38.9312 129.547C38.7669 129.636 38.5687 129.522 38.5578 129.34L38.5573 129.324L38.5573 128.209L37.3154 128.608C37.1281 128.668 36.9489 128.501 36.9898 128.313L36.9935 128.298L37.2564 127.351L36.0206 127.892C35.8579 127.964 35.676 127.85 35.6655 127.676L35.665 127.66L35.6652 127.564C35.6671 127.21 35.6807 126.992 35.729 126.73C35.7648 126.536 35.8173 126.357 35.89 126.195Z" fill="white"/>
<path d="M43.8531 130.095C43.2794 129.889 42.6718 129.732 41.507 129.47L42.0021 130.886L41.988 132.5L45.3035 132.529C45.4387 132.53 45.6806 132.351 45.5651 131.624C45.4207 130.715 44.6683 130.389 43.8531 130.095Z" fill="#393A40"/>
<path d="M29.2441 130.236C28.825 129.794 27.51 129.304 27.0413 129.444L26.9477 131.121L26.9478 132.528C29.6439 132.528 29.8534 132.528 29.8534 132.528C29.7091 131.619 30.0408 131.074 29.2441 130.236Z" fill="#393A40"/>
<path d="M26.9082 133.363L26.9279 132.117L34.2205 132.419L41.8879 132.348L45.5946 132.078L45.6851 132.89C45.7364 133.349 45.3947 133.758 44.9339 133.79L41.8693 134L27.3078 133.775C27.0835 133.771 26.9046 133.587 26.9082 133.363Z" fill="#D3D5E0"/>
<path d="M27.0915 132.424L34.1651 132.658L41.8917 132.658L45.4065 132.425L45.4189 132.612L41.8978 132.845L34.162 132.845L27.0853 132.612L27.0915 132.424Z" fill="black"/>
<path d="M3.71943 133.312C3.70077 131.175 3.99383 130.806 5.86375 129.932C7.73369 129.059 9.49507 127.844 12.7302 126.404C12.7302 126.404 13.156 126.325 13.849 126.697C14.4406 127.014 15.2003 127.794 16.3451 127.785C17.5881 127.774 18.6959 127.512 19.3842 127.153C19.6816 126.343 20.3413 126.338 20.3413 126.338C20.3413 126.338 21.27 128.094 21.2854 129.86C21.3008 131.625 21.2991 133.159 21.2991 133.159L3.71943 133.312Z" fill="#161616"/>
<path d="M16.6932 128.79C17.348 128.79 17.8821 129.006 18.4782 129.423L18.547 129.471C18.6592 129.553 19.0012 129.81 19.0866 129.867C19.2197 129.956 19.3071 129.996 19.3562 130L19.3644 130.001V130.657C19.1641 130.657 18.9795 130.581 18.7548 130.434L18.7208 130.412C18.6114 130.338 18.2116 130.038 18.1448 129.99C17.6304 129.624 17.2045 129.446 16.6932 129.446C16.2884 129.446 15.961 129.553 15.5371 129.8L15.4913 129.827C15.3622 129.904 14.8923 130.206 14.8229 130.249C14.004 130.757 13.2877 131.029 12.2706 131.121C11.1076 131.227 10.351 131.015 9.62856 130.527L9.56815 130.485C9.54771 130.471 9.5268 130.457 9.50499 130.441L9.33038 130.315L9.71503 129.784L9.85382 129.884L9.91377 129.927C9.93286 129.94 9.9512 129.953 9.96919 129.965L9.99598 129.983C10.5968 130.389 11.204 130.559 12.2114 130.468C13.0947 130.388 13.709 130.16 14.4246 129.723L14.5147 129.667C14.6457 129.584 15.0315 129.337 15.1553 129.263C15.6948 128.942 16.1393 128.79 16.6932 128.79Z" fill="white"/>
<path d="M12.0545 126.067C12.1824 126.009 12.3325 126.067 12.3897 126.195C12.4625 126.357 12.5149 126.536 12.5508 126.73C12.6033 127.015 12.6149 127.248 12.6149 127.66C12.6149 127.838 12.4378 127.959 12.2741 127.898L12.2593 127.892L11.0232 127.351L11.2863 128.298C11.3389 128.488 11.1658 128.66 10.9791 128.612L10.9644 128.608L9.72245 128.209L9.72253 129.324C9.72253 129.51 9.52887 129.631 9.36278 129.554L9.34862 129.547L8.50471 129.093L8.50471 129.929C8.50471 130.064 8.39938 130.175 8.26645 130.183L8.251 130.183C8.11607 130.183 8.00573 130.078 7.99775 129.945L7.99728 129.929V128.669C7.99728 128.482 8.19095 128.361 8.35704 128.438L8.3712 128.445L9.21509 128.899L9.21511 127.862C9.21511 127.695 9.37223 127.575 9.53092 127.616L9.54627 127.62L10.6715 127.981L10.3914 126.972C10.3355 126.77 10.5324 126.594 10.7241 126.666L10.7377 126.671L12.1008 127.269L12.0993 127.237C12.0921 127.096 12.0791 126.977 12.057 126.851L12.0518 126.822C12.0229 126.665 11.9816 126.525 11.9266 126.402C11.8693 126.274 11.9266 126.124 12.0545 126.067Z" fill="white"/>
<path d="M4.42698 130.095C5.00069 129.889 5.60826 129.732 6.77309 129.47L6.27801 130.886L6.2921 132.5L2.97662 132.529C2.84131 132.53 2.59955 132.351 2.71499 131.624C2.8593 130.715 3.6118 130.389 4.42698 130.095Z" fill="#393A40"/>
<path d="M19.0363 130.236C19.4554 129.794 20.7705 129.304 21.239 129.444L21.3326 131.121V132.528C18.6364 132.528 18.427 132.528 18.427 132.528C18.5713 131.619 18.2396 131.074 19.0363 130.236Z" fill="#393A40"/>
<path d="M21.3719 133.363L21.3521 132.117L14.0596 132.419L6.3922 132.348L2.68549 132.078L2.59493 132.89C2.54373 133.349 2.88534 133.758 3.34619 133.79L6.41071 134L20.9723 133.775C21.1965 133.771 21.3754 133.587 21.3719 133.363Z" fill="#D3D5E0"/>
<path d="M21.1889 132.424L21.1951 132.612L14.1154 132.845L6.3764 132.845L2.86151 132.612L2.87388 132.425L6.38258 132.658L14.1123 132.658L21.1889 132.424Z" fill="black"/>
<path d="M34.1362 53.2178C35.8044 52.2768 37.9196 52.8663 38.8607 54.5345C41.0138 58.3513 42.9394 63.9329 44.1508 69.5425C45.413 75.3867 45.7398 80.3101 44.7232 83.1057C44.0686 84.9058 42.0788 85.8344 40.2788 85.1798C38.4967 84.5318 37.5688 82.5751 38.1855 80.7895L38.2047 80.7354C38.2236 80.6833 38.2488 80.5872 38.2738 80.4526L38.2792 80.4232C38.3146 80.2251 38.3429 79.9827 38.3617 79.7012C38.4034 79.0791 38.3961 78.31 38.3374 77.4257C38.2182 75.63 37.8938 73.4524 37.3992 71.1378L37.3711 71.0066C36.2954 66.0258 34.5886 61.0784 32.8195 57.9423C31.8785 56.2741 32.468 54.1589 34.1362 53.2178Z" fill="#EBBAAA"/>
<path d="M9.65022 54.5345C10.5913 52.8663 12.7065 52.2768 14.3747 53.2178C16.0429 54.1589 16.6324 56.2741 15.6914 57.9423C13.9223 61.0784 12.2155 66.0258 11.1398 71.0066L11.0838 71.2687C10.6049 73.5344 10.2904 75.6639 10.1734 77.4257C10.1147 78.31 10.1075 79.0791 10.1491 79.7012C10.1666 79.9626 10.1923 80.1903 10.2242 80.3801L10.2317 80.4232C10.2567 80.5632 10.2822 80.6652 10.302 80.7236L10.3062 80.7354C10.9607 82.5354 10.0321 84.5252 8.2321 85.1798C6.43208 85.8344 4.44225 84.9058 3.7877 83.1057C2.7711 80.3101 3.09791 75.3866 4.36003 69.5425C5.5715 63.9329 7.49712 58.3513 9.65022 54.5345Z" fill="#EBBAAA"/>
<path d="M42.5125 51.5669C41.5368 48.5637 38.3106 46.9207 35.3075 47.8964L30.8534 49.3436C27.8503 50.3193 26.2062 53.5455 27.182 56.5486L32.098 71.1545L47.4277 66.1736L42.5125 51.5669Z" fill="#BFD5DF"/>
<path d="M5.29001 51.5669C6.26575 48.5637 9.49198 46.9207 12.4951 47.8964L16.9492 49.3436C19.9523 50.3193 21.5963 53.5455 20.6206 56.5486L15.7045 71.1545L0.374908 66.1736L5.29001 51.5669Z" fill="#BFD5DF"/>
<rect x="36.6486" y="67.6062" width="10.9665" height="1.87461" transform="rotate(-15 36.6486 67.6062)" fill="#3E5C78"/>
<rect width="10.9665" height="1.87461" transform="matrix(-0.965926 -0.258819 -0.258819 0.965926 11.0778 67.6062)" fill="#3E5C78"/>
<path d="M40.0138 49.9282C40.0736 48.146 38.8698 46.5683 37.1351 46.1552L30.0016 44.4568C29.0129 44.2214 27.994 44.7086 27.5565 45.626L25.401 50.1457L24.1825 56.7068V85.2946L26.6195 87.263H39.1062C39.6516 87.263 40.0818 86.7992 40.0409 86.2554L39.1793 74.7968L40.0138 49.9282Z" fill="#E4EFF4"/>
<path d="M8.35086 49.9282C8.29105 48.146 9.4948 46.5683 11.2296 46.1552L18.363 44.4568C19.3518 44.2214 20.3706 44.7086 20.8082 45.626L22.9638 50.1457L24.1823 56.7068V85.2946L21.7453 87.263H9.2585C8.71315 87.263 8.28294 86.7992 8.32383 86.2554L9.18538 74.7968L8.35086 49.9282Z" fill="#D2E1E8"/>
<path d="M27.6505 58.2065H37.0236L36.0863 66.9324L32.337 68.9856L28.5878 66.9324L27.6505 58.2065Z" fill="#BFD5DF"/>
<rect x="27.1819" y="57.2693" width="10.3104" height="1.87461" fill="#3E5C78"/>
<rect x="20.6207" y="37.0234" width="7.12352" height="10.779" rx="3.56176" fill="#EBBAAA"/>
<path d="M25.1198 50.7082L27.7442 42.3662L31.1185 44.3346L28.9627 53.2389L25.1198 50.7082Z" fill="#3E5C78"/>
<path d="M23.2452 50.7082L20.6207 42.3662L17.2464 44.3346L19.4022 53.2389L23.2452 50.7082Z" fill="#3E5C78"/>
<path opacity="0.5" d="M38.2414 30.9311C40.312 30.9311 41.9906 29.2525 41.9906 27.1818C41.9906 25.1112 40.312 23.4326 38.2414 23.4326C36.1707 23.4326 34.4922 25.1112 34.4922 27.1818C34.4922 29.2525 36.1707 30.9311 38.2414 30.9311Z" fill="#C99584"/>
<path opacity="0.5" d="M10.1223 30.9311C8.05163 30.9311 6.37305 29.2525 6.37305 27.1818C6.37305 25.1112 8.05163 23.4326 10.1223 23.4326C12.1929 23.4326 13.8715 25.1112 13.8715 27.1818C13.8715 29.2525 12.1929 30.9311 10.1223 30.9311Z" fill="#C99584"/>
<path d="M10.1223 16.1216C10.1223 8.35669 16.4169 2.06201 24.1818 2.06201C31.9467 2.06201 38.2414 8.3567 38.2414 16.1216V34.7749C38.2414 37.0089 36.6646 38.9322 34.474 39.3704L27.3952 40.7861C25.274 41.2104 23.0897 41.2104 20.9685 40.7861L13.8897 39.3704C11.6991 38.9322 10.1223 37.0089 10.1223 34.7749V16.1216Z" fill="#F4D5CC"/>
<path d="M27.5694 33.8684C27.9142 33.6685 28.3558 33.7861 28.5556 34.1309C28.7555 34.4758 28.6379 34.9174 28.2931 35.1172L28.2604 35.1356C28.2475 35.1426 28.2327 35.1506 28.2158 35.1593L28.1984 35.1684C28.1343 35.2015 28.0599 35.2374 27.9755 35.2754C27.7419 35.3805 27.47 35.4843 27.1613 35.5803C26.2933 35.8502 25.2959 36.0112 24.182 36.0112C23.0681 36.0112 22.0707 35.8502 21.2027 35.5803C20.894 35.4843 20.6221 35.3805 20.3885 35.2754C20.3181 35.2437 20.2548 35.2135 20.1985 35.1852L20.1656 35.1684C20.1234 35.1466 20.0917 35.1293 20.0709 35.1172C19.7261 34.9174 19.6085 34.4758 19.8084 34.1309C20.0041 33.7931 20.4319 33.6734 20.7734 33.8566L20.8144 33.8792C20.8425 33.8942 20.8912 33.9183 20.9597 33.9496L20.9808 33.9592C21.1622 34.0408 21.3795 34.1237 21.6313 34.202C22.3645 34.43 23.2182 34.5678 24.182 34.5678C25.1458 34.5678 25.9995 34.43 26.7327 34.202C26.9651 34.1298 27.1682 34.0535 27.3407 33.978L27.3832 33.9592C27.4702 33.92 27.5286 33.8907 27.5574 33.8751L27.5694 33.8684Z" fill="#C99584"/>
<path fill-rule="evenodd" clip-rule="evenodd" d="M26.2435 21.1831H35.0542C35.5201 21.1831 35.8977 21.5608 35.8977 22.0267V24.6511C35.8977 25.7382 35.0165 26.6195 33.9294 26.6195H27.3683C26.2812 26.6195 25.3999 25.7382 25.3999 24.6511V22.0267C25.3999 21.5608 25.7776 21.1831 26.2435 21.1831ZM34.773 22.3079H26.5247L26.5247 24.6511C26.5247 25.1087 26.8891 25.4812 27.3434 25.4943L27.3683 25.4947H33.9295C34.3953 25.4947 34.773 25.117 34.773 24.6511L34.773 22.3079Z" fill="#393939"/>
<rect x="21.8386" y="22.4954" width="4.68653" height="0.937305" fill="#393939"/>
<path fill-rule="evenodd" clip-rule="evenodd" d="M13.122 21.1831H21.9327C22.3986 21.1831 22.7763 21.5608 22.7763 22.0267V24.5574C22.7763 25.6445 21.895 26.5257 20.8079 26.5257H14.2468C13.1597 26.5257 12.2784 25.6445 12.2784 24.5574V22.0267C12.2784 21.5608 12.6561 21.1831 13.122 21.1831ZM21.6515 22.3079H13.4032L13.4033 24.5574C13.4033 25.015 13.7676 25.3875 14.222 25.4006L14.2468 25.401H20.808C21.2738 25.401 21.6515 25.0233 21.6515 24.5574L21.6515 22.3079Z" fill="#393939"/>
<path d="M38.7092 14.6674C38.731 14.0797 38.3054 13.5908 37.7727 13.5908C37.22 13.5908 36.7874 14.1152 36.8397 14.7221L37.7222 25.0047C37.737 25.1766 37.8676 25.3071 38.0234 25.3071C38.1862 25.3071 38.3193 25.166 38.3263 24.9874L38.7092 14.6674Z" fill="#6E6C6C"/>
<path d="M9.65443 14.6674C9.63259 14.0797 10.0582 13.5908 10.5909 13.5908C11.1435 13.5908 11.5762 14.1152 11.5239 14.7221L10.6414 25.0047C10.6266 25.1766 10.496 25.3071 10.3403 25.3071C10.1774 25.3071 10.0443 25.166 10.0373 24.9874L9.65443 14.6674Z" fill="#6E6C6C"/>
<path d="M23.7436 10.1397C30.881 10.1397 36.588 10.1202 36.8823 15.3367C38.0863 17.0331 38.8403 16.8443 39.1215 13.757C40.0218 3.86964 30.1015 -1.73235 23.2315 0.480459C23.2315 0.480459 16.6054 10.1397 23.7436 10.1397Z" fill="#393939"/>
<path d="M24.62 10.1397C17.4827 10.1397 11.7756 10.1202 11.4814 15.3367C10.2773 17.0331 9.52334 16.8443 9.24219 13.757C8.3419 3.86964 18.2621 -1.73235 25.1322 0.480459C25.1322 0.480459 31.7583 10.1397 24.62 10.1397Z" fill="#393939"/>
<path d="M20.1455 11.4728V9.95796L17.6207 11.4728V8.34204L31.7598 9.14999L30.0429 11.2708L28.629 10.8669L26.8111 11.4728L26.1042 10.3619L24.2862 11.4728V9.95796L21.7614 11.4728V9.95796L20.1455 11.4728Z" fill="#393939"/>
<path d="M31.1179 22.5891C31.5838 22.5891 31.9615 22.9668 31.9615 23.4327C31.9615 23.8903 31.5972 24.2627 31.1428 24.2759L31.1179 24.2763H29.2433C28.7774 24.2763 28.3997 23.8986 28.3997 23.4327C28.3997 22.9751 28.764 22.6026 29.2184 22.5895L29.2433 22.5891H31.1179Z" fill="black"/>
<path d="M18.9329 22.5891C19.3988 22.5891 19.7765 22.9668 19.7765 23.4327C19.7765 23.8903 19.4122 24.2627 18.9578 24.2759L18.9329 24.2763H17.0583C16.5924 24.2763 16.2148 23.8986 16.2148 23.4327C16.2148 22.9751 16.5791 22.6026 17.0335 22.5895L17.0583 22.5891H18.9329Z" fill="black"/>
<path d="M27.4639 17.7598C27.4905 17.303 27.8759 16.9524 28.3303 16.9657L28.3551 16.9668L33.979 17.2948C34.4441 17.322 34.7991 17.721 34.772 18.1861C34.7453 18.6429 34.3599 18.9935 33.9056 18.9802L33.8807 18.9791L28.2569 18.6511C27.7918 18.6239 27.4367 18.2249 27.4639 17.7598Z" fill="#393939"/>
<path d="M19.8211 16.9668C20.2862 16.9397 20.6853 17.2947 20.7124 17.7598C20.7391 18.2166 20.397 18.6097 19.9442 18.6493L19.9194 18.6511L14.2956 18.9791C13.8305 19.0063 13.4314 18.6512 13.4043 18.1861C13.3776 17.7293 13.7196 17.3362 14.1725 17.2967L14.1973 17.2948L19.8211 16.9668Z" fill="#393939"/>
<path d="M23.5189 25.8027L24.8447 26.6866C24.3941 27.3625 24.0412 28.3771 24.0412 29.1152C24.0412 29.8269 24.2982 30.126 25.0851 30.1343L25.1191 30.1345V31.7279C23.3811 31.7279 22.4478 30.678 22.4478 29.1152C22.4478 28.0565 22.8882 26.7713 23.4862 25.8525L23.5189 25.8027Z" fill="#EBBAAA"/>
</svg>
