<svg width="3000" height="971" viewBox="0 0 3000 971" fill="none" xmlns="http://www.w3.org/2000/svg">
<mask id="mask0_280_23782" style="mask-type:luminance" maskUnits="userSpaceOnUse" x="781" y="0" width="1441" height="960">
<path d="M2221 0H781V960H2221V0Z" fill="white"/>
</mask>
<g mask="url(#mask0_280_23782)">
<path d="M769.968 499.989C791.935 462.714 813.692 428.84 862.502 427.882C890.809 427.325 915.316 440.874 933.41 461.125C958.435 489.132 967.553 555.387 1006.03 570.357C1036.72 582.298 1048.46 554.423 1075.68 552.136C1107.73 549.445 1120.85 588.244 1153.49 569.107C1206.83 537.838 1234.08 424.097 1306.77 494.392C1339.59 526.126 1372.23 591.318 1417.66 605.128C1442.2 612.589 1474.27 607.622 1499.99 607.622C1524.4 607.622 1549.95 609.779 1574.25 607.622C1624.16 603.191 1637.84 548.627 1683.1 539.194C1705.11 534.607 1729.63 549.811 1751.65 550.093C1796.05 550.66 1820.71 501.099 1842.13 468.979C1856.43 447.531 1888.3 380.246 1923.57 390.463C1972.08 404.515 1978.43 492.43 2020.08 518.041C2033.9 526.539 2048.83 529.087 2063.52 536.974C2078.4 544.969 2094.19 568.754 2112.74 569.941C2171.76 573.713 2180.48 479.745 2229.61 466.092C2236.62 509.347 2225.08 587.958 2257.41 622.207C2277.22 643.19 2324.79 655.573 2350.25 667.525C2565.86 768.711 2781.84 869.113 2997.72 969.727C2758.54 969.727 2519.37 969.727 2280.2 969.729C1520.89 969.734 761.57 969.738 2.25391 969.742C216.104 869.601 430.185 769.945 643.828 669.364C671.245 656.456 719.138 644.053 740.275 621.602C768.015 592.14 761.207 536.926 769.968 499.989Z" fill="url(#paint0_radial_280_23782)"/>
</g>
<mask id="mask1_280_23782" style="mask-type:luminance" maskUnits="userSpaceOnUse" x="781" y="0" width="1441" height="960">
<path d="M2221 0H781V960H2221V0Z" fill="white"/>
</mask>
<g mask="url(#mask1_280_23782)">
<path opacity="0.25" d="M1597.97 660.574C1648.29 660.574 1689.08 619.784 1689.08 569.466C1689.08 519.149 1648.29 478.358 1597.97 478.358C1547.65 478.358 1506.86 519.149 1506.86 569.466C1506.86 619.784 1547.65 660.574 1597.97 660.574Z" fill="url(#paint1_radial_280_23782)"/>
<path opacity="0.25" d="M1679.75 646.612C1730.07 646.612 1770.86 605.821 1770.86 555.504C1770.86 505.186 1730.07 464.396 1679.75 464.396C1629.44 464.396 1588.65 505.186 1588.65 555.504C1588.65 605.821 1629.44 646.612 1679.75 646.612Z" fill="url(#paint2_radial_280_23782)"/>
<path opacity="0.25" d="M1649.66 666.461C1702.27 666.461 1744.93 624.799 1744.93 573.408C1744.93 522.016 1702.27 480.355 1649.66 480.355C1597.04 480.355 1554.38 522.016 1554.38 573.408C1554.38 624.799 1597.04 666.461 1649.66 666.461Z" fill="url(#paint3_radial_280_23782)"/>
<path opacity="0.25" d="M1775.64 667.647C1870.95 667.647 1948.22 592.182 1948.22 499.09C1948.22 405.999 1870.95 330.534 1775.64 330.534C1680.33 330.534 1603.06 405.999 1603.06 499.09C1603.06 592.182 1680.33 667.647 1775.64 667.647Z" fill="url(#paint4_radial_280_23782)"/>
<path opacity="0.25" d="M1350.72 728.961C1446.03 728.961 1523.3 653.495 1523.3 560.404C1523.3 467.312 1446.03 391.847 1350.72 391.847C1255.4 391.847 1178.14 467.312 1178.14 560.404C1178.14 653.495 1255.4 728.961 1350.72 728.961Z" fill="url(#paint5_radial_280_23782)"/>
<path opacity="0.25" d="M2051.81 679.05C2147.12 679.05 2224.39 603.585 2224.39 510.493C2224.39 417.402 2147.12 341.937 2051.81 341.937C1956.49 341.937 1879.23 417.402 1879.23 510.493C1879.23 603.585 1956.49 679.05 2051.81 679.05Z" fill="url(#paint6_radial_280_23782)"/>
<path opacity="0.25" d="M2151.63 711.805C2246.94 711.805 2324.21 636.34 2324.21 543.248C2324.21 450.157 2246.94 374.692 2151.63 374.692C2056.31 374.692 1979.05 450.157 1979.05 543.248C1979.05 636.34 2056.31 711.805 2151.63 711.805Z" fill="url(#paint7_radial_280_23782)"/>
<path opacity="0.25" d="M1120.66 710.244C1215.97 710.244 1293.24 634.779 1293.24 541.688C1293.24 448.596 1215.97 373.131 1120.66 373.131C1025.35 373.131 948.08 448.596 948.08 541.688C948.08 634.779 1025.35 710.244 1120.66 710.244Z" fill="url(#paint8_radial_280_23782)"/>
<path opacity="0.25" d="M1144.84 745.336C1240.15 745.336 1317.42 669.871 1317.42 576.779C1317.42 483.688 1240.15 408.223 1144.84 408.223C1049.52 408.223 972.257 483.688 972.257 576.779C972.257 669.871 1049.52 745.336 1144.84 745.336Z" fill="url(#paint9_radial_280_23782)"/>
<path opacity="0.25" d="M929.597 665.013C1024.91 665.013 1102.18 589.548 1102.18 496.456C1102.18 403.365 1024.91 327.899 929.597 327.899C834.284 327.899 757.017 403.365 757.017 496.456C757.017 589.548 834.284 665.013 929.597 665.013Z" fill="url(#paint10_radial_280_23782)"/>
<path opacity="0.25" d="M1464.33 666.559C1514.64 666.559 1555.43 625.768 1555.43 575.451C1555.43 525.133 1514.64 484.343 1464.33 484.343C1414.01 484.343 1373.22 525.133 1373.22 575.451C1373.22 625.768 1414.01 666.559 1464.33 666.559Z" fill="url(#paint11_radial_280_23782)"/>
<path opacity="0.25" d="M2050.77 624.447C2101.09 624.447 2141.88 583.657 2141.88 533.339C2141.88 483.022 2101.09 442.231 2050.77 442.231C2000.46 442.231 1959.67 483.022 1959.67 533.339C1959.67 583.657 2000.46 624.447 2050.77 624.447Z" fill="url(#paint12_radial_280_23782)"/>
<path opacity="0.25" d="M2000 549.844C2050.32 549.844 2091.11 509.053 2091.11 458.736C2091.11 408.419 2050.32 367.628 2000 367.628C1949.69 367.628 1908.9 408.419 1908.9 458.736C1908.9 509.053 1949.69 549.844 2000 549.844Z" fill="url(#paint13_radial_280_23782)"/>
<path opacity="0.25" d="M2127.45 619.265C2177.77 619.265 2218.56 578.475 2218.56 528.157C2218.56 477.84 2177.77 437.05 2127.45 437.05C2077.13 437.05 2036.34 477.84 2036.34 528.157C2036.34 578.475 2077.13 619.265 2127.45 619.265Z" fill="url(#paint14_radial_280_23782)"/>
<path opacity="0.25" d="M1599.01 689.725C1649.33 689.725 1690.12 648.935 1690.12 598.618C1690.12 548.3 1649.33 507.51 1599.01 507.51C1548.69 507.51 1507.9 548.3 1507.9 598.618C1507.9 648.935 1548.69 689.725 1599.01 689.725Z" fill="url(#paint15_radial_280_23782)"/>
<path opacity="0.25" d="M1518.19 776.461C1662.76 776.461 1779.96 659.262 1779.96 514.689C1779.96 370.115 1662.76 252.916 1518.19 252.916C1373.62 252.916 1256.42 370.115 1256.42 514.689C1256.42 659.262 1373.62 776.461 1518.19 776.461Z" fill="url(#paint16_radial_280_23782)"/>
<path opacity="0.25" d="M935.869 746.411C1080.44 746.411 1197.64 629.212 1197.64 484.639C1197.64 340.065 1080.44 222.866 935.869 222.866C791.296 222.866 674.096 340.065 674.096 484.639C674.096 629.212 791.296 746.411 935.869 746.411Z" fill="url(#paint17_radial_280_23782)"/>
<path opacity="0.25" d="M1193.87 757.81C1338.45 757.81 1455.65 640.611 1455.65 496.038C1455.65 351.465 1338.45 234.265 1193.87 234.265C1049.3 234.265 932.1 351.465 932.1 496.038C932.1 640.611 1049.3 757.81 1193.87 757.81Z" fill="url(#paint18_radial_280_23782)"/>
<path opacity="0.25" d="M1872.56 684.242C2017.13 684.242 2134.33 567.042 2134.33 422.469C2134.33 277.896 2017.13 160.696 1872.56 160.696C1727.98 160.696 1610.78 277.896 1610.78 422.469C1610.78 567.042 1727.98 684.242 1872.56 684.242Z" fill="url(#paint19_radial_280_23782)"/>
<path opacity="0.25" d="M2019.69 759.882C2164.26 759.882 2281.46 642.683 2281.46 498.109C2281.46 353.536 2164.26 236.337 2019.69 236.337C1875.12 236.337 1757.92 353.536 1757.92 498.109C1757.92 642.683 1875.12 759.882 2019.69 759.882Z" fill="url(#paint20_radial_280_23782)"/>
<path opacity="0.25" d="M2213.55 657.437C2358.12 657.437 2475.32 540.237 2475.32 395.664C2475.32 251.091 2358.12 133.891 2213.55 133.891C2068.98 133.891 1951.78 251.091 1951.78 395.664C1951.78 540.237 2068.98 657.437 2213.55 657.437Z" fill="url(#paint21_radial_280_23782)"/>
<path opacity="0.25" d="M776.152 677.925C920.725 677.925 1037.92 560.725 1037.92 416.152C1037.92 271.579 920.725 154.379 776.152 154.379C631.579 154.379 514.379 271.579 514.379 416.152C514.379 560.725 631.579 677.925 776.152 677.925Z" fill="url(#paint22_radial_280_23782)"/>
<path opacity="0.25" d="M957.402 788.252C1101.98 788.252 1219.17 671.052 1219.17 526.479C1219.17 381.906 1101.98 264.707 957.402 264.707C812.829 264.707 695.629 381.906 695.629 526.479C695.629 671.052 812.829 788.252 957.402 788.252Z" fill="url(#paint23_radial_280_23782)"/>
<path opacity="0.25" d="M1567.46 663.953C1596.22 663.953 1619.53 640.641 1619.53 611.885C1619.53 583.128 1596.22 559.816 1567.46 559.816C1538.7 559.816 1515.39 583.128 1515.39 611.885C1515.39 640.641 1538.7 663.953 1567.46 663.953Z" fill="url(#paint24_radial_280_23782)"/>
<path opacity="0.25" d="M1501.34 662.365C1530.1 662.365 1553.41 639.053 1553.41 610.297C1553.41 581.54 1530.1 558.228 1501.34 558.228C1472.59 558.228 1449.28 581.54 1449.28 610.297C1449.28 639.053 1472.59 662.365 1501.34 662.365Z" fill="url(#paint25_radial_280_23782)"/>
<path opacity="0.25" d="M1533.61 654.701C1562.36 654.701 1585.68 631.389 1585.68 602.632C1585.68 573.876 1562.36 550.564 1533.61 550.564C1504.85 550.564 1481.54 573.876 1481.54 602.632C1481.54 631.389 1504.85 654.701 1533.61 654.701Z" fill="url(#paint26_radial_280_23782)"/>
<path opacity="0.25" d="M1740.28 596.024C1769.04 596.024 1792.35 572.712 1792.35 543.955C1792.35 515.199 1769.04 491.887 1740.28 491.887C1711.52 491.887 1688.21 515.199 1688.21 543.955C1688.21 572.712 1711.52 596.024 1740.28 596.024Z" fill="url(#paint27_radial_280_23782)"/>
<path opacity="0.25" d="M1450.57 661.837C1479.32 661.837 1502.63 638.526 1502.63 609.769C1502.63 581.012 1479.32 557.7 1450.57 557.7C1421.81 557.7 1398.5 581.012 1398.5 609.769C1398.5 638.526 1421.81 661.837 1450.57 661.837Z" fill="url(#paint28_radial_280_23782)"/>
</g>
<mask id="mask2_280_23782" style="mask-type:luminance" maskUnits="userSpaceOnUse" x="781" y="0" width="1441" height="960">
<path d="M2221 0H781V960H2221V0Z" fill="white"/>
</mask>
<g mask="url(#mask2_280_23782)">
<path opacity="0.25" d="M1590.18 666.332C1636.74 666.332 1674.49 628.586 1674.49 582.023C1674.49 535.46 1636.74 497.714 1590.18 497.714C1543.62 497.714 1505.87 535.46 1505.87 582.023C1505.87 628.586 1543.62 666.332 1590.18 666.332Z" fill="url(#paint29_radial_280_23782)"/>
<path opacity="0.25" d="M1410.36 767.466C1506.96 767.466 1585.27 689.154 1585.27 592.55C1585.27 495.947 1506.96 417.635 1410.36 417.635C1313.75 417.635 1235.44 495.947 1235.44 592.55C1235.44 689.154 1313.75 767.466 1410.36 767.466Z" fill="url(#paint30_radial_280_23782)"/>
<path opacity="0.25" d="M1437.55 787.642C1534.15 787.642 1612.47 709.329 1612.47 612.726C1612.47 516.122 1534.15 437.81 1437.55 437.81C1340.95 437.81 1262.63 516.122 1262.63 612.726C1262.63 709.329 1340.95 787.642 1437.55 787.642Z" fill="url(#paint31_radial_280_23782)"/>
<path opacity="0.25" d="M1791.94 674.483C1888.54 674.483 1966.85 596.17 1966.85 499.567C1966.85 402.963 1888.54 324.651 1791.94 324.651C1695.33 324.651 1617.02 402.963 1617.02 499.567C1617.02 596.17 1695.33 674.483 1791.94 674.483Z" fill="url(#paint32_radial_280_23782)"/>
<path opacity="0.25" d="M1199.83 775.361C1296.43 775.361 1374.75 697.049 1374.75 600.445C1374.75 503.842 1296.43 425.53 1199.83 425.53C1103.23 425.53 1024.91 503.842 1024.91 600.445C1024.91 697.049 1103.23 775.361 1199.83 775.361Z" fill="url(#paint33_radial_280_23782)"/>
<path opacity="0.25" d="M1184.92 728.869C1281.52 728.869 1359.83 650.556 1359.83 553.953C1359.83 457.349 1281.52 379.037 1184.92 379.037C1088.31 379.037 1010 457.349 1010 553.953C1010 650.556 1088.31 728.869 1184.92 728.869Z" fill="url(#paint34_radial_280_23782)"/>
<path opacity="0.25" d="M1516.89 660.086C1545.64 660.086 1568.95 636.775 1568.95 608.018C1568.95 579.261 1545.64 555.949 1516.89 555.949C1488.13 555.949 1464.82 579.261 1464.82 608.018C1464.82 636.775 1488.13 660.086 1516.89 660.086Z" fill="url(#paint35_radial_280_23782)"/>
<path opacity="0.25" d="M1566.57 655.027C1595.32 655.027 1618.64 631.715 1618.64 602.959C1618.64 574.202 1595.32 550.89 1566.57 550.89C1537.81 550.89 1514.5 574.202 1514.5 602.959C1514.5 631.715 1537.81 655.027 1566.57 655.027Z" fill="url(#paint36_radial_280_23782)"/>
<path opacity="0.25" d="M1557.05 659.491C1585.81 659.491 1609.12 636.179 1609.12 607.423C1609.12 578.666 1585.81 555.354 1557.05 555.354C1528.29 555.354 1504.98 578.666 1504.98 607.423C1504.98 636.179 1528.29 659.491 1557.05 659.491Z" fill="url(#paint37_radial_280_23782)"/>
<path opacity="0.25" d="M1580.85 656.515C1609.6 656.515 1632.92 633.203 1632.92 604.447C1632.92 575.69 1609.6 552.378 1580.85 552.378C1552.09 552.378 1528.78 575.69 1528.78 604.447C1528.78 633.203 1552.09 656.515 1580.85 656.515Z" fill="url(#paint38_radial_280_23782)"/>
<path opacity="0.25" d="M1487.44 657.408C1516.19 657.408 1539.5 634.096 1539.5 605.34C1539.5 576.583 1516.19 553.271 1487.44 553.271C1458.68 553.271 1435.37 576.583 1435.37 605.34C1435.37 634.096 1458.68 657.408 1487.44 657.408Z" fill="url(#paint39_radial_280_23782)"/>
<path opacity="0.25" d="M1467.5 661.87C1496.26 661.87 1519.57 638.558 1519.57 609.802C1519.57 581.045 1496.26 557.733 1467.5 557.733C1438.75 557.733 1415.43 581.045 1415.43 609.802C1415.43 638.558 1438.75 661.87 1467.5 661.87Z" fill="url(#paint40_radial_280_23782)"/>
<path opacity="0.25" d="M1431.21 666.927C1459.96 666.927 1483.28 643.615 1483.28 614.859C1483.28 586.102 1459.96 562.79 1431.21 562.79C1402.45 562.79 1379.14 586.102 1379.14 614.859C1379.14 643.615 1402.45 666.927 1431.21 666.927Z" fill="url(#paint41_radial_280_23782)"/>
<path opacity="0.25" d="M1148.75 610.789C1177.51 610.789 1200.82 587.477 1200.82 558.72C1200.82 529.963 1177.51 506.652 1148.75 506.652C1119.99 506.652 1096.68 529.963 1096.68 558.72C1096.68 587.477 1119.99 610.789 1148.75 610.789Z" fill="url(#paint42_radial_280_23782)"/>
<path opacity="0.25" d="M1175.94 596.753C1204.7 596.753 1228.01 573.442 1228.01 544.685C1228.01 515.928 1204.7 492.616 1175.94 492.616C1147.19 492.616 1123.88 515.928 1123.88 544.685C1123.88 573.442 1147.19 596.753 1175.94 596.753Z" fill="url(#paint43_radial_280_23782)"/>
<path opacity="0.25" d="M1121.56 629.209C1150.31 629.209 1173.63 605.897 1173.63 577.14C1173.63 548.384 1150.31 525.072 1121.56 525.072C1092.8 525.072 1069.49 548.384 1069.49 577.14C1069.49 605.897 1092.8 629.209 1121.56 629.209Z" fill="url(#paint44_radial_280_23782)"/>
<path opacity="0.25" d="M1518.05 662.542C1546.81 662.542 1570.12 639.23 1570.12 610.473C1570.12 581.717 1546.81 558.405 1518.05 558.405C1489.29 558.405 1465.98 581.717 1465.98 610.473C1465.98 639.23 1489.29 662.542 1518.05 662.542Z" fill="url(#paint45_radial_280_23782)"/>
<path opacity="0.25" d="M1743.49 602.016C1772.25 602.016 1795.56 578.704 1795.56 549.948C1795.56 521.191 1772.25 497.879 1743.49 497.879C1714.73 497.879 1691.42 521.191 1691.42 549.948C1691.42 578.704 1714.73 602.016 1743.49 602.016Z" fill="url(#paint46_radial_280_23782)"/>
<path opacity="0.25" d="M1645.24 605.524C1674 605.524 1697.31 582.212 1697.31 553.455C1697.31 524.699 1674 501.387 1645.24 501.387C1616.49 501.387 1593.17 524.699 1593.17 553.455C1593.17 582.212 1616.49 605.524 1645.24 605.524Z" fill="url(#paint47_radial_280_23782)"/>
<path opacity="0.25" d="M1489.1 575.7C1517.86 575.7 1541.17 552.389 1541.17 523.632C1541.17 494.875 1517.86 471.563 1489.1 471.563C1460.35 471.563 1437.03 494.875 1437.03 523.632C1437.03 552.389 1460.35 575.7 1489.1 575.7Z" fill="url(#paint48_radial_280_23782)"/>
</g>
<path d="M769.968 499.989C791.935 462.714 813.692 428.84 862.502 427.882C890.809 427.325 915.316 440.874 933.41 461.125C958.435 489.132 967.553 555.387 1006.03 570.357C1036.72 582.298 1048.46 554.423 1075.68 552.136C1107.73 549.445 1120.85 588.244 1153.49 569.107C1206.83 537.838 1234.08 424.097 1306.77 494.392C1339.59 526.126 1372.23 591.318 1417.66 605.128C1442.2 612.589 1474.27 607.622 1499.99 607.622C1524.4 607.622 1549.95 609.779 1574.25 607.622C1624.16 603.191 1637.84 548.627 1683.1 539.194C1705.11 534.607 1729.63 549.811 1751.65 550.093C1796.05 550.66 1820.71 501.099 1842.13 468.979C1856.43 447.531 1888.3 380.246 1923.57 390.463C1972.08 404.515 1978.43 492.43 2020.08 518.041C2033.9 526.539 2048.83 529.087 2063.52 536.974C2078.4 544.969 2094.19 568.754 2112.74 569.941C2171.76 573.713 2180.48 479.745 2229.61 466.092C2236.62 509.347 2225.08 587.958 2257.41 622.207C2277.22 643.19 2324.79 655.573 2350.25 667.525C2565.86 768.71 2781.84 869.113 2997.72 969.727C2758.54 969.727 2519.37 969.727 2280.2 969.729C1520.89 969.734 761.57 969.738 2.25391 969.742C216.104 869.601 430.185 769.945 643.828 669.364C671.245 656.456 719.138 644.053 740.275 621.602C768.015 592.14 761.207 536.926 769.968 499.989Z" stroke="#6BFFFF" stroke-width="0.6" stroke-miterlimit="10"/>
<path d="M42.3052 950.986C777.834 950.922 1513.36 950.869 2248.89 950.776C2484.92 950.746 2720.94 950.74 2956.97 950.736" stroke="#6BFFFF" stroke-width="0.6" stroke-miterlimit="10"/>
<path d="M80.949 932.892C1026.53 932.748 1972.11 932.456 2917.69 932.427" stroke="#6BFFFF" stroke-width="0.6" stroke-miterlimit="10"/>
<path d="M118.205 915.45C1038.75 915.268 1959.3 914.828 2879.85 914.788" stroke="#6BFFFF" stroke-width="0.6" stroke-miterlimit="10"/>
<path d="M154.095 898.65C1050.54 898.445 1946.98 897.853 2843.42 897.805" stroke="#6BFFFF" stroke-width="0.6" stroke-miterlimit="10"/>
<path d="M188.646 882.48C1061.89 882.265 1935.14 881.522 2808.38 881.468" stroke="#6BFFFF" stroke-width="0.6" stroke-miterlimit="10"/>
<path d="M221.887 866.922C1072.82 866.711 1923.76 865.818 2774.7 865.757" stroke="#6BFFFF" stroke-width="0.6" stroke-miterlimit="10"/>
<path d="M253.837 851.969C1083.34 851.77 1912.84 850.731 2742.34 850.667" stroke="#6BFFFF" stroke-width="0.6" stroke-miterlimit="10"/>
<path d="M284.523 837.61C1093.45 837.429 1902.37 836.25 2711.3 836.183" stroke="#6BFFFF" stroke-width="0.6" stroke-miterlimit="10"/>
<path d="M313.974 823.828C1103.16 823.669 1892.34 822.359 2681.52 822.292" stroke="#6BFFFF" stroke-width="0.6" stroke-miterlimit="10"/>
<path d="M342.211 810.614C1112.47 810.48 1882.73 809.05 2652.99 808.982" stroke="#6BFFFF" stroke-width="0.6" stroke-miterlimit="10"/>
<path d="M369.258 797.956C1121.4 797.847 1873.54 796.305 2625.68 796.241" stroke="#6BFFFF" stroke-width="0.6" stroke-miterlimit="10"/>
<path d="M395.142 785.841C1129.95 785.752 1864.76 784.117 2599.57 784.053" stroke="#6BFFFF" stroke-width="0.6" stroke-miterlimit="10"/>
<path d="M419.89 774.256C1138.14 774.188 1856.38 772.468 2574.63 772.41" stroke="#6BFFFF" stroke-width="0.6" stroke-miterlimit="10"/>
<path d="M443.524 763.19C1145.96 763.138 1848.39 761.349 2550.82 761.295" stroke="#6BFFFF" stroke-width="0.6" stroke-miterlimit="10"/>
<path d="M466.068 752.632C1153.42 752.59 1840.77 750.749 2528.12 750.701" stroke="#6BFFFF" stroke-width="0.6" stroke-miterlimit="10"/>
<path d="M487.551 742.568C1160.54 742.526 1833.52 740.652 2506.51 740.609" stroke="#6BFFFF" stroke-width="0.6" stroke-miterlimit="10"/>
<path d="M508.015 732.987C1167.33 732.941 1826.64 731.055 2485.96 731.011" stroke="#6BFFFF" stroke-width="0.6" stroke-miterlimit="10"/>
<path d="M527.479 723.875C1173.8 723.83 1820.12 721.935 2466.44 721.891" stroke="#6BFFFF" stroke-width="0.6" stroke-miterlimit="10"/>
<path d="M545.948 715.223C1180.01 715.179 1813.92 713.286 2447.92 713.242" stroke="#6BFFFF" stroke-width="0.6" stroke-miterlimit="10"/>
<path d="M563.472 707.015C727.849 707.003 892.677 702.904 1057.02 707.199C1201.92 710.986 1345.69 706.02 1490.54 706.011C1570.31 706.005 1651.46 701.096 1731.1 705.055C1764.22 706.702 1796.48 710.688 1829.75 708.737C1862.87 706.794 1895.3 699.446 1928.55 700.351C2095.78 704.899 2262.93 705.055 2430.4 705.043" stroke="#6BFFFF" stroke-width="0.6" stroke-miterlimit="10"/>
<path d="M580.072 699.243C741.099 699.229 904.485 690.486 1065.3 700.66C1124.36 704.394 1182.91 709.175 1242.14 709.824C1283.39 710.275 1322.39 700.547 1363.29 698.438C1405.48 696.263 1448.24 698.25 1490.47 698.248C1570.73 698.243 1654.38 690.539 1734.2 697.24C1763.22 699.675 1790.01 704.98 1819.37 702.098C1855.1 698.592 1889.36 684.852 1925.52 687.218C1953.47 689.046 1980.48 696.682 2008.6 697.674C2044.51 698.943 2080.75 697.542 2116.68 697.49C2215.73 697.346 2314.77 697.298 2413.81 697.29" stroke="#6BFFFF" stroke-width="0.6" stroke-miterlimit="10"/>
<path d="M595.766 691.891C751.849 691.88 912.927 679.941 1068.59 693.769C1126.41 698.905 1183.12 706.547 1241.3 707.61C1279.81 708.313 1313.39 698.093 1350.97 692.778C1396.31 686.365 1444.89 690.916 1490.56 690.912C1534.81 690.908 1579.07 691.288 1623.31 690.883C1660.24 690.545 1697.61 684.799 1734.23 690.29C1762.34 694.502 1785.83 700.335 1814.54 695.762C1851.48 689.879 1887.48 671.532 1925.23 676.502C1952.71 680.122 1977.46 689.505 2005.56 690.332C2037.76 691.283 2070.22 690.213 2102.43 690.165C2201.01 690.019 2299.58 689.971 2398.15 689.965" stroke="#6BFFFF" stroke-width="0.6" stroke-miterlimit="10"/>
<path d="M610.577 684.972C765.339 685.845 923.145 673.144 1077.55 687.792C1135.7 693.308 1193.09 700.963 1251.64 701.526C1290.89 701.902 1324.19 688.174 1362.46 684.415C1404.22 680.314 1448.4 684.012 1490.37 683.985C1534.63 683.956 1578.88 682.915 1623.13 683.547C1659.87 684.071 1697.3 676.95 1733.63 683.599C1760.96 688.602 1781.99 695.466 1810.42 690.927C1845.14 685.383 1878.86 666.76 1914.31 669.736C1940.57 671.943 1964.82 682.147 1991.47 683.167C2023.42 684.39 2055.68 683.608 2087.66 683.641C2186.23 683.737 2284.82 683.142 2383.4 683.057" stroke="#6BFFFF" stroke-width="0.6" stroke-miterlimit="10"/>
<path d="M624.536 678.445C723.033 676.975 820.783 664.32 919.545 669.97C973.375 673.05 1026.16 681.427 1080.25 683.412C1136.92 685.492 1194.3 684.9 1250.71 690.107C1291.29 693.853 1321.45 682.727 1361.04 678.096C1403 673.188 1448.16 677.562 1490.41 677.46C1530.79 677.362 1571.17 673.999 1611.52 675.567C1648.63 677.009 1688.59 672.211 1725.23 676.715C1754.18 680.275 1779.44 688.66 1809.12 685.601C1842.64 682.147 1874.65 668.131 1908.44 668.045C1966.26 667.897 2025.04 679.367 2083.28 680.162C2178.42 681.464 2274.17 676.266 2369.51 676.556" stroke="#6BFFFF" stroke-width="0.6" stroke-miterlimit="10"/>
<path d="M637.678 672.265C693.314 668.365 747.204 653.412 803.072 652.024C841.639 651.064 881.078 652.691 919.447 656.603C974.941 662.262 1020.5 683.462 1077.55 680.454C1139.8 677.171 1201.73 665.987 1263.28 679.584C1299.09 687.496 1326.38 678.008 1361.49 672.86C1403.06 666.768 1448.72 671.754 1490.67 671.326C1530.5 670.919 1571.45 663.992 1611.1 667.751C1649.37 671.378 1687.49 666.95 1725.41 670.669C1751.88 673.265 1776.87 681.479 1803.83 681.31C1838.71 681.091 1871.84 670.155 1906.37 667.219C1963.46 662.364 2017.22 676.18 2073.66 678.862C2112.75 680.719 2150.44 669.944 2189.2 667.513C2244.64 664.036 2300.98 669.731 2356.47 670.443" stroke="#6BFFFF" stroke-width="0.6" stroke-miterlimit="10"/>
<path d="M650.025 666.442C705.625 658.739 757.549 634.132 814.112 633.961C851.491 633.848 890.519 637.647 927.254 644.381C955.536 649.563 977.737 663.151 1003.72 673.949C1030.45 685.054 1054.81 682.047 1083.04 677.637C1144.99 667.966 1203.6 645.688 1264.87 667.025C1302.89 680.264 1324.09 672.783 1361.8 666.799C1402.95 660.267 1449.03 665.835 1490.67 665.568C1566.35 665.082 1640.15 662.327 1715.47 664.746C1746.64 665.748 1776.83 676.063 1808.1 677.119C1838.44 678.144 1868.14 672.939 1897.75 666.937C1921.72 662.077 1944.89 656.698 1969.52 658.499C2002.15 660.887 2032.81 674.945 2065.33 678.3C2104.09 682.295 2138.72 664.881 2176.45 660.223C2231.26 653.459 2289.24 663.325 2344.24 664.7" stroke="#6BFFFF" stroke-width="0.6" stroke-miterlimit="10"/>
<path d="M661.599 660.991C716.609 650.03 766.873 616.084 823.816 617.42C859.407 618.254 898.957 624.607 933.187 633.825C962.657 641.762 981.903 659.323 1007.74 673.425C1031.87 686.59 1053.83 682.395 1079.48 676.313C1139.12 662.174 1206.87 622.933 1265.69 654.582C1304.92 675.689 1321.51 670.339 1362.09 662.606C1403.03 654.801 1449.39 661.01 1490.99 660.169C1530.22 659.376 1572.25 647.063 1611 654.206C1648.21 661.066 1677.9 660.14 1715.72 660.319C1777.57 660.611 1834.11 684.38 1896.04 664.939C1917.48 658.211 1935.99 648.803 1959.07 650.106C1993 652.026 2023.8 671.63 2057.14 677.246C2096.87 683.941 2126.88 660.757 2164.49 653.607C2218.15 643.404 2278.67 657.376 2332.8 659.324" stroke="#6BFFFF" stroke-width="0.6" stroke-miterlimit="10"/>
<path d="M672.426 655.922C723.546 644.076 768.495 608.415 820.729 604.915C855.024 602.617 892.754 613.63 925.975 621.859C965.812 631.726 980.018 653.069 1012.26 672.814C1036.29 687.527 1060.1 680.283 1085.83 672.369C1143.3 654.691 1208.39 610.412 1265.78 643.985C1282.51 653.77 1298.09 669.546 1318.92 669.571C1333.39 669.589 1347.73 660.511 1361.55 657.529C1402.05 648.797 1449.8 655.59 1490.95 655.127C1531.67 654.668 1571.51 641.173 1611.62 649.523C1628.75 653.088 1643.44 659.342 1660.9 660.332C1679.59 661.394 1697.71 655.632 1716.29 655.071C1772.47 653.374 1832.58 684.232 1887.6 664.245C1913.28 654.916 1928.32 639.37 1957.74 642.847C1993.21 647.038 2023.22 673.277 2059.26 676.257C2094.9 679.204 2119.54 656.031 2153.05 647.858C2205.65 635.027 2268.75 652.065 2322.13 654.311" stroke="#6BFFFF" stroke-width="0.6" stroke-miterlimit="10"/>
<path d="M682.518 651.222C733.403 639.109 777.625 601.137 829.904 598.781C862.875 597.295 899.823 609.264 931.737 617.478C966.292 626.371 985.209 645.055 1012.5 664.771C1035.96 681.717 1058.25 678.144 1084.87 670.547C1138.98 655.102 1209.99 599.489 1264.54 635.025C1282.56 646.76 1295.81 662.068 1317.79 663.694C1337.13 665.125 1353.15 653.904 1372.15 651.007C1410.36 645.178 1452.78 651.487 1491.24 650.423C1530.5 649.336 1572.88 633.927 1611.57 643.759C1628.91 648.165 1642.57 656.433 1661.09 656.644C1679.56 656.857 1697.81 651.568 1716.25 650.942C1770.61 649.097 1833.2 678.59 1885.32 658.163C1907.13 649.615 1923.87 635.77 1948.88 637.659C1983.59 640.28 2013.88 666.186 2048.49 670.881C2083.9 675.681 2109.46 653.451 2142.42 644.272C2196.1 629.324 2257.78 646.48 2312.18 649.642" stroke="#6BFFFF" stroke-width="0.6" stroke-miterlimit="10"/>
<path d="M691.912 646.813C742.279 633.468 787.789 591.9 840.854 595.336C873.919 597.477 907.547 610.257 939.719 618.19C1001.14 633.337 1031.44 681.266 1098.67 661.188C1156.85 643.814 1217.89 586.693 1274.76 631.945C1287.11 641.773 1300.65 656.296 1317.05 659.34C1335.15 662.7 1354.83 650.569 1372.26 647.927C1410.85 642.079 1452.31 646.474 1491.28 646.044C1526.41 645.656 1563.57 633.31 1598.41 637.974C1620.94 640.99 1638.6 650.571 1661.32 650.82C1676.24 650.984 1690.79 647.789 1705.65 646.867C1761.43 643.404 1820.38 661.419 1875.33 649.329C1897.59 644.431 1919.67 634.652 1942.89 635.293C1975.06 636.184 2005.74 654.906 2037.64 659.027C2070.87 663.316 2101.97 650.264 2133.85 642.248C2191.85 627.665 2244.63 639.794 2302.96 645.295" stroke="#6BFFFF" stroke-width="0.6" stroke-miterlimit="10"/>
<path d="M700.654 642.709C751.094 627.79 797.399 582.424 851.393 591.625C883.878 597.16 913.935 612.993 946.318 619.905C1001.71 631.726 1052.2 666.691 1109.97 649.615C1166.51 632.903 1224.58 569.395 1278.07 620.383C1289.66 631.43 1302.35 648.221 1318.76 652.647C1336.55 657.447 1356.95 646.074 1374.18 643.718C1412.45 638.485 1453 642.338 1491.58 641.981C1526.5 641.658 1563.08 631.242 1597.78 635.303C1636.17 639.796 1664.11 644.993 1703.01 642.653C1757.8 639.354 1812.8 636.699 1867.71 635.167C1923.04 633.621 1975.17 640.17 2030.19 643.098C2062.35 644.809 2096.46 644.246 2128.4 639.349C2149.52 636.111 2171.14 626.922 2192.37 625.843C2224.52 624.209 2262.69 637.173 2294.41 641.267" stroke="#6BFFFF" stroke-width="0.6" stroke-miterlimit="10"/>
<path d="M708.76 638.895C759.659 621.984 809.376 572.056 863.683 588.322C896.248 598.078 923.351 617.537 957.615 622.977C1005.84 630.63 1069.91 649.48 1117.47 637.2C1148.19 629.265 1173.17 609.55 1201.38 596.095C1234.78 580.164 1253.16 577.415 1279.67 605.201C1292.63 618.799 1301.1 635.092 1318.85 642.72C1338.79 651.287 1354.9 641.768 1374.89 639.076C1412.88 633.959 1453.95 638.857 1492.11 638.218C1527.63 637.624 1563.46 630.764 1598.82 633.767C1635.62 636.893 1665.94 641.192 1703.01 638.379C1757.91 634.214 1808.67 610.322 1864.02 619.557C1891.17 624.086 1916.3 631.709 1944.18 631.229C1969.81 630.789 1995.19 625.782 2020.79 624.728C2055.83 623.288 2087.88 636.827 2122.34 636.347C2151.42 635.942 2175.95 619.622 2205.16 621.368C2232.36 622.992 2259.55 633.039 2286.53 637.544" stroke="#6BFFFF" stroke-width="0.6" stroke-miterlimit="10"/>
<path d="M716.25 635.372C768.722 616.042 819.799 561.521 875.75 585.558C904.13 597.75 926.941 618.092 957.819 623.983C987.874 629.718 1018.7 622.654 1048.91 622.272C1078.39 621.9 1106.06 630.78 1134.95 622.101C1182.68 607.763 1239.67 533.282 1281.38 588.188C1292.25 602.5 1302.1 627.178 1318.56 636.405C1336.98 646.727 1356.73 638.354 1375.75 636.319C1414.12 632.218 1453.74 634.973 1492.32 634.741C1527.75 634.527 1564.09 627.936 1599.43 631.066C1634.6 634.182 1667.31 638.279 1702.78 634.85C1757.26 629.582 1795.96 585.903 1851.68 601.983C1880.84 610.397 1907.51 630.409 1938.79 628.499C1967.88 626.721 1993.37 607.01 2022.41 604.378C2057.63 601.187 2083.57 628.368 2116.97 632.936C2148.04 637.187 2171.26 613.997 2201.92 615.74C2228.06 617.224 2253.39 628.675 2279.27 634.109" stroke="#6BFFFF" stroke-width="0.6" stroke-miterlimit="10"/>
<path d="M723.149 632.127C755.798 619.118 780.601 602.46 810.789 585.059C845.115 565.271 855.227 566.44 885.559 582.67C912.866 597.281 934.099 620.803 965.535 625.953C997.38 631.169 1027.31 615.788 1058.22 611.461C1088.45 607.227 1116.72 619.171 1146.31 610.312C1193.11 596.304 1246.39 516.378 1285.09 576.119C1295.33 591.919 1303.9 618.933 1320.34 629.85C1338.53 641.925 1358.31 634.539 1377.81 632.882C1415.8 629.651 1454.54 631.697 1492.67 631.548C1527.96 631.409 1563.67 627.093 1598.91 629.186C1632.7 631.19 1666.56 635.449 1700.49 631.49C1756 625.012 1787.12 560.183 1844.88 586.789C1873 599.739 1904.37 629.305 1936.91 625.505C1967.02 621.99 1987.81 590.515 2017.85 586.197C2056.02 580.712 2079.74 621.667 2113.89 630.029C2146.61 638.041 2168.16 607.995 2200.22 610.232C2225.19 611.973 2247.85 624.566 2272.61 630.958" stroke="#6BFFFF" stroke-width="0.6" stroke-miterlimit="10"/>
<path d="M729.475 629.157C762.754 614.945 788.181 595.899 819.348 578.448C849.907 561.339 865.876 562.347 895.307 581.28C920.995 597.808 942.303 624.774 974.423 626.807C1008.31 628.95 1036.45 607.342 1068.72 601.701C1096.6 596.828 1122.93 610.946 1150.56 604.211C1180.52 596.907 1201.64 573.349 1226.11 556.518C1253.89 537.406 1265.92 536.081 1285.87 564.378C1299.77 584.101 1305.88 618.87 1330.17 630.165C1344.51 636.835 1363.26 630.822 1377.86 629.495C1415.83 626.047 1455.11 628.762 1493.15 628.616C1559.03 628.366 1636.5 639.687 1701.27 628.556C1761.97 618.125 1778.92 541.342 1845.24 578.542C1870.42 592.664 1900.99 625.073 1931.53 622.608C1964.77 619.926 1980.84 580.057 2012.37 572.721C2053.4 563.175 2075.15 615.203 2109.14 627.111C2144.69 639.562 2163.23 603.783 2197.25 604.727C2221.59 605.403 2242.66 620.45 2266.52 628.065" stroke="#6BFFFF" stroke-width="0.6" stroke-miterlimit="10"/>
<path d="M735.247 626.364C768.119 611.451 793.828 591.055 824.949 573.834C855.876 556.721 872.638 559.448 901.403 579.314C926.16 596.413 946.381 624.081 978.405 625.379C1012.89 626.776 1039.7 601.809 1072.3 595.957C1100.88 590.826 1126.81 607.859 1155.4 601.196C1185.42 594.202 1205.5 569.858 1229.12 552.284C1255.91 532.349 1267.8 531.222 1287.18 559.421C1301.05 579.613 1306.52 615.231 1330.88 627.249C1345.27 634.347 1363.94 628.543 1378.66 627.105C1416.41 623.422 1455.55 625.939 1493.38 625.937C1558.89 625.933 1635.29 636.613 1699.83 625.805C1761.13 615.539 1774.72 531.702 1842.44 571.505C1867.74 586.374 1898.3 621.362 1929.55 618.862C1964.23 616.088 1978.69 572.404 2011.38 564.678C2054.08 554.582 2071.97 612.522 2106.06 625.411C2141.59 638.849 2160.16 598.533 2194.41 599.756C2218.56 600.62 2237.4 616.531 2260.96 625.327" stroke="#6BFFFF" stroke-width="0.6" stroke-miterlimit="10"/>
<path d="M740.415 621.944C771.548 606.138 798.353 584.379 828.774 568.23C859.478 551.929 877.927 555.201 905.875 574.921C930.332 592.178 949.793 620.686 981.709 622.312C1016.01 624.06 1041.69 598.339 1073.91 592.602C1102.39 587.534 1127.4 604.808 1156.12 598.873C1185.82 592.735 1206.19 566.348 1229.28 549.059C1256.03 529.023 1268.28 527.856 1287.82 555.892C1302.02 576.265 1307.7 611.411 1332.02 623.896C1346.35 631.252 1364.85 626.296 1379.7 624.899C1417.32 621.356 1455.95 623.501 1493.67 623.499C1558.39 623.497 1634.85 634.226 1698.48 622.072C1759.09 610.495 1773.23 526.526 1840.57 563.929C1866.12 578.116 1896.95 612.421 1927.49 610.673C1961.58 608.723 1979.2 567.504 2011.47 560.273C2054.42 550.646 2069.23 607.509 2103.02 621.456C2136.79 635.395 2156.52 597.095 2189.39 597.293C2213.57 597.437 2232.51 611.856 2256.01 620.446" stroke="#6BFFFF" stroke-width="0.6" stroke-miterlimit="10"/>
<path d="M744.992 615.458C774.566 598.79 802.195 575.777 832.114 560.563C862.765 544.977 882.808 548.974 909.957 568.846C934.539 586.838 952.548 615.521 984.716 618.601C1018.64 621.848 1043.59 594.568 1075.23 589.11C1103.54 584.227 1127.92 602.504 1156.57 596.398C1186.14 590.097 1206.33 562.652 1229.21 545.274C1255.93 524.991 1268.59 523.663 1288.56 551.482C1321.38 597.199 1320.83 627.41 1381.35 622.708C1418.72 619.803 1456.58 621.293 1494.03 621.291C1558.67 621.289 1633.51 630.722 1697 617.151C1756.36 604.462 1772.7 524.175 1839.04 556.055C1865.46 568.758 1895.72 599.885 1925.8 598.909C1958.86 597.838 1980.17 561.809 2011.82 555.825C2055.21 547.62 2066.99 602.298 2100.89 617.148C2133.13 631.267 2153.85 594.71 2185.33 593.447C2209.48 592.477 2228.04 604.742 2251.65 612.751" stroke="#6BFFFF" stroke-width="0.6" stroke-miterlimit="10"/>
<path d="M749.021 607.25C777.235 589.719 805.351 565.596 835.002 551.176C865.755 536.22 887.285 541.118 913.672 561.375C937.916 579.988 955.202 610.449 987.444 614.362C1021.11 618.448 1045.03 590.636 1076.28 585.52C1104.46 580.904 1128.14 600.196 1156.78 593.812C1186.24 587.246 1206.27 558.603 1228.96 541.033C1255.63 520.385 1268.75 518.798 1289.38 546.348C1322.13 590.097 1323.77 623.539 1383.51 620.548C1420.47 618.697 1457.45 619.294 1494.45 619.294C1559.81 619.292 1631.34 626.295 1695.42 611.246C1753.12 597.692 1773.18 524.066 1837.8 547.991C1865.52 558.254 1894.62 584.296 1924.43 584.164C1956.26 584.022 1981.43 555.496 2012.39 551.386C2056.29 545.555 2065.18 596.98 2099.56 612.57C2130.49 626.594 2152.09 591.531 2182.12 588.455C2206.21 585.99 2223.93 595.615 2247.86 602.696" stroke="#6BFFFF" stroke-width="0.6" stroke-miterlimit="10"/>
<path d="M752.538 597.669C779.552 579.297 807.001 555.644 836.185 541.104C870.854 523.83 889.19 531.145 915.669 551.651C939.796 570.334 955.833 603.176 987.448 609.364C1021.69 616.065 1042.81 589.045 1073.71 582.795C1104.88 576.49 1130.04 599.612 1161.19 588.916C1206.21 573.456 1250.59 479.221 1292.32 542.903C1320.02 585.166 1331.03 618.11 1387.34 618.194C1423.12 618.246 1459 617.501 1494.81 617.501C1561.54 617.501 1625.65 618.726 1691.07 604.787C1745.26 593.244 1772.79 526.203 1831.3 538.136C1863.62 544.725 1894.37 567.673 1927.09 567.218C1956.74 566.807 1986.65 544.426 2015.94 546.436C2058.57 549.362 2065.03 593.468 2100.46 608.763C2130.61 621.775 2151.79 586.197 2180.85 582.202C2204.51 578.949 2220.38 585.034 2244.57 590.744" stroke="#6BFFFF" stroke-width="0.6" stroke-miterlimit="10"/>
<path d="M755.593 587.055C803.865 551.218 859.689 495.012 917.376 541.016C943.28 561.675 960.455 603.181 996.994 606.39C1025.29 608.872 1045.48 586.214 1071.11 580.099C1102.33 572.648 1125.82 596.598 1156.5 587.758C1186.1 579.231 1203.49 551.462 1226.23 532.867C1256.62 508.009 1272.59 508.925 1295.7 541.377C1324.03 581.155 1336.63 615.439 1391.92 616.351C1426.36 616.919 1460.98 615.899 1495.44 615.898C1526.83 615.898 1558.23 616.128 1589.62 615.898C1624.54 615.64 1653.85 606.344 1687.25 597.621C1717.2 589.801 1735.11 581.086 1759.09 561.306C1783.87 540.874 1802.08 528.697 1836.23 531.381C1868.17 533.89 1898.4 548.093 1929.96 548.602C1956.13 549.024 1982.82 542.732 2009.07 543.12C2059.69 543.867 2060.91 588.53 2101.85 604.708C2130.79 616.147 2153.11 581.23 2180.14 575.147C2202.98 570.01 2217.75 573.408 2241.75 577.359" stroke="#6BFFFF" stroke-width="0.6" stroke-miterlimit="10"/>
<path d="M758.225 575.754C805.931 537.197 861.391 482.663 918.806 529.747C944.937 551.176 960.038 594.73 996.246 601.248C1026.51 606.695 1049.12 580.143 1077.03 575.559C1107.2 570.603 1129.56 596.003 1160.67 584.099C1212.61 564.225 1247.23 461.845 1298.99 537.537C1326.75 578.131 1342.98 609.706 1396.13 614.237C1428.87 617.029 1463.06 614.473 1495.89 614.473C1526.04 614.473 1556.26 615.022 1586.4 614.473C1622.59 613.813 1648.69 600.394 1682.84 591.612C1711.78 584.172 1731.09 577.843 1755.44 560.475C1780.62 542.519 1799 528.885 1830.46 524.369C1887.78 516.138 1956.03 529.676 2012.79 538.266C2037.33 541.98 2043.32 543.191 2063.17 562.913C2073.96 573.633 2088.21 595.818 2103.63 600.476C2126.7 607.444 2148.19 582.369 2166.3 573.02C2193.35 559.052 2210.21 560.571 2239.35 563.002" stroke="#6BFFFF" stroke-width="0.6" stroke-miterlimit="10"/>
<path d="M760.477 564.112C807.456 522.86 861.947 471.389 919.972 518.124C946.322 539.347 960.136 585.79 995.341 595.784C1025.23 604.268 1047.27 578.181 1074.18 572.711C1104.08 566.632 1125.51 593 1155.94 583.258C1201.95 568.527 1243.59 461.391 1293.21 520.908C1326.5 560.824 1342.61 607.653 1400.93 613.114C1432.13 616.034 1465.26 613.214 1496.53 613.214C1528.46 613.214 1561.53 615.617 1593.35 613.212C1628.66 610.541 1654.84 591.441 1688.52 582.568C1742.47 568.36 1782.36 531.249 1835.62 515.981C1903 496.666 1952.53 516.783 2016.55 534.28C2033.65 538.956 2042.02 541.173 2056.35 552.198C2071.73 564.033 2085.63 591.112 2105.73 596.145C2127.26 601.534 2151.06 575.71 2167.03 566.248C2193.21 550.733 2207.81 548.283 2237.33 548.133" stroke="#6BFFFF" stroke-width="0.6" stroke-miterlimit="10"/>
<path d="M762.393 552.472C807.757 509.276 863.057 459.074 920.891 506.446C947.241 528.031 960.213 578.112 994.546 590.158C1028.6 602.106 1048.33 570.319 1079.25 567.579C1110.39 564.818 1126.48 592.982 1159.25 578.298C1186.89 565.912 1202.61 536.686 1224.79 517.352C1254.76 491.234 1270.47 489.986 1296.78 518.865C1327.38 552.47 1346.01 599.328 1394.93 610.282C1426.39 617.326 1464.95 612.109 1497.02 612.109C1527.65 612.109 1559.24 614.277 1589.75 612.108C1626.98 609.458 1650.01 584.175 1684.95 574.656C1709.43 567.986 1731.9 566.498 1755.31 554.413C1780.99 541.154 1804.52 524.091 1830.3 510.985C1859.05 496.362 1897.11 480.088 1930.27 487.279C1961.38 494.022 1990.66 520.072 2020.25 531.174C2036.25 537.176 2045.77 540.061 2059.56 550.873C2073.58 561.873 2088.81 588.745 2108.06 591.809C2128.88 595.127 2153.17 569.441 2168 559.39C2193.34 542.212 2205.85 536.147 2235.65 533.215" stroke="#6BFFFF" stroke-width="0.6" stroke-miterlimit="10"/>
<path d="M764.016 541.177C809.579 494.074 875.241 440.694 930.891 503.582C953.798 529.469 965.372 575.873 1001.25 585.925C1030.3 594.063 1047.1 570.184 1073.33 565.513C1105.99 559.695 1125.12 590.828 1158.59 576.595C1184.71 565.486 1202.09 533.729 1222.2 514.694C1255.12 483.525 1272.59 484.034 1302.83 518.83C1331.67 552.023 1354.77 597.69 1400.96 609.285C1430.23 616.631 1467.44 611.144 1497.58 611.144C1526.64 611.144 1556.27 613.008 1585.25 611.14C1623.89 608.653 1644.21 580.372 1678.75 568.794C1704.16 560.277 1730.79 562.796 1756.39 552.015C1783.71 540.503 1806.36 521.9 1830.52 505.135C1857.25 486.578 1893.68 459.537 1927.91 467.626C1962.29 475.749 1984.32 512.688 2016.18 527.526C2033.84 535.755 2048.29 537.894 2064.63 551.388C2076.9 561.519 2094.41 587.088 2111.74 587.822C2131.4 588.655 2156.58 562.245 2170.21 551.758C2194.26 533.245 2204.9 524.31 2234.26 518.705" stroke="#6BFFFF" stroke-width="0.6" stroke-miterlimit="10"/>
<path d="M765.387 530.575C808.992 481.801 876.234 429.228 931.419 492.841C954.655 519.625 964.917 567.863 1000.21 580.827C1032.47 592.673 1048.47 564.926 1078.17 562.261C1106.9 559.682 1124.19 588.217 1154.04 576.478C1213.38 553.135 1238.22 434.915 1306.33 515.317C1334.95 549.095 1360.06 593.898 1404.99 607.3C1432.5 615.504 1469.5 610.305 1498.15 610.305C1525.63 610.305 1554.96 613.371 1582.18 610.303C1625.05 605.468 1644.89 570.019 1684.57 559.851C1706.64 554.193 1730.67 558.39 1753.2 551.44C1787.29 540.926 1809.12 518.091 1835.85 495.174C1857.41 476.69 1890.23 441.594 1922 445.651C1959.75 450.471 1987.59 508.829 2019.74 525.921C2036.34 534.751 2051.77 537.439 2067.69 550.334C2079.91 560.227 2096.84 583.525 2114.19 583.676C2133.14 583.841 2158.83 556.24 2171.27 545.299C2194.3 525.043 2203.95 513.295 2233.11 505.066" stroke="#6BFFFF" stroke-width="0.6" stroke-miterlimit="10"/>
<path d="M766.548 521.007C806.838 472.116 874.376 417.761 930.58 481.488C954.716 508.856 966.459 568.076 1005.63 579.621C1035 588.28 1052.54 559.747 1079.52 558.637C1112.23 557.292 1126.03 590.882 1160.37 570.319C1185.36 555.36 1200.69 525.606 1221.24 505.634C1252.57 475.183 1270.5 473.785 1302.31 504.703C1335.67 537.137 1361.68 593.541 1410.22 606.864C1437.43 614.331 1470.46 609.588 1498.64 609.588C1525.01 609.588 1552.05 611.493 1578.35 609.587C1623.09 606.34 1638.72 567.953 1678.84 554.995C1702.11 547.48 1730.33 555.686 1754.52 550.172C1790.66 541.93 1811.51 515.04 1836.26 489.285C1856.87 467.833 1893.55 418.739 1929.13 431.121C1970.03 445.352 1986.28 505.847 2025.69 526.237C2038.6 532.915 2050.65 533.315 2063.2 542.815C2076.17 552.637 2091.28 573.564 2108.74 576.804C2151.44 584.734 2192.65 507.103 2232.18 492.764" stroke="#6BFFFF" stroke-width="0.6" stroke-miterlimit="10"/>
<path d="M767.545 512.821C805.463 462.887 872.893 408.837 929.602 471.337C954.046 498.277 965.601 560.289 1001.49 574.656C1032.74 587.163 1046.29 560.078 1073.82 556.883C1104.63 553.308 1121.5 586.952 1152.57 573.191C1201.08 551.704 1234.25 435.128 1297.77 493.989C1333.44 527.042 1358.89 584.972 1405.88 604.289C1432.84 615.37 1470.48 608.972 1499.08 608.972C1526.52 608.972 1555.94 612.071 1583.17 608.97C1625.38 604.165 1643.1 559.471 1682.04 549.9C1705.9 544.036 1731.35 553.381 1755.79 549.193C1793.17 542.79 1813.16 512.062 1836.5 484.47C1858.09 458.961 1890.14 406.343 1926.95 416.836C1967.74 428.463 1985.09 499.415 2021.48 520.725C2037.19 529.928 2052.94 532.529 2067.76 543.971C2081.65 554.7 2093.86 571.79 2112.2 574.28C2162.63 581.123 2185.61 493.083 2231.4 482.254" stroke="#6BFFFF" stroke-width="0.6" stroke-miterlimit="10"/>
<path d="M768.418 506.36C804.476 454.812 872.438 403.44 928.498 462.745C957.139 493.043 964.911 558.774 1007.27 572.886C1037.01 582.795 1048.62 557.61 1075.5 555.159C1109.66 552.042 1123.57 590.298 1158.33 567.681C1206.26 536.488 1237.52 431.18 1303.56 495.738C1336.46 527.9 1365.65 587.163 1410.38 604.754C1435.89 614.786 1472.53 608.446 1499.46 608.446C1525.91 608.446 1553.62 610.877 1579.94 608.442C1623.31 604.433 1638.76 560.811 1676.9 547.064C1702.36 537.886 1730.51 552.636 1757.22 549.245C1794.78 544.476 1816.02 508.13 1837 480.371C1852.85 459.399 1889.9 392.16 1924.7 402.434C1967.48 415.064 1982.75 493.221 2017.25 517.843C2034.91 530.442 2054.12 531.506 2071.91 545.286C2084.84 555.299 2097.74 571.84 2115.26 572.058C2168.93 572.734 2182.89 487.308 2230.74 473.996" stroke="#6BFFFF" stroke-width="0.6" stroke-miterlimit="10"/>
<path d="M769.213 501.967C807.609 442.07 878.002 398.853 934.631 465.869C959.366 495.143 968.824 560.913 1010.18 572.87C1037.5 580.771 1049.97 555.391 1074.11 552.918C1107.9 549.456 1120.01 587.967 1154.24 568.787C1203.2 541.354 1233.85 428.774 1301.49 490.721C1337.41 523.617 1366.95 588.419 1414.89 604.602C1439.99 613.075 1473.12 607.997 1499.77 607.997C1524.89 607.997 1551.36 610.362 1576.36 607.995C1623.05 603.575 1636.97 554.506 1678.78 543.229C1704.55 536.279 1730.11 551.587 1756.31 549.64C1793.59 546.874 1812.99 511.782 1832.85 483.921C1852.42 456.463 1885.7 385.284 1925.91 396.864C1972.91 410.4 1982.76 496.577 2024.65 522.486C2037.62 530.511 2054.78 532.356 2068.63 541.603C2080.5 549.538 2095.33 568.9 2110.66 570.442C2169.64 576.374 2181.06 482.742 2230.17 468.449" stroke="#6BFFFF" stroke-width="0.6" stroke-miterlimit="10"/>
<path d="M2188.86 502.495C2197.4 534.874 2190.48 567.335 2208.33 597.783C2225.85 627.66 2240.85 646.743 2273.05 665.177C2335.77 701.092 2402.86 729.827 2467.99 761.044C2612.46 830.295 2756.3 900.855 2900.96 969.727" stroke="#6BFFFF" stroke-width="0.6" stroke-miterlimit="10"/>
<path d="M2131.22 567.122C2126.85 586.61 2116.82 606.532 2132.37 623.182C2147.76 639.673 2185.11 649.964 2204.29 662.771C2264.88 703.217 2333.62 731.835 2398.57 764.552C2533.91 832.733 2668.24 902.801 2804.23 969.729" stroke="#6BFFFF" stroke-width="0.6" stroke-miterlimit="10"/>
<path d="M2090.14 558.828C2075.39 613.434 2096.93 643.183 2147.72 669.468C2335.8 766.796 2518.91 873.368 2707.5 969.727" stroke="#6BFFFF" stroke-width="0.6" stroke-miterlimit="10"/>
<path d="M2045.86 529.221C2020.66 577.233 2047.3 664.531 2098.21 678.518C2156.54 694.545 2215.62 738.398 2267.75 768.782C2382.41 835.613 2493.64 906.985 2610.79 969.729" stroke="#6BFFFF" stroke-width="0.6" stroke-miterlimit="10"/>
<path d="M1999.59 496.735C1994.72 556.652 1981.64 644.725 2047.46 675.685C2212.59 753.354 2355.28 879.604 2514.1 969.727" stroke="#6BFFFF" stroke-width="0.6" stroke-miterlimit="10"/>
<path d="M1951.15 409.759C1955.36 496.334 1925.13 602.705 1996.84 665.533C2039.75 703.131 2089.98 732.094 2136.49 764.821C2232.03 832.036 2316.64 908.774 2417.41 969.729" stroke="#6BFFFF" stroke-width="0.6" stroke-miterlimit="10"/>
<path d="M1904.04 392.114C1908.34 461.017 1892.42 543.652 1913.47 610.051C1920.21 631.288 1937.58 646.474 1952.61 662.425C1990.83 702.981 2038.69 733.521 2081.4 769.023C2109.69 792.542 2134.6 819.733 2161.08 845.211C2210.27 892.552 2263.94 932.141 2320.77 969.731" stroke="#6BFFFF" stroke-width="0.6" stroke-miterlimit="10"/>
<path d="M1858.4 444.161C1856.33 515.324 1847.84 621.145 1918.04 664.837C1938.75 677.726 1940.09 685.363 1954.02 704.943C1971.12 728.978 1995.59 745.114 2016.76 764.997C2043.57 790.176 2065.33 820.199 2089.41 847.857C2129.88 894.346 2175.32 932.41 2224.23 969.729" stroke="#6BFFFF" stroke-width="0.6" stroke-miterlimit="10"/>
<path d="M1805.49 521.084C1806.69 531.777 1810.03 541.463 1813.37 551.702C1821.7 577.213 1833.44 602.118 1845.21 626.239C1851.03 642.405 1859.71 656.7 1871.26 669.116C1875.25 670.737 1879.26 671.011 1883.28 669.94C1887.21 669.043 1891.2 668.966 1895.22 669.709C1903.81 680.45 1907.6 692.834 1906.61 706.858C1914.71 726.795 1938.09 745.261 1952.01 760.097C1971.86 781.258 1986.8 806.221 2002.97 830.124C2039.01 883.398 2080.04 926.534 2127.68 969.731" stroke="#6BFFFF" stroke-width="0.6" stroke-miterlimit="10"/>
<path d="M1763.2 548.001C1784.2 557.165 1815.71 666.403 1822.78 678.897C1838.75 707.144 1873.16 734.878 1894.72 765.17C1912.92 790.748 1925.21 820.643 1940.32 847.98C1965.37 893.307 1996.63 931.096 2031.15 969.731" stroke="#6BFFFF" stroke-width="0.6" stroke-miterlimit="10"/>
<path d="M1726.35 545.618C1737.96 591.8 1761.96 632.139 1773.64 676.497C1781.94 707.973 1814.34 734.375 1830.42 765.663C1866.35 835.58 1889 903.988 1934.61 969.731" stroke="#6BFFFF" stroke-width="0.6" stroke-miterlimit="10"/>
<path d="M1682.55 539.242C1687.05 565.254 1689.73 598.239 1700.74 622.472C1707.91 638.258 1718.71 652.385 1726.28 668.279C1772.67 765.615 1788.75 873.206 1838.06 969.733" stroke="#6BFFFF" stroke-width="0.6" stroke-miterlimit="10"/>
<path d="M1620.02 585.228C1642.5 609.723 1656.14 640.053 1667.82 670.75C1704.19 766.362 1706.93 872.663 1741.47 969.734" stroke="#6BFFFF" stroke-width="0.6" stroke-miterlimit="10"/>
<path d="M1570.96 608.041C1596.57 617.629 1595.3 639.633 1600.84 663.621C1624.06 764.112 1623.35 868.614 1644.87 969.733" stroke="#6BFFFF" stroke-width="0.6" stroke-miterlimit="10"/>
<path d="M1523.39 607.623C1531.88 625.283 1528.77 648.818 1529.9 667.82C1535.87 768.522 1539.33 869.2 1548.28 969.733" stroke="#6BFFFF" stroke-width="0.6" stroke-miterlimit="10"/>
<path d="M1473.89 608.423C1458.42 620.26 1454.05 648.259 1452.26 668.742C1443.64 767.741 1449.22 870.641 1451.56 969.734" stroke="#6BFFFF" stroke-width="0.6" stroke-miterlimit="10"/>
<path d="M1429.85 607.623C1398.1 617.411 1388.83 636.471 1382.13 668.429C1361.9 765.057 1358.96 871.715 1354.82 969.735" stroke="#6BFFFF" stroke-width="0.6" stroke-miterlimit="10"/>
<path d="M1371.75 572.819C1346.1 608.175 1338.93 640.965 1322.15 679.82C1309.45 709.24 1305.28 733.104 1299.19 765.502C1286.24 834.413 1266.98 899.81 1258.1 969.733" stroke="#6BFFFF" stroke-width="0.6" stroke-miterlimit="10"/>
<path d="M1307.51 495.135C1281.01 661.1 1197 806.93 1161.39 969.736" stroke="#6BFFFF" stroke-width="0.6" stroke-miterlimit="10"/>
<path d="M1255.11 472.975C1263.06 544.86 1231.08 596.25 1209.6 664.316C1175.71 771.686 1100.46 861.615 1064.71 969.735" stroke="#6BFFFF" stroke-width="0.6" stroke-miterlimit="10"/>
<path d="M1214.26 503.33C1246.85 566.154 1180.29 611.595 1160.76 668.341C1148.41 704.262 1124.54 733.052 1104.56 765.717C1060.94 837.059 1004.67 892.716 968.07 969.738" stroke="#6BFFFF" stroke-width="0.6" stroke-miterlimit="10"/>
<path d="M1178.08 548.001C1217.34 593.338 1133.16 638.899 1113.23 674.828C1052.35 784.591 938.974 862.017 871.444 969.736" stroke="#6BFFFF" stroke-width="0.6" stroke-miterlimit="10"/>
<path d="M1141.33 573.679C1146.21 580.737 1149.04 592.662 1145.47 601.06C1134.34 627.203 1088.93 658.735 1067.55 680.588C1038.33 710.471 1009.55 741.953 979.68 771.429C910.433 839.77 835.35 891.996 774.82 969.736" stroke="#6BFFFF" stroke-width="0.6" stroke-miterlimit="10"/>
<path d="M1100.97 558.397C1107.56 602.383 1053.23 656.402 1025.87 681.364C915.362 782.214 781.129 859.292 678.209 969.738" stroke="#6BFFFF" stroke-width="0.6" stroke-miterlimit="10"/>
<path d="M1062.33 555.748C1067.43 605.541 1023.89 638.554 992.475 671.326C978.365 686.047 958.798 695.142 942.491 707.113C914.379 727.753 887.817 750.33 859.576 770.83C766.416 838.454 667.421 891.567 581.622 969.738" stroke="#6BFFFF" stroke-width="0.6" stroke-miterlimit="10"/>
<path d="M1032.09 572.855C1026.69 587.109 1023.74 607.776 1011.58 618.288C1000.96 627.481 989.04 622.46 977.334 627.992C963.97 634.307 962.907 644.913 955.167 657.055C940.525 680.022 917.975 689.871 895.678 704.052C866.83 722.402 839.09 742.358 811.021 761.81C704.417 835.69 587.326 888.415 485.026 969.738" stroke="#6BFFFF" stroke-width="0.6" stroke-miterlimit="10"/>
<path d="M990.418 560.506C985.338 576.66 983.385 611.313 967.574 621.057C953.825 629.532 944.269 617.126 929.729 616.915C906.745 616.583 913.121 626.761 903.642 648.515C888.393 683.51 856.389 694.562 825.89 713.372C794.97 732.442 764.262 752.037 732.9 770.402C617.844 837.782 498.188 893.03 388.454 969.738" stroke="#6BFFFF" stroke-width="0.6" stroke-miterlimit="10"/>
<path d="M959.111 508.103C950.507 532.706 953.791 578.98 931.361 596.131C918.587 605.898 901.177 599.14 885.853 601.279C856.214 605.416 859.643 617.123 846.777 644.028C816.672 706.984 723.569 738.138 664.487 770.012C540.144 837.093 412.621 895.715 291.945 969.742" stroke="#6BFFFF" stroke-width="0.6" stroke-miterlimit="10"/>
<path d="M921.694 449.685C911.353 483.959 916.84 536.89 890.271 563.866C878.288 576.031 856.909 581.345 841.434 588.624C812.5 602.235 803.858 616.541 787.273 643.793C747.951 708.411 657.644 736.441 592.034 769.695C459.842 836.698 325.382 898.299 195.412 969.742" stroke="#6BFFFF" stroke-width="0.6" stroke-miterlimit="10"/>
<path d="M839.328 431.194C842.022 470.64 845.284 539.439 822.365 573.585C800.469 606.205 750.027 628.959 721.513 656.11C667.488 707.555 586.89 734.175 520.352 766.489C380.01 834.645 238.276 899.662 98.8491 969.742" stroke="#6BFFFF" stroke-width="0.6" stroke-miterlimit="10"/>
<defs>
<radialGradient id="paint0_radial_280_23782" cx="0" cy="0" r="1" gradientUnits="userSpaceOnUse" gradientTransform="translate(1499.98 612.896) scale(652.77 307.65)">
<stop stop-color="#005ABE"/>
<stop offset="1" stop-color="#11162B"/>
</radialGradient>
<radialGradient id="paint1_radial_280_23782" cx="0" cy="0" r="1" gradientUnits="userSpaceOnUse" gradientTransform="translate(1597.97 569.467) scale(91.1071 91.1071)">
<stop stop-color="#1D8FCB"/>
<stop offset="1" stop-color="#1D8FCB" stop-opacity="0"/>
</radialGradient>
<radialGradient id="paint2_radial_280_23782" cx="0" cy="0" r="1" gradientUnits="userSpaceOnUse" gradientTransform="translate(1679.75 555.504) scale(91.1073 91.1073)">
<stop stop-color="#1D8FCB"/>
<stop offset="1" stop-color="#1D8FCB" stop-opacity="0"/>
</radialGradient>
<radialGradient id="paint3_radial_280_23782" cx="0" cy="0" r="1" gradientUnits="userSpaceOnUse" gradientTransform="translate(1649.66 573.407) scale(95.2703 93.0564)">
<stop stop-color="#1D8FCB"/>
<stop offset="1" stop-color="#1D8FCB" stop-opacity="0"/>
</radialGradient>
<radialGradient id="paint4_radial_280_23782" cx="0" cy="0" r="1" gradientUnits="userSpaceOnUse" gradientTransform="translate(1775.64 499.09) scale(172.573 168.563)">
<stop stop-color="#1D8FCB"/>
<stop offset="1" stop-color="#1D8FCB" stop-opacity="0"/>
</radialGradient>
<radialGradient id="paint5_radial_280_23782" cx="0" cy="0" r="1" gradientUnits="userSpaceOnUse" gradientTransform="translate(1350.72 560.404) scale(172.573 168.563)">
<stop stop-color="#1D8FCB"/>
<stop offset="1" stop-color="#1D8FCB" stop-opacity="0"/>
</radialGradient>
<radialGradient id="paint6_radial_280_23782" cx="0" cy="0" r="1" gradientUnits="userSpaceOnUse" gradientTransform="translate(2051.8 510.494) scale(172.573 168.563)">
<stop stop-color="#1D8FCB"/>
<stop offset="1" stop-color="#1D8FCB" stop-opacity="0"/>
</radialGradient>
<radialGradient id="paint7_radial_280_23782" cx="0" cy="0" r="1" gradientUnits="userSpaceOnUse" gradientTransform="translate(2151.63 543.248) scale(172.573 168.563)">
<stop stop-color="#1D8FCB"/>
<stop offset="1" stop-color="#1D8FCB" stop-opacity="0"/>
</radialGradient>
<radialGradient id="paint8_radial_280_23782" cx="0" cy="0" r="1" gradientUnits="userSpaceOnUse" gradientTransform="translate(1120.66 541.688) scale(172.573 168.563)">
<stop stop-color="#1D8FCB"/>
<stop offset="1" stop-color="#1D8FCB" stop-opacity="0"/>
</radialGradient>
<radialGradient id="paint9_radial_280_23782" cx="0" cy="0" r="1" gradientUnits="userSpaceOnUse" gradientTransform="translate(1144.84 576.779) scale(172.573 168.563)">
<stop stop-color="#1D8FCB"/>
<stop offset="1" stop-color="#1D8FCB" stop-opacity="0"/>
</radialGradient>
<radialGradient id="paint10_radial_280_23782" cx="0" cy="0" r="1" gradientUnits="userSpaceOnUse" gradientTransform="translate(929.596 496.456) scale(172.573 168.563)">
<stop stop-color="#1D8FCB"/>
<stop offset="1" stop-color="#1D8FCB" stop-opacity="0"/>
</radialGradient>
<radialGradient id="paint11_radial_280_23782" cx="0" cy="0" r="1" gradientUnits="userSpaceOnUse" gradientTransform="translate(1464.33 575.451) scale(91.1073 91.1073)">
<stop stop-color="#1D8FCB"/>
<stop offset="1" stop-color="#1D8FCB" stop-opacity="0"/>
</radialGradient>
<radialGradient id="paint12_radial_280_23782" cx="0" cy="0" r="1" gradientUnits="userSpaceOnUse" gradientTransform="translate(2050.78 533.339) scale(91.1073 91.1073)">
<stop stop-color="#1D8FCB"/>
<stop offset="1" stop-color="#1D8FCB" stop-opacity="0"/>
</radialGradient>
<radialGradient id="paint13_radial_280_23782" cx="0" cy="0" r="1" gradientUnits="userSpaceOnUse" gradientTransform="translate(2000 458.735) scale(91.1071 91.1071)">
<stop stop-color="#1D8FCB"/>
<stop offset="1" stop-color="#1D8FCB" stop-opacity="0"/>
</radialGradient>
<radialGradient id="paint14_radial_280_23782" cx="0" cy="0" r="1" gradientUnits="userSpaceOnUse" gradientTransform="translate(2127.45 528.158) scale(91.1071)">
<stop stop-color="#1D8FCB"/>
<stop offset="1" stop-color="#1D8FCB" stop-opacity="0"/>
</radialGradient>
<radialGradient id="paint15_radial_280_23782" cx="0" cy="0" r="1" gradientUnits="userSpaceOnUse" gradientTransform="translate(1599.01 598.617) scale(91.1073)">
<stop stop-color="#1D8FCB"/>
<stop offset="1" stop-color="#1D8FCB" stop-opacity="0"/>
</radialGradient>
<radialGradient id="paint16_radial_280_23782" cx="0" cy="0" r="1" gradientUnits="userSpaceOnUse" gradientTransform="translate(1518.19 514.688) scale(261.774 261.774)">
<stop stop-color="#1D8FCB"/>
<stop offset="1" stop-color="#1D8FCB" stop-opacity="0"/>
</radialGradient>
<radialGradient id="paint17_radial_280_23782" cx="0" cy="0" r="1" gradientUnits="userSpaceOnUse" gradientTransform="translate(935.87 484.639) scale(261.774 261.774)">
<stop stop-color="#1D8FCB"/>
<stop offset="1" stop-color="#1D8FCB" stop-opacity="0"/>
</radialGradient>
<radialGradient id="paint18_radial_280_23782" cx="0" cy="0" r="1" gradientUnits="userSpaceOnUse" gradientTransform="translate(1193.87 496.037) scale(261.774)">
<stop stop-color="#1D8FCB"/>
<stop offset="1" stop-color="#1D8FCB" stop-opacity="0"/>
</radialGradient>
<radialGradient id="paint19_radial_280_23782" cx="0" cy="0" r="1" gradientUnits="userSpaceOnUse" gradientTransform="translate(1872.56 422.47) scale(261.774 261.774)">
<stop stop-color="#1D8FCB"/>
<stop offset="1" stop-color="#1D8FCB" stop-opacity="0"/>
</radialGradient>
<radialGradient id="paint20_radial_280_23782" cx="0" cy="0" r="1" gradientUnits="userSpaceOnUse" gradientTransform="translate(2019.69 498.109) scale(261.774 261.774)">
<stop stop-color="#1D8FCB"/>
<stop offset="1" stop-color="#1D8FCB" stop-opacity="0"/>
</radialGradient>
<radialGradient id="paint21_radial_280_23782" cx="0" cy="0" r="1" gradientUnits="userSpaceOnUse" gradientTransform="translate(2213.55 395.663) scale(261.774)">
<stop stop-color="#1D8FCB"/>
<stop offset="1" stop-color="#1D8FCB" stop-opacity="0"/>
</radialGradient>
<radialGradient id="paint22_radial_280_23782" cx="0" cy="0" r="1" gradientUnits="userSpaceOnUse" gradientTransform="translate(776.151 416.152) scale(261.774)">
<stop stop-color="#1D8FCB"/>
<stop offset="1" stop-color="#1D8FCB" stop-opacity="0"/>
</radialGradient>
<radialGradient id="paint23_radial_280_23782" cx="0" cy="0" r="1" gradientUnits="userSpaceOnUse" gradientTransform="translate(957.402 526.479) scale(261.774)">
<stop stop-color="#1D8FCB"/>
<stop offset="1" stop-color="#1D8FCB" stop-opacity="0"/>
</radialGradient>
<radialGradient id="paint24_radial_280_23782" cx="0" cy="0" r="1" gradientUnits="userSpaceOnUse" gradientTransform="translate(1567.46 611.884) scale(52.0689 52.0688)">
<stop stop-color="#1D8FCB"/>
<stop offset="1" stop-color="#1D8FCB" stop-opacity="0"/>
</radialGradient>
<radialGradient id="paint25_radial_280_23782" cx="0" cy="0" r="1" gradientUnits="userSpaceOnUse" gradientTransform="translate(1501.34 610.297) scale(52.0689)">
<stop stop-color="#1D8FCB"/>
<stop offset="1" stop-color="#1D8FCB" stop-opacity="0"/>
</radialGradient>
<radialGradient id="paint26_radial_280_23782" cx="0" cy="0" r="1" gradientUnits="userSpaceOnUse" gradientTransform="translate(1533.61 602.633) scale(52.0688)">
<stop stop-color="#1D8FCB"/>
<stop offset="1" stop-color="#1D8FCB" stop-opacity="0"/>
</radialGradient>
<radialGradient id="paint27_radial_280_23782" cx="0" cy="0" r="1" gradientUnits="userSpaceOnUse" gradientTransform="translate(1740.28 543.956) scale(52.0689 52.0688)">
<stop stop-color="#1D8FCB"/>
<stop offset="1" stop-color="#1D8FCB" stop-opacity="0"/>
</radialGradient>
<radialGradient id="paint28_radial_280_23782" cx="0" cy="0" r="1" gradientUnits="userSpaceOnUse" gradientTransform="translate(1450.56 609.769) scale(52.0689)">
<stop stop-color="#1D8FCB"/>
<stop offset="1" stop-color="#1D8FCB" stop-opacity="0"/>
</radialGradient>
<radialGradient id="paint29_radial_280_23782" cx="0" cy="0" r="1" gradientUnits="userSpaceOnUse" gradientTransform="translate(1590.18 582.024) scale(84.3097)">
<stop stop-color="#47D2FF"/>
<stop offset="1" stop-color="#47D2FF" stop-opacity="0"/>
</radialGradient>
<radialGradient id="paint30_radial_280_23782" cx="0" cy="0" r="1" gradientUnits="userSpaceOnUse" gradientTransform="translate(1410.36 592.55) scale(174.915 174.915)">
<stop stop-color="#47D2FF"/>
<stop offset="1" stop-color="#47D2FF" stop-opacity="0"/>
</radialGradient>
<radialGradient id="paint31_radial_280_23782" cx="0" cy="0" r="1" gradientUnits="userSpaceOnUse" gradientTransform="translate(1437.55 612.725) scale(174.915 174.915)">
<stop stop-color="#47D2FF"/>
<stop offset="1" stop-color="#47D2FF" stop-opacity="0"/>
</radialGradient>
<radialGradient id="paint32_radial_280_23782" cx="0" cy="0" r="1" gradientUnits="userSpaceOnUse" gradientTransform="translate(1791.94 499.567) scale(174.915 174.915)">
<stop stop-color="#47D2FF"/>
<stop offset="1" stop-color="#47D2FF" stop-opacity="0"/>
</radialGradient>
<radialGradient id="paint33_radial_280_23782" cx="0" cy="0" r="1" gradientUnits="userSpaceOnUse" gradientTransform="translate(1199.83 600.445) scale(174.915)">
<stop stop-color="#47D2FF"/>
<stop offset="1" stop-color="#47D2FF" stop-opacity="0"/>
</radialGradient>
<radialGradient id="paint34_radial_280_23782" cx="0" cy="0" r="1" gradientUnits="userSpaceOnUse" gradientTransform="translate(1184.92 553.954) scale(174.915 174.915)">
<stop stop-color="#47D2FF"/>
<stop offset="1" stop-color="#47D2FF" stop-opacity="0"/>
</radialGradient>
<radialGradient id="paint35_radial_280_23782" cx="0" cy="0" r="1" gradientUnits="userSpaceOnUse" gradientTransform="translate(1516.89 608.017) scale(52.0689)">
<stop stop-color="#47D2FF"/>
<stop offset="1" stop-color="#47D2FF" stop-opacity="0"/>
</radialGradient>
<radialGradient id="paint36_radial_280_23782" cx="0" cy="0" r="1" gradientUnits="userSpaceOnUse" gradientTransform="translate(1566.57 602.959) scale(52.0689)">
<stop stop-color="#47D2FF"/>
<stop offset="1" stop-color="#47D2FF" stop-opacity="0"/>
</radialGradient>
<radialGradient id="paint37_radial_280_23782" cx="0" cy="0" r="1" gradientUnits="userSpaceOnUse" gradientTransform="translate(1557.05 607.422) scale(52.0689 52.0688)">
<stop stop-color="#47D2FF"/>
<stop offset="1" stop-color="#47D2FF" stop-opacity="0"/>
</radialGradient>
<radialGradient id="paint38_radial_280_23782" cx="0" cy="0" r="1" gradientUnits="userSpaceOnUse" gradientTransform="translate(1580.85 604.447) scale(52.0689)">
<stop stop-color="#47D2FF"/>
<stop offset="1" stop-color="#47D2FF" stop-opacity="0"/>
</radialGradient>
<radialGradient id="paint39_radial_280_23782" cx="0" cy="0" r="1" gradientUnits="userSpaceOnUse" gradientTransform="translate(1487.43 605.339) scale(52.0688 52.0689)">
<stop stop-color="#47D2FF"/>
<stop offset="1" stop-color="#47D2FF" stop-opacity="0"/>
</radialGradient>
<radialGradient id="paint40_radial_280_23782" cx="0" cy="0" r="1" gradientUnits="userSpaceOnUse" gradientTransform="translate(1467.5 609.802) scale(52.0689)">
<stop stop-color="#47D2FF"/>
<stop offset="1" stop-color="#47D2FF" stop-opacity="0"/>
</radialGradient>
<radialGradient id="paint41_radial_280_23782" cx="0" cy="0" r="1" gradientUnits="userSpaceOnUse" gradientTransform="translate(1431.21 614.859) scale(52.0689)">
<stop stop-color="#47D2FF"/>
<stop offset="1" stop-color="#47D2FF" stop-opacity="0"/>
</radialGradient>
<radialGradient id="paint42_radial_280_23782" cx="0" cy="0" r="1" gradientUnits="userSpaceOnUse" gradientTransform="translate(1148.75 558.719) scale(52.0689 52.0688)">
<stop stop-color="#47D2FF"/>
<stop offset="1" stop-color="#47D2FF" stop-opacity="0"/>
</radialGradient>
<radialGradient id="paint43_radial_280_23782" cx="0" cy="0" r="1" gradientUnits="userSpaceOnUse" gradientTransform="translate(1175.94 544.684) scale(52.0689 52.0688)">
<stop stop-color="#47D2FF"/>
<stop offset="1" stop-color="#47D2FF" stop-opacity="0"/>
</radialGradient>
<radialGradient id="paint44_radial_280_23782" cx="0" cy="0" r="1" gradientUnits="userSpaceOnUse" gradientTransform="translate(1121.56 577.14) scale(52.0689 52.0689)">
<stop stop-color="#47D2FF"/>
<stop offset="1" stop-color="#47D2FF" stop-opacity="0"/>
</radialGradient>
<radialGradient id="paint45_radial_280_23782" cx="0" cy="0" r="1" gradientUnits="userSpaceOnUse" gradientTransform="translate(1518.05 610.473) scale(52.0689)">
<stop stop-color="#47D2FF"/>
<stop offset="1" stop-color="#47D2FF" stop-opacity="0"/>
</radialGradient>
<radialGradient id="paint46_radial_280_23782" cx="0" cy="0" r="1" gradientUnits="userSpaceOnUse" gradientTransform="translate(1743.49 549.947) scale(52.0688)">
<stop stop-color="#47D2FF"/>
<stop offset="1" stop-color="#47D2FF" stop-opacity="0"/>
</radialGradient>
<radialGradient id="paint47_radial_280_23782" cx="0" cy="0" r="1" gradientUnits="userSpaceOnUse" gradientTransform="translate(1645.24 553.456) scale(52.0689)">
<stop stop-color="#47D2FF"/>
<stop offset="1" stop-color="#47D2FF" stop-opacity="0"/>
</radialGradient>
<radialGradient id="paint48_radial_280_23782" cx="0" cy="0" r="1" gradientUnits="userSpaceOnUse" gradientTransform="translate(1489.1 523.631) scale(52.0689 52.0689)">
<stop stop-color="#47D2FF"/>
<stop offset="1" stop-color="#47D2FF" stop-opacity="0"/>
</radialGradient>
</defs>
</svg>
