<svg width="569" height="150" viewBox="0 0 569 150" fill="none" xmlns="http://www.w3.org/2000/svg">
<path d="M30.2603 3.39307H41.2417L54.6987 35.417L57.8091 43.1611L60.2529 35.417L65.2041 23.7373L56.2856 3.39307H66.6323L70.2822 13.0732L73.6782 3.39307H84.0249L75.1064 23.7373L80.1528 35.6709L83.1997 43.1611L85.5483 35.5439L99.0688 3.39307H110.05L88.1509 53H78.1851L73.7734 43.1611L70.187 33.6079L66.6006 43.1611L62.1255 53H52.1597L30.2603 3.39307ZM114.779 34.1475C114.779 31.6084 115.298 29.1857 116.334 26.8794C117.371 24.5519 118.863 22.4995 120.81 20.7222C122.756 18.9448 125.137 17.5272 127.951 16.4692C130.786 15.4113 134.002 14.8823 137.599 14.8823C141.175 14.8823 144.391 15.4219 147.248 16.501C150.125 17.5589 152.558 19.0189 154.547 20.8809C156.557 22.7428 158.091 24.9328 159.149 27.4507C160.229 29.9686 160.768 32.6663 160.768 35.5439C160.768 35.9036 160.757 36.2951 160.736 36.7183C160.736 37.1203 160.715 37.4906 160.673 37.8291H125.253C125.655 38.9505 126.3 39.9767 127.189 40.9077C128.099 41.8387 129.231 42.6427 130.585 43.3198C131.939 43.9969 133.505 44.5259 135.282 44.9067C137.06 45.2664 139.027 45.4463 141.186 45.4463C143.344 45.4463 145.491 45.2241 147.628 44.7798C149.765 44.3143 151.807 43.7324 153.754 43.0342L156.928 50.207C155.701 50.7783 154.452 51.2861 153.183 51.7305C151.934 52.1536 150.622 52.5133 149.247 52.8096C147.893 53.0846 146.465 53.2962 144.962 53.4443C143.481 53.5924 141.916 53.6665 140.265 53.6665C136.055 53.6665 132.362 53.1587 129.188 52.1431C126.015 51.1274 123.359 49.7415 121.222 47.9854C119.085 46.2292 117.477 44.1662 116.398 41.7964C115.319 39.4266 114.779 36.877 114.779 34.1475ZM150.802 30.4976C150.464 29.4608 149.935 28.498 149.215 27.6094C148.517 26.6995 147.639 25.9167 146.581 25.2607C145.523 24.5837 144.296 24.0547 142.899 23.6738C141.503 23.293 139.969 23.1025 138.297 23.1025C136.52 23.1025 134.901 23.3035 133.441 23.7056C131.981 24.1076 130.701 24.6471 129.601 25.3242C128.501 26.0013 127.58 26.7842 126.84 27.6729C126.12 28.5615 125.591 29.5031 125.253 30.4976H150.802ZM171.146 0.346191H180.541V53H171.146V0.346191ZM190.348 34.3696C190.348 31.619 190.845 29.0588 191.84 26.689C192.855 24.298 194.326 22.235 196.251 20.5C198.198 18.7438 200.568 17.3685 203.361 16.374C206.175 15.3796 209.381 14.8823 212.978 14.8823C214.543 14.8823 216.12 14.9775 217.707 15.168C219.293 15.3584 220.817 15.6335 222.277 15.9932C223.758 16.3317 225.144 16.7443 226.435 17.231C227.725 17.6965 228.847 18.2148 229.799 18.7861L225.451 25.8638C223.398 24.9116 221.452 24.2134 219.611 23.769C217.791 23.3247 215.94 23.1025 214.057 23.1025C211.898 23.1025 209.962 23.3882 208.249 23.9595C206.535 24.5096 205.075 25.2925 203.869 26.3081C202.684 27.3026 201.774 28.4875 201.139 29.8628C200.526 31.217 200.219 32.6981 200.219 34.3062C200.219 35.9142 200.547 37.4059 201.203 38.7812C201.88 40.1354 202.821 41.3097 204.027 42.3042C205.255 43.2775 206.725 44.0498 208.439 44.6211C210.174 45.1712 212.099 45.4463 214.215 45.4463C216.543 45.4463 218.733 45.1183 220.785 44.4624C222.859 43.8065 224.784 42.9284 226.562 41.8281L230.91 48.9058C229.788 49.5828 228.572 50.2176 227.26 50.8101C225.948 51.3813 224.541 51.8786 223.039 52.3018C221.557 52.7249 219.992 53.0529 218.341 53.2856C216.712 53.5396 215.019 53.6665 213.263 53.6665C209.687 53.6665 206.482 53.1799 203.646 52.2065C200.811 51.2332 198.41 49.8896 196.442 48.1758C194.474 46.4408 192.961 44.3989 191.903 42.0503C190.867 39.7017 190.348 37.1414 190.348 34.3696ZM238.781 34.2744C238.781 31.5872 239.32 29.0693 240.399 26.7207C241.5 24.3721 243.055 22.3197 245.065 20.5635C247.096 18.8073 249.54 17.4214 252.396 16.4058C255.274 15.3901 258.501 14.8823 262.077 14.8823C265.653 14.8823 268.869 15.3901 271.725 16.4058C274.603 17.4214 277.047 18.8073 279.057 20.5635C281.088 22.3197 282.643 24.3721 283.722 26.7207C284.822 29.0693 285.373 31.5872 285.373 34.2744C285.373 36.9616 284.822 39.4795 283.722 41.8281C282.643 44.1768 281.088 46.2292 279.057 47.9854C277.047 49.7415 274.603 51.1274 271.725 52.1431C268.869 53.1587 265.653 53.6665 262.077 53.6665C258.501 53.6665 255.274 53.1587 252.396 52.1431C249.54 51.1274 247.096 49.7415 245.065 47.9854C243.055 46.2292 241.5 44.1768 240.399 41.8281C239.32 39.4795 238.781 36.9616 238.781 34.2744ZM248.651 34.2744C248.651 35.7767 248.948 37.2049 249.54 38.5591C250.154 39.8921 251.032 41.077 252.174 42.1138C253.338 43.1294 254.745 43.944 256.396 44.5576C258.067 45.1501 259.961 45.4463 262.077 45.4463C264.193 45.4463 266.076 45.1501 267.726 44.5576C269.398 43.944 270.805 43.1294 271.947 42.1138C273.111 41.077 273.989 39.8921 274.582 38.5591C275.195 37.2049 275.502 35.7767 275.502 34.2744C275.502 32.7721 275.195 31.3439 274.582 29.9897C273.989 28.6356 273.111 27.4507 271.947 26.4351C270.805 25.3983 269.398 24.5837 267.726 23.9912C266.076 23.3776 264.193 23.0708 262.077 23.0708C259.961 23.0708 258.067 23.3776 256.396 23.9912C254.745 24.5837 253.338 25.3983 252.174 26.4351C251.032 27.4507 250.154 28.6356 249.54 29.9897C248.948 31.3439 248.651 32.7721 248.651 34.2744ZM295.116 15.5488H304.511V18.7227C306.859 17.2839 309.145 16.2894 311.366 15.7393C313.609 15.168 315.799 14.8823 317.936 14.8823C320.919 14.8823 323.66 15.3584 326.156 16.3105C328.653 17.2627 330.79 18.7015 332.567 20.627C333.943 19.569 335.297 18.6803 336.63 17.9609C337.963 17.2204 339.296 16.6279 340.629 16.1836C341.962 15.7181 343.316 15.3901 344.691 15.1997C346.067 14.9881 347.484 14.8823 348.944 14.8823C352.012 14.8823 354.795 15.3055 357.292 16.1519C359.788 16.9771 361.915 18.2148 363.671 19.8652C365.448 21.5156 366.813 23.5786 367.765 26.0542C368.738 28.5086 369.225 31.3545 369.225 34.5918V53H359.862V36.1152C359.862 34.0628 359.566 32.2326 358.974 30.6245C358.402 28.9953 357.588 27.6305 356.53 26.5303C355.493 25.4089 354.245 24.5625 352.785 23.9912C351.346 23.3988 349.759 23.1025 348.024 23.1025C347.072 23.1025 346.098 23.1978 345.104 23.3882C344.11 23.5575 343.136 23.8325 342.184 24.2134C341.253 24.5942 340.375 25.0809 339.55 25.6733C338.725 26.2446 338.005 26.9217 337.392 27.7046V53H328.029V36.1152C328.029 34.0628 327.733 32.2326 327.14 30.6245C326.569 28.9953 325.754 27.6305 324.696 26.5303C323.66 25.4089 322.401 24.5625 320.919 23.9912C319.459 23.3988 317.851 23.1025 316.095 23.1025C315.016 23.1025 313.926 23.2189 312.826 23.4517C311.747 23.6632 310.7 23.9701 309.684 24.3721C308.69 24.7741 307.748 25.2607 306.859 25.832C305.992 26.4033 305.209 27.0487 304.511 27.7681V53H295.116V15.5488ZM379.286 34.1475C379.286 31.6084 379.805 29.1857 380.841 26.8794C381.878 24.5519 383.37 22.4995 385.316 20.7222C387.263 18.9448 389.643 17.5272 392.458 16.4692C395.293 15.4113 398.509 14.8823 402.106 14.8823C405.682 14.8823 408.898 15.4219 411.754 16.501C414.632 17.5589 417.065 19.0189 419.054 20.8809C421.064 22.7428 422.598 24.9328 423.656 27.4507C424.735 29.9686 425.275 32.6663 425.275 35.5439C425.275 35.9036 425.264 36.2951 425.243 36.7183C425.243 37.1203 425.222 37.4906 425.18 37.8291H389.76C390.162 38.9505 390.807 39.9767 391.696 40.9077C392.606 41.8387 393.738 42.6427 395.092 43.3198C396.446 43.9969 398.012 44.5259 399.789 44.9067C401.566 45.2664 403.534 45.4463 405.692 45.4463C407.851 45.4463 409.998 45.2241 412.135 44.7798C414.272 44.3143 416.314 43.7324 418.261 43.0342L421.435 50.207C420.207 50.7783 418.959 51.2861 417.689 51.7305C416.441 52.1536 415.129 52.5133 413.754 52.8096C412.4 53.0846 410.972 53.2962 409.469 53.4443C407.988 53.5924 406.422 53.6665 404.772 53.6665C400.561 53.6665 396.869 53.1587 393.695 52.1431C390.521 51.1274 387.866 49.7415 385.729 47.9854C383.592 46.2292 381.984 44.1662 380.905 41.7964C379.826 39.4266 379.286 36.877 379.286 34.1475ZM415.309 30.4976C414.971 29.4608 414.442 28.498 413.722 27.6094C413.024 26.6995 412.146 25.9167 411.088 25.2607C410.03 24.5837 408.803 24.0547 407.406 23.6738C406.01 23.293 404.476 23.1025 402.804 23.1025C401.027 23.1025 399.408 23.3035 397.948 23.7056C396.488 24.1076 395.208 24.6471 394.108 25.3242C393.008 26.0013 392.087 26.7842 391.347 27.6729C390.627 28.5615 390.098 29.5031 389.76 30.4976H415.309ZM462.631 22.5947H453.585V15.5488H462.631V3.90088H472.025V15.5488H481.071V22.5947H472.025V53H462.631V22.5947ZM487.165 34.2744C487.165 31.5872 487.704 29.0693 488.783 26.7207C489.883 24.3721 491.439 22.3197 493.449 20.5635C495.48 18.8073 497.924 17.4214 500.78 16.4058C503.658 15.3901 506.885 14.8823 510.46 14.8823C514.036 14.8823 517.252 15.3901 520.109 16.4058C522.986 17.4214 525.43 18.8073 527.44 20.5635C529.472 22.3197 531.027 24.3721 532.106 26.7207C533.206 29.0693 533.756 31.5872 533.756 34.2744C533.756 36.9616 533.206 39.4795 532.106 41.8281C531.027 44.1768 529.472 46.2292 527.44 47.9854C525.43 49.7415 522.986 51.1274 520.109 52.1431C517.252 53.1587 514.036 53.6665 510.46 53.6665C506.885 53.6665 503.658 53.1587 500.78 52.1431C497.924 51.1274 495.48 49.7415 493.449 47.9854C491.439 46.2292 489.883 44.1768 488.783 41.8281C487.704 39.4795 487.165 36.9616 487.165 34.2744ZM497.035 34.2744C497.035 35.7767 497.331 37.2049 497.924 38.5591C498.537 39.8921 499.416 41.077 500.558 42.1138C501.722 43.1294 503.129 43.944 504.779 44.5576C506.451 45.1501 508.345 45.4463 510.46 45.4463C512.576 45.4463 514.459 45.1501 516.11 44.5576C517.781 43.944 519.188 43.1294 520.331 42.1138C521.495 41.077 522.373 39.8921 522.965 38.5591C523.579 37.2049 523.886 35.7767 523.886 34.2744C523.886 32.7721 523.579 31.3439 522.965 29.9897C522.373 28.6356 521.495 27.4507 520.331 26.4351C519.188 25.3983 517.781 24.5837 516.11 23.9912C514.459 23.3776 512.576 23.0708 510.46 23.0708C508.345 23.0708 506.451 23.3776 504.779 23.9912C503.129 24.5837 501.722 25.3983 500.558 26.4351C499.416 27.4507 498.537 28.6356 497.924 29.9897C497.331 31.3439 497.035 32.7721 497.035 34.2744ZM0.838867 84.3931H10.8999V97.3423H41.7495V84.3931H51.8423V134H41.7495V105.943H10.8999V134H0.838867V84.3931ZM62.9824 122.193C62.9824 120.395 63.3739 118.755 64.1567 117.274C64.9396 115.793 66.1139 114.523 67.6797 113.465C69.2454 112.386 71.1921 111.561 73.5195 110.99C75.8682 110.397 78.5977 110.101 81.708 110.101C84.0143 110.101 86.437 110.27 88.9761 110.609C91.5363 110.947 94.1706 111.466 96.8789 112.164C96.7731 110.979 96.4134 109.889 95.7998 108.895C95.1862 107.879 94.3293 107.012 93.229 106.292C92.1499 105.552 90.8381 104.981 89.2935 104.579C87.77 104.177 86.035 103.976 84.0884 103.976C83.0304 103.976 81.8667 104.039 80.5972 104.166C79.3276 104.293 78.0158 104.483 76.6616 104.737C75.3075 104.991 73.9639 105.309 72.6309 105.689C71.319 106.07 70.0918 106.525 68.9492 107.054L66.0928 99.3418C67.5104 98.834 69.0233 98.3685 70.6313 97.9453C72.2606 97.5221 73.9215 97.1624 75.6143 96.8662C77.307 96.5488 78.9997 96.3055 80.6924 96.1362C82.3851 95.967 84.0249 95.8823 85.6118 95.8823C92.6154 95.8823 97.8205 97.6702 101.227 101.246C104.634 104.822 106.337 110.302 106.337 117.687V134H96.9424V130.477C95.9691 131.048 94.9006 131.588 93.7368 132.096C92.5942 132.604 91.3459 133.048 89.9917 133.429C88.6375 133.81 87.1776 134.106 85.6118 134.317C84.0672 134.55 82.4274 134.667 80.6924 134.667C77.7725 134.667 75.2017 134.349 72.98 133.714C70.7795 133.08 68.9386 132.201 67.4575 131.08C65.9764 129.959 64.855 128.647 64.0933 127.145C63.3527 125.621 62.9824 123.971 62.9824 122.193ZM72.8848 121.876C72.8848 122.49 73.0435 123.082 73.3608 123.653C73.6782 124.203 74.186 124.701 74.8843 125.145C75.5825 125.568 76.4712 125.917 77.5503 126.192C78.6506 126.446 79.973 126.573 81.5176 126.573C83.168 126.573 84.7655 126.425 86.3101 126.129C87.8547 125.833 89.2935 125.441 90.6265 124.955C91.9595 124.468 93.1655 123.907 94.2446 123.272C95.3237 122.638 96.223 121.982 96.9424 121.305V119.654C95.5036 119.252 94.0754 118.914 92.6577 118.639C91.2612 118.364 89.9176 118.152 88.627 118.004C87.3574 117.835 86.1514 117.718 85.0088 117.655C83.8874 117.591 82.9035 117.56 82.0571 117.56C80.3009 117.56 78.841 117.676 77.6772 117.909C76.5135 118.141 75.5719 118.459 74.8525 118.861C74.1331 119.242 73.6253 119.697 73.3291 120.226C73.0329 120.755 72.8848 121.305 72.8848 121.876ZM116.525 115.37C116.525 112.619 117.022 110.059 118.017 107.689C119.032 105.298 120.503 103.235 122.428 101.5C124.375 99.7438 126.745 98.3685 129.538 97.374C132.352 96.3796 135.557 95.8823 139.154 95.8823C140.72 95.8823 142.296 95.9775 143.883 96.168C145.47 96.3584 146.994 96.6335 148.454 96.9932C149.935 97.3317 151.321 97.7443 152.611 98.231C153.902 98.6965 155.023 99.2148 155.976 99.7861L151.627 106.864C149.575 105.912 147.628 105.213 145.788 104.769C143.968 104.325 142.117 104.103 140.233 104.103C138.075 104.103 136.139 104.388 134.425 104.959C132.711 105.51 131.251 106.292 130.045 107.308C128.861 108.303 127.951 109.487 127.316 110.863C126.702 112.217 126.396 113.698 126.396 115.306C126.396 116.914 126.723 118.406 127.379 119.781C128.056 121.135 128.998 122.31 130.204 123.304C131.431 124.278 132.902 125.05 134.616 125.621C136.351 126.171 138.276 126.446 140.392 126.446C142.72 126.446 144.91 126.118 146.962 125.462C149.035 124.806 150.961 123.928 152.738 122.828L157.086 129.906C155.965 130.583 154.748 131.218 153.437 131.81C152.125 132.381 150.718 132.879 149.215 133.302C147.734 133.725 146.168 134.053 144.518 134.286C142.889 134.54 141.196 134.667 139.44 134.667C135.864 134.667 132.659 134.18 129.823 133.207C126.988 132.233 124.586 130.89 122.619 129.176C120.651 127.441 119.138 125.399 118.08 123.05C117.043 120.702 116.525 118.141 116.525 115.37ZM167.243 81.3462H176.637V112.45L194.157 96.5488H208.534L188.952 114.068L209.772 134H195.68L181.747 120.511L176.637 125.082V134H167.243V81.3462ZM214.184 115.147C214.184 112.608 214.702 110.186 215.739 107.879C216.776 105.552 218.267 103.5 220.214 101.722C222.16 99.9448 224.541 98.5272 227.355 97.4692C230.19 96.4113 233.406 95.8823 237.003 95.8823C240.579 95.8823 243.795 96.4219 246.652 97.501C249.529 98.5589 251.963 100.019 253.952 101.881C255.962 103.743 257.496 105.933 258.554 108.451C259.633 110.969 260.172 113.666 260.172 116.544C260.172 116.904 260.162 117.295 260.141 117.718C260.141 118.12 260.119 118.491 260.077 118.829H224.657C225.059 119.951 225.705 120.977 226.593 121.908C227.503 122.839 228.635 123.643 229.989 124.32C231.343 124.997 232.909 125.526 234.687 125.907C236.464 126.266 238.432 126.446 240.59 126.446C242.748 126.446 244.896 126.224 247.033 125.78C249.17 125.314 251.212 124.732 253.158 124.034L256.332 131.207C255.105 131.778 253.856 132.286 252.587 132.73C251.339 133.154 250.027 133.513 248.651 133.81C247.297 134.085 245.869 134.296 244.367 134.444C242.886 134.592 241.32 134.667 239.669 134.667C235.459 134.667 231.767 134.159 228.593 133.143C225.419 132.127 222.764 130.742 220.626 128.985C218.489 127.229 216.881 125.166 215.802 122.796C214.723 120.427 214.184 117.877 214.184 115.147ZM250.207 111.498C249.868 110.461 249.339 109.498 248.62 108.609C247.921 107.7 247.043 106.917 245.985 106.261C244.927 105.584 243.7 105.055 242.304 104.674C240.907 104.293 239.373 104.103 237.702 104.103C235.924 104.103 234.306 104.304 232.846 104.706C231.386 105.108 230.106 105.647 229.005 106.324C227.905 107.001 226.985 107.784 226.244 108.673C225.525 109.562 224.996 110.503 224.657 111.498H250.207ZM270.297 96.5488H279.691V101.944C281.765 100.4 283.955 99.0667 286.261 97.9453C288.568 96.8239 290.863 95.967 293.148 95.3745L295.91 103.976C292.292 104.335 289.107 105.15 286.356 106.419C283.627 107.668 281.405 109.435 279.691 111.72V134H270.297V96.5488Z" fill="url(#paint0_linear_13_5)"/>
<path d="M306.415 119.242C308.214 120.257 310.033 121.178 311.874 122.003C313.736 122.807 315.661 123.495 317.65 124.066C319.639 124.616 321.723 125.039 323.903 125.335C326.103 125.632 328.441 125.78 330.917 125.78C333.9 125.78 336.439 125.589 338.534 125.208C340.629 124.806 342.332 124.267 343.644 123.59C344.977 122.892 345.94 122.066 346.532 121.114C347.146 120.162 347.453 119.125 347.453 118.004C347.453 116.205 346.701 114.788 345.199 113.751C343.697 112.693 341.38 112.164 338.249 112.164C336.873 112.164 335.424 112.259 333.9 112.45C332.377 112.619 330.832 112.809 329.267 113.021C327.722 113.233 326.188 113.434 324.665 113.624C323.162 113.793 321.745 113.878 320.412 113.878C318.19 113.878 316.053 113.592 314 113.021C311.969 112.45 310.16 111.593 308.573 110.45C307.007 109.308 305.759 107.879 304.828 106.166C303.897 104.452 303.432 102.452 303.432 100.167C303.432 98.8128 303.611 97.4692 303.971 96.1362C304.352 94.8032 304.944 93.5337 305.749 92.3276C306.574 91.1004 307.632 89.9684 308.922 88.9316C310.213 87.8737 311.768 86.9639 313.588 86.2021C315.429 85.4404 317.545 84.848 319.936 84.4248C322.348 83.9805 325.088 83.7583 328.156 83.7583C330.377 83.7583 332.61 83.8853 334.853 84.1392C337.095 84.3719 339.275 84.7104 341.391 85.1548C343.528 85.5991 345.58 86.1387 347.548 86.7734C349.516 87.387 351.346 88.0747 353.039 88.8364L348.627 96.9614C347.23 96.3478 345.728 95.7871 344.12 95.2793C342.512 94.7503 340.83 94.2954 339.074 93.9146C337.318 93.5337 335.498 93.2375 333.615 93.0259C331.753 92.7931 329.848 92.6768 327.902 92.6768C325.13 92.6768 322.845 92.8778 321.046 93.2798C319.269 93.6818 317.851 94.2002 316.793 94.835C315.736 95.4486 314.995 96.1468 314.572 96.9297C314.17 97.6914 313.969 98.4531 313.969 99.2148C313.969 100.696 314.635 101.913 315.968 102.865C317.301 103.796 319.333 104.261 322.062 104.261C323.162 104.261 324.421 104.187 325.839 104.039C327.278 103.87 328.78 103.69 330.346 103.5C331.933 103.309 333.541 103.14 335.17 102.992C336.82 102.822 338.418 102.738 339.962 102.738C342.882 102.738 345.464 103.066 347.707 103.722C349.971 104.378 351.864 105.319 353.388 106.546C354.911 107.752 356.064 109.223 356.847 110.958C357.63 112.672 358.021 114.597 358.021 116.734C358.021 119.591 357.355 122.14 356.022 124.383C354.71 126.605 352.827 128.488 350.373 130.033C347.939 131.556 344.998 132.72 341.549 133.524C338.1 134.307 334.26 134.698 330.028 134.698C327.235 134.698 324.506 134.518 321.84 134.159C319.174 133.82 316.614 133.333 314.159 132.699C311.726 132.043 309.398 131.271 307.177 130.382C304.976 129.472 302.934 128.478 301.051 127.398L306.415 119.242ZM377.064 149.298H367.67V96.5488H377.064V100.072C377.89 99.5005 378.863 98.9609 379.984 98.4531C381.106 97.9453 382.312 97.501 383.603 97.1201C384.893 96.7393 386.226 96.443 387.602 96.2314C388.977 95.9987 390.352 95.8823 391.728 95.8823C394.901 95.8823 397.811 96.3478 400.456 97.2788C403.122 98.2098 405.407 99.5216 407.311 101.214C409.215 102.907 410.696 104.938 411.754 107.308C412.833 109.657 413.373 112.259 413.373 115.116C413.373 118.099 412.812 120.797 411.691 123.209C410.569 125.6 409.014 127.652 407.025 129.366C405.058 131.059 402.709 132.371 399.979 133.302C397.271 134.212 394.33 134.667 391.156 134.667C389.802 134.667 388.458 134.582 387.125 134.413C385.814 134.243 384.544 134.011 383.317 133.714C382.111 133.418 380.968 133.069 379.889 132.667C378.831 132.244 377.89 131.789 377.064 131.302V149.298ZM377.064 122.225C378.017 122.987 379.022 123.632 380.08 124.161C381.138 124.69 382.217 125.124 383.317 125.462C384.417 125.801 385.528 126.055 386.649 126.224C387.771 126.372 388.861 126.446 389.918 126.446C392.077 126.446 393.992 126.161 395.663 125.589C397.356 124.997 398.773 124.193 399.916 123.177C401.08 122.162 401.968 120.966 402.582 119.591C403.196 118.215 403.502 116.724 403.502 115.116C403.502 113.613 403.196 112.196 402.582 110.863C401.99 109.53 401.122 108.366 399.979 107.372C398.858 106.356 397.493 105.562 395.885 104.991C394.298 104.399 392.51 104.103 390.521 104.103C389.252 104.103 387.982 104.229 386.713 104.483C385.443 104.716 384.216 105.055 383.031 105.499C381.868 105.943 380.767 106.483 379.73 107.118C378.715 107.752 377.826 108.461 377.064 109.244V122.225ZM420.482 122.193C420.482 120.395 420.874 118.755 421.657 117.274C422.44 115.793 423.614 114.523 425.18 113.465C426.745 112.386 428.692 111.561 431.02 110.99C433.368 110.397 436.098 110.101 439.208 110.101C441.514 110.101 443.937 110.27 446.476 110.609C449.036 110.947 451.671 111.466 454.379 112.164C454.273 110.979 453.913 109.889 453.3 108.895C452.686 107.879 451.829 107.012 450.729 106.292C449.65 105.552 448.338 104.981 446.793 104.579C445.27 104.177 443.535 103.976 441.588 103.976C440.53 103.976 439.367 104.039 438.097 104.166C436.828 104.293 435.516 104.483 434.162 104.737C432.807 104.991 431.464 105.309 430.131 105.689C428.819 106.07 427.592 106.525 426.449 107.054L423.593 99.3418C425.01 98.834 426.523 98.3685 428.131 97.9453C429.761 97.5221 431.422 97.1624 433.114 96.8662C434.807 96.5488 436.5 96.3055 438.192 96.1362C439.885 95.967 441.525 95.8823 443.112 95.8823C450.115 95.8823 455.32 97.6702 458.727 101.246C462.134 104.822 463.837 110.302 463.837 117.687V134H454.442V130.477C453.469 131.048 452.401 131.588 451.237 132.096C450.094 132.604 448.846 133.048 447.492 133.429C446.138 133.81 444.678 134.106 443.112 134.317C441.567 134.55 439.927 134.667 438.192 134.667C435.272 134.667 432.702 134.349 430.48 133.714C428.279 133.08 426.439 132.201 424.958 131.08C423.476 129.959 422.355 128.647 421.593 127.145C420.853 125.621 420.482 123.971 420.482 122.193ZM430.385 121.876C430.385 122.49 430.543 123.082 430.861 123.653C431.178 124.203 431.686 124.701 432.384 125.145C433.083 125.568 433.971 125.917 435.05 126.192C436.151 126.446 437.473 126.573 439.018 126.573C440.668 126.573 442.265 126.425 443.81 126.129C445.355 125.833 446.793 125.441 448.126 124.955C449.459 124.468 450.666 123.907 451.745 123.272C452.824 122.638 453.723 121.982 454.442 121.305V119.654C453.004 119.252 451.575 118.914 450.158 118.639C448.761 118.364 447.418 118.152 446.127 118.004C444.857 117.835 443.651 117.718 442.509 117.655C441.387 117.591 440.403 117.56 439.557 117.56C437.801 117.56 436.341 117.676 435.177 117.909C434.014 118.141 433.072 118.459 432.353 118.861C431.633 119.242 431.125 119.697 430.829 120.226C430.533 120.755 430.385 121.305 430.385 121.876ZM474.025 115.37C474.025 112.619 474.522 110.059 475.517 107.689C476.532 105.298 478.003 103.235 479.928 101.5C481.875 99.7438 484.245 98.3685 487.038 97.374C489.852 96.3796 493.057 95.8823 496.654 95.8823C498.22 95.8823 499.796 95.9775 501.383 96.168C502.97 96.3584 504.494 96.6335 505.954 96.9932C507.435 97.3317 508.821 97.7443 510.111 98.231C511.402 98.6965 512.523 99.2148 513.476 99.7861L509.127 106.864C507.075 105.912 505.128 105.213 503.288 104.769C501.468 104.325 499.617 104.103 497.733 104.103C495.575 104.103 493.639 104.388 491.925 104.959C490.211 105.51 488.751 106.292 487.545 107.308C486.361 108.303 485.451 109.487 484.816 110.863C484.202 112.217 483.896 113.698 483.896 115.306C483.896 116.914 484.223 118.406 484.879 119.781C485.556 121.135 486.498 122.31 487.704 123.304C488.931 124.278 490.402 125.05 492.116 125.621C493.851 126.171 495.776 126.446 497.892 126.446C500.22 126.446 502.41 126.118 504.462 125.462C506.535 124.806 508.461 123.928 510.238 122.828L514.586 129.906C513.465 130.583 512.248 131.218 510.937 131.81C509.625 132.381 508.218 132.879 506.715 133.302C505.234 133.725 503.668 134.053 502.018 134.286C500.389 134.54 498.696 134.667 496.94 134.667C493.364 134.667 490.159 134.18 487.323 133.207C484.488 132.233 482.086 130.89 480.119 129.176C478.151 127.441 476.638 125.399 475.58 123.05C474.543 120.702 474.025 118.141 474.025 115.37ZM522.934 115.147C522.934 112.608 523.452 110.186 524.489 107.879C525.526 105.552 527.017 103.5 528.964 101.722C530.91 99.9448 533.291 98.5272 536.105 97.4692C538.94 96.4113 542.156 95.8823 545.753 95.8823C549.329 95.8823 552.545 96.4219 555.402 97.501C558.279 98.5589 560.713 100.019 562.702 101.881C564.712 103.743 566.246 105.933 567.304 108.451C568.383 110.969 568.922 113.666 568.922 116.544C568.922 116.904 568.912 117.295 568.891 117.718C568.891 118.12 568.869 118.491 568.827 118.829H533.407C533.809 119.951 534.455 120.977 535.343 121.908C536.253 122.839 537.385 123.643 538.739 124.32C540.093 124.997 541.659 125.526 543.437 125.907C545.214 126.266 547.182 126.446 549.34 126.446C551.498 126.446 553.646 126.224 555.783 125.78C557.92 125.314 559.962 124.732 561.908 124.034L565.082 131.207C563.855 131.778 562.606 132.286 561.337 132.73C560.089 133.154 558.777 133.513 557.401 133.81C556.047 134.085 554.619 134.296 553.117 134.444C551.636 134.592 550.07 134.667 548.419 134.667C544.209 134.667 540.517 134.159 537.343 133.143C534.169 132.127 531.514 130.742 529.376 128.985C527.239 127.229 525.631 125.166 524.552 122.796C523.473 120.427 522.934 117.877 522.934 115.147ZM558.957 111.498C558.618 110.461 558.089 109.498 557.37 108.609C556.671 107.7 555.793 106.917 554.735 106.261C553.677 105.584 552.45 105.055 551.054 104.674C549.657 104.293 548.123 104.103 546.452 104.103C544.674 104.103 543.056 104.304 541.596 104.706C540.136 105.108 538.856 105.647 537.755 106.324C536.655 107.001 535.735 107.784 534.994 108.673C534.275 109.562 533.746 110.503 533.407 111.498H558.957Z" fill="url(#paint1_linear_13_5)"/>
<defs>
<linearGradient id="paint0_linear_13_5" x1="123" y1="9.46771" x2="620.979" y2="25.8359" gradientUnits="userSpaceOnUse">
<stop stop-color="white"/>
<stop offset="1" stop-color="white" stop-opacity="0"/>
</linearGradient>
<linearGradient id="paint1_linear_13_5" x1="295" y1="92.2097" x2="547.695" y2="152.276" gradientUnits="userSpaceOnUse">
<stop stop-color="#6BFFFF"/>
<stop offset="1" stop-color="#2265B3"/>
</linearGradient>
</defs>
</svg>
